<mxfile host="app.diagrams.net" modified="2024-03-26T09:40:17.338Z" agent="Mozilla/5.0 (Windows NT 10.0; Win64; x64) AppleWebKit/537.36 (KHTML, like Gecko) Chrome/123.0.0.0 Safari/537.36" etag="BuTwGLd8PCstQbX4a4uG" version="24.1.0" type="device">
  <diagram name="‫עמוד-1‬" id="zXAbV1b73VJSnYHkNTQc">
    <mxGraphModel dx="830" dy="442" grid="1" gridSize="10" guides="1" tooltips="1" connect="1" arrows="1" fold="1" page="1" pageScale="1" pageWidth="827" pageHeight="1169" math="0" shadow="0">
      <root>
        <mxCell id="0" />
        <mxCell id="1" parent="0" />
        <mxCell id="tWdphAtSzyCikmZwfdY_-1" value="" style="shape=image;verticalLabelPosition=bottom;labelBackgroundColor=default;verticalAlign=top;aspect=fixed;imageAspect=0;image=data:image/png,iVBORw0KGgoAAAANSUhEUgAAAvUAAAIbCAYAAABrDGF/AAAgAElEQVR4Aey955cdNbb37/ty7lpz/4l587x57ovnAgbnnNu529gGjG1skkN32+1EHjBgMMwYxjiBAZODycmBNGAGPMwMwwAGJxw7J7vb7QBz9ft963hX6+hIVZJKdfqcbp21aqmqTu1Sadfe0qdUW6pe7OLv3//+N7tw4UK4/O///i/9FZt6Wa8rlZF42/C24W0jowHvC94XvC94XwBneb5SeQJjvp5MVk/2gmphYDzQQ6m6Py/rdaWyFW8b3ja8bWQ04H3B+4L3Be8L4CzPVypP8CzqwjZ6iU9FJif1svoNldeV15WqKvO24W3D20ZGA94XvC94X/C+YPrw4+uNznqjF99Dj94k3Z+oRC+r1pzXlbcrlXV42/C24W0jowHvC94XvC94XwCTep5UeUJ8eFII9ahQdX/+VbLXlcpWvG142/C2kdGA9wXvC94XvC+Y9jr7esPXG0nqjQDqTYBe7E3xsir15z5ReV15XZEGvB/pV9xeV15X5Ddi6m3D24ZoE7TtbcPbBtmCmHZn2+iFp0Ldn6gIL6vWnNeVtyuVdXjb8LbhbSOjAe8L3he8L3hf8CE3Ki8wt41g9pvo02X+9a+E9J96va68rlQ+5W3D24a3Dd+m+JAMlRd42/C24W2D14ApM2hBvdibgm3dn5f1ulLZircNbxveNjIa8L7gfcH7gvcFU6D39YavN8R6IxbqRaPBU4Puz8t6XalsxduGtw1vGxkNeF/wvuB9wfuCD0FReYG3DRPbiIR6025//pZ4Wf0nSK8rryved/h1bxveNnh74Ne9bXjb4O2BX/e24W2Dtwd+3dtG97YNJdSLvUfY1v15Wa8rla142/C24W0jowHvC94XvC94X/AhNyov8LZhYxtSqBcbGzzZ6f68rNeVyla8bXjb8LaR0YD3Be8L3he8L5iEVUBbvt7w9UZcvZED9f7VjH7vkdeV15XKwbxteNvwtpHRgPcF7wveF7wvmPY6+3rDrt7IgnrxKRDbuj8v63WlshVvG942vG1kNOB9wfuC9wXvC6aA6+sNX2/o1hsh1ItGg6ck3Z+X9bpS2Yq3DW8b3jYyGvC+4H3B+4L3BR9yo/ICbxsubCOAev+aQ/8p0OvK60pVJXnb8LbhbSOjAe8L3he8L3hfMH0j4euN5PVGL7H3CNu6Py/rdaWyFW8b3ja8bWQ04H3B+4L3Be8LpoDr6w1fb9jUG71gaLTgKUn3Jxqcl1VrzuvK25XKOorZNs6dO8cOHjzE9v71a/bXr/+mt/z1a/bVV3vDpdBl//GPb1hTc3NYR6KuTLuua2xsyuiyyHQV2IDmNVdXV+e4RFf5wvnz59k33/yzaGzSRM9Sv9S8R4Uo+89/fhv4oo0PPv/Ci+z5F15iL774MnvxpVe0F8gUg+xbb78b+FRX+ZHPtzA4J4R63BDdHxyKHgSQelm15ryuvF2prKPYbaOtrY3d+fvV7H8u69Ntl4FDRrBduz4K67t81HVonLuzTlG2DRu3ZLlFV/pCbW0dGz9parfXeXewqall0wNfzDKeiA3errpD+aPKcNnl/YIOB89mEQbB/cXbRnfi2ADqTRoqHGtrNF5WH3C9rryuuPona7VQbONMRwe76+57uzUM8VAPvev+ktyjt956p1vrVIT6JLpyIVtTW+uhvkgezKdOm8F++eUXLTcUbSMKiLvDf4B6z2ZappEz3z9sRfcn2lWhyfbC04ruTyyMl1VrzuvK25XKOrqLbZw9e7ZnQP3uj1IPuSFbgW288ebbPQbqC8EXfE998bxpm1qmB/Uyu+oO4B5VBh7qPZtRjZqbymwj9yj5nmKQDae0lBehc293fVXRWcLsNV9e/SdXr6ueqaueAvUffvRJduUQseXCF954860eAfUudEU9k2hsdX9ivvX1DWzCpNJur/MoICyW/3SgXry/ZBvFUkbb6ySop/Lq+INKV142VwPFoistqBefTkyMxsvqNzZeV15XuVVJZk8h2kZPgfqPPtaDelf3qCdA/WMbNhdMqEBDY6OH+mIJv4npqY/yQVtYLhY5QD3Kr/uL0lXcObxs4eo5FurFm4enFd2fl/W6UtmKt43itw0P9Z3W7dKe3+wBMfXrN2wKob6r2xQP9d0j/CbOB4sFzm2vE1Cv+4vTVdR5vGxht92RUF8srxt4A/TXrP8E6XXldcX7Dr+uYxse6jMa09EVr1t+XSbbE2a/IagHIOj+ZLpyIeuhvvihXsc2bGG5WOR0oV5HVyq/8rJdX1+p7g3tV0K9+DRmUvl6Wf0b73XldUXOKKaFbhse6lkqsyj0FKgvlDbFQ31xQ71uPVkscG57nTpQr6srsS3CtpctDlaRQr148/B0pvvzsl5XKlvxttG9bKOnQ31a9twToH7Dxs2qaiJnf1p6pow81Bcv1JvYhi0sF4tcHNSb6Ip8g1IvWzxtdw7U+9cr+k9jXldeV1TpiWlPsI2eDPVp3t+eAfXZH58S/Ye209Qz5eGhvjih3tQ2igXOba8zCupNdUW+gdTLFhfnZEG9+DSGbd2fl/W6UtmKt43uaRs9FerTtmcP9ZmaJG09U33lob74oN7GNmxhuVjkVFBvoyvyDS9bfG13CPXizcPTme7Py3pdqWzF20b3tY2eCPX5sGcP9bnxu2m2Rx7qiwjqp81gFy6cD2dOwncKdG2jWODc9jplUJ+P+krW9vt8u67dD6Dev17RfxrzuvK6klVi2NfTbKOjo4Pd+fvV3fqjPQOHjGA0T32+7m9Ph/p86Zn82EN98UD9lLLpDJ0JNh8ds4XlYpEToT7ffkT+5PPtWkbqJT5RYVv352W9rlS24m2j+9tGW1ubNdQPHTmWlV09J1ymXTOXxS3B8VfNZqXTr+lcZlzDymbMCpbSGdewSdNmskllucv4KVey3n0GGD+AENTn055tof6KfoPY2PGTWcnEqXlb+g8aZqxTQNKGjfKY+nzqmeouW6i/pHdfBjsumVzGSiZdXCaXsfGTp2kvSWXHTy5jE6deySaVTmeTy2ZoL5PKpgcykBs/xeyaUT7I0cLnO6lsBhs/RV1+Ku/g4aOt7AZQj84EQD1sRfeHY23hfHTJpLze35FjJ1pdKw/1XeFHuBc+XzObpIdTG3tWyfbi/8ATlu5PvHleVq05rytvVyrrKGbbOJ0A6heuuI3d/scN7I51m9idj2zWWm5ft5Hd9vBjbNX9f2Cr7v8ju2XNOnbrA4+Ey4p7H2ZzF1ex2Qsqc5b55ctY/8HDjRtLQP3uDz8OewZRX6Zd19lC/bDR49mSO+9jK+97mK249yG2YvVatvzigm3s11lMZMdNnW6sUxXUd5UvNDQ0sPGTphqX4/J+g9gDj2xgf/7bt+Hy+Tffsz3//EFr+ewf34VyOIeN7Of/+Bf79uBh9tPxE+zAyWqt5adjJ9gPR44Fy7eHDrMvvtW7XpQL1/z1vv2B7L4jx3Ly/e7IUfaFovx8ee+470F26eX9jHVOPfU2PmgD9bjGV97ZEd4nm3tE9qEr+9RL2431grIR1HeVH/l8C4NzQqjHDdH9waH4hwEvq9ac15W3K5V1FLttJOmpr7z9Hnbnn7awu9Y/obXg2Dse2cxu/+NGdsuDj7Bb1/6J3fbQ+qxl5f1/ZLMXLmHX3FSetVx942KWBOp37foorO/yUdfZQv3wMRPYstUPBbqBjmiR6UrUHW3jWJJT6ZmORTq+bKYVgIg99V3pC7W1dVZQjzcj65/Yxr47cjJYfjhey348Wa+14FiSQ2oru/9kHWs6d561/vKr1tJ8/gJr6DgbLsdbTmldL8qFa/z+WDWrOd0eyDdL8j3aKD+fWN41jzxmBfVTy6YHvqiqU8X9vF3ZQv3Oz7/K6/199f1dVj4FqOfLC0bLR30Fnft8C4dzAqg3ufE41hbovaz+jfe68roSGyjaLhTbONPRwe66+16rBghQbwr0BPUqSJVBPYD+6hsXOYF66F33l+QevfXWO1Y6BdRX3bPWCMp5QDcFeldQn0RXLmRramsTQ70tlCcBesieaDmtBfOAfkA4D/SNZ8+xI42tWlBPUL6/up7Vt3cE5xIfJJrOX2A/VTfknI9k6SEG2w8+utEO6qfNYL/88ouWG4q2YQ31e/ZaP3TZ3N+X3/nAyv8B9Z7NtEyjW4cJ9cITlu5PdBIvq9ac15W3K5V1dBfbSDL7zZI77tWCeuqhB9AHy7rNWb3zPJSKUE9Anxjqd3+UesgN2Qps440337Zq1IcB6u9+IIR61cMPrzNatwF6F1BfCL6QqKd+67a8Ah+BMdJ9J+pYy/kLWlAvAj167JvOXWD7axpzIFx828BD+ZHGZgZZEeixfbK1PedcvCwPuNZQX6YH9TK7soX63X/5Oqdcoo5oW1Ve+j8qJVkXUO/ZjGrU3FRmG7lHyfcUg2w4paW8CJ17/esV/V46ryuvq07PyV7rTraRNtSLQI/tOx/ZogX1PNAHUF9hH1P/4UefZN/EiC0X9/eNN99KDPX5AHpAfUnpDKtrRfiNC11RzyQaW92fmG99fQObMKnUuBwIv9nw1LN5BT6CegDg0aZTUrgWgVsMuaGwmZrTZ2KvnUAzAPJjNay2/Yw0z5YLv7CD9U1Z5+NleaAH2KYJ9eL9JduwhfoPv/xbVrlUYB5VXpUM7edlk0I9lVfHH1S68rK5GigWXWlBvfh0YmI0Xla/sfG68rrKrUoyewrRNtKEehnQI1znzkfjoV4EemzPr1jO+g8eYQxuNPuN6r7w+13do2RQ/6B0vAH1yIupbQ89zgNZW6h/bMPmggkVsJ39JgP1z+UV+Hg4rj9zVgrYPNTn9NBzcfCH6pojr50HTeR7oLaRAd7589M6rmV/TWfojSiLbQJYpGlBfZQPpgn1ceXlyy6ui7KvvrfTuJ5C2RB+g/Lr/qJ0FXcOL1u4eo6FevHm4WlF9+dlva5UtuJto/htIy2oVwG9DtRfu6AyiKFH73xmWRwMmp1fuSJVqHdpz29axtQH4Tf3rFW+yXAN9BhIawv16zdsCqG+q9uUtKFehDYRcEXI47dVsgByVRgMgXYO0HNhMw0d57Igm88T67J8q0+1S4Ee+Z1obQvPJ5MVz58G1Mf5YFpQr1Nesfy0LZPd/sFua6hXtbfi/jhdicfz2162sNvuSKgvltcNvMGprhnTlt148yI2tmSSX7wOvA1wNjB67AR2Rd+BQU8PentMFszVbdNYXt5vMOs/ZIT5MngE6zdIsQwcxtB7mr0MZlf0yyy213ppbzOdkP4GDx1pZWdDho2y0ikGymL2GxHeZdtJe+hphhxbqB84eISVbtKov2H/l13R31jnOj31MmgjoItLo2SPt5xmLREz3qhCbgj4jzXLZ6nBNcnyxQDYlvPyXnrkdbgh0+svk5WV0xbq8a0JWxuwqacwpWVU+I1ueWU6UMnaQj3KZ6sbL+eeC597/sWw4yKfMxEpoV58GsO27q8QZTEYamqZXfynTWXgZYrnK4X+Xvl71R1sAFC/XAPqXQF9kp767qDvOKhXQZsM8MR9UbL7qxtYbXuHstc8p4eeC7kB1GOWmgO12fHvlL8q36j4ffT6/1Qtfxig84qpLdTn226ioF6lK7Gssu0o2SRQn2/9+PzUbeeGTVtCqM8nP0uhXoTyrn49qvMwEXfNHurVxucd0+vG20Dx24AO1LsE+kxMvd089d3B3qKgPgraZJDH74uTPVjbpAy9yQF6LuSGeunxQKA79SRdV33HOeVDxPHm09LefZKVpcUO9XH3SFZm2hcn66G++Oti1G8E9fnm5xyoV4Wv6IB1Ict6qO8ejtIdYMCXwdtiGjYQB/WugR5hPbYfn0qj/Pk+pwrq46CN4E6W6siq5qaPC7kB1GOgqyz0JirfQ/Xq+H2c78cT9cYf0ipmqI/Sleye8vt0ZD3Ud4/2AVBv0kPvip+zoF7s7Ta5oEKX9VDfPRwl3w23z8/bTbHYQBTUpwH0HuoxpWX27Dc60MZDHr+uK9t0NvcLsjk99ELIDfXSI/TmYF126E1cvkH8/gX5F2tPnmo3BnqUuVihPk5X/P0U13VlPdR3jzZn4+bHdfrCg2Nc8nMI9eJJ8/3KgOYbTitfD/Xdw1GKBbD8dXp7y7cNqKA+LaD3UJ8N9brQJsIetnVlDze05ITB5AC9JOSGoL7uzNlwlhqdfBG/X9cunzqz6dx5hi/MYrpLfqpNWfnEfcUI9br3SCyrjp55GQ/13aPt2LT5CS2od83eAdS76vbP5whf02v2UN89HCXfoOTz83ZTLDYwatx4dvua1Wz1urUXlwfZPX98gN39hzXhgu3V6x7kjlnL7lm3lt3x8KM5s+boPAz48JtMT70p8OH4fx05yb49cpL98/Bx9o+DR9k/DhwJ0m8OHw/2439xQa85ATpSnZAb/vijjZ2z3vDXjPxl+eKYmrYzrO5MR+fS3sFq2trZ0cZm9v3RamOgxznXrHuMYRBqofsWDZTldWX6AGMq66G+e7Q5OlBvyrH8U4JKtpf4lIBt3V8xyXqo7x6OUuiNgL8+b2ddZQOzrx7I9r7z/9gPH/53sPxr13+zb3d2Lt/tzuyn/yn9+47e7JGNt2ZBvQ7Q+576TE+9KbShV/bTb35gj7/2Ltuy/W22+ZU3wwXb2C9bnnj9XfbeF3tDqM/poVeE3BDU4wGABsiK1/z02zukeT75xvvs2Xd3Zi3PvLODPf3m+2zr6++yPf/6MXjLwPc0R61TvmvWrS8aqN/1xV/DtxFpAz1056G+e7QhcVCfFj/3orAXpCB/3Z94QYUu66G+ezhKVwGTz9fbT6HbwML5vVnr3t8w9l0v9uu3vdiFb/4jXP79ba9gP/4Tl/a//5Y9vrUihHpdoPdQP4it3/qMFfC995evWdRH1vChNdny+GvvBFCfA/QRITcE9fh4FKCRwJoPm3lw6/PS/MRrEK/5479/lxXOowP0yLeYoH7n51+F9xi6iyoj/59Mz/z/qnUP9d2jrYmC+jT5OYR6ZKL7U3X768h3lWxNTS2b4uepL/jXnYUOTv76ukeF2x3vI0E9AJ4HegC+CPL8Ng/1JkDvoX4QW//ENivge3fPX9kdj2wOF8CyCNCybUC9acgNoB6z1GAWGxVo6kC9CPTY/vSb77UgV8x3zSPFE35DUJ8PoAfov/r+Lt9OX1b87YwK6tNm4ADqTYBefMIoFtkTJ056qO8GjtIdYcyXqfgr8EK4h4D65i9/YwT0gHuCelOg91DfCfWmwPf2Z18ZAz0gf8urb7OGjrPhgh576omPSuuDAbJ14QOIGEYSB/UyoMf1IIxI1eNM+0Wgx3YxDZTduWevVYgR/yaEdBGXQjcvv/OBh/puwCoyqM8HP/cq9LAZ9P6LirC55uMnTnio7waOUgjw5K/BQ3gh2sCC+b1Z4xf/GUJ9VMiN2FO/5Ylyhi/E0gLAB7THLT19oOz6rdusgI+gXreHHgCNYxF/T1CPHvsokOf/O9Zyin13cVCrCPQAzSioVwG9DtTLgD7I79GNRRNTv/svX8c+uBCsq8pL/0elJOuhvnu0LyLUu+BYCpePYuBwSsu40Jm0Xxmo8neVL3rqp/rwG98D4B9svA10UxtYMK8T6uNCbnioP/31b9nmLYuNgR7AX1I6o8faU+bjU89aAR+g3hToEa6z+ZU3AqjX7aEH2DeePccO1ERPPamC+iigj4N6glRZj3Ux9dR/+OXftO5xVHmjYB7/8bIe6rsf1LviWJ0ZJrWgXnzCwLbur1Bkq6trPNR3U5gpxF5Tf03do2IupvtIUG8C9Di2Ze9/hVCv20MPoMexHuqzPz6lgjce2gC57+zZqxVDTz30FH+PnnoToMexNafbYqeelEF9HNBHQb1YXmzzuuluUB9XXr7s4roo++p7O3vsg3Ix1bdx10o99flm4FioFy8oqttfBP1Ckk0y+83Me69hNzx1Y+xy/ZM3sOu3csuTN8TK0Hm9rNcV2YKYpm0bczfMY32GDzZuSHr3HchuW70mmIINMzbwCxom9DjRgsFf/P+y9fc++Yx9/Jev2Edf/IXt/nwP2/3ZniD96Isv2SdffhW7vPvxp8wk39d3fsg+3POX4Lxivrs+28Ne37GbPf/GO2z6rLnGukGFX7Jgspb/i/d36oppVvkB6hFTz/fCR60D6DGglqDeFOgRqmML9SU3TuqsK7u4nrS1/0xPfTzUi9CGbcx+AyiOW0SwRkw9H1YTtQ6gR6jOzw1NQSw98hWBkrZFqBfzxbbsWmUx9bLyUj6U2kJ9v5FD2PVPytti0Y+wzdelcRCm+n/azGvZNXOuVy5Xz57PrhKWqOP5/2Syk6fNtPL/S3r3zSovX3ZxPU5X4vH8dk+Snbd5Phs6bbTV/QDUdwUDR0J9Pl8Z8A8EaeSbBOpv3HYTu+WLWyKXVZ+vYiv/vDJcsB0nQ/97Wa8rsgUxzYdtLN1RxfqPGWpccamgRqdRp8adTzGYz2ZmDwKb/TUNyoGAfD60fqiuibVe+DUzReD5C2GsMkAIH9fB+f6+/2d2/cIKY90AEKbdPjO2DpDd32v/aPcQQbPfRIE8/cfPkAOo3/J4eWz8PMXXA/4p9t4W6stumRHUlYVQT7q2f7IvpCpf0IF6GVjTlJZk86qU/Ki+4yzbd7wmNu6fh3pZvjKgxz4R6lXl5XWCdVuoH1gynK36LLe9kPmRWJeqoL277MeHssQyy7Z1dCWTw76eJlu1axkbPWe8Vf2/cdPjjGLgdcJmXDGwEurFJwxs6/4KUTZNqO9phu7Lm9uoFHMl6BJqdBt1sZE/UNuUBdUAa5MwAzwQUOyubCCgmB+2T7Rmvs5JPZrhAMRz59nJ1jb208n6VKFe5UdpQz310NO0l6e+zp6nnuBdlvJAn6SnHlCP8qv8Rtyv0pV4nGw7Ttal/fN2FuULcVCvAmsdqOftGTaO6+CvS7ZOUK/KVwfqo8or5ukS6uPuL9lEd4F3VTl0oF5XV6QzPu2JslU7q6yhfsOmLSHU55OfpVAvQnmxhtzwDyFpQX1PNHT/RiL6rQ1VhMViG66gxqRRFxv5w/XNrP5MRwj2JjN7AGKONrSEUK8DMci/8ez54MGBYD54kDh/IZjT+2hTawBCafXUR9lGmlAvAj167GlKSxnE8/tEoMd2SaldqEDZrTMKAujhq67sn7fpOF+IgvoosI6Deh7oYc+H65pjgR7XDaiPyjcO6uPKy+smyM9y9huxpz7Kj6geplQFw91lfxzUm+iKdEZpT5Wt2pEc6vPNzzlQn0boCw/XqvW0800D6nuqoRPUo/zk9HGp11Xh6soF1Jg26nwjD9kjjS2dQK859zZCDyjM4KfqzBzcOBd/btX6gdrGUJagHkCEczadv8AO1jWlBvVxvpAW1PMhN+ilB+AjHEcH6mVAD+C3ndJy2m16UB+nq6h6R1fWhf3zdqbjCyqojwPrKKgnXyB7bjhzlh2oadTyhweeeC6cNx+DcnEdKpDn9+PjUzrl5fWDdRc99br3l2yku8C7qhxRUG+qK9IZ0p4smxTqTXroXTFwFtSLPfQmF1Tosq6hvicbOqAe5ecdP2rd66qwdZUUamwadWrkIfvDsZogFCboKTcB+osDAWtOt2vFDVOeSPmHCDHf+o5z7Mfq+lSgXscX0oB6sYeegF4H6lVAnzbU6+hKVe+YyCa1f96udH1BBvVxQA+YVkG92EOP7erTZ9hP1Q2xUI9rXrPlmRDqdYEe1/Px3/8VviHTDXuDvpJCvcn9JRtRwXB32a+Cehtdkc56umwQUz/XMqZ+8+OqPuyc/S75OYR68aT5fmVAAwrSytcl1Pd0Q0f5yenjUq+rwtfVkveXsv6j7QbKrt/6jFWjjoadAAgD+erazwQ956qBf+J+HmKOt5xi+07UxcILwRfyrW5t63wzIHzE53jr6fBcLsNvdH3BNdSLQC9+lCqqpz4K6NOEel1dyeofU1lXUE/2TGM7sE02J6Yi1OsAvQrqeV8IHlDDELJTyvzpeuiaCepNgB7Hfvj1P0P/jyov5UepPdQPCyejMH1j3F3gXVUOGdSb+gLvT152FVv24XI22hLqaUrLHIIXdrhm7wDqXXX753OEr+k1u4J6b+iFD6n+Hpndo8r3lrB+tlD/xDarRp1gAgB0sKbBaFCsGGZA8e8EDFEp8t13vJbVtp0JoB5AJD4wHKzNhN7gPK6g3sQmbaF++vSh7O0XxrIP3+hcdr82lu3cPobt2D6G7dw+lu16rfM/Ou797ZPY2sfuzpn9Jg7o04J6E13xEIJ1G9mKt5ewfqOGGM9wwc/+xNuzTo/1lz8cYNs/3MO2f/g5e2XXZ+zlnZ+yl3d+EqTYfv3jPWzHl3/LWf7y/Y9Z9ir6Atlz07kLDIPP43yBHkDe+HgPe+uzL3Pyo2t4689fXrze7Gv+at+BwP9NgB7Hrln3mNUXZQeUDGMrPl4Rgj3ut2gDqm0VDHeX/SLU2/gC6c7LZuwqbag35Vj+eUAl20t8SsC27q+YZF1AvTd0/QrU66p4dFX5bnKoN23UCSaQVp9qzwIVEbL5bbFXEl/LPNzQEgkvBDYEXniIwKBcAiD+/Bg8S8e7gnpTX7CF+uFjJrDlqx8K4VwHygHmskVX1nVMvamuCEKQ2soueq2c9R1h/p0GgnqyK7LpJL5Assdb2mJ9QvQF3p5r2zuy7Ji3aayL14x9DWdzH3DhG3hwoDEmMlm6ZjEP2Tblu2bdejuoHzeMLf9wudV0qN0F3lXl4KHe1heS+FF3lE0T6tPi514U9oIU5K/7Ey+o0GWTQr13kuKBVNPXst2xMkKZohbengH19uE327SmzKMGnhp1AiCEzTSf/yUWYAK4uBhDTwMBARtN586z/RqDAfl8jza2KEN9TrS2Z8FQ0p56Xs+6Y1FcQL0ulCcBetc99Ta6IhtPIrtouz3Uuwg/I18gOEYcPB4u+YdNcT0H6IUQssMN6llveF9A3tj+ua3MFPoAACAASURBVKFFmR8eECg2XyZLvh2X8rKJoP6j5VZjulQw3F32E9Qn8QUvm805aUF9mvwcQj0y0f2puv115LtKtqamlk0pm2H8ihUOf8PTN4av+3QbZheNjXewbAcjncpSryt7XQUx9dYfn3o2C4KjGna+UQ9horFVCRM8yKjCDOJ6JHE9fL4YlFtz+owyz0MCDH394yE2/+Zyq3qj7LbMB5ZMHzKTQP2y1Q+xfAG9S6jvSv9d+Mpi65769Q7Cz8gXyHcA2FEPuipfIH/Bgy6dS0x5X+DzrWvvkPpEy4VfGMasiH7Ey4p5yLbFfNc8Yhl+My4TfiNrA2T7eLvqLvCuKgegni+vZxX9ji2VrtKA+rQZOIB6E6AXnzCKRfbEiZP2UP9kJ9TDaWSVh2yfdzCvK5ldYF8h2YargYKyxpz2iY06tvFfTZsasAlScnoluTj4uHh6Md/91fUM8cZ0bj5F7yimuuSvee8PB9g8B1BvUm/M+sMcq4cIhN9U3bM2/NorPg4FwJf1xsv22TwMuAi/6WpfWPhycqgneybbiUpFmxRlT7SqQ2+ifIFs+XhL50Bv/jpU+WLaS8A7yfMpTe+qkuXPr1qXydoOlB0wbhhb+elKrTZYtCsVDHeX/YB66kBQQWoxtEeqaxT3i/fXpI7VlXUN9fng516FHjaD3n9RETbXfPzEicRQn4bRiIaKbV2D87JeVy5sMm2olzXqAID9CcMMACL7a9RT9sny/TnizQAeMMQwg73f77eH+lszPfWm92jWw3ZQPwxQf/cDIdSnDfQueuoLoa5L1FO/NVn4GWyUh2HYc33HWSlg5wC9EHIDGG++8EtW/DudW+YL9N/xiIeIujNns950Je2hp/JaQ32JHtTL7Kq7wLuqHDzUm9Y5/mFA3qvvEupdcCyFy0cxcDilZVzoTNqvDFT5u8oXPfVTbcNvnrzRKoaPHMU7mNxh/ANMYcz3nybUR8EEBrgmCTMAcBCYiKkq39p2xZuBC7+y482ZHk5eFj318xdYht/cOsOq3nAB9fkAekB9SaldSCM+PiUDL1lHhWyfS9mFr9r31G94Kln4mWi3h+qapL3mcSE31Lte1342eFjmz8vbswjlcfH7P9d3fqlZlOXzkK1H5Zsm1KtsQwXD3WU/Qb3nDXe84QrqXXGszgyTWlAvPmFgW/enkv3mn9+yJ59+JnZ54smn2RNPPhUsW598OvZ4/py87LpH17NhI8ZYvdaesHgKm3731drLlXddxWiZ/vurtOWQB8kh9bLROhd1NfvR69iKT1bEvppVVfoyeBD3Rcmu+mwVK3+jgl2/9UaGEIqr7ruGXXnnTDbtjpmZe/n7q9i022cEy4zVV7NZD88OjoXMys+iXylH5Steo7gdJ5sW1Ec16oCAY82nWcuFX/V6JbmQGwIYyJvABABG9RCB/Yfrm3N6JRFTf/3CCqt6o+x2va+m4n7x9wg2YwMamZ76B1MPuaHQHTw42EL9hMVTCyZUIOnsNzIbFPfF+QIdL5sJKqeHXuIL5BOYNYfOhTQu36j4/YaOc+z7ozWJp6yVPQykBfW8H4khKDY+9T+9+7BJM69l0+ZcH7mUzb6elc2eHy5xx/P/i7K2IW2XDxxo1YmQt87HPbcwfMzppucWsLnr57Gr1sxi0++62CbeMSNoI7Fvzvp57KZnbmZL31+aU56o+yu2e+K2jWwSqL/3/gcCTFYxsA5D28jGQr140qhuf/Eio2Q3P741mNIKT5f5Wqyc+rI+7JLefdkll/ul0HUwfMYYVrWzKhLqbRybKgeZ7Ko9q9ji18pZ2W3T2ZApI1nfkYPZ5YMHssv69WeXXtGXoVGA3ZHugu3efYL/LuvXLzi278ghbMjUkQwDKyverMy5flm+dE1xqY5sGlAfBxMAbFU8fQ7ESMIMEHrDT7NHIBOVb9QMH43nzrN9J+tCgCEQSTr7Tdz9wf/iPZpYWWoP9fesTTWGngd6xOzbQv2oWSUh1KP8OnqS6cqFbNpQH2WTZLdI4RMtgq3r+AIBPXrz8WBK59TJ98Qpefw+8sUsUfAD8gU6b1yqk28aUC/6kWgbNu0/2v4lq9eyO//0uHK545HN7PZ1m8Lljkc3K48VzyOTXXDr7638v9+IwV3qRyofxhSk6HAbM3cC6z92GOszdBDrPWAAu7RPv6BdDNvI3n2Dfb0H9GdXDBkUzMg24qqx7Kr7Z7GqHVU59aR4f1X5J6k3kkB9+ZJlTkLHdUJuePaOhPo0Xxnga1s2TuZlMpDo9ZCrh2FXjg6cX+XccZW+Sk5WKVTtqmLXb72Bjbq2JKiIXN0PNCI45/zHb2DLdi3LS0XmGup1GnUMzpNN26cbZlDfcS5nKsu4fKsjZr1BDykBDA8xaUO9zCYnLbGDegyUxew3BN5Rqc2gWDofL2sP9eMCqM9HwyzzXz7fNKE+ziZ5QD7adCrrrZWuLxDUo2cdDwY4p06+mAoWfkTylCJffMfhx5O1qQA9rs811Mv8SKzPbepo1MdL732I4Wu+skX3S8Amsgtvu9uKjfqNHKIF9Tq6EnVH27qyeGO++PVyNnXFleyKIQOtysPfLzwAjLthIrsRPfg7qtjKz6PfbNP1ItW9Zl6G1vFmYfSc8VbXv7iyihGQ64TN8GCehL2VUC/2smNb96cj66E+F0p5I/br5vqJgvokjs3L4muGc/50HRs1u4Rd2reflbPr3Fv09I+6dlyQ17Ldy1IFIJdQrwMTaNQP1TfnxA7n9EpGhBkA0AlgdCAGx8oeIgAyyPdATX0I9SgDzoklTajn7YoPFZi0pMzKrsSPTxGEiykP5UlnyEkC9Sg/NZ5xqUpXcXL4P042LajX9QXY2U/V9az+TOcAWRNfIBg/1mw29WSUD55sPc0w/SvvC+QTqtSkvC6hPu7+ko3o1LviMVFQnwbQA/7ThHpdXZHO+FRLds8tAXhPWDSFXTE4OcyL9wNt7ui549l1G+drzYKkdc2Kb7pAFm/+raG+YmkI9a75WcXiyEcK9SKUuwq54S/EQ705tIoG7rezdaiC+qSOTTGHFW9VsrHzJ7DeAwdYQZfN/cJrypKbJgW9E3wFG7VuWl5XUG/SqOMjTwQjBNb0USmk6C3k/+fXEXpDAAPA0MkXYQmycwbwdKaDfX+0WtormRbUR92jNKHeJdDjXCWldvH/o2aNKwighx+lAfU6NsnD8aG6TvvMAfoIXyC/gE/8VNOg5QuUb/VptQ8eacyML6Fj41LT8rqC+ig/EutIm/pXBfVpAX2aUG+iK1F3OrLLP1qR6ZkfOigIWbbRt67M5QMHsDHXTWD4xop4rbStc810rJiSLMJ+bKF+0UWoT4OfeZamdeL2HKhP0u1vIuuhPhtIdY3ZH6fWmwzqyTkJzLEtOrBqm2RXfLqSLXh+IRtaNjpvMC/e54Hjh7OFLy0Keh1V14v9dM0m5XUB9aaNOt9rbhpmgOPRywjQ0M0Xc3eLg3IpX3xchw+54QEmDaiPu0dpQb1roMcbANtBfaOvLdHywzhdufAF11Cva5O8nWXs85fgwTPr4TbibRUBPVKMTzHJNxO/3zk3PfkC8saHqA7WdX6vgb9O2bpJviTvAupNbUOsU3W2ZVCfJtCnBfWmuuL9KlZ2zy3BuDLEv1N8vI5uXRyDkKPrn7iBYZIKo2tW9M6LbWgSqF9csTSIqSfojktN+Fk8Fy+bBfVE+hQHhG3dn6msh3o1nLow9p54DhHqYysjDcdGbOC16+YGA2C7WqeowDAzgFiBUWVmW96kUG/aqB+obQp74XN6JTUgpvEsYof1gR4AIw7K5fMFwKAMBBx86hrqde5RGlCfBtCnDfU6uiLbF1MTWZdQb+oLsDV8rwFfRuZtMnhbpeELAPrMoPHGMHxM9YDK2zUfvy/mW9eO0LZM+BkvI1u3KS/OkxTqTe4v2YZN/S1CfdpAnwbU2+iKdBYni//nPDaPDRw/rMs6vPoMG8Rm3HM1W3kR7OOumcomS0XZIKZ+rl1MfXnlMl18zhlQm4S9Q6gXoRzkr/uzkfVQ76HeppKNkuGhXnRObMucWLaPZFd8uoLNemh2KrGBUeWI+g+zAly36fqcstA1m/TQU9nxCrP/6KHGlfIV/Qax9VufMYIJNOjHW08HUC/CBHoL+d5H1frJU+1GvZIYENhw9nx4bj7f+vaOnHm9eXhxCfW698gW6qeWjmTPPnkV2/7i1Z3LC1ezV5+/ir38XOeC7e0vdB7z0nNz2JpH75cOsI17GEirp15XV2TDfGoq6wrqbQH3YC0GjZ9jWT30mr4AH0HP+r7jZlNP0gBZ3heCB4nzF8LvNfB+IFu3LS/OZQ3144YxjGuieg4p7jd//1XrUfWq6j8e6vMB9K6h3tQXeN3FyeL/a/8wx8lAWJX+dfdf1rcfm7y0jC23tA2UW1beRLPfaEK9DT8Tm8tkA6jnu+7zNUrXQ72Hel2H1T2OoF7mnHxlFbXOy97w5I0MvQC6+efrOAyivWHbzQzTaaoqo6gy8v+hvJXvLWH9bKH+iW0h1KORlzX+4j4MCORf95v0SgJiDtWZ9Urigz6tF+fDF/OtaWuP/CqtK6jn7SoORGyhfuH83qx1728Y+65XuPz7217swjf/ES6/ftv5Hx3X/vffsse3VuRAfRzQp9VTb6Ir3pZtfcEF1CcB3GNNrdlAr9lDD1+APWPqye+P6k89idA1yIm+AMBHr//+6vjQmyTlheyadY8FU1mb1pkDxg1jmCKRoB62ItqAats0LxwfQP3qh1i+gN4l1KfqR3tuYfMev4FdPsj9YFib+wQZzJAz7dbpoX2Y2IZKV2lDfRrs3UskfWzr/pLIbtz8eMHBkq0xebnCeEAB1C/5YGlY4cfBk1j584694KWFrP8Y897rfNkC5vu9+YWF0t4FsVyqbSpv5bvJoV4X6BF6w/dImgI9ejRpUKtOmAEeKE6o3gycO89Otraxny7OdCM+fGDbBdSTnnVBxBXUA+DjgB5gL4N6HaBPA+pNdcXbtq1sUqhPCri1be2hTwCsVW+oxP04FlNPHqhpUI4Jkdk04vebzp0P8+R9sKYNU1lGh94kLS/8ds269YmhHvebv/9R6zjWpm4G1C+550GG+eRpAeADvnUWm4cBF7Pf2PoCdKgjO/+JGwqywwuTWOADVqa2QXWzyAxpQn0Sfo6S7UXx80jTDrmhhwVc0IZNW6yczMYxvUxhQHfa9yGA+veWhFBv69hLP1jKhk3vukGxOnq6pHcfNua68Zk5e/+8MiizbXkB9fbhN9uU8egyOMAsNAARAnv0FoqwotoGxBxvbjV+M4BBuZClPAOIOX8h6JU82tQaCTFJoV6ngRRhxAXUi0CPHnvqmRdTEep1gd411NvoinSXRHbR9nLWd8Rg4/bINvyM/AJwvL+6PrRLU1+AHddigKzB1JPB+JLTnQ8R5Avkc4cbWiL9wQXQJ4b6j5ZbQZtOvSoeE0D93Q/kDehd9NQn8QUd2cXby9mAkq6LoRfvkbiNj1fduO0mrQe+uPKmBfUilLtk7xDqkYnuz8UrAw/1PQO0RYdLc3vYtNFsyUWoh7NSgx+X8o6NOPrpv7+KXXpFenPQO9NB7z7smodmJwJ69EwEMfUWbyUANRueejYSAghgkAIIjjS2dEKMSa/k+QuBnGmv5IHaRmmYASCm6fwF6Vdp+Wv++sdDbP7N5cbAh3uMLwSreoCibNL241MUfqMTcsODPQ/1JkDvEup5HxR7y6J0hf+Syi58ZbE91FuEn5EvfHe0mmHmpQCsLXwBcngohV/xNhu1vr+mgWEcCWTFfPHxKow/Ucm7AvoA6h+xD79BTH2cTdD/vG3Y1Ls81KfdQ089/9ZflB05JLEvxNVXiFkff/PkvM9yY3rvBo4bxirfWRJpJ7xtqOqcNKDeBT9TZ7yM2wOol/2hAnzxCcNW1kO9h3pTR407nqAezkqVelwqOnb5GxVdOpI/rozi/32GD2YVb1VYlxflTzr7jQoC+P0AAvQoIhRGhAnqJVSl1MuOWTl+PFFrBDH8Q4SYLwYL/hgxyweuee8PB9g8B1BvYpMTK+2+KAuob/7yN1ohNzKoNwV6V1Av+qCJrlzILnw5OdSbgDXB8Y/Ha1ld25ngLZLK9sX95AsE5VEQzvsf1pHvzw3NUqBHPhiArpr1hq4ZQI7Fpry8bJKBsis/1fuaqGgbYt2ps01Qny+gRz4LbrnLqhOh38jBVp0IaCNFXal8cO6G+Qw94Tq668pjLrmiLytddWWgDxkD6JbXNdS74ueosa+9XHb7qx4EsF8szMZNPqa+K42+O+YNqEfojMyJZftkjl1263SG0JZi0s/ERVO0yiwrL/SSNtQTEGCGDoC5TZgBIAZfufzxZJ2yJ1EGMdWtbZ0QI4T6YBYeUYa26Zr3fr/fHupvzfTUqxpIlU1OrJxqZX8L5vdmjV/8Zwj1USE3ItRveaKc4euytADwAe1xS9LZb1Q2KdONuM+VbKKe+q1m4WdkVwBcDPhGbLsI7qptEegx6w3Za1xK+VL8vuiDzRd+YT83ykNvSJaH8rj86H+VrDXUlwyz/pKoTZ0eQP3qtVrx8+hpt4mhpx56knUB9aZ1TlwPPXwP0zvbTKhgo3cXMpjkYvFr5Tlto0m94RLqRQZOi73DKS2jgBz/uX5lYDv7Td+BQ9m4SaVs/ORpMUsZK5mcvYyfXBYjQ+fMlsN5ulp2Uul0NrksesEx/ELHY9/4KVQ2WZpb3olTr1TmN7H0Sk6PubJJdTVs1DgrqKHZb8TGX7Ytc+xlO5c5+1ps//592ZiR/dnkkoHs6rJBbOqEgcEyY8ogNrlkQPAfjnHxAIF4YFnlxZdbVl76H+E3NpV1JvzmuUiw4Bv1gzUNZr2SF0NuqFfyePOpyLwIJJAi333Ha4OYY7GHnqDpYG2T9Hz8NaOnfv4Cu/CbqSuutIr9nVhhCfXzOqFeNssND/L8+umvf8s2b1lsDPQA/pLSGVa+OmpWiXbvINkpn0bZM3+cbF2UXfiqfU+9afgZgTEGe5881aYP9IIvAPCPavoD2fOBi/H7kCUfoBTjThCaw/sQ+RFdM1KcSzxGtU35kjwvmybUi/cX27ADG1AE1N+08g629N6HYpclq9eyJXc/0Lnc8yBbujpeDufmZeeUV1ldK/XUU3llti/uU+lKPO6WPbcEYak2OuRlLrmsD+vbry8bNaI/m1QykM2cOohNHZ9pG68qHcSmjB/Ixo4awAYM6MdwLC9rsz5x8VSGa6fyaJf34jdsXEG9a36O4nUtqBefMLCt+1PJ2kI9Gti/7jvIvj9WE7n868hJ9s9DxzLL4WMM23Ey9H+hyf54oo41dpxjTWfVS8OZDlbb1sZqT2cWbNPxwWCq47XK8ovl/e7oSQaAInkx/bmhJTyXKOtCz5u2vWDlzLpQr3LsK++6yipfvrIZNKgfu3XhcPb2YyVs/ztT2OkvprHzf72Sndt7Jev4ahpr/8s01vhpKdv35mT25vpx7LZFw4MKjD+H6Tqm8pp57zXhFJdUgVGqKi/9jwcC24GCG55SQ73YqFefyv4sPQGFLBV7JWGDRxqjB7USXFC+eIjAoFwVxNDxfEqyBCKIqb9+YYWVXYyePT5sTEjXqpS/R0mh3gTocWzL3v8KoV63hx5Aj2PtoX5c6qECMl3zeqY42qSz3/D2o1oX7QphLo0SuNbxBdhz07kLDDNJqfKj/Xy+iN+X+QLyROgNyVDKy7oEepw/LaiX3V+yA9N6lY4H2Od7obxNUkA9yk/ljUujdCXKIj4d04maXI94bJ++fdmS+UPZK38cx/71+mRW/0kZa/vLtKBdRPuIdhLt46H3prAPNo9nq5eOYCOHJwv1ubRvP4aBvSiPSXmp/C6gXsXAOgxtIxsL9eJJXb0ysIV6NLCYkYIqHlmaZmUky4/2pZXv8dboHh0RgMRXq5jCjK5RTGXXjDhN9NxIGxgMLrzYmMhkxfOrtqNkNz/7olXloQP1KsfGq8XBU0Za5UuVV8no/uzTpyew1s8zII9KihYCelRaWM5+lTkGx371/CQ2bvSARHmPmTchmJ+XKiNKVeWl/5GmATXi/d13oo41n+/8LL3MtmifzJ4BMQfrzCAG83eLvkB5nGjVg5gks9+M0oR68R4lgXrE1PO98FHrNEMOQb0p0CNUxwXUo/y8PUati7pyIZuG/fP1nugL2MYAV7LFqFTmCzgeX6DFTDZ8PuI6ny/GomAgrCovqtPpHLysa6BHHmlAfZxtUD3dXVNAfZTv8P/F6Yo/FuvX/nEuw/dRbHU3ZEg/9tHWCaz+k9Kg/RPbQWon+bTti2nsry9OYqUTk82FP7Gi1AroUe6kUJ8WP0c9EERCfZqvDNKC+rQrI6r0xDStfFFxqwAbFTSghcITZGEGUR8TUV3zzw3qBqe2LdOYqGRFvci242TTgvqoiuzm5xawPkPtPjSFEJppkwayYztLQ4jnKycAPFViSAH4/P9Y//n9qWzWtMHW4Th9Rw5hFW9XZlXqUeXlK23XUCO7vz83qm2KBw2VPQeDWg3mz8ag3JrTZ5QQc6ihOQuIZNcM200b6mX3KOnsN1EgT//xM+QA6rc8Xh4bP0/x9YB/ir1PCvUoP2+LUesyXUUdz/8XJeva/vk6T2VX9WfUgE3+oPIF1OnHYkJvxHwxYBxydG4+xbXoXDN/jGpdzBfbsmNdQ33U/SU7sAXSYpHrN3KIli/p6Ip0hhQdXuMXTLYCerSNgHK8mdZpB8V2Edvo0Z87Ywi71HKsW79RQ1jl25Xhm0GUny9f1HrVrmVs9JzxVmVfXFnFaJaaqIGtMkBPwt5KqBefMLCt+9ORTQPqdSsUWSVTqLKYN1jVw5nTiyN5nYseHdPy1rWflVb+mcbkdBBXSeEJafTipAH1cRXZrIfnMHxq2qYCL5s4kH33+uQcUEeFJPbQy4Aex53765Xsby9PYuNG2fXY4/XwDU91zs0bV16+InMJNSo/qmlTAzYBRpQ9n2hpk9ox2baYL+b/Ru8+nZtP8ZCMqS5VsjgX/Zcm1KvukYt56gneZSn10NOHqU59Lf+iLEE8n/JAn7Sn3qRxVemKt2PVepysS/snu0Eq2iTZFd448fYoW4/yhbipWMV88ZYsyv+OcN9qEGXpmvlyqdZNZF1Cfdz9JbuwqduLSUYH6nV1RTpDuuS9pWzg+OFWbeOwof3ZJ09NYGe+jO/YkgE9taEIZZ01za7TDR+kmrthXgD1KD9ftqh1HFu1s8oe6iuWhlDvmp9VLI58pFAvQrmrkBv+QlxDvUmFIlZKhSx7QjGYKqfSF2b2oIYCve4m5T1Q08haLvwqbXTQmGAwVZpAj2t1DfVxFRn+x6BGmwq8T7++7PmHxrKzF2MC+YpJBHoKueGP4dcRV/j8WrtBwrj2aXfMCCqsuPKKFZkrqFH50f6Yt02w1Th7FsMDeJuW5Rv1ZgCAQ6ELMln+3GlBfdQ9ShPqRaBHjz0/Tz0P8OK6CPTYLimdaeU3o2aNM2pcdWbnEO0a21F6puNd2T9vN1F2VR3xBknHF+rOnM2p0ylvWb54gFU94GL2HXrAlcnSeeNSU1lXUK9zf+k+29TvxSQTB/UmuiKdIb3puQUMU0Ta6GLdbaOCuHn+TXVcO8i3idSGIhTnzT+V2I0/w9uCW6ezlZ/pTYWKMpOuqnbYQ/2ii1CfBj/zLE3rxO05UJ+k299E1iXUm1YofAVVyLKIbUfYAQE6parXsvQ/pUGPpPAxkbjyYh5xkhdTwBA+mEJQj3Pxuoxaj8uXl3UJ9eScBAXY5issrONjJiU32b1exGj92o/LcnrpbV814uEA57SpQMfOnxBWRlHlFcvvAmqi7m/U2ybYWJw9Azx4++DXVfnWtiveDFz4lR1vzowxUcny508D6uNsMi2o50Nu0EsPwEdPvg7Uy4Ae0J90SkvRFsXtOF2Jx/PburIu7J+3mSi7Qp2uAmwdX8AxRxrls0Cp8o2K36cHXJUsXy7Vuo2sC6jXvb9kEzZ1ajHJREG9qa5IZ0hn3HO1VXs0dEg/1vxZWWzoKQ/x/LrYhrZ8VsauseytH3fDRIYPZ/HlUq3zukoC9YsrlgZTuRN0x6Um/Cyei5fNgnoifYoDwrbuz1TWFdTbVChUORW67KH65pw4yJweTUnIDcF49Wl8TKRzMFVceaPi95HvwdrOXnqci/QYl8blK8q7gnreOWmmC5kjL9u1jI28xq6H/P5lI3OAnnoXqHdCFXLDV2C0jmO3rB5jVYkOnjQijBuMKq+og6RQE3d/jzWfVr790bFnTP0n2gi2VfnCjpUha+d/YYfrm5WyYj6uoV7HJm2h/rpr+7N/7fg/7Mhnv8tZDn/6O3bg48xy8OPfsUOfdh6z76P/y9ZvXqWMqVcBfdpQr6Mr0ZZp20Q2qf3zNqOySToGMzipYtt1fAFvS/k6nc4bla9qgCyug75ISx01aYRT0jXyaVKoN7m/ZBPFBOg216qCehtdkc4gO/b6CVbt0d2VI6yBXtWGPnW/Xds4FN+w2VEVC/WiroKY+rl2MfXllct08TnnO05J2DuEehHKQf66PxtZF1AfVZHxFYhsvRhkAeUE6EEvzrnz2YNiFSE3OBYVNj8FoE55MVWlDIbQ2OCjQZhbOR+VvguoF50T21RRiemy3cvZqGtLrCquWxYOz4J6sTKyedX48KpRVtcytHRUCPVR5RXLv2i7/ZSW67c+E765kdkGAEQVz5sDMQp7BoSLPhxlz7Bj3m/4dUwjuO9kXeQ183m5hHpdm7SF+tElJeyuB+9i9z96f9Zy3yP3sXvXrb643MuwzR9z36Nr2J0PPyKF+iigTxPqdXUl2jK2TWVdQX2UTcKmMI2lalpXXV8wnXryUET8Pt4Y4JryDfTQhTXUjxsWvFmlN5EmnRc2oFxMMjKoN/UF3p9IFm+AbfQwd8bgEOpt2kHqFONlf18xscIstAAAIABJREFUwupahpaNioV6Ki/ZFraTzn6jw9A2/EznlckGUM933edrlG5SqI+rQPmGWVwvBlnAUAs3BWBciAIPLlgPYiUvht7olveEZOpMyhfTA8qgTdQtv62bLy+D9aRQL3NOvrIS11d8spJNWDTFqrLAhzIOvz81AHvxdaFJDz3J1n5UykZYzs1bcuNkq8FAib6o+cS2EApwv8V7iTEastmbyK5o5iZAjWjD2G48i/m4Owe14vxxdhUVswyoMoEYV1BvYpO2UD98zAS2fPVDWXAeB+Vi3Dy/rSObRviNia5EX7aRdQH1cTYJu4UvNEimCtb1BXTU4O0t72Nx+Ub6wmkzXzDJlz9WXMc1r1n3GLv0cvOJCTBX+vIPl1t1XtiAaTHJiFBv4wvkT7xs6arpVm0jdIfvtWCQLL2JjkupHSSgpzYUE0l8/dIkNmKY3bSao+eODwCdyiemfHn5B8W0oT4N9u4lkj62dX9JZDduftzKUDBPPT4IY9Iw85VKXCXIHyuu51P2aNOpEHJyenEUAMRDEabzw/XrXrMsfp/yxQd8fjpZF5xL1IlqWzdfmfymZ+w/PrXkg6Vhhc87p+jE/PaqPavYtNtmBB8YMa3EL+/Tl/3pjlHs1B772EHq3W/9vIw9sNx+rnzEPqJy4ssWtU4V2cKX7b+ouf4i1ON+y+5l0hAymkKVzh1nV3gYlj1EwDdgzwdqOnsmVddMeSF1AfWkZ74HKOq+uIJ6HSjnIZ5f15V1DfWmuuL1aCubFOrjbJLs6UhD7rSSVMfGPdzCfuvPnGWop+l8cfniWNUHrpDv/pNmvqCbLx0nS+ma16xbnxjqcb/5+x+1jmNN6/ZiO56HeltfgA5F2Tnr51nrbvzYAewfr0zSgnpqB0Wgx4MAOrsWzx1qPeXz5CVlARfIbEQsL7bpuDShPgk/R8n2ovh5pGmH3NDDAi5ow6YtVoaCL8ri0+0E9ToNM1UuVKEUgywNkM2p9BUhCjzQYx2vXU3Km4Gvzllv+HxPtiKmuS5sTEifqtQkX/EckN349HNWtoGPTy15b0kI9bxzkpOq0tmPzGWX9bfrBcCAoE+enpDoVSNG97+7sYQNHmzee4XG55LL+7Kbn18QVkaqctJ+viJL1FO/dVvkwx4+8sTbJm9XwXcVYuyZ/3Cajl0hVAc9n3yeWA/yPdNhHEKWFOp5Pes+ZLqAel0o50Ge1k1kXUK9ja5k9qyrZ5JNM/yMr9/wgMrbpakv4E0qnU/HF1Tx+8i3huulx7novHGpTr6qc/CyiaD+o+VWnRfFBumm10tQ79qPFr9ezjAtpOn14HjMLT9n+mB2fFfmbbaqp14Eej7kpuPLaWz5TcNYb8sZePDF9asfuFbaNsbpKi2oF6HcJXuHUI9MdH8uXhnYQv28m8vZ3u/3B1DfFZURHgjSzheAjQFRuq9l+YYC63jFy1egOtfMv6YV8z3WJJ9tQVZ5m+bLn4NkraF+WifUw1mp0Y5LceyClxaxvsMHW1VcqLyGDO7H9jw7MeixV1Vc4n561XhqzzT256cnJPqqLF5LL3l3iVaZxYps4av2PfUbnno2Egj4XnPRrgAXou3y2xjfgfh42AjZRtwDOR4CxClZKd/jLaeM6w28FZx/c7mVXWCcBvXOm4Cm7cenEH6zbPVDzATKCeQpNZV1BfWiTZr6r42eUS8gn0QPtTHhZ1S/ode8lfv4E9mkTg89fMLUF/DGiq/Tya8o38N1Tca+oOuDVGY+FWXXPGIffoPZyuLqdPqftysbKC0mGUA9X16TOod8QeZHGGA6tGy0VR1I+sO3XL59bXIwvaWqHRR76M9+dSU78M4UdvO1QxPlfcWQgezGbTfn2IyOrtKAehf8TJ3xMm4PoF72hwrwxScMW9lEUP/DgdTBmioksTLCNv0Xl9rKAkwQE08VftCjGQNAVGkjRQ8NwY8O0GMecRogK/YeNZ49lxPHqSq3bXlxPl42KdTDWalSj0vJsZd/tJyNmDk2UeUxdEj/IBQHX4cVKy5xGz0T6J1HpbXxrtEMvf1UAdqk+OIfvvynW16qvFH+pOEHKns4UNv5kR3RruKAHnaMgXyAId42ouxZNiiXz/dgXeZcqusV9yNfvBVER4LNPeGh3sQmJ1aWWuUHqK+6Z234tVd8HAqQTsAel5oCPc7nAurJB3mbjLNj+t+FbJrhZ2RTx1vawgdY3iZ163bUw7BvXV+QjWWhfDHpwY8naru0DU0yUHblp3rzjYu2YePDxSTTb+Rgq04E+JKoK2yTj8EvpyybZh36QjrEWLF1t44K4J6+6yL20GMbMH/ovans6TVj2bRJgxLnO3jyyGAcBpUnrrz8ca6h3hU/R4197eWy21/1IID9YmE2brKLqUevGXrPqLKMS3UrQdl5ukI2AJPT7dlALwkn4CGeX284ey6osAnqUQZZ2fh9+OQ4zkGVPj1MZHp1Mo0Jf7xs3aWuNm173gpqhmHaqg+WhpUR75yydbEiu+bh2Vb5UqWFFK8IS0YPYGuWj2R7X5zEWj/PHSTU+Gkp+/L5iey+qhFs0rgB1q8VKd/L+vVns/4wJ7bcYnmp4k4L6o9f/OaBzK54m1Wt42vIJnaFBwB+ICKfb317B8PDq8x2ZfsoX7wVTAr1pGeZDYr7cOzEyqlWdjgMUH/3AyHUpw30LqBeZZOiXmTbrmQT9dTHhJ/BtlCn0xsr3iYDoNes2/H9ELJJnbpdnAGKz/dEyymGr8zK7F62zyRfUV4law31JcOYDtTLbIPqy+6a8lCP8st8RrZPpivxuOs2zrcOweH1jfZx5PD+7KZZQ9i2B8awv740MZho4ugHU9l3r01mrz06jq24aXjQhl7Rx+6DV3x+WL/yzplZutApL5XfJdSLDJwWe4dTWkYBOf5z/cog6ew3YuUh21ZVKLJjxX1dJYsvtgJAQrA26KEHhKPCNpl68qeT9azhzDllqM+xlvjQG9e6Sjr7DTlkVCpzbPRI9Bs1xAqoxIqEti/p3Tf4Cl7vKzLAP6B/P3bp5X2c5hGE3rwX/TAjKy/pJy2ox8A+et1vY88AEwKYqB568t1g+r6LX0MW861paw++hkzHRqW8PaOnHuN46H6apOiph95Jz3Ep3aOJFcmhPh9AD6gvKZ1hp5tZGd1Q7zxSG12RfBJZ2/AzE1vwx7qp8wZoQD35kQvbSGJX3UkWb7IHT7GfxKGr7L/3oAGsaueysA42tQ1XUO+an6N4XQvqxScMbOv+VLJpQz3fMOsAAd/Id6Xszw3NdkCPcJ0zZ1kQK3m0WvvV6qG6ZtbYcS7MM+g9uvgg0Xzhl6zZFngd0Xoaukob6qMc+5qHZgeDTruqErLJd/pdV4WVlgwco8qL49OAeoTeEMhTit5CVa+8uB/hZz8cqwmhHnZGNqdK6WvIfK8k2TMGe+MBViVL+0V7xltBzLhlc18A9bL7IdvH36NkUP9g6iE3FMaDBwd7qB+XSqiATLf8Pl7P9CBha/82NuFlksF9HNTL7i9//6PWvWx0BwQmk/if3snuX17tv3cfduUdnb30NvfXBdSrGFiHoW1kY6FePKmrVwZpQr3YMOsAgapRz7dsbVsm9AY9jSLoqLYJYhAraTr15NHG1iz44vPFR4NIL7I0LT2nCfVxjr30gyo2fLrdV+vyWmH9/3MAI79BE0cEH2NRNVZx5YWcLdRc0W8Q2/DUc1IbwSw0mAo1BHpDe65ubTMCetgnQhzIF/h86cuZMhvm98nsOensN6r7wu8X71EiqL9nbaox9DzQI2bfBdSj/Lw+otZFXbmQtbX/rvD3np5nFNSnYRtRtkj/9ZR88RA88ppk487yab+DJo1gle9kJo+wvUdJoT4tfo56IIiE+jRfGaQF9bKGmW+4o9a7WvZAdX0AQSY9mnyYQfWpNu0e+owe6tjJ1tOd4CX0pB6uz8w8ItNZmrpKC+p1HXv2urmst+X0lvmstHCNNzx5kxKIdMtrCzUqqIdtHGlsUdqV6uEU+8meD9ebzc6BD1SRbAj0F+0ZM0kdrGuSPnyQbavsOW2ol92jpLPfEHhHpTaDYul8vGxSqEf5CY7iUpmu4mTo/yhZW/vPp6/7vDKdGCqoj7q/ZAOq1Mvq++DNLy5kmE2m0O3x0r792FX3z2L4Bk2S+1u1axkbPWe8VXkXV1YxmqUmamCrDNCTsLcS6sUnDGzr/nRk04B6VcNMDXdUWgiymHLPCOiFGXIQuhNVRv4/lPfHE3Ws7mL8vphvQ8c5ZehN2rpKA+pNHHv5xyvYhEV2cc35quwuuaIvm1xVppzxxqS8tlAjg3rYBsJmEApDoS9REM//R73s6OHHdxECG9UImYFd8w8RYr745sOP1erQmyh7ThPqVffIxTz1BOCylIfypDPkJIF6lF8FWuJ+la7E42TbcbK29p8vX/f5dIZ8yKA+7v7KbIL2eVkzH0RsfdltMxjmfi9kuxwzdwIDkCe9v1U7q+yhvmJpCPWu+VnF4shHCvUilLsKueEvxDXURzXMPMzK1gtBdt+JWgaQ5iEnap0AiHolacozWfnEfVReit/nQ24oz5On2qUxyCRLAxixLZ5fta0r6xrqbRx7+e7liefmTbPSGzJlZPChLWqc+NS0vLZQI0I93d99x2sYQsFkdkX2Jaa8Pdec7vzIjsqW+P3IF+E65AtivpiFhz+eX6drVtlzWlAfdY/ShHqXQI9zlZTOtGrcR80aVxBAD7+xtf80/dufuxPkeV2IUB/lR3ydKFv3smZATwOPMcNc0umf+Xvqer3/2GFs6ftLEwM9ylu1wx7qF12E+jT4mWdpWiduz4H6JN3+JrIuoT6uYeYbcXG9UGTR04jYXxF2ZNuyMIPqU+1KcOHLTOX9/shJVtd2RvpmAANkf27MDb0hWRUA8fmI6yayLqE+ScVd8WZFELNeaIOD+o8ZyirerpRCkU15baGGh3r+/h6saZDalcyWsU+0Z/Ty/xTRs87bFvLdd7yW1badUb4ZOFgrD73hr1k1mD4NqI+7R7ZQP7qkhN314F3s/kfvly73PXIfu3fdvezedauDBds49r5H17A7H34kMhZf9TDgYp56GXDRvjhd0XGyVFfW1v5dw4g/nxzkeb3wUK97f5PYhpeVz2FftXsZGzxlRMENnO0/eihb9MoiJ0CfFOoXVywNpnIn6I5LTfhZPBcvmwX1RPoUB4Rt3Z+prCuo12mYeQjg1wtFFnMGY1CqCnr4/XyPJoUZ4GEAAxP5ssnW+fIeqKlXghcGHGLOb/4cvKwKgPjj+XVTWVdQn7TSX/HpSnbDkzeyQROGW/VG8o2Rk/XefYJpxRa8sNAZ0KPRsoUagnrx/uIBk7fZqHXRnjHrDb6bwNuPap3yxUMEQnZwLjEv2LJMnmTjHlBdQ72OTdpC/XXX9mf/2vF/2JHPfpezHPr0d+zgx79jBy4uhz/tPGbfR/+Xrd+8Sgn1KqBHaE+aUK+jKxl0YZ+JrK39O/HpiwPe/bnigR46Iqg3ub+ijXhZux56QC50R/pc/Fo5Gz5zDMO0zYVgv/1GD2HzNl+fNauWeM107apUtI0gpn6uXUx9eeUyXXzO+Y5TEvYOoV6EcpC/7s9G1gXU6zbMSRr1fMhikB++nikCibgtAhCFGUTFv9P1i7qqOa0Gr5OnssMfRFls03njUhtZF1AvOidfGakcmvaLsqi8MMtMV1dcAycMZwtfXhQM/qFrpVS8ZpPyLtpezvqOGGxcPkD9+q3PhLPUAJDxgEpfJxbtV9yW2TNs2vQB9WhjizLU50Rr7hssE5t0CfW698gW6hfO781a9/6Gse96ZS2/ftuLXfjmP8Ll399m/9/+99+yx7dWSKE+CujThHpdXZH986mprId6PaDu6vovgPpxw4LZvgBrtJjUdaa2kcSuur3snltY+ZsVDB997Grb6DtyCFvw4qLQJlzZRtLZb3QY2oaf6bwy2QDq+a77fI3STQr1Jg2zCJ6FJnu0qTUe6M9fCGOGqYeeIOmkBFz4MovlxZc1VQ8RLb/8yjDHOMmLstim/+JSW9mkUJ9Gxb1s1zJWcuMkdlnf/A8QwhdjR88dz/DKk28oaD1peRN9UfOJbSHU437/3Bhvy7BbMeSGetnRs44vcEbZFm9XGJRbc1r9luuQMHicl9V54+QK6k3ukUuoB8DzQA/AF6FfBfVxQJ8W1JvoinyAUhtZD/XFBfXLP1wewhvuN937uNTGNuicXlatZ3zhd8KiKV0yYxwG7I6cNS6YujKNe5Q21KfB3r1E0se27i+J7MbNj1s93eFDMPggDL0212mYeUAwbdTzIRs3QDanR5MLM0CvKL68yV8nvy4r79GmU8r4/bozZ8NzyWT5c0etJ5Hd9MwLVrYx7MrRbMkHS8MKP+mrN7HBwKu4q++/lqHHPF89E3jdfPWaWWz5RyukjZeLimzhy4vte+ovQj3uN+xBJ4wsyp6rT+f2rPN2JtrV/up65QMqHhDwFozkRVm6ZvpflrqAetN75ArqxR56GdAD8GVQrwP0aUC9qa4IupDaynqoL06ox/3m73/Uuq1tJLGrniS74pOV7No/zGGDJufvjTbi56fffTVb4mhQrKx3P02oT8LPUbK9KH4eadohN/SwgAvasGmLFRjhk+34dDtBvU7DTI21TaOetmzwaftfflX21OcAkPARn0z8u7xnU1Ze9IJiUCH18ovpkcbWAIJksqSLuDSp7Mann7OyjQDq31sSQn0alT7mvcUg1bJbZ7DLUpzL/vJBA1npiivZknczo/hlDZarhipRT/3WbeHUk3gDBHsUbYrfjrNn0wfUqDcDeMCgXn9bm0wK9Tb3yAXUi0AvhtzwvfUi1OsCvWuot9EV+UUSWdvws3w92Pt8Oh86BowbxjCtIu433fu4NIlteFl9Pa/8bCWrfKeSzVx9NeszfJBVG65j65iDHh/oW/x6RWAHad6jtKBehHKX7B1CPTLR/bl4ZWAL9fNuLmd7v98fQD0a6jjApP9tG3XIpylbHRE6oApR4CEJU09SGflUdc0IrcHHePhz0DoGKR6oaUy1vPw1iut0zdZQP210MM2j6x56VaNR8VYlm7y0jA0YO4z1Hjgg2UwAvfsE58DMNlOWTWMVb8pnt6FrcVmRLXzVvqd+w1PPhvZ3uAGx7eoZnOLsGbIE4SrbEB/ma9sVD6gXfmXHmzNTWZJdibJiHrJtvBWcf3O5VQM16tqS8AHTxCZtPz5FMfU6ITcqqDcBepdQ79KecS7yk7gUx9o+1OoAiD+mE8hd6AJQv+Jj+VtL2b3uSruinl8T30cZusM1V7yT6fjC/bp80AB2yeUJBtOibRwwgKFtnFg+lS3eXh76d9q6SgPqXfAzdcbLuD2AetkfKsAXnzBsZR/bsNmqoQyg/ocDYe+grCEW9yVp1NOUxQwzjVwoDcE10pweTcVxsi9lRl3z0eZTUqBHnnjAwEBHgh+kOJeoT9V2VL4qGdrPyyaFeji6rIKX7XNRKaDnfu5j81jZrdPZ2PkT2ZDSUazP8MGZnvzekkatd5/gP/RmDJk6ko2ZNyGQvW7jfLb0g6rYa3dxzdTg4Fy24Qc0+w3dw2PNp1nLBflbJx17rmnHR6dyPxLF2wZvk3gAUD1EYD8G3KpkZfmI+yCLt4Koc2yAhId6E5ucWFlqlR+gvvnL38TG0PNAz4ffmAK9K6h3bc8yP5fto3wTQX3vvsHsH5gBxC/6OvgfyxlTaPYb2f0U99H95es68RjVtpd104YiZHX+lhvYlXdexcbdMJENLRvFMKi194D+8llz0Db268f6DBvEBk8eycZcN56VrprO5q6fF7whx5tyumf5uEeuod4VP0eNfe3lsttf9SCA/WJhqlbcYtVwodcMvWdiA6zaTtqopwm4CHWRzU2fA0CKnvV6Lv6dyh9X3gZFeASuA6EPaZaXrlFMxWvetO15K9voP3qIcv52qgj41HWlgPPh1TDAHKBf/kYFw8w54rLo1cVs0fbFrPz1Clb57hK2bHfmy3f8tanWXV8z8nEB9QBsVTy9rj1T6BdvH6JtYJv+h73yD8L8Oh6W951M/oCKt4JJoR73THU/xf04dmKl3deMF8zvzRq/+M8Q6qNCbniwR/jNlifKGb4uSwsAH9AetySd0jINexZ1Ktvm80XIAKbDM31wu/SK/mzGvJvZktVr2dJ7H4pfVj/EltzzIFty9wOdSw+VLZs9Xw51MVN8DiwZzlZ9Fu9P/P3tiT3lKL/M7mX78qGrVXtuYfhS+9IdVazy7SVB24g2cOEri8IF22gr0W6i/cQHpDAoWlaWfFwzdOUS6kUGTou9wykto4Ac/7l+ZYA5PE0rURyPgbKIc6WGPSqNAoIoOfyXtiwgSBZ6ExeiwIPLkaZM/DuVJe6ao+L3MVgXH/EhqOfhic6vSuPyVclhv0zWdvYbTMtYqfgok1iZ5atSKIZ8XUA9wrZk8fS69oyedX7WJZVt8LYk8x/yD8yVT7aM1Nae0VOPcTw2dRV66mUNkmgTtE02iXhRm/wWzOuEetWgWB7maf30179lm7csNgZ6AH9J6Qyrax01K6Mb6kXtSvDCQDu82jfV+WVX9GdzFlexu9Y/obXc+act7I5HNocLtnuq7FU3Lk4N6smPyLZsfNDL3hL7UNAT9OwK6l3zcxSva0G9+ISBbd2fSjZtqJfBIg8EUev5kJVBUE6PpiLkBuCCnkjTmT1Uc9Mj3+PNrSEE2QJQEnjiZZNB/RJfGX2RXSHHVb4uoP5QfXPOWycTe8asS/trOgd8x/kgHoplDxHwDeSLj6sR1CexZ7wVREeCKfDheEA9AXtcyt+jpFBvAvQ4tmXvf4VQr9tDD6DHsfZQP85qvAH0yOvKxcMAeg+tob58mRaYe6DPfoBJC+pd20ac39L/Pt/CejNA94VPbe6RC6hXMbAOQ9vIxkK9eFJXrwzShPo4IOhqoEf+YuhADgApQm6oJ9J0Zg/E72MgLMlTSvn+dDFUIQkAuZJNE+ptHJsqhu4q6wLq8ZEnsimkZFf4pkLwXYUYe+YHfOv4L+Ll8RaAzzPM90wH+/5odQD1SW0y6ew3ZDtRqWhXSaAeMfXUAx+X0gw5BPWmQI9QHRdQj/JH6Yf/T9SVC1lrqO8zgM3RgHoP9NlAj7cTaUB9GrbB255q3efbtf6rui/8ftt7lBTq0+LnqAeCSKhP85VBWlCvAwQqqM+nbF17RwgkuiEKBDCIf8eAV5RD95pl8fuUL3rw+Z5ylX74/br58jK0HiebFtTbOjYqh+4s6wLq+V5zsqsQ6CUPk2TLSAN7bjKz5+MtuYNyKd/jLaec2XPaUC+zq6Sz38TBPP7nZ8gB1G95vDw2fp7i6wH/FHufFOpRfr7xjVqX6SrqeP6/KNk0od4DfS7QpwH1UfeXtwPZupfteh+U3Rd+X1fdIwz0HT1nvNWb2sWVVYxmqYka2CoD9CTsrYR68QkD27o/Hdk0oD4OFgkqZWk+ZRF6QwNkc3o0YwAIEISvwSL+WPeaM/H76p7Uw/WZc8n0Itunm6+tbBpQ31WVQjHkmxTqYYsE6bb2fNDQnsVBuXy+B+sy07LK7E+2L8qe04R6lW24mKc+Cuyph56+NHvq69+yx7dWaEE9D/RJe+pRfr7hjlpX6SpKhv6Lk00L6j3Qy4HeNdTH3V+yA1nqZQvDB2X3hvZ15T2q2lllD/UVS0Ood83PKhZHPlKoF6HcVcgNfyGuoT6qYZY15Py+fMseb20LIIgHEZ0QBQKn2vYObaBHOcX4fT7fuvYzDB8N4vURtZ4PXbmG+q6sFGjAlYvYX6rk4lLT8iaF+uOtpxPZMwZpm9gVQsn4WZx4e65v73Bqz2lBfdQ9ShPqRaBHj7348SnqkRdTEeixXVI606oXa9SscQUB9PClNKDeA70a6F1CfZQfua4n+fP5fHvGw0DVDnuoX3QR6tPgZ56laZ24PQfqk3T7m8i6hHoTIBCBNd+y6DVvOHsuiAem8IQA6DV66AnqMSiRBgHqhM383NDa2ZN6/kIQ40x5V59qU37wp6t05RLqfeUbX/kmgXp8UwBTq1LoC9kVQJvsNS491pwJlyGbhk+KtsdvB7M4XZwPX8y3pq09a8AtLyeu6/h+GlAfZ5O2UD+1dCR79smr2PYXr85dXriavfr8Vezl5zoXbG9/4Wr20nNz2JpH74/sqZcBPaA/6ZSWPCjJ1uN0JZOhfbqyrqHeA3000LuCet37S/bAp142vl0gffVkXSWB+sUVS4Op3Am641ITfhbPxctmQT2RPsUBYVv3ZyrrCup1GmaxMaftrpDFVzcbz57LAmsTAAI00SBAHaBHWevaz0p7UjFwFh8MIn1EpfnUlSuo78mVkcmbgSRQv+WZF7Ns2fQBFbZPg7R17fmE6s3AufPsZGsb+0nyASvRtnXt2TXU69ikLdQPHzOBLV/9kBTOVVAu9sbLtqNk04R6HV0ReIipiaxLqPdAHw/0LqDe5P4msQ0vu6pgZqkS74Vq26VtBDH1c+1i6sG4uj9TfubPK8qGUC/+AfLX/dnIuoB63YZZbNCx3VWy6JWk3swAgCQzeKh6NgFARxo7e+lRBlnZ+H0Uvw9ZMd+m8xeY7Iu0vHxX6MoF1Lt0bJxLVYGI+4sx30Xbyxnm+DedthFflN36/Eus/kxHaFvoOVfZr7gfNlnbdiZ866Rjz7BHDMqV2XNmwG32txtEWza1Z5dQr2sbrqE+CsplEM/vi5NNC+p1dSX6H7ZNZV1BvQd6PaDPQP0iy3nqh2VBpknnhY1t8PZlaldedmV4r6A7Xh9R64Wk56Sz3+gwtA0/03llsgHU8133+RqlmxTquwrKk+QLoEC4C8E1wEQEHdU2YAnwtO9E5gNRugCEXk0xRIHyxdzgMujh9yUpr61sMqivNG7U+QqmkCoU/rqi1pNe88JXFltD/dMvvWJtz/CDo42Zrxjr2jO+zaCyZ50oI4O6AAAgAElEQVSHVFObdAX1JvfIJdTHQTkP8OK6jmwaUG+iK9EvbGRdQL0Hen2gh65m3rDQCuoHlAxjKz5ZUfSwKNqtatvGnulcXjb5g0TaUJ8Ge/cSSR/bur8kskmgHh+Eofhb3Vf2BKqmjTrJIU0qizAD6tUksFZBPL+feiUB6D8cqwmug78u1Tri9zF1Jj1EIOXzxTSXKlkX5bW9R5ueecG41xi9zOhtrnirIqzwfS9O9keoqLKnlCr9hS9bQn3/wWzby68G9sXbFW+7snWyZ9jj/pqMX0XZIf/fkcYWpT3Xd5xjP1bXK23axn9dQD3pGfaoY5OuoF4HykWQp21dWddQb6orsmWktrJJod4DvRnQ46u6M69PAPUfZ6Ae95u//1HrtraRxK687MrAJ6PuC/9fId6jNKE+CT9Hyfai+HmkaYfc0MMCLgiDCExf9+N4fLIdn24nYERDzTf6Ues2jTqdz4Xs0aYMkJiGKBCU/9zQrA30uO5DdY3hQ0QA9FxoBHo1Af1UPjF1UV7be4TBlza2Aagvf6MT6n2lr4Z6vgK17anv038we+bl7UHPuQzeZft4oK9ta2c/RUC4zCarW7k3XZw9Iy/MwiPK0LatPSeFel7POkCPRs4F1OtCOUE8n5rIuoR6G10RFCSRXfL+UtZ/9FDjOueyK/qzOYuXMkAqLQB8hJfoLD35YSAR1H+youhhkexWlSaxZy/r7mEvLagXodwle4dQj0x0fy5eGWC6Hxtwm3dzOdv7/f4A6tFQU6Mdl9o26jivC1kMbsV0e0Y9mtxMNehxP1jbaFRevldTzJf/gqeoOxfltQV6yLmAelRsqgpT3N/TK8GFr9r11APqn9/+ulEIGT2gIjWdeWnf8dogBj94QJWErmGue9GWk/ov3grOv7ncqq4adW2J1Vsj249PYaDsstUPMRMo52Ee66ayrqC+K32w8r0lrJ8l1M9euITdvm5TsADs7/zT41rLHY9uDuUg39NkZ16/wDr8Bg/HYh2u2u5Ku6I3c7oP81QGf82F03anAfUu+Jk642XcHkC97A8V4ItPGLaytj31AdT/cMCox7qrIRWgil5zEaxlPZm0j+/RBMTUtp/R7tVEeRGmQ/H7Yr4YUHiortk5ALnSc1KoR6VIFWRc6ivQVcx29psA6l97QwvqRXvGzEtRPes8nJNdHaxpCN48ifYMn8HgWV6G1knW9iETbwVR59h0QPBQb2KTEytLrfID1Ffdszb82is+DgVIF8FdtW0K9DiPC6jvah+sfNcO6i+5vB8bNbGUlc2ez8pmX8+mzdFfMjKQ65myI0omW0H9wJJhbNVnevV7V9sVQb2J7/tr1ru3aNfzoSvXUO+Kn6PGvvZy2e2vehDAfrEw+ISuTUOJXjP0nlGjHZcmbdQJBpDiXHH50f9Z+R6tDqCcgD0uFQEI4TrHDaeezMTvZ+YPF/PDvOL7a3JDb7KuOUl5E8pu2va8lW1QTH0cyNP/+agUKC8+LbR804Z6mT03n/+F/dzYEutPvE1iUK0qdO1Ea3vOuXhZW//FW8GkUI/7zd//qHUcO7FyqpX9DwPU3/1ACPVpA70LqC8EXwDU24Tf2LRfXqaPlW2T3gaWDNeC+kKwK99Drw7/RB1YDPfIJdSLDJwWe4dTWkYBOf5z/cogyUBZxLkSPEelLhp1gnqcKyov/j8xX8zYgRh2Ea5l27KZPdCzvr86PvSGz/dYU6vyzcCJ1racsvCytgDkQle4jqSz30RBE/1XDBUKXSulaV1zmlAvs2fYfdO5Cwx+wfuNuM7bJN481Zw+o/ShQw3Zb5542ST2jJ56jOMhqDBJ0VOPe0b3Ly6l+zuxIjnU5wPoAfUlpTPsdDMroxvqzexKAApi6seYx9Sb2II/NhnMk/50oJ78iGzLxge9bDSQoy7rCXp2BfWu+TmK17WgXnzCwLbuTyWbNtS7atSTAAHJHm85zVoufgFTBvK0L6dH82LccG17RyT8AIb48gKA8IErOi+fArIO16cDQFReEc5U2/w187LJoH5JLET1hMqIB8i48qYF9Sp7hj3ig2gquxDtGbaxv7o+eBDgbZnWEXrDPyCo7CoqP/pPlMVbwesXVtiB67UlsbZI94m/R8mg/sHUQ24ofAcPDvZQP85qvEEaMGE7+w2Bpk/dALuOHuOgnvejrnxQxHWQb8el/poLV1cuoF7FwDoMbSMbC/XiSV29MkgT6sWGGdvUaMelrmUz00pmvuhKECJLcwCI69n/ucFs6kkMkJXlgX0NHeezZr1xXd44/dL/UfmmCfW+As2tQNOA+ih7hh0eazql9EmZbfzc2Kq06Zo2jDfJhJPJZMnm4lKZbNLZb+IadBmkJoL6e9amGkPPAz1i9l1AfVcDkIf6/EG5DrhHHRMF9b5uz63bVfWP15WerpJCfVr8HPVAEAn1ab4ySAvqZQ1zXGNO/6chiy+2In5YBdnYrwpRwH/occdXYekaxVR2zQ1n5L30AUy1dMKUTFY8v2o7Tdm0oN5XZPKKzDXUR9kz+YHKplV2hYHiJJuVXvg1HG+iklXZML9fJZs21MtsMunsNwTeUanNoFg6Hy+bFOpRfhV4iPtluhKPUW1HyXqoL36oj7q/Kpug/V62632Q7oUq7ap7VLVrGRs9Z7zVm1qMG6VZaqIGtsoAPQl7K6FefMLAtu5PRzYNqFc1zHzjrVpPS/ZEy2k5jPzya7A/p0dTmKqv+jTm8s4d1IpyyK4Zs9oAqrLAh/JCbP7FBwSZrEo34v60ZdOA+q6qFIohX5dQH2fPsEvM5iTalMqesR/2r3owxn6Ek6Vlk2lCvco2XMxTTwAuS3koTzpDThKoR/lVjbi4X6Ur8TjZdpysh/rihvq4+yuzCdrnZQvDB+l+yNKuvEdVO6vsob5iaQj1rvlZxeLIRwr1IpS7CrnhL8Q11KfVqMvgg98Xly+m7pMBNvblAJAA4xgge6RJHnqjyhfx+62K+H2EKUTBE18u1boqX9Xx/H5dWddQ35WVAg24KuT4TldQH2fP5AewUd4usB5lGz83qMPJGs+dZ/tO1oUfo+PHZoh5yLaj8sXxaUF9lE3aQv306UPZ2y+MZR++oV52vTaW7dw+lu3YPobt3D6G7X5tLHt/+yS29rG7Y8N2ZA8DJaUzrXqxRs0aVxBAD4jwUF+8UB/lRzJA5Pd5WQ/0vD3w62QbVTvsoR7fYkIPfRr8zLM0rRO350B9km5/E1mXUB/XMMsac9qXpmwUjOiEKOCBgHrW6XqRqq4Z01TWnVHH7x+ub1HK8udXravyVR3P7zeRdQn15JwE19jmnTdqvafIuoB6HXsG1GPA+EHhGwlxtlEdMetN9an21IAe9psG1MfZlS3UL5zfm7Xu/Q1j3/WSLv/+the78M1/hMuv32aOa//7b9njWysioV4G9HgL4GKe+q72QQ/1xQn1cX7U1XYly99fc3G1v0mgHt9iMumhN+FnAnlKedksqCfSpzggkwsylXUF9XFAwIOluJ62LGatod5JPs3p0VT05tecNpt7Oyp+v6HjXNA7ip5MWlB+USeq7bR1xefrCup9BapXgSaFel17hg9goDb/oBpnVwi9wew2vP/QOvI9UFOfqj27hnodm0wD6gHwMqDHA0Ac1KuAPm2o19GVDJywz0TWQ33xQb3J/RVtxMvqtQumftQd9RzE1M+1i6kH4+r+TPmZP68oG0K9+AfIX/dnI+sC6uOAgAdFcT1t2QN1TdIp+HIASAi5IWBBeqgu+7P3cdd8vLVNCj84F0Ievj9anSoAiTrGdtw1y2RcQL2vuPUr7kXbyxk+3BU164TsP3xR9tlXtgcx8oiTx6Iaz0F2bTpTDeLlZecM/OhMR2jTsDOZLcn2mdikS6jXtUnXUC8CPXrs+d78KKiPAvo0oV5XVyJI2ICIh/pigvphWVOhFnJYI2+b+bRnn+/K0Eagd14fUeuye5R09hsdhrbhZzqvTDaAer7rPl+jdJNCvUnDLDbs+ZA91nyKISaeYAapbogCjhU/ex93zT+djJjHOw89mqKOsR13zTIZ7EsG9ZVGvXSik8scWzxGtV2ssgtfWWwN9c9wUA/Q5u1dXEfozbGLX0bWtQ3ZNx7Ij463nAoeUnEulS2J+3XzJTlXUG9iGy6hXhVyowP1cUCfFtSb6Er0RRtZD/XFA/UDSoaxFZ+scAZtov2otm3sis7lZZOBNekxLk1Dz2lDfRrs3UskfWzr/pLIJoF6fBCGQkhcD4yjxlyW6gIBQgZq2rJDb3J66GMAiOAH16GTryp+H/kijAcfpCpEXcn0vOmZF4x7jdGTjN7mircqwgrf9+JEfxWQKsGFLyeH+jigp4faQwYz1WT8KHsqS96PDtY1Br4hsyHZPh0/EuVcQD3pWXdchyuoF3voKYaeB3pV+I0O0KcB9aa64ht6W1kP9UUG9R9noB73m7//Ueu2toFzetmeq+c0oT4JP0fJ9qL4+XyP0sUgAtkr/bh9+GQ7Pt1OUI+GWmyIVds2jTqdy0QWX7dsOtc5rSQPIjohCuiJPFibCb3RzbdOEr9P+R5pbC4aoEd5Nz79nJVtAOrL3+iEel/pq6Geb6iS9NQj/EYWHiP20mM7mKnmhP5MNYi9b+Di6cme4UP17R1sv2KqV/JZPtX1I14G60mhntez7kOmC6gXgV4MueHBXgy/0QV611BvoysCuSSyS95fyvqPHmpV58S1V/5/tw8M1FOP+033Pi5NYhtetmfrOS2oF6HcZbh7CPXIRPfn4pUBpvuxqfDm3VzO9n6/v6Ah9WhT59cvKVQgjDmO6aEH/NS2dQRzc+uCCAbINgmx+ZRvPeYEP1Gbeo8mwZDuNdPxfEqyLqDeV/p6QA/QXPiqXU/95X0HsvsfXsc+/stX7JMv45f3P/2cvfzOB+Hy6ns72fYPdiuXN3d+FJ77oy++ZLs/38N2f7YnSHf8+XP2+o4PlbL8eV99f1eYJ/KPy5eXfe71t9mV18yxqqtGXVti9dbI9uNTNPuNTsiNCupNgN4l1HclPC3dsZSNu2EiGz59DBsxYwwbMXOs1oLj+cXLqvXG6ymJnsffPImt/GylB/ov5PV7V/oRvYnU7bygh7FCvuY0oN4FP1NnvIzbA6iX/aECfPEJw1bWtqc+gPofDhQ0pGKmmSDc4Nz57EGEGkCPOHyE3hDg6ryRONqUHb/P92iePJU5Fw/PUesm+YrncSWbFOo90MsrfFSisgrUdvYbm4fyniTDQ72JTU6sLLV6iADUN3/5G+UsNzzI8+vUU28K9K6gXmaT1ODHpV62Z/ekRtmHtw1vGyr70LUN11Dvip+jxr72ctntr3oQwH6xMPiErk0DP//mcoaYehEoVduuQFM3Hh0z1uDjTzxY64TcULgCetwP1DSE4UVx+SLuuLatM+5YzBezh6h0I+7Pt64ofzHfTduet7INiqlXObK4X9exRTlsdydZD/VuQwSoXiOoh63IbEi2D8dOrJxqZf8L5vdmjV/8Zwj1USE3ItRveaKc4euytADwAe1xS9J56ruTH8nup7jPl9fMF7pj769oE7TtbaPwbMMl1IsMnBZ7h1NaRgE5/nP9yiDJQFnEuRIQRqUiLGI76nj+P1vZk6fPGM1yQzBPaW37GfadwdSTB2o7Q28o5IZCfRrOnGUHahq1ymxbXujMtWzS2W+okoxKfQXaWYF6qE8P6mFnUXbI/0c2ObHCEurndUK9alAsD/O0fvrr37LNWxYbAz2Av6R0htUDyKhZJd3qwZi/j6p1ur8Eqja24WXVbyFJ717P5nWOtyu5XbmCetf8HMXrWlAvPmFgW/enkk0b6l2DJg/8qnUM7Ks/k5mvm8AaPecE7HEpjj1U19lLjzKo8qL9RzF1JqbLlIT64Euc6MmnY1VpV+gK16LKNxnUL4mFKF/pZ1f6HurTg3oCjbiUt8mkUG8C9Di2Ze9/hVCv20MPoMex9lA/zmq8AfTI6wowgu04/dL/XtbrimxBTL1teNsQbcIF1KsYWIehbWRjoV48qatXBmlCvQoWVVDL708ie7i+idWf6Qjj6HVnBQHsA8oxowd9IArXwV+Xah3x+zlAf/5CMEc+Yu1VcrQ/SXnTkk0T6n3FnVtxe6hPCepnj9eCTdEmk0A9YuqpBz4upRlyCOpNgR6hOi6gHuUXG1PVtqgrLyvvYYT+vK68XXk/yviHrS8khfq0+DnqgSAS6tN8ZZAW1KcFmgTBqnTfiTqGWW+seujPXwjkjja1GM3qg1lvxJAbAD4eEjClJkJzVNeL/V2lq7h804J6W8fu7g2kh/qug3qZTSad/SYO5vE/P0MOoH7L4+Wx8fMUXw/4p9j7pFCP8qvAQ9wv05V4jGrby3o9e9tIBrjQX0/zo6pdy9joOeOtQgwxbpRmqYka2CoD9CTsrYR68QkD27o/HVlbqC+76lr2xPOvsGe3v5WzPPPqm+zpl18Pl22vvJFzjEwO+5LKQn77ezvYGzt2sbd27mbvfPix1vL27o/Ymzt2BXLPv/YWM7nmV955P5QV8339g13s2dfeVpY/aXnT1POqu+61ciIMlK18Wx5+09MqI5PyeqjvGqhX3SPbeepnXz2Q7X3n/7EfPvzvyOW73f/Nvt3ZuXz9fm/2yMZbtaCeB/qkPfUovwq0xP0qXYnHyba9rNezzC6wz9uGt40o26jaWWUP9RVLQ6h3zc8qFkc+UqgXodxVyA1/IbZQf9kV/Vn/QcNY/8HDc5dBw1l/fpEdo9rHy2FddZxs/8XjBwwZwWgZOGQE01noeKRGeQ4ezgZg4fLEOuWJ/yLPl7S8vHxcXvz/vNxFvYnXeUX/wU6h3lfc0RW3h/r8Q32UTdpC/ahx49nta1az1evWKpYH2T1/fIDd/Yc14YLte9atZXc8/Ggs1ItAj+2S0plWvjpq1jgP9H6u8cAGonxBBVy038tG1+2kJ6ReV+a6qtphD/X4FhN66NPgZ56laZ24PQfqk3T7m8jaQj1NF+fTdECkmPUq66n3FVl8ReahPh1fGqWIqY+zSVuoHz5mAlu++iElnMugnEJq4lKVbNIpLXnokK3H6UomQ/u8bLzve12tDAZsw1ZIF3Gpt6ueo6skUI9vMZn00JvwM4E8pbxsFtQT6VMckMkFmcp6qE8HJIoZypNeuwj1vvLVq3w91KfjizKo17HJNKBeBeVxMI//o2TThHodXakAzMvq+T7053XldeX9SD7eIIipn2sXUw/G1f2Z8jN/XlE2hHrxD5C/7s9G1kN9OiCRFIyLWZ6Het9Q6TdUi7aXM+iumO99IV67CPW6Nuka6qOgPA7q42TTgnpdXclgxMvq+77XldeVzIf8w15mqtyks9/oMLQNP9N5ZbIB1PNd9/kapeuh3kO9axDLQH2l73kyfJW88JXFHuovc++PPNSbwJNLqI+D8iio15FNA+pNdCUCiZf1kCraBG172/C2QbYgpirbSBvq02DvXiLpY1v3l0TWQ717iHANycV2PkB9xVsV/qM2igF4qops4cse6tOwdYJ6VYMh3g/adgX1OlCugnpdWddQb6or0hlSL+uhjbcHft3bhrcN3h749SjbSBPqk/BzlGwvip/P9yhdDCJIoyH15+y5DwuA+vI3OqEezso7b9R6lGNHyeG/Ypdd9Ko91GOmov6YuambLv0Gj2CXXTHAqq4aO2+ClW24gHpdKJdBvYmsS6gvdj/yX7dVfwirO9ST/v72vPubFtSLUO4y3D2EemSi+3PxygDT/XgA77kAnsa956HeA726Ahbhacn7S1n/MUON/RHTy85ZXMXuWv+E1nLnn7awOx7ZHC7YLnTZWx5ez8ZOvtJYN7DvsttmWL01sv34FGa/Wbb6ociBrTKI5/eZAD3kXEG9aJPef/X91+vK64o6nrwfue3ISwPqXfAzdcbLuD2AetkfKsAXnzBsZX1PvQd612BPUO8bObNGbumOKnuoL1+mBebFCPS45lUP/ckJ1JvY5MTKUquHCEB91T1rw6+94uNQgHQe2qPWTYHeFdR7EHELIgR4Yur17PUs2gRte9uQ24ZrqHfFz1FjX3u57PZXPQhgv1gYfELXNdT58/XsBwWKqaeKKi71FVmmIrOG+j4D2BwNqC9WoMdbhVVrE0D9rZmeethZnC3S/zh2YuVUq7pxGKD+7gdCqE8b6F1AvfdBM9tACAgtpnZFcj6MRN3pAT/0Nultkupjl1AvMnBa7B1OaRkF5PjP9SsDP1C2ZwN4Gg9ggPrKtyu1AMpX3J0Vd5pQX8xAH0L9lOlWkF1264wAEKiBiEvJJidWJIf6fAA9oL6kdIaVbkb9f+y9+ZcWRZr3zfw4zznznPf5B+and55z3p+fFmQpkE0oBRRQdih2pRBqp4p9X1QW2SlQVHpaW1uaXmzbZWx1nO6nx7GXccQFREAFWUUUxKXnxHu+eXNlRUVFREZERtz3XVVxn5MnMvLOKyMz8rqu+ETklZFVIyM8WXb2IpTrYZzsi+yI6gt5+i8rjbKxrngd8QX1vvlZx+tGUC/2MJA3/alkI9RHqPcN9gWob8h04NFxt3fcoaC+swM9oD6JqXeF+hWTMnWRGhBeJ/NB/cPBQ24ohAcdB3eoH5GOOMeRYz2s8roR6yrWFfkMpFE32rdlfN2I6y515QPqVQxswtAusplQLx7U1yODCPUR6ksB9S6GTc6hq8qGgPquAPS4hmXb9rI7HaF+/IrJRlAv6lUuqF+3OWgMPQ/0iNn3AfW4frKxrFSsqyirhtxYV1GvVPYUdcNMN/JCfSh+1nUItFAf8pFBU/MSp8e2mF6u721DWL+BQzsutw1l/WSLbF9xm0wO28T9ZPkoW6h3Wd2I2wzqCtMkugB/ReUgVv+8eqQ+OjK5I/MN9V0F6DEzT2iol+mk6+w3g4ePZDXL1rKmtQ9rl8a1D7OGNQ+xhtUPsobVmwrLmgcZttvK3jF6vJOtDq8qjNTj+lXgIW6X1ZW4jyofZWM9R90odACjLZjbQtMri1jlzFFOPg7vjdIsNboXW2WAnoe9lVAv9jCQN/2ZyO7YtcepooaNuofVrtrIGtdv7rA0rHuY1a95qLCsfYghL9tPti3Klk9dTblvoZNuDL53OGt8sUkKCdGRqR2ZT6jvSkAfGupVOuk6Tz2mGO0/eDgbMKQyc8F+/GIiQ/vwcrf2HeBkq4B6XL8KtMTtqroS95Plo2ysZ5leYFvUjagbOt1oernJHerrGlOo983PKhZHOVKoF6HcV8gNfyKt+x9zagzwKByjZ+L81l0NJsTrE/Nd+Xpn17U46caQCZWs6aWOUB8dt95x+4L6rqiToUbqdTrpCvUuT7dKJQOoVzWm4nZdXYn7ivkoq7d9vr5iXcW64vWBX++uugGecB2px7eYMEIfgp95lqZ14vYOUJ9n2N9G1ifUd0WYECGez3f16/UJ9d3VGdnM/OAD6ruqToaA+iyd7A5QXzl9pBHUZ9UVDx7iepSNkCrqBOWjbkTdIF0QU1438kA9vsVkM0Jvw88E8pTysu2gnkif4oBsTshW1hfUd1WY4CGeX+8O1+sL6nnjjLNGqF+oywv1XVknfUO9iU5GqI+xv9Ffqf0VIMzEjkRYo3yUjUBPuiCmom4kMfWz3GLqMRmM6c+Wn/njirIp1It/gPxNfy6yPqC+K8MED/K03l2u1wfUi8aJvGjAqnx3k234bSOrqBxsHfKEGO6ZNY0MUz/SAh0lfc1KO4M++4R6U72KUB+hLforNdSb2pHMv0fZ2A7K9ALbZLqRd/YbE4Z24Wc6rkw2gXp+6L5Yb+nmhfrOAAQi1MRzNgO+vFAvM06VIYvbu6Ns/QsNrJ8j1M9Y2Ab1XQ3oYb++oN5Gr7o71NvUVbTfJXG+/z+oOwC8fkS9ikDP6wO/rtKN0FAfgr17iKSPvOkvj+y+/Y9ajwzipS68KIsPwtDIINKuCBN8h6C7dQZm1TY76QZelG14sTE2cpaNXP1v3KF+6rwa1vzQdtby8A62ePMuo6Xl4Z2JDOTKXbZp41ZWOXqckz7SPPWqBoNvVPj17gz1tnXF11uUjdDG6wO/HnVDrRtLfr+EIcwEYZhY8OQWAz1oF7AgT/9lpeUqi+vDdfI6Qes63QgJ9Xn4WSfbg+Lni/2W7t7WA04NJaB+yeZdKdRHoH9MGe7QWTsDs2oXOelGAvUvNKRQD2Mlw81KdYbd1WXhuF3Cb9DJ7t1/EKsYPCxZ+KkOVesVg4en+5McUtX+/PZSyFYMGsZ69unvpI+Aehe96q5Q71JXZJtRNvo60gUxjbqh1w0A79DJd7KKOwYXlsrByZNbPL1Fu5Bup/91aZnKDps2QjrddZZuhIJ6Ecp9hrunUI9CTH8+Hhk4Q/2YCSnUR6DvekCPJy/OUD++kjXchHoYq+jcVfksw1bJYXtXkE1i6u+wj6kv1XSInaXcccsnpR1MmxcfXT8+1VnqBecpzn7TFewo+hx1GEy8v+XbHmH0HeDemfyH7bkOGDmUNbzQ2I4JTHQyBNT74GcajJdxewL1sj9UgC/2MFxlc0H9ll0x5GZ31wR6H1AfG1e7xrU7OHXbRsDH/jzU2+jk3fX3dukGFnXLQ71J46rqWEfZ8oVFumfxHpX3PeoO/l+EelOd9A31vvhZ9+5rD5/D/qqOALaLF7Ov1TGmfsyEJKaejznXrXfWEJTu/M6Ac0z9+ErW+GL73jg1LLLU1LC7umx3cOo+IN32GOOWFUbqoWcyHZJtw75319/TbaA+2qCdbtD3J2ye/EDPYj3Hepb5G2xLntQ6TJRg6w9LuT8P9Ta24BPqRQYOxd7plJY6IMd/vh8Z5J39Rgfy9F8EerPZZlBf5VRXeWe/UTkvfruNYfNyWO9qshHq+wSBaEA9dEXUH1We9Oruuq4P9cOrRnY5O1LdV9pO95fA3EU3oqz6KWSs58VJuJ+tXrnOflZKSLctm6De1gZ9Qb1vftbxum4U804AACAASURBVBHUiz0M5E1/KtnQUF9OkEqdjKw0nnOhExIa6m0NmxoLpF1RNkJ9IKhfMcka6AFt3QPqRzi9b9BVbZD3MeJ6V/Q54jXy+Xi99gMBeTp7rrOf2YJ1KfcH1Nc/X2/tc3xAvYqBTRjaRTYT6sWD+npkEBLqIxx3zhF66vSEhPrYYHRsMCLUh4F6mtKSBxbZuqiT3Q3qcf2yepFtE+sqyqpHrmNdRb2S2RC28bqRZ/azUoK6Tdn9Rw5hdb9qg3pTv5EX6kPxs65DoIX6kI8MQkF9BPrODfQA+1BQzzsyjGyYGrboBLuabIT60kG9TCenPjjdKRyo74DB7O6JVWzs1FmZy5gpM5m4mMhhH15uwODhTuc6pnG8U6gAjUh2NRuUwZdMN2T7ybZF2Qj0Mr3ANlE3usPsZzzU4/pVdSNux3SflTNHOfm4mvomRrPU6F5slQF6HvZWQr3Yw0De9GciGwLqI9B3fqAPBfWiI7Mx7K4uG6G+NFCv0qvpj8xyakQwp/6kOfPZtOpa7YIPhk2dt5BbarT788cTZQcNH+l0ruOWur1vQFAf7TeO0BOAqeyI/telUXZJ8mGprj6lZQL1v663HshrernJHerrGlOo983PKhZHOVKoF6HcV8gNfyK+oT4CfdcA+hBQHx23fmQiQn3xoV6nkyGhXoRy5Hlo163LZAdXuo1i4SViHWzx/+nqit9Pth5l9bbP11msq+5ZV93B/wPq659vsPY5TS+5Q/3Cm1Afgp95lqZ14vYOUJ9n2N9G1ifUR6DvOkDvG+pjQ5XdUHUHp24Tf+lrX1VMfZZOhoJ6GZTrIJ7/TyXrCvXjl5tBfVZd8VAqrkfZbNunOot11X3rqjv4f5r9hvRdl/K2kAfqa+oak6ncCbqzUht+Fo/Fy7aDeiJ9igNC3vRnK+sL6iPQdy2g9wn1vHHGGFz14/ru4NR9gbrNcWRQb6KTIaBeBeU8uKvWdbIhod6krlSNc5TtvpCq0gnaHnWjvW50B/9vCvWibiQx9bPcnkbW1i8yxecO33HKw94p1ItQDvI3/bnI+oD6CPRdD+h9Qb1onMiTU89Ku5tsd/j4iA2M+9pXhHpTvfIN9TooV4E8bc+SDQX1pnUls+UoG32dTC+wLepGR92IUF8Y8JLpRt7Zb0wY2oWf6bgy2QTq+aH7Yr2lmxfqI9B3TaD3AfUy41Q5eXF7d5TFx0cGjBrCevbtFxePdTBx9dS0I2mjVz6hPgvKCd5lqYlsCKi3qatov0us596mOov13BFwqW7EtCvXVR6ov6U32owKblG1Ifw+qvVs2Vv69HN6MT9rpF51f0NDfQj27iGSPvKmvzyy+/Y/6nRz7hw7kS3duput3LE/XQD4gEGTJXYGyr+uZtU2O+nGkAmVrOHFxtjI/UEdasM3VuTI4Lhm7pzFqrbMMF6mbZ7Opj3ctkTZjnW34NmaBOqpnk1nbvEF9SZQLoN5bDOV9Q31tnUl02fTeo6yhS+QxtBEvb/s6jrpCvW33NqPjZo4iU2vrUmXqpqFrGrhgnSZXrMw/Y/fT7ZuInvvzJlObKCDet39DQn1efhZJ9uD4ueRhg65oc4CTmhv6wGnmwOoX7J5VwR6g05MZ+3AzKpd5KQbCdS/0JBCPYyVb7h16zrD1snhvygb61mlIy664QPqTaFcBvU2sj6h3qWuqN6jbLRB0gUxjbqh1w1XqO/Zu4JNn1/Hlm/ZnSzLNu9iSx/ekS7I039Zqans/OaVTmyggvos3QgF9SKU+2TvFOpRiOnPxyMDZ6gfMyGF+jhCr3460VmBHk9gnKF+fCVruAn1MFbRuavyWYatksP2KBvrWaUfrrqRF+ptoFyEeltZX1DvWlfRBuNH9FT2F3XDTDd8QL0plMvg3kbWJ9Sb+JwQUO+Dn2kwXsbtCdTL/lABvtjDcJXNBfVbdrEI9F0T6H1APYxV5+j5/0wMm9+fX4+ysZ55feDX8+hG1Ta3R8z4+NTEOdXcR6Xwgal889CL0C/mfUB9nrqKstEGebvj16NumOlGXqi3gXIR6m1lfUG9qW74hnpf/Kx797WHz2F/VUcA28WL2dfqGFM/ZkISU28SP499OvOINb030N06MM4x9eMrWeOLjRHoFTH1po6MbxhpPcqaNZCor7x1VbXVFepvZxNnz+OgPizQA/DzQn3euqL4+RgX3r3jwslPURr1ytxfuc5+hvCbquraNNwGoTeAdBHcVXlboMdxfEC9jW74hHqRgUOxdzqlpQ7I8Z/vRwZ5Z78xgfoI9OX/UqzsHs2ua3GKm0NMPT4WQY5dl9oYtnicKGveYMS6sq8rP1AfHugB9YOGj3SyVXx8KuqGvW5QJwZ1J/olVT7Wc6wrnW5g9rN+lYOt7TiB+nk1KdSHBvoC1K+wPk9MUUwx9ba24AvqffOzjteNoF7sYSBv+lPJhoZ6GSyadATi6P7+koc2hYZ6W8PmHWKUjQ0krw/8ui/dyA/1xQF6hPa4Qv24pZPSF9rjKHscZQ9hR1GvzPSq/jf5ob4YQA+or1603Bnq65+vt/Y5PqBexcAmDO0imwn14kF9PTJwhfqKgbezuyZMZaMnVSmXuydWsbsnTmu36Pbn/4uy05T1ytcT1kPV1e0jxjgZrslIvS/wig2GWYMRRxb19QSYEXXSFep79R3ABg0fwQZX3sUG32GwVI5KwmcQQtO2GMjh2DdlelcMdLJVHupx/TzU6dbFuvIt2/y7Zlb9z/PZtM0z2LhlE9no+nvZXQvvYaMWjmWjFrRfsP2umowlyib11pnr6u6ae9jY5gls4tqpbE7rXFb3q3q29Pdtdh1aJ1X24KtcQH2F80h9bfCQGwrfQcehuskN6vuPHJLcN9v2KC/Uh+JnXYdAC/UhHxm4Qr2vrz3G4/RxaozLud6yoN6XE4xA39agyRqcWM/5INV19ptytk3x3AjqoSsyHZJtC6FXLa+3sLpf1rNpD89gt0+5k/XsV9Hl/KJY9zGfs+3r1YdV3DmEjWkax6p/8gBDTHrLGy3JKHCp9VlmN+I20Y6SmPo73MJvple3TWlJ8K1KXWLo6VgkW920zMk+eai3uUdNryxilTNHOZVZU9/EaJYa3YutMkDPw95KqBd7GMib/kxkI9TndCw9o7zYOOmgXnRkNoYdZUsLXmKjJMt3pXvUXaC+lDbY/FoLm3vg/mQUue/tA9n/6RX9qehPYz5bJ/CF06ET72CT1k1ldb+qK2kHVeYXxW0yP5l39hsCb11KUE7z2COv25//j5fNBfW/rk+eiop1osqjrppebnKH+rrGFOp987OKxVGOFOpFKPcVcsOfSIT6bIcRnapdHamgXubIVIYsbo+yEehFnaB8KN3oFlC/bFLJAKjhhUY2Yt5oduttA5xG4KJftvPL3aG+APcDRg5hsN3Fb+p9Zii/QX5JlarKDQ31PJTnnSHHNaYeI/X1zzdY+xxMvOE6Ur/wJtSH4GeepWmduL0D1OcZ9reRjVAfHaNvZy+DepUjUzk+fnuU1TdOsa4Wpy9eQVf4+tCtZ+lVd4B6zH6jqyP6L6uuaD9ZKsoiXn7Wvrms98DbIszHJ71BdOBHt/Zld9fdywDKfNw96aeok8jTf1lpKNmQUO8T6HGs+c35Zr/JqmP8z9dzHqivqWtMpnIn6M5KbfhZPBYv2w7qifQpDgh505+tbIT6CPWhoZ43zhgHH+PgeYdezroRob6gqz7v0aJ/WcTuXTKR9aqIMfO+/W48Xse2HANMiLdf8vs2aPepzzgW789061nlhoJ630CPkBwf89Tb1FUSUz/LLaa+tn6RKT53+I5THvZOoV6EcpC/6c9FNkJ9R0cQnWO+OuFH6rMcmY1h+3Sgsdy2zkW8R/KGOUJ9+9GyvB1yyI+sHsNu6dsvyOhs9Nv5/HaXrL9efRhCPhY8uyCB73L2dSGgPgTQh4Z62T3KO/uNCUO78DMdVyabQD0/dF+st3Qj1EdH6NuZE9TLjFMH0/x/UVYOmnwd0XqsqzB11d2h3qdeoVEeXXdPhPkYblMSHeg7bCCr+XlNGqaXt4MK2yD/m5Wa2pFvqDcB+kf2rWRHnpnSYTn89GT23FOT0uXw05PYkWcmp/vt3j7J6T7Sx6dUdaaqq9BQH4K9e4ikj7zpL4/svv2POt0c3yAYj9d1OheA+oYXG8vagcqcisqhyPYVt0VZ/42cWMfIF7OeuzPU+6xnTFc5cc0U1jOO0Me2toSdmkH3DGMLDxfAHvot8y+ybT5tQVeuT6g3AXqMuAPo2bs92i1/e6cH+/6vf5cuyIv7HHv1H510WQf1unoOCfV5+Fkn24Pi55GGDrmhzgJOaG/rAaebEyG860C473uZQP0LDSnU6xyZ6ER1hi3uK+ajbPk1VJ35HnVXqPdtR4hp7j0oznDj28/G49m1wXh59q6FY9mi3zWXHdDDT/qCelOgl0G9CPT/LQF6AL5vqM/yOaGgXoRyn+ydQj0KMf35eGQQod7OMURHml1fQ8ZXsoabUA9jFcFOlc8ybJUctkfZWM8q/XDVje4I9a51pbJBzEM/cOztceCohCPUsc1qa7PwPsd9B+cZtUm+bUHln2i7D6i3AXoR6gHwWSP0NGLvE+pN6jkE1PvgZxqMl3F7AvWyP1SAL/YwXGUj1LcZfHR+fuqCoB7GSg4rKzUxbNUxomys5xC6UbVtZpeHUX5KS992hBlHxi1zi72NvtiPL4712LEeb7vrdrboX/Sj9b5tQeWf+O15od4W6HmoF0foZSE3BPQ+R+pN69k31PviZ927rz18DvurOgLYLl7MvtYYUx8dX0fHl6dOAPWNLzZGoP9D2wwzvPM2dWS8DK1H2eJ1YKq2dh+oD6FXNUfqWL9K+8/e5/E9UdavL++q9Tlp/VRl+xTCFsh/69KG3zayCgd76dm7glVV1zL6SqzNh6UQUy8CvSrkxjfU29SzT6gXGTgUe6dTWuqAHP/5fmQQZ7+JTtC346bZb3QOjP6zMWySoTTKFg9wMVsELah3ugdZaWe+R90F6oPco98vZZPWTWW39O7b5Z92+Paf8Xjh2+T+I4YwfNBI9F9BbEExuMOXjXLrX2hw6gQnUD+vJoV6jNhjFN5kwSw3piE3PNR/mPNFWdt69gX1vvlZx+tGUC/2MJA3/alk33jjTbZ67QbtsmrNesYvWfvz//NyWF/UspT16tPfydEPqxqRvOiCl12yllELxrJRD4xJl6z9+f+jbHb9Un3J6mrS2qms+XctHRwm78SwbmvYvHyU7R5gXcqOxLxD8zP9DNkBUpkt8P/r1kslO3vf3LSz5nOaP3xkavj0kU5+nofanv0q2OBRI9iIiePZ3VOnpMtdUyYzLHdj4babrJer7OipU9g902ZKl7FTZzBaVPtg++ipUzvUh+p6Ud6YaVXS8nCsMVOrkjoul3oeNXkiq7x3LOs3ZAj7Ua98ncVe/fuzWXvmtGujSt2m1P8mP9TbAD32xbSVBPVZITc81L//ivvsN/XP11v7HB9Qr2JgE4Z2kc2EevGgvh4Z/PDDD+zGjRvK5fo337Cvv/6affX110n6zTffKPcVjyOTPXbsOKu4bYiTs5978H7W8sZi/fL6Ytb8WjODEtCCfMvrGXI4bpRN6i5vXQEOeACXrZfagZYSFn3Ck6xu+W2xnt07P7hPeW2h3P0VppsMYQu1R+rYrQPcBm8SqO/Vl1WOHscWLl3DFm3czBY/tI0teXg7W/zQI8l6y0NbWctD25L8ks3bmclS7rLLtu5kG/YdbFv2HmTr9jzK1u0+0LbseYxt2Mvtw+2/dtcBtpSri6zrXbp5B1u9s7WtPDrWzXKXb93FyqqeH36EtTy4lTWs2cQmz5nPevXNMaNSrz5sTNO4RPfhL8vBTwLqncNv5tUyW6BHmA5BvUnIDUE94P/oy25Qjw+B1f2qDepR73x7pVrPC/Wh+FnXIdBCfTEfGfAnGaLcU6dPs/4DhzpB/bxD1ZkKUA7GGaFNHktOBhvvkZkjK5fGJupz1GeyXVOdnL59lpOPB9AjnGD89LlsyUM72oUQAFpc4oYRhtAZZNfs2M8ePHAoXTbtf4Jt3Pd4uiDP/y+ur915IK0vk+tdsXUP27Dv8Q7HpHJXbCnUtwss0n0KKVuzfB27begdzno2dNKdrOnlRWUB9PCxSUz9HfbvoMBeplfXpfc+K+yG1w1Avc0IPc2Q4wPqTYEePqfplUWscuYop3tdU9/EaJYa3YutPPvSeh4GVkK92MNA3vRXjrIhoT7CYoRFHj749agbUTd4feDXo274142R88c4NcCA+jGTprPFmx5pByk8iNi8CNhZgB7nuX7PwRSwCawJ6rOAHoC/8pF9SZ2Z1tXKbXvZpv1PpmXiGFTuut2PJR2hkFDOw6fpOfMyy7fsYvOalrHe/Qc56VqfIbex2l/WpU+qSj14kXf2m/Z1I4+pF+sZX4qlEfislH+hNhfU/7o+6UjxPli3Dv/c9HKTO9TXNaZQX0x+lkK9COW+Qm6yOgUhyw0F9bFh9t8wywwt1nOsZ5leYFvUjagbpBsD7nZ7GtvvtqGsZdO2bgf0GDXf2FoYiSewtgF6wDmgToQ2HZSv3t4qBXqUi1F/nawIkDbl+pRd+tAOds9Ut1mqEJePD6MB5ksN9LCb0FAvu0dHnplsBPU80CMG3zWmHuE39c83ZEZckB+hNgUvNbuO1C+8CfXF5ucOUJ9n2L+cZUNAPd34cjFOUkhdGs85ApBKP6JuRN3o1Lrxb0vZLX3dXmScMmd+twN6QO6qR/Ylo+YuQI8R9vV7CiPrFPZi8jRj3Z7HUqgXy12zo7XdfRBBnM/LYJH/X7fuQ7ZhzUPsllv7OY3Wz3hkZlkAPew9JNSr6hlTWmaN0FPIDf9Cbd7Zb1T+jd/Ot4N5oL6mrjGZyj1rMJv+98XP7aBeHCkv5iMD19gj03P2DfX8jS+H3javlKr1eM4R2qJuFOLUoy10PVto/l2zE2Bh5BQvxhIEqkCE/telnU0W8fQYqafReaQAbTFuXpXHqLsN0KPuVE8GNrY+zlZtN4P6cqnnQcPudNK5yeunWYeC0OChb94IBfW6e5QF9eIIPcXf+/yirKwtFNuFJKZ+lltMfW39IuL1zNSUY2UHEmVTqBf/KPYjA4L6UOX6hHrxxiMvUxDZtigb60qmF9gWdSPqRtQN905XwwuNToB1a7+BrH7VJuswEhHudRAj7ivmSyW7Ztd+Z6AHnK/YujuFelyDeF1iHvH0fAw9dSaSEfvWJxj+F2XEfKnqSlbuiLETnXRu/IrJZcMMIaBeVlf8fTx0qJqdfPOfOi7/+k/sxBv/xI6/1rYgf/JfC/v+7mc9nep7wMihDP5B5V9V7W/e2W9kEC5u883eCdT7GvYv5hu+tufsC+ojeEXwUjmGqBtRN6JuuEM51Z2rHTU83+DU4PfpP4g1rN5kFRfOAwrWsyBG3J/Pl0oW57Bu96Mp1NuM0GPfQujNzgTqcQ38NanW1+w8kL4UywM9QB95lRxtL1VdqcodNW6Kk86NXz5JC5h5bQHypnbkG+pVdUX3UJdmyc5vXulU31lQr6qr0FBvy7F8h0Al20PsJSBv+utMsj6gXnXjyQB1aZSNwKfSj6gbUTeibuTvDGAeav4DUqbrgPr6VRvTEWeTuHAeTLJAhN9XXC+lLGZx2bDnYALTtkAPAC+81LrT6sVWzH9PMI+UL3ftrke1UF/KulKFGIWE+mK1Cz6hPvQ9CgH1unoOCfWh+LkHhb0gBfmb/sQTKnfZvFCvu/GqBpm2R9kIbaQLYhp1I+qGqBOUj7phpxt1v3SE+oqBrG7lhhTqASYifKvyoSEmZLkrt+1xBnoAOeLpbeoK14LRfYJ6HugxUo+XdkNeL4G5zTln3d9QUF9M2/cF9Vl1pbq32G4q6xvqs+o5FNSH5OcU6lGI6U817G8iXyrZU6fcPz51/5Pz0umnfL+kQg24LM1SOJkMbYuydkAQ6iUkuh+yNN6jeI9keoFtUTfsdcMH1PsEPh8QIzuGKQBlya7Zub/dSLnqZVjaDggnIMfXZVc+kh3/TueAc16xbU/yVVpxhB7H33TgEFuxxWyO83K6RyGgvti27wPqfelk1lMyn1BvUs8hoD40AydQbwP0Yg+js8ieOPGx8xdl73+8DeqhCKqGWNxuojSiDOWjbKxn0gUxjboRdUPUCcp3Z93IC/XlBIsEw2LqE54A5gTsWSkP9IByfBF2hcFLrTh/OudVj+xVPhnAB7DEa+VlQ4yyy8qjbXTOWeX6hvpS2G9eqDetK6pbPrWV9QX1pvXsG+qLwc89yj1sBqP/YkW4nPNHJ07khnooAjWeWamp0siOE2VjPcv0AtuibkTdiLohj793jqmvwOw3G6VQyQMIrduCCMkhLRfZ5Vt3OwM9AD+BesXIuup6dU8GMLUmL1dOdYV7Jp4b5X1Cfal8e8NvG1lF5WDr91F69q5gVdW1adha1ig71RmlLrbgA+pt6tkn1PvgWAqX1zFwOqVlVuiM70cGV69eZZ9++lnm8sknn7KTJ0+xkydPJunp059kytBxednf//7/sn4D7BUXL1tN3z6L1f6ijqHRMFnwCeiaI7XpEmU71tuiVxYlHSQbAxNhJspGwBV1gvJRN7qfbuSd/YZgQ5e6gAgdr5xkV+/YbwT14gg98hjVX5fxUiuumb/eZZt3JvH0qicCq4RRf162GLDoeo98QX0p/VXd8/WsX+UgN6ifV5NCPe4Z1WNW6np/5zevsD5PMFz/O4ew+t80WA+K+YJ63/ys43UjqBd7GMib/lSyh378FBs6/M7sZdidbCi/mMjQPpzcoCHDGT4yYjojAr/frQP6s96DbzNfBg1gvfklynaouwkrJ7PFbxY+k03x7HBsBGVZaSmdIJ1vfL+iMGKqulfxHkV9LqZuNDzvNk89TWkZCkRwXFeICSWLcBcVYNN2FdDj/9Xb1S+1ys55xdY9yZdr6dh8umEf5rvfkwJhudWVTi98QH2p/eTCn9WwvrcPtGajZKT+JtQXA+hxH6oXLbc+T7AcGA4DrbZttw+oVzGwCUO7yGZCvXhQ3bC/eJI62db9jzndHB6243qfTluH9zSPZy1vtKRGFoFeDcildvrkCOM9iveIIL0cdTIk1Hcm0CQIVZ0zAJq+6srDNb+uA/oHDzypfKlVBvQ4D8yUwx+fX8eMOAT1qnOma9KlpZDNC/XlYEcLckF9bdJh1d0X/r+896i6yQ3qe1VUsJrDNda8kRfqdQws8rKYd5XVQn3IRwYR6jsvkPvoTI0F1L9egPoIixEWyxkW6dxUaTk0zPGp0VIWCurzggi9bFkuYSSYOnLT/ieVkK0H+kPJDDY8qPHrqrpat+cxZXlrdx1IRulVsvzxVeulkh01brLTwBo+PlUufmPBc+4j9dOr69InLKp7Q9t93KPqpmVO9c1DvQ1vNL2yiFXOHOVUZk19E6MYeKSAdNNfHvZWQr3YS7A5IRPZCPUR6jFSb2Ng5eIE4znHTggBftTJ8gkxCgH1PkCEoB7HIsDJSkOWi5dSH9x/SArZWUCPEXaCcPEadOesejKAzsWqm/PdUz2VS+dHvD4xj+t1hfpxSyelo8al7pAv/Hmtc/jN9PlmUK/TDbFexTwvmxfqbdvuppeb3KG+rjGFet/8rOocoBwp1ItQ7ivkhj+RCPUR6hFTT3CUlUZ4Kh94Ut2reI/iPSqlbviGeh4mOhNoZsHxut2POgM9oB5TU+rAS6yrldv2SsvDsQD7OFbWOYvlUb7U98gH1NuCJoVD+uoMhIZ6n/fINaY+Gak/UmvNG00vuUP9wptQH4KfeZamdeL2DlCfZ9jfRjZCffeG+ntaJhiP0kdYjLBYSliUlR11svx00ifU+wQRHIsgNCsNXS5i1zfsfbwDZJuM0BOEi/PTZ53zmp0HOpSHY2FZv/dgpwV6dETyQn2pgR6+LSTUZ+mGzh5ksq6z3wDqMQuhzJeL23jfngfqa+oaixZyw7N3O6gn0qc4IORNf7ayEeoj1Js4NN7AfI1MiEYsy8dyyw/axPsU71G8R7xO+IJ6GUzo4IP/r9xlMWq+qbV9PL0p0CcQvudg+lIrrtvkegHuBPF8inJX72hNoR7H4utSt25Srkrep2weqDdp/0i/Q/q6UFCvq+f12zezHa3LlMv2vUvZI3uWpMv2fUuTfZevrXGKbzeFerGek5j6WW4x9bX1i0zxucO3mPKwdwr1IpSHfmQQoT5CfZZTEw0sa39ygEijbAQ+Xh/49agbXVM3fEC9DkRUkEjbO4OsOAuNDdADyNdy89ObXK9qph0qd8XWQugNjkX1mJWalKs6hm9Z19lvxi2bZDRqXIy2LATUZ9XzMz+Zyb58+39Jly/e+l/s0h/bFuS/fPv/Sfb902/+v2BQL2sX8s5+Y0L1vtk7gXp+6L5Yb+lGqI9Qr4N0mYHxYKZbj7JdE9ronsf7G+8v6QKf5v34VBaIqEAR2zuL7LrdbbPQEFhv3Pc4w4I8P5IuruOlVny0yuZ68RKsONMOlYuv0i57eEdRp0T0HbvvCvWY/YbXXdV6MXydb6g3sYUjz0xh7N0eHZb/fqcH+/6vf5cuf3un/T7HXv3HIFCvqufQUB+CvXuIvYQ8w/42svv2P+p0c3xMpxiPUfoOhS6mXmVgKsfHb4+yEfh4feDXo250bd3A175dfDs+PlW/amMaBiK+6KmDeRvAlR3HBIBkcq7l0iw0BNamQA/AB5wjfMfmnNfsbP/lWr5czKKDY6muT9xuU26xZENCfbH8lU+oN71HMqgHwOuAHp2AEFCvq+eQUB+KvXtQ/DzS0CE39CgCF7O39YCTA3Zx2lGm9BAv3gMV1OsMjAc02XqU7drQFu9vvL8yu8c26EbdLx2hvmIgq1u5IYX6zg6aItBSfuW2PclIPA/WJiP0NGK/ofUJK6BHubonAwgFonPLSk1hVdBjZQAAIABJREFUUXackLKhoL6Yvs4X1NvUswj1ItBjxF42ku8b6rPqORTUi0Dvk71TqLcZZffxyCBCffmBtgjeIfMyqM8yMFWDTo2676m+dOXRf/GcI2iSLohp1I3i6oYPqO+qQA/YReiMK9AD7DGybhO+ksy0s68w045YLp4YYNRfBuHiNhtYLLZsCKgvtt/wAfW294iH+qyQGx7ufUK9ST2HgHof/EyD8TJuT6Be9geNqoup2MNwlY1QH6EeRkUgZGJgtK+YRtm2ehTrRszHuop1JeoE5Tu7buSF+q4M9IBdzE9P4TY2I/SF0JsnkvnpCepN6iqZaWf/k9KOBOLpAf0ihIt5W1jk5Ysh6xvqS2GDeaHepZ4J6sURejGGngd6n+E3pvXsG+p98bPu3dcePof9xQ4AnxcvZl9rjKkPORJe7sfmR+pNDYzgg0+jbIRUXh/49agb3Us3nGPqKwYmMfU8EOrWXSCGjlcq2eVbdrH1ex5LoR4j5xRWk5UWRtkPsmWbdyYj9bgGuh5divAacYSeysW5ZEF9qerKplyfUF8qf7XwsPsXZauqa62e3pC+AOpFoFeF3PBg72Ok3qaefUK9yMCh2Dud0pIHcNm670cGrrPfTJ9bzV75w3+wf/vLu5nLv/7pHfb6f/w1XZA3kcM+xZb947sfsPdPf5IsR0+eYrRg24effpa5vHvilPU5//X4x+lxUQ6V+e7Hp9jb7x9j//bXo5n1NX7qTKd3IwjqbQyMBzasl7tsy+strOGFRvbATxeyKZuq2F0Lx7LB4yvZbXcPTT7L3WfobSxZbh/I+pgstD+fmshhH16G1kso23fYQHbb3bezwRMq2aj5Y9nk9dNY9U8eYA2/aWAtr7Wwpb8v//sr6mNn0MmufM55Z78h4NClNsAnHqeUskkozN6DRrPc8JBPUL5+96NWQI9rx/SXqicDCOUR64fPl7Ku6GmEyQvTvqC+lG3Zgp/VJO2R7UBgz94VrGpeTQr1uGf8PdStH356cuZLsTzM0/qHOWe/sa1nX1Dvm59ljE7bjKBe7GEgb/pTybpC/X0L6tifj51kH5y5oF3e+/Qce/fUmXRBPkuG/i+F7CdXvmKXv/2OXfzmRrp88e137Msf/pa5XPn+b+zkxSvpteK6s6732NmL7IvvfkiOjXL4ci/d+JZ9fOELo/qaOmOuM9TzMfBd6cNSjS81sRnbZ7FRC8ayAaOGsh/17utUR7ZOtrPv/6Nb+7D+dw5hI6tHs6mbZzCMvJKOwBnLgFS2zdZx88eIsp23nn3MU68Dkc4Cmvw10DmvemSvM9ADzNfsaLWeqWb9XvmTAcyig6ku+fPk1+mcCa5tYLHYsj6gvtQ+Z8Gz+aHe9h4999SkFOqzQm4I6JG+/4r7lJY1R2rT9sSUN3xAvYqBTRjaRTYT6sWD+npkEBLqSwHl6BC4lvvh2Yvs7FfX2oH1F999nwnzBPwA8ve5TkwW0ONcT1++KgV6lHvxm28Zzok6OaoU5Uxxhfrm8azljZbUyLoCtMFRTNs8g91211DWs6IignxP9/dGevbtx/qPGMImrp3Cml9rjkD/h6XSOig1EJRTpysk1BcbFglyfZW7ZmchFIYfhdet0wg9jbSbvtSK8y4A3q50lJ5Cbqi8TZqXZH1dr8koO9UxnTN1Imxk80J9OdhvvpH6WuvOHuqXoN4k5IagHvB/9OUcUH+4xpo38kJ9KH7WdQi0UB/ykUEoqHcF6zxQnlcWo+YXrn2TQr3pCD2gHhD+6RdfsqOnzyYj9SZA/+GZC+zCNzcSWX6Ensr99MpXRkCPJwKuUD8WUP96Aeo7O9AvfnMJQ1xi5YxR7P/0cgfZzj7SHur8B90znM3/yQOJQ+ZH1cX1cmggTUeA6NzjOft7MhAK6jsbaIqQilj4dXvaPjpFcK1KRaBPXmq1nKlm1fZ9yicD6CjwQE3rnbGeR42b7DR4gy/KlovtL3jOfaR+enWd9F7SPeVT/v4C6m1G6GmGHB9Qb8MbTa8sYpUzRznd45r6Jkaz1OhebJUBeh72VkK92MNA3vRnIhsC6jsj0OOcT1647Ab0CJu5/g07cf6SMdCjA3Li/GV26Ztv0zIB9gT0V77/gR37/JIW6vl6zgX1b7Qkjo0AJystFyfIOwV0TKZsrGJ9hw50MvxQINzVjtv7tgFs/MrJDCMnMj0pR92QnSe/LZ6zP6BHvYaAeh5EbEZwATPlIrti625GH51SgTxtF4Ee+fV7D2a+1Cpe79rdB5RfqEWsPQ97omxnqmdXqB9dd286alzqgYC8s9+I91KWF23h8NOTpPPQ06g8n/Iv1OaFer7t5n2xbB37Nr3c5A71dY0p1PvmZxWLoxwp1ItQ7ivkhj8R31DPg6ZJTDkfUlJq2XNfF0JvbEJuKA7+3LXr7IPPzmXG0PPXe/rSl+2Bngv1+fzr68ZAn3ekfvGbi6WApjIwetRfaieYnt/vl7IxDeNYz34x1KYYnYhb+vZjd865K3nCk96DTvDCNH+utB6B3i/Qo15rf1Hn1LHGF2UbVm/qMqAJKKYFMIVRc4J2XSoDeuy/dndHCBfBjYc2rGN0X1XWqkf2tatrXrYzAT3O1RXqR9x3dwr1tqDpux0MDfWy+3vkmclGUM8DPb42mzemnvxvVkr+uekld6hfeBPqQ/Azz9K0TtzeAerzDPvbyPqE+lJDOeDWtSNx7OyFBLBppJzi5HVpIe698ELtZ1e+sgL6D86cZ599+VUK9Xy5V34ovHDLdwD4dVk9T5t5n1NDSrPfZBkX/icDI2dWaieIc2p+tTl5obMYMBvLaB/SNKxqJIOzLVfdyNLpctTnrnDOC55d6OSLZFAvAxERZFX5cpPlv+qqAm0V0D+4/xBbs2N/OwgXr1u8XpqfXlbWpgOH2Iotu9PjibLIi8dX5ctB1hXq75g5KoH6cmjLQkK96h4993QVu/HXv1cvf/l7dv3Pf8++evt/pMu1P/0P9s6L/6+TjfeqqEg6/Vl+TmxT8kB9TV0jsxmht+FnAnlKedl2UE+kT3FANidkK+sL6mWgyYOobr0cZD/94moa+qIDefqPRugpFh6hN7pr5P/D9X7w2Xl2/mb8Pg/0OD5ekFWF3qjqKjTUlyMAYcpFdEowchyBuz1wF6M+MJvQqIVjGeIdqaNXNk9vFC+0UmNSjvpM56ZKO8s5z//JAid7FKFeBSIquOS3l6NsVuiNEugPHGLJTDXCyHrW9a7ZuV85Sr9+z8EU2suxrvhrk62L5+wK9cOrRpRN6GkoqBfrCnmq0y2717KnfjxXufzk0Bz24ydn31zmsH8+VNh3y5bpTjZuCvWir0ti6me5xdTX1i8i5s5MbfmZP6Aom0K9+AfI3/TnIusD6lWgyYOsar0cZBE2A5AmYM9KRaC/eONbK6DH04RTF74oPBngQm6o3DNXr0tnvdHVVUioFw0MeRV4iNtDys7YOTuG3OSY2cYH+N/Spx+bsGZKCvXlohuiHvL5kDrJlyOud5dyfUC9DkQISFRpOcqu3LZHCdgYSdcBPf5Hh0D1kSjV9eqeDNCov0pWVbf89nKSdZ39BlAv2qkqH9p+Q0B9qHs0v3llMKiX1XPe2W9MGNqFn+m4MtkE6vmh+2K9pZsX6nWgqQJ52l4usicvXWF4MZWgWpfyITf0YutnX14zgnq63qOnzrBzX1+XPhnAeZy6dKXD8UhWFWIUCuplBqZyeuL2kLI1h2vidJUlBnrqFGDE/r7H55XNiJeoh3w+pE7y5Yjr3ancvFAfCkR4IJWthywXEC0LgzEBeuzDj6zz56465+QjV5p4eoTmqGT546vWy03WFeorp480gvpi2K9vqA95j0JBvaqeQ0N9CPbuIZI+8qa/PLL79j/q1OPCx6fe/uCE1YeWCOaRZkEqv6+47lP2/c/Os7NfXzcDeuHjUBixx4ejTpzP/kAUf87Hz16QAj06E5dufNch9IaXVb0zEALqVQYmAossH1J20b8sYsOmjXDSWwLRmPoN1xk0dhhreKGhbBrIYuukrDzaFtIWqAxZWqpyq3/8gJNtIvymftXG9OXSzvayJv9SrAjDgHIZ1GeN0JMMjazzx9VBmy6eHi/P4jh0vl2hnkNCfbHsyCfU63SD1yHZuolsCKjX1XNIqM/DzzrZHhQ/jzR0yA11FnBCe1sPODnguQ/UsrfeO55CPcBThG9V3gRSiyV7/Nwldvnb7A9MiSE3NEPO+es32LHP9R+IEq8XH7hSPQ04c7X9qL8oq6pn31CvMzAZQPDbQstO3z4rht2UySg9dY4QhjN5wzS29PfyjzORfoTWDSpHTGO5xQuZqz4036lN6VMxkNWt3JDCJuBCBh2ybSYgIpPDttCyGDWXxdObAj3AHuE7/PlnnfPq7a3STgSOhaksMWc+QX1XqOdQUF9Mv+EL6rN0g9cjcd1U1jfUZ9VzKKgXodwne6dQj0JMfz4eGbhC/Zz5teyto8ecZ5tRhZGoYB7bTQFXdgyVLKaVVAE2bZeF3NB/n335tbYzI5aLWXZ0nYiPzl1OjyfKIi+7NmzzCfVZBiYCE58PLbvoX5pZ5YyRTtBAABpTv6P0VJ9DJlSyxpuz4fA6QeuhdYPKEdNYbvGAHi9K+4D6rgCaBEyYOhIvutKoO1IboEeHgI6F1AS8VB+5Qrmrd+zrUkCPOgkB9cX2Gz6g3kQ3eF3i121kfUK9ST2HgHof/EyD8TJuT6Be9ocK8MUehqtsLqh/77jVNI42kCrCayhZxMUToMvSDiP0336X7g/Y//iCOvRGds6nL19Vxu9fuH4jhXaZrFgnfN4X1JsYmAhNlC+G7PynFrBe/eN89ATS5ZTe0rsvm3vgfmkITjF0g/SQT2O5xQV6H1DflYAe0JTE0+8/lEK9DdCjA4AXXgm+TMFL9WRgw76DbMW2PQnUd6V69g31pfAbeaHeVDdIl/jUVtYX1JvWs2+o98XPundfe/gc9ld1BLBdvJh9rW4x9XPn1yYx9TxY6tYJUv907CR7/Be/ZbufPsL2PvMLtveZX2Ysv2B7fnqE7X7qMPu3dz7w+mTgo/OXU0A3AnphppqLN76TzlKDeqDr5Z9IfHj2IsNHpWRlYdupS18mUC+T1dUt/vMB9aYGxkMTrRdLdkzTuNyj9L36DmB3jZvM8GntufWL2X0NS24uS9n9jcuMljaZbNl5TcvYwqVrWN2K9clSu3wdq12+ltUuX3MzXZf+R/u0T9ex6kXLk/MyLXd+y4oOx6RyFy5dze5rXMrua8D1LmUzFzSy0ROrWO+K/F/jvXPO3R2gvli6QbpIaSy3+ECfQL1rTH3FwCSmnocN3botiPDHKqbsut2POgM9oB6hNDh303NGPD3/VIB/MrBhDzoIu5Jj8fWhWzctV3aMYsn6hPpS+Y2Fh2tZ39vtfXDP3hWsqro2ffpSjHckfEC9TT37hHqRgUOxdzqlpQ7I8Z/vRwZ5Z7/Jgk0RcN96/wTb+sRP2erdjxktq3YdYCt37E+W1/70X16fDJy9qo5t14XcEJR/+uVX6cg6Xw8qKD9+7rIy9ObSt9+x459fknYG+GOr1vNCvY2BETRRWixZlNN3qL3To9FsOD/MZ9y0brNxA+mjoVqxbW8aU2s7SocGecPex5Pp7GwayPV7HmvXsPPlrtl5QNqoN2/YwsZMms569Rng3HHCTDjNv2tOwb5YukG6SGkstzRAj3rPO/uNzObEbTa2UErZZBaavYWvuvI2uHHf40kIjgjfYh5hO/AfNtcL++aPw5cLv4BjiXWiytuUKx6jmLK+oL6UfmPBz2rcoX5eTQr1xbi/85tXOLURNE+9bT37gnrf/KzjdSOoF3sYyJv+VLKhoV4E3LePnWTbDj1jDfQA+zf+clQK0TLQFctFnt8PH3cCSBOg86ku5Ib2w9STsg9E6cpF6A3Ji+nZr64zzMRDI/uqWW74a+DXp86Y62Rk+HgTRtf4BQZHcJSV2honfzxb2QXPuH2pElD/o1592cSZ97OWjdusGkgfDdXq7fuTmFq+cTVt1NE4E4TTi21ZIzF8JwLyYrn4X7wuyi95cDubdv9Cdktv9xCn2a33Jfpje3/z6EaUbbPhUttvaKgvJiySXSB1KRej5giFEW0QeR68Vesb9hY+EmVq+zjP9XvbZtoRy129U/9V2rzXS/IudZVH1gfUl9pfLXg2P9QXA+hxn/DkmAbLbFJAfc2RWmve8AH1KgY2YWgX2UyoFw/q65FBSKiXAe6fPzptBPX8CD2AHvl//c/324E5D7X8uqxc/n+sI9RFNjd9B6AXQm4Ixs9du97hXLLKvfiNvBOB8zh58Yoz0KPcKa5Q3zyetbzRkhpZqYGAhzNxfcrGKidHAqdz94RpbOlDO5wa5jyNDWQx0i42rqaNOkbqAAY2jfrqHehEFGJ4xXI37G2Lz6XrEtNlD+9kE2bc51zXYxeNT+as7wwdRV7HSt2oU32Vsw1SfenqKiTUFxsWyTZcy121HS/JPsHQiafF1PaTDv2uA2zpw+Yz1fAz7cjKxUu7dE261PV6ccxSyOaFep0+k86rUl+y+Ubqa5N6191T/r+896i6KQfUH66x5o28UB+Kn3UdAi3Uh3xkEArqVYBrAvUyoEe4jgnUq8rloR6x7We+6hjbbhJyQ1APCOePmVWuLn4fX7N9/9NzKdTjWPyxdetUrivUjwXUv16A+nKHiVELxziBZt8Bg5NY3byOzAasyYGikZU1rqqROXH7+r2PWTXqKJe+JCkrF5+Op3PTpQ1rHmIDBlc61fftU+5MnTZAtdz1Co21r4Y5Xu/SYOE3pbBf2EiecvGUjWDe5ukc/ABG+NEpIL+D89DZLP5btb1V+VQwCeXZsjvzGHmut1SyCKu0GTGmfYdXjSwb21/wnPtIPd4Py9IN+t/HPapuWuZU38lI/U2ot2kXml5ZxCpnjnIqs6a+idEsNboXW2WAnoe9lVAv9jCQN/2ZyIaAegJNCiXhITUL6lVAbwL1unJ5MEbsOl5yJUBH2mGEXhGag33xgSgcg45pUq5qbnqU++kXV3MBPeo5F9S/0dIpwGvopDucjPrOsRNY88ZtaeOIRtKkgfThBAHRro06oHzV9rZRepNzxnzWG1vlTwYACRj1p+tSpShn8aZHkqcb1PjZpANGDkni6iPgds85+0OM1PsAERs4JtvIWy5i2Mn+Yc9ip12Vx74IvVmxtfCRKBPbxzkn/qZV/mRA9VVaulakea+X6riYPhbn7A71I8pmACLv7Df8fVSt+7q/eaHeBuixb9PLTe5QX9eYQr1vflaxOMqRQr0I5b5CbvgT8Q31WYCrg3od0GdBfVa5BOBIMcquBXpFyA3JIP4do/04lkm5qvh96kgcO1OIpcex+PPUrYvl5oH6xW8uLssYev5xJwz7trtvd4L6e6fNZkse2p5CvWkDmbuR27KL5WrU9x1MPxJjes6rd7SyTcpG/bHkhVuVwxevd9Lsecm7CDZAj30r7hycOGFbx03hJ7Ez0Lk7A76h3heIFBs0McuMK9BDjl5qNbV92O/aXeonA7Kv0vK+oLPWM+6rD6gvtb8KDfU+72/emHq+bdet456gPWh6yR3qF96E+hD8zLM0rRO3d4D6PMP+NrI+oV4ETRmkqqA+C+h1UG9SLg/IiIcnQLcJuYEM4t9PXbabehL7i/H7VO7nX11LRulldcWfM78uu968s9/oDIv+IwMj+CqmE0SIUP+RQ6yhPnlBdta84gP95l3JfNAYbUMDbTtKB5m1OxFPa/dUAdPnEUiI5WaF3ohOv2peDcOMQdZQf8dg1vBiY6foKJIux46Ev46ET6gXdRJ5HkR166WWXfXIXmfbh+3Clm2uF3XB27/oc1ZpntKVuq7g52x9HX/OeaG+mG2ZyueEhHq+rvh63nOghb32i0rt8urPK9m/HG5bXv35cPbj/W4fgKTZb4gpdCnPG3mgvqauMZnKnaA7K7XhZ/FYvGw7qCfSpzgg5E1/trK+oF4GmjyI0roM6k2AXgX1puVS+Rg1J8CmkXJ8gAoL8gT7qvTSt98ns96YlosRfTH0hi/35IXLXqbpDA31vIGVAoBaXssB9bMLUG/TQKqcoA4i6L+C7E6GUXMRrFWP22k7GmKCcoTK2Jzz8q27U1mxXIze60JvZNc7fX6dM9TrvizLO/JS6xU1sOXQqPP1IlvvLHXlC+plOkk2lpWWgyxGzUWwJjuXpbztw37hP7Kuk/4v+IldSciOaPsoa8O+J5RP6cqhrnjQpGvSpeI554H6crH9UFAv1lVBVwrvVhx5Zgpj7/ZQLn97pwf7/q9/ly7IY/9jr/6j9WAPBodMoV70dUlM/Sy3mPra+kWm+NzhO0552DuFehHKQf6mPxdZH1BvCrgAaxHqTYFeBvU25RLUf3rlqwTcebBOgD4j5IYgH6E3NuWiE8HH7/Plnr92nR27GcZD56dLdeWGhHrRwErhBHON1M+eZwXHOieoa2jwH8ku27yTrdvzqHOjDtmssvj/Ue6am50IWaOOae74/fl1OmdxtCw01JeDXpWig9rVOxI+oF6lk7zeqtbLQRb2j6+3yuBdtk0EeuRXbrObqSZ5n0bxVBChPHhpX6yzcqirvECPa3Cd/WZ41YiyeaIYAuqz7q8O6kWg/++bQB8a6mXtQt7Zb0wY2oWf6bgy2QTq+aH7Yr2lmxfqdaApA1Qe6m2AXoR623JxLhg1v3TjW0ahLzYj9AT1H527lL7UajKX/MmLX6aj/2K5+PgVxebL6orflnW9oaBeZmCyUUTZNp+yACG8gGkbCoLwm0lzqjs0ZmLjRvksJ0j7yVJeFi+4yT7VLmvQsU1s1NfsOmB1zoCI9bsLL+XhWGI59FVK8bz5cxYb15BQ71M3cCyZ/sm2xXLD11VeqNfppKi/Yr5cZPEtCMw2I9qhLC/aPvKbWp80sn/+etfswlS2HW0fZeKpQbnWFa5BPDdVnr9e3l+5Qn3l9JFGvqMYfsM31Kvqiq9bFdQD4GUj9DSqH2qkXlXPoaE+BHv3EEkfedNfHtl9+x+1BiWA1X0L6tjbH5ywAlxAKkG9LdDzUJ8FuDwM8+sfX/wigXqCedOQGwL6C9e/Ye+ePpteM86DP75s/fy1G9InA5e//Y598oX8i7TicUyuNwTUqwxMBkviNt+yS95cwgaMHGqtqwWon2/UaJg4Qd4h8uui7NpdbZ+GlzXk/DaxUUdnQAXhfJlYp3JXbNuTjAzKGnWE3izfYj9KFwrqfeuGqHuqfCw3PNCj7qt//IC1naJN6dN/UDL1LD0x4qFN1HtZnmyB5JGX7Sfb5lsWL6U+ePNbEbyti+ui7ZP9rttj8D2JzbvSd4VwzRv2Fb5c27GMJ5OpLvnr9n29/LF166HKDQn1xfIbPqHetJ5lUC+O0FPIDQF9qJF6XT2HhPo8/KyT7UHx80hDh9xQZwEntLf1gJMDnvtALXvrveNWgAtYBdRvffKnDB+UogWAD2jPWjBPvQngilBM+U++uJrEzhPUY+ScgD0rRdjMxxfaRulNgB7TXiJ+nw+5SToS333PLn/3PTtx/nJmp8D0en1Dvc7AVNBE20PIhoZ6Uycoa7BksnlG6QD1skflYtl8uUn8vudRuhBQH0I3SO90aSy3OECPeq4+NN+pTelTMZDVrdyQgir0W9R5VZ63hXLoDOCFVRGuxbwK6LFfVjy9eL3wF+LxKS++TyPKduZ6Jn0IBfXF9Bu+oN7m/opQLwI9H3ITEuqz6jkU1ItQ7pO9U6hHIaY/H48MXKF+zvxa9tbRYwnUmwAugfXbx06xLY8/ZQ30AP43/nI07USYhL5QmZSeufp1CvUA7SyQp/8B/xeuXWfvf/q51fUifl8MuaFyz1+/4Q3ocX0+oT7LwEoBTyGh3sYJUiNCqUwWs8xQg6pLVY06Ph5Fx1elfLlJ6M3ex6RlFr5I2z42l5fVAZBvqC9HvdLpMv6L52zfGfAB9dBRle6L2031WZRDPoQsABtfkXaxfcgUbFb9PQnZOeMjV6ry8I4NXbtMlv7LSstZNgTUF9v2fUC97T3ioT4r5CYU1JvUcwio98HPNBgv4/YE6mV/qABf7GG4yq7b8KDTqEoC9e8dt5655S8fnWY/f/VN9tQLr7KfvvQae+blN4yWp198jf27w5MBAC86HR+eOc8QPmMbckOj7J9eucqOfnLW+HoRK48XYempgFjuqUuFaTGpwyGmpiP0JOcK9WMXjWcAZoIbEwOjfcU0pGwoqLd1gnzDp5JVPQbnG10V0GOflRmfchfLXfmIOn638AGbttAbURZ5/pr4dZ9QH1I3RD3k87HcNtvm60W27quu8kK9Tid5/cS6jT4XSxazTCEmnrd3fl1n+9gPEK56Uqe6XrwIz5fBryMUsFzrSrwnYl51veJ+vqHely3YvIifF+pN64qvO4J6cYReFnITAupN69k31PviZ927rz18DvurOgLYLl5MbX2TE9TPnV+bxNQTVGalPKT+16kz7Ognn7P3PztvtGDf/zp5Jh2lt3kyQOWevnSlAPSWITeA8Qvf3GAfX7SbevLE+UtpJyIBeq5cjN7rXpClc5Z9kVdVz65QP6ZxHKOPT5kaWEggUDnBEFDv4gTJIapk8Vn3rNAbXaOODgGVIUtl5eoe9WOuezqOTJb+k6W+oL6c9Uqmy9gWz9m9M+AcU18xMImpl+mibJutPvPHCCmL92F4qObXdbZP+xVmqilMOWhyzugA6F7KX/XIvrLs/PDXJlu3uUc+ob5Utr/wcC3re/tAax7Dt0SqqmvTsDXd01exngH1ItCrQm58Q71NPfuEepGBQ7F3OqWlDsjxn+9HBpjD03ZGEXpR9s/HTmaGkABCXSCV4NWH7NHTZ9mFa98YzUPPh9zQKDtG3I9/XviCLJ2XLsU5n7rZiRBH6HH8M1evKevN9Xqdob7h3uSLbTYGJoJQMWR9Q71NgyFE+GuNAAAgAElEQVQ6Qp2s7jE4Gu2sRl33gShpuVt3KzsR6FygQcf5S2W3dAQH/lp9QH0xdEPUxwjli5NOiaxeZNt836O8s9/wOqhad9FnOlZoWYTPEaDzaZbt0762M9Ws2t6q9QGhr5fqVUyLWa4vqPdtCzJ7k21DuQt+VuMO9fNqUqhHvYv3QpU//PRk7Sw3PMjz6x/mnKfetp59Qb1vftbxuhHUiz0M5E1/KtnQUO8KqT47AyfOXbID+m+/axc2c+6r60oIF+Ee1/veJ58zit+nGPq0s/D9D+zEhS+kx8tTV1NnzHXqnI1puJe1vNGSgH05z5/tE+pDNTYYMdM9Bs9q1MUX2nhHrDpnXfw+jfqrZPnjy9bzQr2t4+YbuyjrPlKOuuPrUrceop5DQ72rPkPHiyErGzXPsn0CenTExZmvss5Z5wPQwcDILS04lszWZduyypXJ0LZiy/qA+hC2oLM9+o/KXfBsfqi3vb/PPTUphfqskBse6t9/xf3jUzVHaq15wwfUqxjYhKFdZDOhXjyor0cGIaE+D6R6kz19lp27dt38pVgB6BEqc/ryVSmEy4AeITOF+P0byUuyBPOUXrh+I/kirUrWJuSGjoG6muII9aPr72XNrzWnRlZqICBHJ6a+oD5kY4OPxahCb0wa9fV7DkpjaXXnjPhbAgIxxVMDnSw1wKo0D9Q3/LYx1SlVSJV4jylPjVw5dzLpXCmN59zWkQgJ9Xn0uRiy+ACUaIcmtk8yYsfe5Jx1TwZWPbK3ywM9/FdeqC8H+803Ul+b+HqVLxe3k14R1JuE3BDUA/6PvpwD6g/XpG2DKW/khfpQ/KzrEGihPuQjg1BQ7w3KT50xfjkVkCuWe/zcRSlcE2TzqWymmi+++0Eb/86DNQH5J5e/VD4Z+OzLrzt0EMRzRp6Om5WSrDvU35NCvamBAWSK7QR9QD05slCjVqq56U0bdUC4yvnKzhmhNepOxJNs2ebdaYMOeVy/eHxVHvsiThPxmrbheRWVg1n9bxqsHXcp9CpC+eLkPvm0/VBQH9p+dbZA9pdlR8n89AcOpWBvavsE9fR0Dedicr3JTDuSjj2Vu2JLYS57W9s3vV6xzkzOWZShfB7ZUeMmW/sp+LXhVSOL3papfM6C59xH6qdX11n5drq/gHqbEXqaIccH1Nv4nKZXFrHKmaOc7nFNfROjWWp0L7bKAD0PeyuhXuxhIG/6M5ENAfUEmgS5LpDqS/aTK1+xK9//LXOknma5oTh6Cps5axB6w18vQm/w1Vq+s0Dr6DR8LITe8LK4Zte6ygv1NgZWbKBPYC/5+JTrF2XnGzWQ1LiIqWljg1E2apwppcYVI+pYkKf/+BRwjlls+LKzysVXZ/lj8OuIyyXHnQUifJlYp3KrqmucoL4fB/XlrlexI+E//j4E1JNOkk4jL+qtKl9MWTxtIzs0tX3aH6ntTDXJTDvCl2upXIzg49rLta74+5X3HrlD/Yh08KHUTxTzzn7D16dqXaznw09PYjQCn5XyL9TmhXrbdqHp5SZ3qK9rTKHeNz+rWBzlSKFehHJfITf8ifiG+ixIffeTz9mrb7/DXvzjn9otv/3jn9gLf/gP9vy//Xu6II/ttO9fT3yqHMGWlYsZZs5d+0YK2ATaSDsAPc1U8/3fOkC4OHIulnvy4hVleRe/+a7dqL8oi7x4fFVelM0D9Yipp9GDrLQUQI9zgsPtP9IR6mdX5wbcLJiQzXhBjWsW0KMxx7zWK7gXV0XnKzbMyQidYhq7wser2kbpRVmVw8d2vtxcUP9CQ0lf1szSY/q/VPrclcv1DfW8Trp2ULPsV2YTtuXys9DY2D4P9bYz1Yh+hy8XM1+52n451zN/r+ge+YB6W9Ck8EBfnYHQUE91xdvCowfr2F9e6pW5/OnFnuw/Xmhbfv6E/Sw9eDLSq6KCIaae/G9WSn6y6SV3qF94E+pD8DPP0rRO3N4B6vMM+9vI+oR6ETRlkIovym479EyHr8fiq7L0hVmksq/M4ouyMshVlfvR+csM4TM8wIvrspAb2ufiN99K49/pHGTlYvpLkhdTfIxKJ0v/ZaWycvPOfpNlXPifDIycWTGdYMvrLc5QP3H2vBTqQzVymA+eb5z5xlU3Qk8y/BckZc6Xb8iwjljZB4UROhwL5a7f/SjDB6nyNszTc4TfIKbeRKdKrVeky74aZpNrLqUdFeN6fUK9iS2ItkH5YstSOJyt7ZMPwNM623Net6dtph2x3DU7WsvyaQbdH6S216uSzQv1xWzLVDYYEup91TO1KfObVziFwgDqa39RZ9Q28H4yD9TX1DUmU7kTdGelNvwsHouXbQf1RPoUB4S86c9W1hfUy0BTBqcyqDcBenxRVgb1unIB0SJY8/kOI/TCV2bPfPk1+/DMhRTE+euRlXsi6UR8Ly3zyvc/pB0EmSx/bN26SjY01PMGVgoAanktP9TDsfGNgm7dxgmKH38SG1fkqeGWpWjMl28tfCDKtFyE14jHonLRQVj68M7co3R5XpRtfKnJ2nGXQq+ogS2HRj2rQ1BqGzStK19Qb2oLMjsuhSzi6fGUjJ7MmXTmeRt2mamGZtoh20/Lbn2cYapLWd2I20pRVzgHn+Xmgfpysf1QUO+znnEs3Lv5zSuDQr3o65KY+lluMfVgXNOfLT/zxxVlU6gX/wD5m/5cZH1AvQo0ZXAqQr0p0MugPqvcywKka4GeQm5+KMTff/H9D+zkpSvGQI9rTToRivj9z78uTIuZdc6yOqNtOtmQUC8aWCmcYN6RenJGYoMmy9s6QX5uerFxzQJ6NOpozK0aOcxNL8TvU7nJF2S37ckN9Dif0FBfDnoVOxJLtZ0vl3vkA+ptbZC341LJrtm13xnoYb/4cB0fGsFfk2wd8fTwH2T7BPRJvvUJhv9lcvy2UtWV73JdZ78ZXjVCq/98R9vFFkjeRDYE1PuuZ9KdkFAvq6u8s9+YMLQLP9NxZbIJ1PND98V6Szcv1OtAk2CUT3motwF6Eeqzyv1YE9uuC7kh8L904zt2TPLBKVW52Pf8dXnozZUfEJt/pcPMPDgWXze6dVW5JBMK6mUGRo4qK/UpC/ga4BpTP6c6s3EjZ2XrBJO56W8+Apc1rvxInHwdL8jaffERI/H8sfhy8TVKXANdT1aqu96QUO9TN3CsLF2k/2O54esqL9TrdDKPPoeUxbHxZWcerHkb1a3DfpNZb7YW3oMxtV8MJvC2zz8ZwHrI6y23e+QK9ZXTRxr5jmL4Dd9QH/IehYJ6VT2HhvoQ7N1DJH3kTX95ZPNA/dsfnGA0S43pzC0E9bZAz0N9FuACdM99LX9BNivkhqBe9tVXXbm6+H3E5uOcbOuKgF1XLu0TAupVBkaApEt9y/qY0jJEI4fRMDwCVzWuusYc/+EFWZwXjdBRzKLuXPn4fbHc1Tv3ZzbmdOwspx8K6n3rhk4P+f9iueGBHvVd/eMHnB7N9+k/iNWv2mhlC6TLSLP0md9XXM8ru3zLLrZhz0HtDFcyX0D2S51xnId4bqr8uj1tnQge6FEOzaKjks17vTb+ij+HUOWGhPpi+Q2fUB+qnulehoB6XT2HhPo8/KyT7UHx80hDh9xQZwEnhJcIbOehxv5zH6hlb713PAVVgCcBpi4F1G998qeZL8UC4sUFMfUmgPvRucvs8rcdY9s7AL0QckNAjxTH4K8jq9zPrnwtjaXHsRCWc/T0Weu6QvlZ5dI5+oZ6nYHxoCRbDyEbGupdnaButEzWiIvbII/4d2okcR7kOGUpRvU3tT6pfOy+Ymv2I3cc1+R6Q0B9CN2Q6aC4LZZbHKBHPVcfmu/UpvSpGMjqVm4wtgXePkz0md+fX/chi49OiWAt2rqYJ6CHHN6RybJ9/pyxjo4AZGXl4qVdcX/K+7heU39FZSINWW4oqC+m3/AF9SHrme6nb6jPqudQUC9CuU/2TqEehZj+fDwywHQ/LlA/Z34te+vosQRUTYEeAPr2sVNsy+NPpVCPEXsR3lX5N/5yNAVj3ZOB019cZXgxlYd0k5Ab2v/C9cLIOgFzFljjZVpZJwLHQ1z/R5+3jdLb1FVWuXR+SH1CfZaBicDE50PJhoT6PE4Qo+bUsMoaV7Eh5/MbWx9ngAGbBrLQiZDH0eJcyOnqUtPr9Q31oXSD1z/Zeiy3eECPMDkfUA8d1ekw/5+pPvMytO5Lds3O/cnTOt6+des80MNvrNlp9lIrzhvnvGLbHka+B8fiy9p04FC76XHpWkmW/A3SzlbPqnMOAfXF9hs+oN6XPqvqmXTJJ9Sb1HMIqPfBzzQYL+P2BOplf6gAX+xhuMq6jtQnUP/eceuPJb31wYkU6m2AHvu+9qf/SqFeBceYmx4vpRKgI+0wQq95gRb7n7r8ZTpKbwLWqrnpUe7nX11j+CCVrhPCwzmtm5RL+/qEehMDk4ETtoWUDQX1eZwgGlZXoEdDXHjkbj71JOL3MYWdCATIYwYdzFlNTleV2lyvT6gPqRsqfQytk7Hctpds+fubF+o7I2jyIXE8YMvWRftF597Ednkox5S2qkEEfABLZv82ti/Kl7usb6jn9blYL9Pnhfpi3iNfUG9az76h3hc/69597eFz2F/VEcB28WLwCV2Xkfq582sZYup5sNStE6S+9X4B6m2BHnPX/+4m1KuAHuUfP3ep3ah5B6DXhNzQyDqOgWPROVMsvKpc2QeuqNxTl64EB3qcq4+RelMDk8FMaNkQUJ/XCa7d2TbbBRpqWQMu20aNemHqSfPRsiR+/+bjdupMULmI68+a7cL2en1BfWjdkOljBHr/X4o1rWfnmPqKgUlMvQiUqrytPvPH8Sm7fOtua9vn7RczWWXZLs6dP2fdkwFMrclfqyibNQrbGWV9Qn2p/NXCw7Ws7+32H3Xq2buCVVXXpk98i3F/fUC9TT37hHqRgUOxdzqlpQ7I8Z/vRwZ5XpT987GTRlDPwzGgfusTPzUOuQH800epMFKvAmvqUJy+9GU6Sm8TckMj+xjlx2g/f866UXZZ/D5f7gefncs8Zzp3m44EL4P1vFBvY2Bi414MWd9QzzeQLk5w2ZZdaUwrgbUM4MVtBPRo1HEMnIfYiKry6AQQDCDly6VpMVWyLtfrA+qLoRuiPkagLx3Q437nnf1GpcP8dhd9Jnnfsqt37DeCet72efvduO+JTB/AnzM+LIenfKJvofwqYSpLXtbF10GGFhyL6jErLWa5vqC+lP5qwc9q3KF+Xk1R71Hej0/Z1rMvqPfNzzpeN4J6sYeBvOlPJRsa6kU4fvvYSekXZWVx9DzQA+wRUy/CrJi/ePOLrjRSjjwW5AncVSni8E9fvmoM9Cj7EyF+ny/3zNWvigL0OI+pM+Y6PXEZ03Ava3mjheERIy0wOBkoybbZGid/DBtZn1Dvo7HByNqGfQfbgTU1qqqUb9TX7bZ7MQ7njC/FEtTzQJ+E3mi+Hul6vXmh3ub+8nqB9ShbfjZoeo9CQ72rPgNCQ8gi3EVl87Sdt30e6PE/psLUAbJ4zgjDg83Tsfl0w74nGP6n44myyNN/WWlnkvUB9aX2OQuezQ/1xbq/1YuWO/EGvihbc6Q2ZQ3T0CYfUK9iYBOGdpHNhHrxoL4eGYSEehHokacpLWUQz28TgR552RdleajHtJJffi+Joc8IuSHIx8uux862vdSqG6FHuWL8Pg/06EicvPBFZieEzl9WV/RfVgrZKY5QP7r+Xtb8WnNqZHBsYuOtyhfTCfqCei8N1eYdTPf4m29kaV1s1HWzU4iNLc55xbbdUqDH8RF6g/h+UQ75PNfrCvX9Kgez+hcaUp0yddykZ8XUKyoTaSzXj+2HhPo8+hxCFgBNX3UlWxdT0fb5Djn21cXTy84Z+4tlUB4j+AT1MlmZj5Bt62yyeaG+HGw/30h9rdVT37z3t7opB9QfrknbBtQ774NV63mhPhQ/6zoEWqgP+cggFNSrINUE6mVAD+DPgnrMLc+HvpiO0BPU46VWip/PAnqA9nFu6kyx3AvXb7Djnxdi802g3KZc/nhUz+5Qf08K9aYGVgoA8gH1eR1Z+ggaoTd7s0fnqKEVG3WM8KsgXGxg6Zwpfl8EApShCr0h2fS8LUfpEKeJeE3bd276DRvEan9RZ+24S6FX1IiUQ6PeVTo/oaA+rz6THSDFsURbU+V15aJzrho1h22Kti/abzJTDTeyzp+Dqly8LE++RUwxNSaOoZLlj69a74yyo8ZNtvZT8GvDq0aWTWd+wXPuI/XTq+u86LNKJ2g76UZ10zKn+k5G6m9CvQ1vNL2yiFXOHOVUJt4bpVlqdC+2ygA9D3sroV7sYSBv+jORDQH1BJoEqsgTiP7nx5+yJ3/1Etv90yPSZdfTP2c7n3qO7fxJYUGe9v3je8fT49DxKMUXXQHSFG5jC/QYZT9uOfUkQnWuyJ4MfPsdO/tVITafzk+V6upKJUPbedm8UG9jYKUAIACP+xdl53tt5LIacr6hlTXqgHAaTSNnKUvJgVL8vggEVA7mrhflSZZABnlxH1WeZKuqa5ygHi97LXyuMBpT7noVOxL+4+9DQD3pZB59DiGLl1If3H9ICtky2yebpZQ+Pifaou56VU8G0LlYtb3Vq69z8Rsh6lmsHz6Pc3SH+hHp4EOpO9V5Z7/h60S1LurVph0b2KMH64yWA4/Wsv0HapJl3Xq3cF+Cett2oenlJneor2tMod43P6tYHOVIoV6Ecl8hN/yJ+IZ6HjRlo93vf3aevXPyM/bXjz/tsGAUHzH3b3/4cZL+5aPT7fbhOwcEtpR+fOEyu3D9mxTqMXJOI/BZKYD+/NfX2dHTZ6xmqsGXYsWQG5RLsfl0bqo0q65UctguyuaBesTU04hlVloKoMc5tbzWwvqPGGLdU/9Rr75s0uzq9CUiNDh5Gyo0xNQo61JZo46GVzY7heiEeee7EtPXtcpn10F8rk42z/XmgXo8SrZ13GhUaYmybdNFijZZKhs0Ldc31PO2kEefQ8giHl7mA2S2L9uPRtZ5G9ZdL97lkR0H2+AjcBxcJy15fR1/Xrp13Tnr5PCfD1kfUF9qnxMa6mX1/LOnprNrf/6HzOXq2//Arrz1P9Plz7/539ZtMZ6MUEy96NNUefI5TS+5Qz2+xYQR+hD8zLM0rRO3d4D6PMP+NrI+oV4ETR2Ei8CaRxYdhdOXv2wDeoOXYgn0KWzm1EW7qScx6w3J0tMBAD6Oi9h8hOaI18jn81yvTDbv7Dcqo+K3k4GVAryaf9fsDPUTZ8/z1shhhP3BA/KX1PjGVtWoo+HNmr6unfPdvDP52iR/bH4dsf18o9lONmcHZrpj+E0yUn+4tuw7iqXUZ7IhpKWGCd7GVes2deUT6n3qM47F24pu3aRc+AJZB19l+7zd0rr4bk1Wufj4HMmKKUICCeZDdGBU9ZV1zio5bPclmxfqy8EGQ0K9qp6PPDOFsXd7aJf/fqcH+/6vf5cuf3unB/vw1X90hnqEZqr8DL+d9zl5oB7fYrIZobfhZwJ5SnnZdlBPpE9xQDYnZCvrC+ploMlDrG49r+x7n36efOTJJeQGMuevfcM+OHPeaqaaz65cTTsRYrmff43jXVAuea+Xwpr4JyGhoZ43sFKASPOr+aEejk3XwPD/qZzg2l3ykTm+gdU16niRjS9HXBfLXbFlN8PHafjj07o4v7Uom/d6XV+UTaD+52ZQX2q9Irguh0adb9Bk652lrnxBvW99Fm1NlTctF53zTa3tO/g62ye7pVTs4JuUq3qXB+XSdy+6G9DjevNAfbnYfiio1+lVFtQD4EWgRyfgWGCoF31dElM/yy2mHoxr+rPlZ/64omwK9eIfIH/Tn4usD6gPAak6KKb/qNzjZy8kgG0bckMj7Ge+/DqBejpudnqenfv6Wgr1Yrkfa2a9oXMmMEc+u7xCB0EnGxLqRQMrhRPMC/VwbKpGXNyucoIYmVOFwVBDndWor97eMf6dypeVi4aaji2moWe6CA315aBXpeigdvWOhA+ol9kC2UlWWixZcRaaLNvvYL97D6bv1pics8r/ULkrthZCb3CsrDqi/03KpX3FtJxkXWe/GV41wmjUGJ3s0P4qBNRn3SMd1ItAjxF7GtUPCfWyes47+40JQ7vwMx1XJptAPT90X6y3dPNCvQ40s2DVl+ynV64azUMvhtwQ1CN0J+tc6X+c80fn8FJuIX6fQm7o2JdufKc8lq/r5Ufo6bxCQb3MwGSjiLJtPmVzxdTPqfbSyOEltFwzXSQxr3ZTT6pG5gAIFHqT5bjFxpjP62RDQr1P3cCxZPon2xbLDV9XeaFep5O87srWiymLF94J1AmsZd+RoH3ElOanNz1nmf+hcjfgY3Y5w+1wHrI6lW0zPediybpCfeX0kUa+oxh+wzfUm9wjFdTLQm4I6EOO1KvqOTTUh2DvHiLpI2/6yyObB+rf/uCE1RSQBKBIfQEuQm8u38j+sBRBt/hi66Ub37ITmpF18ZyPnj7LTl++UngyIInd//TKV1Ko93W9MqDHOYaAepWByWBJ3OZbdvEbi1n/kY4vys6Zb9RYZTlBXegNNa66Rl32UhwaPVW5upfiEHqzYttepaysMRW3qcql/UJBvW/dEHVPlY/lhgd61H31jx9wirft038Qq1+1sdPEhdNTOxPbF4EegwN4Cpdlg2SLSNGJ54/DlwvfgmPx++vWbcoVj1OOsiGhvlh+wyfUm94jGdSLI/TI80AfCup19RwS6vPws062B8XPF/stXbxEYDsPNfaf+0Ate+u94ynUA1p5ANat+wRcjLITsGelItAXXnT9NvmIlO588R+d83ufFOL3xZAblH35u+8ZXqAVj0WyvkNu+HJ8Q73OwFTQRNtDyIaG+iwnmLwUt08R277/ifTDUOLXIqkRRiMue0FWV65qZg0cE1+x1MmKDbGYN5ENAfUhdIP0TpfGcosD9Kjn6kPzndqUPhUDWd3KDSnUQ0dFvVXlTfTZp+zKbXhhPnseerJ/MUUsPnyKzYutuicDug9Yiddd7Lqi8kOWGwrqi+k3fEG9TT2LUC8CPR9yw4O97/CbrHoOBfUilPsMd0+hHoWY/nw8MsB0Py5QP2d+LXvr6DGrKSB5OPYBuJj1BiPtWTCP/wsA3zaPPYXNqEbWeWDmofz42YvssmSEHmWcu/ZNhw4CL6saZefL4tdtZH1CfZaBlQKeQkK9iRPELBViw2zTqG/g4mdNGrkkfnaffBpLlIu56W2AgMpEanK92M831JejXul0Gf/Fc7bvDPiAeugor7O6dVN9lh3DVXb1jv2ZH5aS+QvaBn+wbPPO1IazrpcfVOBH6JMngwYzatG1u14v5MtZNgTUF9v2fUC97T3ioT4r5CYU1JvUcwio98HPNBgv4/YE6mV/qABf7GG4yrqO1CdQ/95xqxljbCCVh1usy2Q/vvgF++K7HzKhvsMI/U0ox3zyxzK++iqWe/ara9LycKxPvmgfeiPKIi9elypvK+sL6k0MTAVCIWVDQb2pE5R9xVFsXJGnRltMxdCbrHJl8bN0THyRdunD5kBADbptw+wT6kPqhkofI5SXZrrMvFAP2+B1VreeZUehZPEUjULtVE/nyF7FFH4CoTTUKTe53mSmnf1PSjsSiKcH9OuuFf+Vqq6KUa5vqC+Fv8oL9S71TFAvjtDLQm5CQL1pPfuGel/8rHv3tYfPYX9VRwDbxYvBJ3RdRurnzq9liKlXQam43RZSeXmV7Gdffi0FbH7kvgPQcx+lOnftuvb8xXI/PHMh+bAUf3xax5OAE+fbQm9EWeT5a9Ktu8j6gHpTA5NBVGjZEFBv6gTRYD64333qOoTe8PNRm5S7VvNRm9U72kbpcaysxpz+NymX9kXqC+pD64ZMHyPQlwboMbOPc0x9xcAkpp7XQd26rT7zx8oju3zLLoaZpwjqdZ15GdBDDh+UA9Sb2i/Ca1SDCPwsWPw18ut5rrczyPqE+lL5q4WHaxmmA7blsZ69K1hVdW3aSbTRK0C9CPSqkBvfUG9Tzz6hXmTgUOydTmmpA3L85/uRQZ4XZf987KQRqLpAKkGvShYj7Be+0YfeqEJuCMRPXryiPH9ZuQjVIVkxPX/9RnosmSxdT1bqKpsX6m0MTISoYsj6hnqbhkr84IuqcRUbcMqjEacG1qRc/lE7HQMpysUoPY5l47ixv0m5dI6U+oD6YuiGqI8R6EsH9LjfeWe/If3TpS76TMfLK5vY596DCdS7AD38Ac4BC51TVoqX9KkTgZQvV3wKKB4r7/XSE4Vi+Bw6d9tz9gX1pfRX+Aq3M9TPq0mh3kavDj89WToPPQ/wsvW8H5+yrWdfUO+bn3W8bgT1Yg8DedOfSjY01LtCKuBXJ4sZaxDyIsI15TuM0Atx8Jh68rgi9EZW7odnL7KLmvj9U5cK02LKZLNAnv7PIzt1xlzrHj5GBMY03Mta3mhhNHd2uc7b7RPqrRqMrbsZHm8TXNsCPeTQKUBjZVou5rJXPRlYl8xysdMKCEzLpQaV0rxQb+u4eTiPsvax7GTDqDu+LnXrIeo5NNS76rONDZIN8CmVu+qRvbmAHiPrOBZ/bN069l2/V/5kIHkKuL1VeSw6ZwJz23JJrpyBHnXnA+pD2ILO9ug/KnfBs/mh3vb+PvfUpBTqs0JueLh//xX3L8rWHKm15g0fUK9iYBOGdpHNhHrxoL4eGYSE+jyQmiV79qo8th1Q3wHouZAbgv6zX13v8FKrriOBUX1V/D6eCHx4Vt8JIXBXpVnXq5Kjc57iCPWj6+9lza81p0ZWaiAgRyemvqDetpFbtX1fOje9C9Cj0cXInk254qw3fLkAflvH7dow54H6Bc/VpDpVrh1FUceocS0XOBbPT5Yvx3MOCfU2diSCsi/ZNTsLoTDU0c9KefvFKDt9X0I8P1m+YOu70lF6HIsvT/yqNH8MX9db7kCPa84L9eVgR/lG6mud2gWCepOQG4J6wP/Rl3NA/eG2tnUk1ggAACAASURBVMGUN/JCfSh+1nUItFAf8pGBK9TPvH8Be/3t/0ymtcTUlvzy7+8dY39890P2h3feY3/4z8Lyf9/9gGE7v59s3VT243MX2KkLF9stJy9cZB+fO8+Onzl7c/mcnfj8HMN2ft+T5y+w/zxxut25ZJV79NSn7OT59sehY753+rPg15tVVxOnznQaqR9df08K9aYGBrgothP0AfUujRyF3ogNs9i48g0tv44XbG3KRQcAHQE6Bl9uMoPOtuwX4qhhtymXZCiFLOI0Ea9pG+OJR8hooCIcL80cMS+2HVHHIGS5oaA+rz67dm75cjFjjeylebJXMeXtl8JmMFBAdqZLqVzsT7Li8bFddgySpWtGXrafbFtnlB01brK1n4JfG141suhtmcoGMRDiGn4zvbrO6f7+9MdV7Orb/8Cu/dls+ertf2BX3vqf7O1f/2+n+u5VUcFqbkK9DW80vbKIVc4c5VQm3hulWWp0L7bKAD0PeyuhXuxhIG/6M5F1hfoBg4exCVNnsEnTZ0uXiVWzGC2TqmZJ93GVnTJjDps+537pUjX7PkbL9NnyfbAdxxDLp/NFyp/z5Omz2bRZ90nLw3ngWCpZsQxZ3odsxUD7DzPBqRHU2xhYSCAghyemCdSPsL/GH/XqyybNmW8F1tTQAbDxRVdZwyw2rrI84JxeiDNtXPkPzIjlAibo3LJSHw1zVXWNO9Q/W4D6ctcr6Fkp9LkrlxsC6n3os6kN8rYllrti625GH52S2Ty/TbTfJG84/SRf7trdB9rF0PNlINaeP1+s87K4ZuTFfVT5zirrDvUj0sGHUj9RzDv7jeqe8tvF+7tpxwb26ME6o+XAY7Vs/4GaZFm73i3cl6Detl1oernJHerrGlOo983PKhZHOVKoF6HcV8gNfyKuUG87ehf37+PUywxdb4B6xNSLEK3KlwqAWl5rYf1doX52dfoSkU0jh2nkNrY+nj76Vo2W8Y0sv44OwbItu9KyTRpXlIFjyICAYvN5Jy1bFx23Sbl0HF42F9T/rCaBZZUeidtLpVexXP/x976hntdJG/uFTvuWxag5b+OqdZn9Yt8Ne7Onn+TPGev8Oz1iefysWiGul/xCVsqfcynukQ+otwVNehLpqzMQGup93qPqRcudeCaB+iO11rzR9JI71ONbTBihD8HPPEvTOnF7B6jPM+xvIxuhvjxhOzTM0/HxoiyckghZsnwpAaj5d83OUD9x9jwrsKYGDKPmgGxa0FCLjaoqj31t56JGA43RfRkQUGw+nZsq9em4p+cIv8H0bDIdkm0rpV75bphl1ydu6+rX6xPqfeozjqWyG3G7qlz+q6462yefgZT3G5AXy+LzYrk0P72srE0HDrEVW3anxxNlfVwvf26q9XIoNy/Ulxro4SNCQr3vezS/eYUz1Nf+os6obeD9ZB6ox7eYbEbobfiZQJ5SXrYd1BPpUxyQzQnZykaoj1BvAvW8gfkamRBhR5ancptfzQ/1to3cBsWME7IGlt+GRhxTT+JT8jajVhiJx6N9GRCYhN74dtx5XpRFAyW7n+I2ur8E18iL+6jyUbY868oX1PvWZxWUitt15WaF3sg65Klv2H+IrdmxP4Vwk3L5cLz0OAcOJYML6/cUprfFcXTnLJYj5ruCbB6oLxefEwrqQ9zf+c0rg0K96NuTmPpZbjH1YFzTny0/88cVZVOoF/8A+Zv+XGQj1Eeoz4J60cBK4QTzQj0cm9iYqfLYNwm9uTlKz4+0iQ2rmKdGnaatMy0X8fvr9qjnohYfs4vnHsJxh4b6ctCrUnRQu3oHxgfUh9Bn0WZkeV256KSL9s7nyfapUy76DTxtU9mxqlzdkwHqIKhkZdcnbusqsq6z3wyvGlE2gwghoD7U/Q0J9bJ2Ie/sNyYM7cLPdFyZbAL1/NB9sd7SjVAfoV4H9TIDU42citt9yuaKqZ9TbQX0Sx/eydbtPpCMmIsNM9+Ii+t8o44RNjhUsRFV5Vdu3cM27it80EZ8ZI88oF8lG8pxh4R6n7qBY4m6p8rHcsPXVV6oD6XPKvuh7VnlAqJFm6c8b/ui/dI+GOWX2bGqXOyri6fHwINKlq5Jl3YlWVeor5w+0sh3FMNv+Ib6kPc3FNSr6jk01Idg7x4i6SNv+ssjG6E+Qr0K6lUGpgImfrtvWR9TWuoaOPxHThCfgcf0ka5AnwXh4nmg3NU7WtOwG7Fc2QwXdAw6Z4T52IT68Nerkg0F9b51g9c73XosNzzQo/6rf/yA06P5Pv0HsfpVG9P3X3zrM9mMLDWxI4S7EKDzqQnQY3+8OC+WrStXF08P2MexyHbLra7E66S87nppH1Wqkw0J9cXyGz6hXldXqvql7SayIaBeV88hoT4PP+tke1D8fLHf0sVLBPTSZEy7H+CrXpTVGZgOnPBfCNklby5hA0YOddDVvmzirHkdGlNyYJTyjiyZF7rV7qVYgDwt+PojHTcrTcrdvINt2FP4YqQI9Mkje8W81vw5h2jUq+bVsFtc5qkfNojVKF6GCqEbWfoYSidjuR3n4cf9nf/PblB/a78BrG7l+hRUod9Z9kP/h7YFjJrL4ulNgR5Qj6d3dL5Is8559fZWaScCx0JHH3PmE9SXU13x18ivZ10vv6+4niU7YuwEh7ahTzJNos6Oi+mvfEF9Vl2JdcvnTWV9Q31WPYeCehHKfYa7p1CPQkx/Ph4ZYLqfCPPdD+bpnsugPsvASuEE3aG+D7tnyky27OGd7RpUlSNDQ7l296PKxpQfocO6rFFfs+OAsixZuSsfQehN+1kyqByAxHJJ6I2p8+XLo3VT2Ymz7meY5590xTTtN3wQq/t1fYfH2uWoVzpdxn/xnO1H9xc+u9BaZ6Bb0LUFS1YnoAodJX3NSk31WXYcU1mamYrsUmX7/P/iOmLy6RxMylV95Ao+Z/WOfRHouZl/Bg0f6aRzd869u4OfIp9QbNv3AfUmekU6KKY2sj6h3qSeQ0C9D36mwXgZtydQL/tDBfhiD8NVNo7Ud1+gR0MqQr2JgZHTE9OQsnmgftjIMax5w9a0QeWdmejIVCNyYgOtatQB4XhszpchW+fLXber/D4us3jTI8x19Ktf5WDW8NvGdo1lSN0Q9ZDPx3LtoTzvi7y1R+qcAAv+CE/VYBsym5Ft4+0oxNMqKjOJp99fmHVGZfsyH0HbNqFzfhNCTc9Z9WQAM2utsJxZC2WblkvnyaflLNu09iF2y632X76Gvt21cGw7P0W+oxR+Iy/UF/Me+YJ603r2DfW++Fn37msPn8P+qo4AtosXg0/oQrnj0j3rgId6UwMjx8enoWXzQH3PPv1ZdfPytFGlxkrmBDGtJDXEulQ2Qo/9MeuN7GU4KhMpX+7yrbs1L8M9yVYIHQReNiTE1Cxbz26tGOjkFyruGMwaX2pKG8vQusHrIb8eyy0+0KNDUPereie9QRvUd8AQhg4lby+q9WLZAspfxz29U9m+zl/QlLSm54yBAfF4VC5C9fDeD46lqhtxu2m5ohzy5S47dvIMZ327d8nE1E+R7yiV38C3Pfrebu9ze/auYFXVtemTm5DtAumHD6i3qWefUC8ycCj2Tqe01AE5/vP9yCC+KNs9YZ46cQT1NgZGzo/SYsjmgXpc623D7mTN67ekjaCqodq4LzuWnhpXiqFHnhrgrK++iuXiBdlN3AggHQcpXtYlJ1rMxnXxpm1s2Kgxzg0lD/XF0A3SQz6N5ZYG6FHvDc83OOsObHX0xCq25KHt7XSft4Ni2gLKSmah2av+0jNvs6p1xMeLto+8eF2UFwcXeJ9D0+XSvlmpTbniscpZFuc2b9Fy1rtikLO+jV8+qR3Ul9JvLPhZjTvUz6tJoV6nV77ub96PT9nWsy+o983POl43gnqxh4G86U8lG6E+Qn3LGy3JV2XzPnaHPIyVhyvduo1h54V6wMLwu+5hNcvXMUxZSS+Y8aMaKx/J/gQ837iKcfCbWp/Uht50aCC37GKquFnAAUCAnHAHWQ0QkAylNrKYfWTkvZOcG0nUM0G9zf0V9STKhrGjYtRzw/P53tPCk7Xx0+cqR+xt9JlsgFIXWYyaIxRGZ/sqmMd2vOyO92JkPofOS0wxUw4dUyx3tfDCrSjL512ul+TLXRZAP2j4iFy+iof6UvucBc/mh3rcM7p/WWme+1u9aLlTvfeqqGA1R2qtecMH1KsY2IShXWQzoV48qK9HBhHquzfUj66/lzW/1pwaGRyb2PCr8sV0gj6gHi/i9R80jE29bwFr2bg1aWR5J4gRMGpIZanYuCLP7yeOrPNOVeZAdVPW8bH5Mln+2Lp1U9mlD+1gMx5oYLcNvcPp5VjAPC2AesTUUycxZGdP1M1i6iRfdiy3zW/khXroEUIKht5xdzISy7/kbqrPMptwlcVsWFm2z/sBcb0wst42kIDzkJ0fbePf65GVq/qAFclT6nq9kC9nWcTQI+Qmzwg9+SqC+nKw33wj9bVFDceqbsoB9Ydr0rYB9c77UdV6XqgPxc+6DoEW6kM+Mnhw89a0MSZFN0kHDR/FZixoYrPrWqTLrNpmNqt2Ebc0S/eTyUdZ+7oCjJncN3GfsU3jWMvrhZF6UwOD4RXbCfqAev7aC9BwFxt572R214Rp7O6J05JZcu6ZOovJlrFTZrLCMoONnYJlZof9Rk+anhwLx+OXUeOnMnHB/2MmVXU4BpWNRuvuCdM6yOE4/LF162KZMll8Xv32EaNZrz4DnPSHr1Nar6gczOp/02DtuEuhV9SIFFufu3K5PqCedAlp39uGJE/ZMBe5qNM6/ef/E+VktsDvz6+PnlSVaftkt2IKPzEGfoHzAfyxZesIP7pnKvkbpO19DvyCTI7flud6y1UWL+5jlhvXl2J5naJ1QH252P6C59xG6jFYNbhyVNKWwZ9nLXgS23HJlsNxSW7YyLFO7UUyUn8T6m14o+mVRcn0o3TfbFK8N0qz1OhebJUBeh72VkK92MNA3vRnItu6/zGnm3Pn2Ils2ba9bPXuxzosq3YdYCt37E8X5GX7ybZFWbe6co2BHts8niH8xsbASuEEC1A/xElXbRxA3LdtxN21LjD7DUF9uetV7Ej4D5nzDfWuehjl8ttyV6/DcUsnpYMPpX6i6Dr7TWe6RwT1tu1C08tN7lBf15hCvW9+VrE4ypFCvQjlvkJu+BPxDfURyt2gHJ2gPJ2fPFC/+M3FRo/ASglAcLj9R0ao7wwOPIH6FxrKvqNYSn0uRce4WNcboT7CdGfwUzhHHuptQdN3eGG3gfojtda80fSSO9TjW0wYoQ/BzzxL0zpxeweozzPsbyPrE+oj0JcG6FHvw0bd4zSKfU/LBGP4KiWIIEQoQn3ngAWE34jz1AMoVUsp9cp3w6y6Rn57V7/eCPWdw047C3iHPE+C+lIDPfxDd4H6WsXXxnkfiXXeT+aBenyLyWaE3oafCeQp5WXbQT2RPsUB2ZyQrawvqI9AXzqgRxjT8MBQzxtYKR5TtrwWoT5k4+bz2DT7jeikZflS6xVBfTk06rL64bd1lrqKUB+h3qc/CXksQH252H6E+raBH9HXJTH1s0Y5DVxiMhjTny0/88cVZVOoF/8A+Zv+XGR9QH0E+tICfWioFw2sFE4wjtR3HlAwhfpy0KtSdFC7ekciQn3nsdWQwNwZjj1uWft56vlOtLge2l9FqC9Avaye885+Y8LQLvxMx5XJJlDPD90X6y3dvFAfgb70QB8S6mUGJjo7Vd6nLEBoQIypdxqpKHbjagL1PnUDx1LpoLg9lhu+rvJ+fKrY+hrL676dEJrSUvQTYr4YfiNCffuQG37AJTTUh2DvHiLpI2/6yyO7b/+jTqCA2W+Wbt2dznCT90VPdA5ks+HItsWORMe6ChF+UwxHJjpP5GXl+p7SMjbk4RryLKiX3V+ZHsi2RdnwUK6yQdn9kG2r+1W9U5sSbTKcTca6ldetCdQXy+d0d6jX1XNIqM/DzzrZHhQ/X+y3dPe2HnBywID6JZt3pVAfobzj1J7UISlGJ8Q31OsMTNaQ89tCyGZDfW8nPY6Nnbyxy1MvOqgPoRu87qnWY7nF6wzU/TJCfR77ibL+fZKqTrOgvph+oztDfVY9h4J6Ecp9hrunUI9CTH8+Hhk4Q/2YCSnUR6AvLdD7Dr/JMjAVOGF7KNlsqC9eQ6BqIOL2wj1QQX0o3dDpY0idjOW2vdjG13OE+uiLOosv1EF9sf1Vd4V6k3oOAfU++JkG42XcnkC97A8V4Is9DFfZXFC/ZVeuudVjZ8BfZ8DXSL2JgalgJqRshPrOAwoyqA+pGyp95EGzq7+cSnVQDvUcob7z2Gpnge9Q56mC+lLYUXeEetN69g31vvhZ9+5rD5/D/qqOALaLF7Ov1TGmfsyEJKaeQkyy0mKEoMjOobuU6wPqTQ2MAIJPQ8tGqO88oCBCfWjd4PWQX4/lFi/khjpNSGNMfeex1VCw3FmOK4P6UvmNhYdrWd/bB3bpMFJ8UZbmqbepZ59QLzJwKPZOp7TUATn+8/3IIO/sNzKQFrd1F7Cm6y7F9eaFehsD48EJ68WQjVBffFD4Ua++Tg0MD/XF0A1RH4ulk7Fcue3H2W+Kb6udBaJDnaerrxKhvpT+asHParoN1NvWsy+o983POl43gnqxh4G86U8lGxrqSwG4gOvuVu7wUWOdAAxflOVH2bAOg5MBi2ybrXHyx7CRdYb6Xn3YgKGVbMgdd7GKgbeznr37O9VTqMao3I57S+8K1u+2oWxw5Sg2cNidzKWxJKi3ub+8XmA9ypafDZreI9d56nv2rmC3jxjNBg4bwfr0H8x+dGu/aKs9YwdB5SN79R3A+g8enuhMxaBhTrrCQ32pfc6CZ7sH1NccqW3HHKh30beIeR9Qr2JgE4Z2kc2EevGgvh4ZuEL9gKF3sAmz5rFJcx+QL3MeYBPnzGf/f3vn4V3HbeV//k+xOkn1QlFUpwolqouiGnuVXOM4tuOWbsslxdlNcxzHJS5yElt27N14s9nNL3GTLFuy1Xu35Ow5+J07T/cRBAEMBoN5fOX7zpmDmXkP785gvsD9AHMHs3LT8KVps+H38v8gb1RuScqqZtosr0Ztaf9yMbBvIF/JXCoYV7hCNoK+UE9QOnfxcrG6tU00bd4ulm/YIpY0rxcNjaui/bMXLhVzFjXGLwuXCvqtupRD3rmLV4iGZavEkuYNYvmG1qicqLwaGpvEGA+wIqjvfqUnr6li7SiyjjktpJ7ZJqXlZtcX6gnSVmxsFau37BQrN22LtLho1Toxr7EpqqtzNPUP9dfQdpVhWdUtahTzlq4UC1Y0i8Z1m/L80by1PRqEMMG/bT9DfTHUQQpLqZ49LbEfJx83ZWadmLNgqahb2Bi7UD2i36pLkrzT5vi93XXSzKlR+A0PJFK5y22haT0t1GfFz7YOgRXqs7xl4Av1toqC70pndGUJQf2bOah3rWCjASJpoX7Ntg5BjX/z1jZpaRe032WpxLwNjSv9oL5uuuj6fXce6otZV+xEisGpl0vnJx3UbzXWx0qsg2iv3NrnaXMaEsMwcQpBfbHUfRoIoQGRpPxEAy80AOPix0L5wcWrNyQ+Tjqv2oYZ0TM3Sdu63tf7RN0Gv45Ee1ev4FlqbA+26gA9DXsboV7tYdC268clL6C+dAA8aWV3+X0E9fsGijLkhoEr6kS8vcvrjbI8Ug8gSN6B8YX6agnqAfTDp30cpuk/78p3fJI6uWIBEd31zQLqUX+T19+hDkH55/WF+mW7m4qmDva81psC6lc5QX2oepQK6l/sSswbvXt7/aG+sycP9aH52cTiZEcL9SqUhwq5kQ8EUA+oH3x70OkWWATXowQiBD3Uy3fpqMi/IaivW7RMGp2nkfryd3JDDt3/fFNB/cvdiRtuusa86GBRBmJ5vZgBVz5Oeb2cjzk01IcCkVydQN03jeiWcjmHgPrRbnOyhvqQ1zcN1He91J2YN3pf84f6tptQnwU/yyzN68ztI6A+zbB/kryA+sqGenpQ1rUxG00QoRChMFAPp+7q1L1j6utyMfUyxNrWR1NX3Img1LUe0LngmM2xsCGhPiSI0H+ZtK/uh93SKqu0UF8MdT9LqA+t5yXNGxMPsNFg2+SGmaL75R4nqJfb2DRQ397ZE03lztAdlybhZ/W/5LzDoJ5Jn+OAaNv1kzQvoB5Q79KgyRVsNABo4I0QUF9ajmq0Rxbp4VnfB2XJQdlAnr8bbV0x1LvUARxz7k5KXFmFgvrQIKKCu2kbdkuvnUwD9XF65npPaZbtVVZQn4Wes4Z6tZyjmPqNfjH1HV19rvg84j1Oadg7D/UqlBP5u3588gLqAfVxjZpaweJ+n0UjmH6kvvQcFTXGJvBQ92fRcGcN9cWgq9HooJZ7RyIE1GehZ7XO6LZhd3TbHN01UffprhFNwSuHXbquL7u1yWnwIWugp//PAup1ZaWWp2nbljdLqNf5hbSz37gwtA8/8//q8kZQLw/dF+opXUA9oN4G6boKJkO7bT1kXgKhyR4x9V+7GVNvarjU/baGTP2tul1uebOE+pDasOlX1SfsmsNmQpVVOqhvxSxVo9yZV9s13XaxtXW+UL/8tlVOUF+IdiM01Gd5jbKCelM5Zw31WbB3lUr6tO36SZP3scef9OrhuvaE8bvi7jTYYupNFUx1/rrt0Hl3vbNLTFnkNxc/zce7xsFRZtkI6hwj7ytWu/VLVni9fKq2foagRlinC9oXWhsmO+p+2M0e6KnMe17r8fIpFOq1bH0LHmrHNLvaO5S2dnLyjDovzTV9o9nYTnH7Uah2IyTU28qK/Y4pdcmbBdTbyjlLqE/Dz7a8VRw/T2nWITfcWaADenTPE16VAbBe3LDuen1MUG+rYNzYmdKs8s5YOddLq9PqGqIX2pgaMdrv0pCZ8pdjXjqnmfMWeZU3PdBMd1Z0+shKGzpb8j7YLQzQUznT8y+u7Y/6uwUr10hQX5qhIKZ2Qt1fju2Geo7ydlbnS/87dqLfm8LXPrhe205x21HIdiMU1GdVzvK1DA31ceWcFdSrUB6SvfNQT0ZcPyFuGQDqywPOVefouq2D+rgKxg2eLs0y7/zti71gYULtNLFiQ6t29IcaqkI0gnKDyOvFbJfe6Fk9daZXec9smqt1lFlqQ6dF3ge7hQN6fl5g0swpXtqZMmuuWN26E9POWkbri7nd4LZNTbM85oUr13ppjXxk64+2adsqajsK3W6EgPosy1m+piGh3qWcs4D6EPzMg/E6bo+gXveFCfDVHoZvXkA9oJ4qVSkAUNPdzd6N96yGRaJ568i3ExaqEZQbRFovdrt1i5YLeh7BtXMo/25R97K8nkpBV3yMauribNQ8vF3peWc113tphzS3YEWzM9QXez1S630p1P1SOuY0gw9ja2pEx3OdI9oqqsOjUX/TQn0h60IoqHct59BQH4qfbc++VoUc9jd1BGi/ejKP7UFMvQwklbYuj9S7VjAGFzktRN5t/77DDxTGThS3jK8W9UuWDxutL2QjKDvKYrc7f3mzGDO+xrusN3x/8zBHWQhtyFrkddgd6qxzmZjS0GW14o5V3vqZUDNVLF2zaVhdlesPrxd7PeLjlFMcc7iQqtWtbWLmvIVez/2Qn5+ycJbofmXknOmh64Kpzqn76Vhq6qYnrjf0LAq9UyTECwddp1EOAfVJyjkk1KsMnBV756e0tAE5fRf6lgFmv8FIPVWuJBVMbYwKlXfX27vE+Kl+sZPUiFPjN2dho6DRHXIIhWwE2bEXq1On42ravF3Qw7FjJvgD/ZgJk0Tv3r481BdKG6OlSdjdlX8LMIXe0PWmMqEO+C0T/O70UF2dUDNNLF61XqzaslML98Vaj7ie61Iccxigb25tEys3bhW+M97wwF3D1kXR8x9yHR7N9qrr5W5R7Q31KyV/FqacdRrmfWmhPmk5h4L60Pxs43UnqFd7GLTt+jHlfW3vH0R374B16erpF13dffkl7vfy92rerdvbxNgJfmA2fXmdqNs4323ZMF/UyYtrPvqdnI/Wyzjvum9vFINv514qw/Gw7Jjlxs60nrRyyv/jk3dhx9LEIxnciOfSSWLS1JliVsMS0dC4Uixc2SwWrVwrFjWtc1tWrhULV67JL6Wed2HTWjF/2SpBMwTVTJ/tPerFZTxnXQOA/i23lzSlrQuc36ceZZ2XRh1pJJR14ZNSJ3zKrHpRt2iZmL989VD9LLM6GNv24Hyja79gxRoxb2mTmFG/UIyvmZpOWxOrxap714jd7+wumvaq6/d+UH/LuEliZv0CsXBF802/RD7KZVmTy0P5EuatW9joVf70Rtmul7q0AwHcJunSEFBvYmAXhvbJGwv16p+GumVw48YNcenSZeNy8eJFce7cufxy8eIl42/V/9Hlff+DD0XNlBlegtj8xJZoqjy6wLaF3j5GrxWOlr29grZtv5e/q7S8/W8MJK5gXOlGAya2//sOMWZitZd+VLAgaBg7oSbqZFJHszKXGq+3xqplGW2Pmyg279kSOcnR0AbpEnZHL+SG2wVKaYCAnq3Q6mRssrujBC25ulqpdRTnTW0z3UGkMMoQmpo4c6rY+eu2ogF6qi8E9T7hN1QeQ76M/Fn2C9nzuQ40M1rnC0NQT+213G6Y1onRaHDVxya9UTYrfrZ1CKxQX8hbBvJBZmH30OHDotZzVo2tT5ufVGcxwKm7VRIqr1IsK3qYaNYqz4fwEsKETwNSyXmmLZktel7pKUldlWJdKPZjbnmqVYyfOtnLEVdyPcK5J+v0+ZTX3M0L8qFixVKPopj6uclj6n3Of7TyyFBP5c7cFpfSYCtFUPgcd3tXr+BZamwPtsrsy+tpGNgI9WoPg7ZdP8WYN0uoL5bKmUSsOGb3ik1lNbBvQDTfv1aMrfaP+/ZpGJDH7mjp7smKu1aLgZuhJ6UQysWOBHUwWR3ka0upra0beHNAUDgW6o697qB8Cls+NOvNzmfai+6OyvhijAAAIABJREFUou/sN6WknwjqX+yythvcLnNKbUzv3l5/qO/syUN9IflZC/UqlIcKuYnrFGRpNyuoh2POxjFzxeK0GMq559UeMX3pbMBCEd15qJ03wytWsph0FQepfKycFkNdKPZjbn+2Q4yZ5P/AbCkBC461sHDuW96Nt66MYumLrf5WCtR3vdTtPELP14hCqX1H6ttuQn2h+XkE1KcZ9i/mvFlAPV94HkGibXa8cSnylmZZbfvZdjGuBqP1vo4tZD4apV//vY0l9WwGtQuo+4Wp+8vvWCVoVqSQmsN/lQZAF9t1mrpkdjSNZTHW/UqAenpQtvvlkdOI6jhNvkZpoL69syeKqY8bzObvQ/HzMKhXR8oLecvAN/bI9ZhDQ7184Yt91IqFi2MOAxM0e8HYar8HdorN2ZTq8dwyfpJY0r9cDO4bmkGJ9M1aj0tRF8q/rOjOGj3kRg+8lqrOcdyl34mg5zs2PtpStLO9AerNMxFFMfUpHpRlYI9LXTlW9z9q3jzUq18U+pYBQ31WdkNCPYCg/IGA777oOmw0c8/CzkZBYAmnOwpOd9xEQQ+c0cOxfJ0A9EOOSe3QVHJ7RTON1NRPQz0topC5Smszm+5pjp7J4rZK51PUOitvZ11/AfW5tlNXzmlnv9FBuLovNHtHUB9q2L+QT/gmPeZQUK+78HIFtK0jb/l0BuhFR3PWzAPYFxoWxk0U0xrniI7fdQLo3zWDPLdDaHN2iR2/ahOTZqWbX7zSQBTnm36wYuykarFs98qiD7cD1JtDIrOG+qQcK3cITHmr1F4Cbbt+SilvCKiHgywfKGfokdOk15fi7Ra0LQk2fz0cqd2R0p2RuZsWiPbfdgDoAfQjQq1s9Xf7v++MOoNfG2fXGOogyieEBmimm+W3N0XvqSnWEXr2fZUO9bZ2I0uoz4qfqzjshVIif9ePekDFnjct1NsuPFcOU4q85dsZ6P9jv6AH8jDVZbYwQA/FLu5ZFj1sxk6S6pWpzqn7UQcrvKze2S06n+8Ss9diqssQ0Ir/MLd342trxYYfbBb9b/TnBx+KLeRGbh8rGerj/EJWUJ8lP+ehnoy4fkzD/i75RyvvoUP+L59q/enWkqicckWNE6v8W3UdeZMD0KYftgiaCzfUW2fhNHNO85YJk0R13TSx5uH1YgAPxTp1YlB/zfWXymbZbU1i4owpAqP2ZjBF+5O8bGjyhNnN80T77zqLPuRG9vmVCvUu7WQWUJ81A0dQnwTo1R5GqeQ9ePBT7zfKtv54COpJCHKFsK27iMaUH3lLr5zpddsrv75aTG+cA2AIEGtPnaTG3StFx/ND4TbFPOIl12XU3+Ktv3Rttv37DrGoq1FUz8ZDtAD45AAvl9mYSdViRtNcseah9YJmSym1ul+JUO96jUJDfSH4uarYw2Zo9F8tCJ9j/uTgwdRQT0KQHbdt3VU0uv9A3tItZ7p2Pa/2RrdfqaHHDDnJHCaVFz0Iu/bhDYI6SfR2UA63AdDbH4xFu5Gs3ej/U79oe7Y9in2eNAdwL4Mq1uPbLbqLWL9lodjyo63Rm0d3v2N+4FLn59V9o1V/u1/pETV108t6hih5nvok5RwS6kNwLIfL2xg4P6VlXOhM6FsGV65cESdOnIxdjh8/IY4cOSq+OHIkSo8dOx6bh/9XzvuX9/5LVE/2E+6G722K3lpJLy9wWejNZZ0vdonOF3JL10tdTvnovyslL8WiU6OWpIIVSyPofMwUx/tCl1jzwHoxr3WRmLJoVtR40uggzcZR6Uv1nGmiZu50MWXBzOgBWJr/v+O5juiti2WvDc2Drs66Qt7g7QaV/fZf7BTLb18lZq+ZJ+hNxdV106OR/EqvpxV//rOniaitqp8upi2dE02OsOH7m0Tf633DBvlKtf4S1E9fXlfW/mjWqvpoCuSk1ygU1IfmZxuvO0G92sOgbdePKe+vn3lWLF3WFLssWdYkeHH5vfwbzkfpgkWNYsx4vxcGEYRRT891obABeXHNR7+T89F6ueZtumdN0b6MQ+08yNtJGwU5L400d/++O5qOse2Z9miUkGZycVnaftMudj7TJmjebUpphNElH/2mKPM+1xF1fOmuxuDbg8OcI4B+MIJWWTu29TSaRF796D691IxghzrlXM+Ksh7FtB845vTtJE2fS4NtfX/oE7ve0d8tK+V6RHdDIz9R6j7FUheoHg+8lfyubwioNzGwC0P75I2FevVPbcP+6kHa8u55/Kmyvt2D25f225dL+5cPeyEHNYo2cJG/K+UGlENJcL5650jXGdcXdUGu7/I6tAFtyHqQ16ENaEPWg7zuq420UG9jYJWX1W3fvFaoz/KWAaDeDr3l3ilYQlB/M16aKpxcAW3rvpWT/hN5Uc4mbUEb0Aa0ketooy6gLqAu5OoCPfhct2G+1wB0e1ev4Bh4SgnSXT9p2NsI9WovIckBueQF1APqB/YNIMxAEx/NDSqcK5wra0FNoQ1oQ9UEb0Mb0AZrQU2hjWTa6N3b6w/1nT15qA/Nz6bOAdnRQr0K5aFCbuQDAdQD6nWx1GojxNtojJI1RhzmgxljzGE+pC3oCrriNkZNoQ1oQ9UEb0MblaENemu870h9202oz4KfZZbmdeb2EVCfZtg/SV5AfWVD/dKBFc6j9GhAK6MB5Y4IXW92nnEptIGyMmkE2oA2oA2EVKUZ2EoD9e2dPQULuZHZexjUM+lzHBBtu36S5gXUA+pd4A2OGY4ZjhmOOY1jRl7crZLbEPgU+BRZD/K6qo0opn6jX0x9R1efKz6PeBdTGvbOQ70K5VnfMgDUA+rjoF6tYHG/t1VO5DU7dpQznJxcd+R1aAPakPUgr0Mb0IasB3m9XLSRdvYbF6oPzd4R1MtD94V6ShdQD6inii83BPJ6uTQK8jnZ1nG+Zi2o5YayQlmpmuBtaAPaYC2oKbQBbaia4G2TNrKG+izYu0rtJaQZ9k+S97HHn/SaJqjcp3qslPOzxdSbKhhXQFuKvGi4TfqANqANaAOhXAjHMt+1pfqBdnKoncwS6rNi7yqOn6c065AbvhVBJ/PonicA9WMrd7TeBPVoUIYaFBOA8H6UFcqKtaCm0Aa0oWqCt6ENaIO1oKbQxnBtZAX1KtCHZO881CcZZQ9xywBQX7lAT3cjdFCPBmV4g6I2uPI2ygplJetBXoc2oA1ZD/I6tAFtyHqQ16GNkdrIAupD8DMPxuu4PYJ63Rc8qq6mag/DNy+gHlBPjQg3KmhQhsqCy8SUoqxQVtAGwkgQRoIwErkdgF8I7xdCQ30ofrY9+1oVcthf7QDI2+rJPLYHMfWVEj+vO095pB6NUfjGSG7seR3ljHJmLagptAFtqJrgbWgD2mAtqGm5ayMk1KsMnBV756e0lAFctx76loHv7DdNazeKXzz/snhu759il2df/YP4zcuv55ZXXhe07ZKPflPovC/+cZ944z/fi5Y/vvufghfa9+Z7fxX7YpY/vvuXxMf82lvvRv9L/0922CalL7/5Z6eyWrJitdezEQz15d4oFEsj2PNqj2jYtkjMWFE3tKycK2a4LHIeXnfJR7/h38sp8urLXS4jXkdZoaxQj3LtCOqCd12o37xAdL3Unb8zzn4J/tfeYQsF9aH5WcfovM8J6tUeBm27fkx5faF+y85O8bf9n4mPjp6yLh98cUL889DR/ELbcXn4+9HI+/m5i+Ls9Rvi9LUv88u56zfEhX/9n9Py2Znz+XOl844734+PnRZnb3wV/TfZke2e+fK6+PT0eafyal7f4g31dPtYXqiB4cYmLkVjlKysOl/sErUNM7yule5OC/ZVdvgcrj+uPzRQOhqYNGuqaP9txzD/Ch8a70NDQL2JgV0Y2idvLNSrfxrqlkGWUD8aUE4dAl+7BNjHLl4eBtbnbgK3C9QTkH90ZKgTEwf0dKyHzlzUAj3ZJaj/+PjpWKgnO6t9ob5/uRjYN5CHegC9OT40ROPb+QKgHhBSOhCCa4VrBQ2E04AK9SF8Cg/IlbPvTgv1WfGzrUNghfosbxlkBfW+YJ0GytPm3X/stDh55Woe6pOM0BOEHzl3Ubx/+Fg0Uu8C9HS8J69+KSivPELPdr+4cNkJ6OmOgC/ULyGofzMH9eXcKNAdh2JoQAH14RwkYANlCQ1AA6WkARnqi8EflcpD3r2v94m6DfO97nC3d/UKnqXG9mCrDtDTsLcR6tUeBm27flzyZgH1pQj0dMyfnjqbh2sGa5cR+ihs5uo1cfDkGfHPw/EhNwTztHxycsgeQz3bPf/Vv8SB42esUC+Xcyqo3zcQAW9cqA1/j8Yo/nahqay6XuoSkxtmejVOpeS8cKyALWgAGoAGhmuAoR4+NJkP7d3b6w/1nT15qA/NzyYWJztaqFehPFTIjXwgoaFeBk2XmHIGXEpHO+/xS1ciqE8SchMB/bUvoxH+j46ejI2hl8/30Jnz+U4EQb1s9+SVa85An3akfvDtwWExfgykuhSNUbLGiG+N8ohI98s9gPoKftkbIGc45KA8UB6VpAGC+rbftOfDXdkv6Hytbl+l+t/e1/yhvu0m1GfBzzJL8zpz+wioTzPsnyRvSKgfbSgnuPXtSHx89EQO6BM8FCuHzRy9cDkR0H945KQ4cv5iHup5hJ7vDHxmeUBWV85rNmzxGv3l2W90DYi6r1IbFAZzOn+1TEzbprIC1ANiKglicK7QOzQwpAGC+p3PtOWhPoRPMfkgeb/JH8m/Ma0XQ940UN/e2SOSjNAn4WcGeU7lvMOgnkmf44CSHFDSvKGgXgea8qi0bb0Y8n5+7oJQwZoBW5fyCD2HzVDoju0c5e/ofD88ckKcuBm/r9o98+UNY+iNqayyhvpiqNjlMKoBqB9ycHD2KAtoABqoJA1EUP/rHNQD6N0npYhi6jf6xdR3dPUxc8emSflZ/kM1bx7q1S+I/F0/PnlDQL0JNGWQNa0XQ94PvzgejZjr4F23TwX6aJaaY/apPfn8+Xw/vRlPL4fcsK1jl64KmomH83DKeXV3JLKEegB9+hF6HgUB1ANiKglicK7QOzQwpAEeqQfQuwM9lVXa2W9cGNqHn/l/dXkjqJeH7gv1lG5aqLeBJsOoKS2WvJ+dPifowVSGalsqh9xEcfDXb4ijF6+MAHDdOcvnS/H76gg92aXjOHTmwoj/k/PqQoyygnoAfTigJ7AH1A85ODh7lAU0AA1UkgaimPpn21OHcfIgkS0tJ9+dNdRnwd5VKunTtusnTd7HHn/SKxabXj71148OJnrRkgy6cZAq/1ZdD5mXYtuPXbriBvTKy6EIygnCD546NwLCbcf88bFTWqAnqKcXX+1XZr1xOd8soL6cGgVb48ffFeJ8AfWAmEqCGJwr9A4NDGmAoF59+RT7HzUthD9SbdJ2MdrNEurT8LMtbxXHz1OadcgNdxbogB7d84QX1Lfs6BDvfXAgD/UEnirImrZdILVQeWnaSAJp2+g8faeG3HDYzKlr10dAuHrs6vnSyL7JHoXeyPnVvKZyDg31xVixdQ2QvK8UjhlQP+Tg4OxRFtAANFBJGnCF+lLwZbLvzbozkBXUq1Aekr3zUE9GXD8hbhn4Qv3m7R3ivff3e882o4sLl2FWt+4KuEnyUqiLCbB5vy7khr87ctH+gij1mGmU/uz1r4w2D54ceuBWzWsCejrfkFCPBiVsyI3c+AHqATGVBDE4V+gdGhjSgAvUw/+O9L9ZQH0IfubBeB23R1Cv+8IE+GoPwzdvKqj/4ECiaRyTQKoK5lnlpTe6MqDr0hEj9NKo/rkb/xJJp548dPaCMX7/9LXr+VH6pOcbCurRoIxsUGQol9d9ygpQP+Tg4OxRFtAANFBJGoiDeh+fwj6pnPOGhvpQ/Gx79rUq5LC/qSNA+9WTeWyPX0x9y/aOKKZehW/TNkPq3w4cEr989Q3xk+dfE0+/uFc8/eLrMcte8dPnXxM//t0r4j8C3xk4cOKMOP+v/zNC/QigvzF8hJ2mnvz4+MhZaqgM+HzlOxI0o83xS1eN9g6fzT0gq8trKlfeHwLqy7lR4IZPTkfjfNNAfePm9WJt9w5l2SnW9bQ5LDuVfPQ/yKsvO5QVtGGqU9AGtNEmFm9aLcZOqkkcumyD+tHwR+QPS8FuSKhXGTgr9s5PaWkDcvou9C2DtLPfMFTaUhlS3/vwoHj4J78Ud/3gKaflzu8/Ie747uPR8sZ//yPonQEKndGNztM+W8gN5zlyQR96I5+vPFMNdSLOSCP9/D+Unr3xlaDvTXlt5UvfpYX6UqjYMpCXSmOkHnPXS92itmFGYmdAo1nb+m4Tux/4bn659cHvi9se+oHTQr9FXpSVTi/QBuqRThe0D9rQa2PzQK8YXzs5cTtugnr4X/sd8lBQH5qfbbzuBPVqD4O2XT+mvFlDvQqpf93/mXjk6V8lBnoC+33/834+PCUOclW7tC3n2X/8tDj9pf4B2REj9BoQP//V/0UQLv8nrdvs2uL3j1++KmgmHh7ZlzsDqg3ddvP6lsQNDIEivVGW35jKKTUwKoyattEYJSurzhe7/KG+99Y8mAPozYAOENGDiA7cUFYoK50uAPTfjTo0prIJCfXwofE+NATUmxjYhaF98sZCvfqnoW4ZZAn1OsD92yeHnaBeHqEnoKftt/7+4TAw18FtHFhzHoqFp5h4ebSc1kcAvRJyw78/eeXaiGPRnS/bo/TU1esj7NH/5eamP+8N9GR3tS/U9y8XA/sG8mAPoE/2UgxTZ0fdzw135wvpoR5AD6Bn2ACUA8pZC2oKbWSnjVBQz34BA2pmv0u+NC3UZ8XPtg6BFeqzvGWQFdSbANcF6nVAT+E6LlBvsivDNa3rppV0CblhqFdfEBVn98CJs1qgp/+LHpA9ciIP9fRf6vGattmuL9QvIah/Mwf1AHpzwxKq8U0H9bdZR4/g1BFipGrAtA3gyw745DJHOZdnOYeA+lA+hToE5e67e1/vE3Ub5ntFI7R39Qqepcb2YKsO0NOwtxHq1R4Gbbt+XPJmAfUMmhxKIkNqHNSbgN4F6m12ZSimlzsRSDOgUzpihF4TcsO/pwdkKf6d/9PFrq4TwXaPnL+YCuipnFNB/b6Bsm8UiqUB7XqpS0xumOnVOFFMvQwMtnXARHnCBF9zXF9cX9aCmkIb2WuDoH5cjX9MfbH4o1LpDPTu7fWH+s6ePNSH5mcTi5MdLdSrUB4q5EY+kNBQHwe4Nqi3AX0c1MfZZQCn9NPT5+1Abwi5YainGWxoJhv6Lxe7FL9PHQHOzyl3JA4cOxVBPf2XfJy2ddVuGqgffHsQMfTv6kfpQze+aWa/2d5/uxPUw6ln79QJpFDOKGcVqHkb2ihvbWzu94f6tt+058NdK2GUPYQP7X3NH+rbbkJ9FvwsszSvM7ePgPo0w/5J8oaEehU0dZBqgvo4oLdBvYtdGZDpodQ8WN/4Spy+9mV+IdDm73Qpxb8fPnvRGejJ7qEz50fMTc+hPicuXxHvHzqaelaftLPfqDHguu0QlbPSYwfTQf0dsVCvg4nebzwoOu/8pn2545ui4/Z7RPvt38gvPXc/4BzuI9sdvP/bovPOe0XnHTE26ZgUu7u+9R1nmzJYd911X3TcdA5J7PZ+4wGvh4933f8d0S6VVxK7clnRjES0zTBoS7u/fv+IaxRv917Rf+/D0f8ntUvXItKNco1IIza73XfdP+x8XO3S77rvum9Ip452u+68Vwzc98gwm7I2eNYnXTkP3vfIkD2uIw52e+7+1gh7fO1s57v7ge8NP0e2qakLcjnTOQ7e/x2jTdv50vW31n/D+VK7wedkS9XzpfpP9dFqU3O+HXd8U1Bemy35O9lu993fsmpy2LFI59t7T67+67Qh25LX6beb+nq8R+p3PtOWh/pSGSlnvz1anZA0UN/e2RNN5c7QHZcm4Wf1v+S8w6CeSZ/jgGjb9ZM0byiodwVrHdS7AL0J6l3tMtTTqPm5r3IPyPJIOUN9HNAT5NPbYJNMPfmxJn5ftvvZ6XOpgZ7OLWuoB9DHP6HPHSFbWWUJ9bKTk2FxW//tYs22DuvSvLVdNG9tk5Z2QflcnJ1qt//eR8T6nd1We3w8qt2B+/yc+uaufkH/xf8bl7Ld7QO3i93fcgdrcu50vn33PDSsrOLs8fdklyFTvkYyNOjWyeaG9l7JJl0rh/Pd3inabvtGdMxJ7fbc80BUnlxWQ/qw213f1psHM1UbtK07P9q361vfjc5RLqshm+bzXbu9U3Tc+c1h/+tql2CP7XHqcr6buwaH2eNzirNLgL2+rWeETbJts7tuR5egTh3bUVOb3Z27v661F3e+Wx3C/XR2qTPgUv/V86Vz9O1ItPbeaj1HPle1nHcM3unUxnF58/lu6uv2h/pf56AeQK+/O05+VPWhUUz9Rr+Y+o6uPld8HvEepzTsnYd6FcqJ/F0/PnlDQH0SsFah3hXodVCfxC5D/efnL0Yj8TJYE9TTyLluZF7dd+LyVaeQG7anxu/Ldk9dvSaok8G/jUtt55sl1KsVDI2Re2OkllVWUM/OhsGNttkRxUG96lxpm5yfC9Tr7A7e920vp05240Yj+ZxUu5u7Bryc+vaBOwSNnvL/xqVst++eB28Cth1wdTChu0ZxdukYN7T3SFDvbnfnrXd7dSR6vvGAFTTlc5PXGeq5rFzPV4Z6kyZlO7yuQn0SuyrUu9rVQb2LXRPUx9m1QX2cXRvU2+zGQb3JrgvU6+xSR8AF6nV26VhZD7ZUtbtj112J6z7pORXUP9OGZ9gM4a46oCcfmnb2GxeG9uFn/l9d3gjq5aH7Qj2lmxbqbaCpg1QZ6pMAvQr1Se3SsXx87JQ4de2604ulVJjn7U9Ons0/1Ooyl/ynp4bi9znkhu8MHL90JR+brysreV/c+WYF9QD6MCP0PIqfBdTrnJwMiTaoV50cbbNTjIN6k10XqDfZdYF6nd2W7sH8cfPx61LVLo3U3SZ1gORyU9dluwT1a7YNlZXOlrxPtktQQP+l/r9pm36bA16G+mR2d+6+Kw/1SexSSIPLSLl8nrROUC+Xlev5MtTLZZWzbz9fGeqT2pWhPoldFepd7eqg3sWuCepd7JqgPs6uDeptduOg3mTXBepNdl2gXmeXysZU7+T9qt1N/f7hN23PtuMZNgPUm3gja6jPgr2rVNKnbddPmryPPf6k10wcW3Z2ir9+dDAR4BKkMtQnBXoZ6uMAV4Zhef3gqXPizLXr+fj5aIQ+JoaeYZ7SU1e/FP88fCx/znQc8v/r1o9fvqa9M3D2+g3xxflLsfnpP13ONwuoN1UwBlRbirz6zkBoqFedDW3LzojWTVCvc3IyoNmg3mY3DuptduOg3mS3pXtXLNTr7EYjdZoyU8tQtdv/zYdj7XFZqnZ110i1x9tsl+LbcyP1dsBlm5Tm7LYLhvqkdrvvvl+Cene763b25DsRrkBP50tQT6EpSTsSEdTf8U2vjgRDvXqNaFsuS3Vdhnq+RnSuceerQr2rXR3Uu9rVQb2LXRPUx9m1Qb3NbhzU2+zGQb3JrgvU6+yGmNLS5j/pO/jQIR+aJdSn4Wdb3iqOn6c065Ab7izQAT265wkvqG/Z0SHe++BAIsAlQCWof/invxT0QileCPAJ2uMWmqfeBXB1cE37Pj97YTjQO4bcENBT2Mxnp4dG6V2A/uPjp6MHZOWQGw71oVF76mSYjpX3u55vaKhHgzLUoIRsfENCvc7ZMAzKqQ7qTU5OhhcT1MfZtUF9nF0b1NvsxkG9ya4L1OvsDtz7iBX6uBx1duVrY1uX7fIoNv9vXDpkl6D+64nvDBCcDkG9HXDlYyG763Z056GezsF2jvJ3dO3Xt3VLUO9ml6CeHlpmqI4Da9kmPVQ9VFb8TEm8XYZ6+Rq52JWhPoldFeqT2FWh3tWuDupd7JqgPs6uDerj7Nqg3mY3DupNdrOGevjf4f43K6hXoTwke+ehnoy4fkLcMvCF+s3bO8R77++PoN4FcBlS/7r/kHjoxz9PDPQE/Pv+5/18J8Il9IVt5tKT4uiFy3moJ9CWR+Ft6wTgp+gNsjdfEOV6vp+fu2QM9YleOHXslBXqXYGezi8k1KNBGd6g2KA+aVmFgnqTs5GBhddVqLc5ORnQdFDvYtcE9S52TVAfZ9cG9Ta7cVBvsusC9Sa7fF1sqWqXYuo3dvQl70hsaxdtt97tDNay3RzUxwMua4bPl6Ge/st2jvJ39Ft6SHoI6t3tkv32276Rh/okdmkWn6R3BsgeQb1cVi5AT+fLUM9lNWTbfr4y1Ce1K0N9Ersq1Lva1UG9i10T1LvYNUF9nF0b1NvsZgn1SX2K7J/KNW8WUB+Cn3kwXsftEdTrvjABvtrD8M173/0Peo3UR1D/wYHEM7f87cAh8ctX3xA/+d0r4ukXXxM/e+l1p+WnL7wm/uNmJyIp0BMcf3z0pKAHU5OG3PAoO70g6oPPjzufL8Xv00O1HD+v2uVpMYd3PIYgPwnQp4F6eqMsNQTcMJRro8Dnp6aFPt+ul7pF9expXnVue39uSkubs5FBiddlqI9zcgxolKpQ72pXB/WudnVQ72LXBPVxdm1Qb7MbB/U2u3xdTKnOLu1zgfoRdgnqb/uGE1yrdimmXtaDbV22u25nt9edAZqWMgf1dsCVj4Ps0rMNDPV0DqZyVffTb2naSFewlu1u7hzIdyJcgZ7sE9RT+QzZNM/qI9tjqFevkcv5MtTL1yhn317OMtQnsatCvatdHdS72tVBvYtdE9TH2d3Q2SXGTqpN3I5PnDFF7Pjlzry/HW1/xPYL7QeT2g0N9aH42fbsa1XIYX9TR4D2qyfT2d2XWJhfGztRtGzviGLqTVCq7pch9e+ffiH+ceioeP/z404L/fbvB78Q//jsSOI7A2z38JnzOaBPGHLDUE6hN/Rf6nmZtj85cUacvJLrRERAL9mlue7333x5lS4/HzN1Xlw7ML4j9Yt7lgl++VSxV2xuCOS01I6lhmZqAAAgAElEQVS543edYlxtjVedo5dPxTkbFVxom6HexcnJICFDfRK7KtQnsatCvatdHdS72DVBfZxdG9TH2dVdI95nskv746DeZNcF6nV2afYbWQ+mddUuxdTz+cSlst0c1Oune9TZZrsM9fRfcfb4e7Y7BPV2wJXtk91NHf15qE9it++bD4l1O7skqHezS1BPc79TB4IXV7sErlxWQ52JeLsM9VxWrnZlqE9iV4X6JHZVqHe1q4N6F7vNrW1izPjqxO34+KmTxZYfb9VCfan5MvLDhTrmkFCvMnBW7J2f0tIG5PRd6FsGNIcnQXrShR6U/dv+z5wg1wdSGXZD5H3/8FFx8srVKC7eFmYjfyfPVEN5D5xINvUkzT/PHQI11OfYpSvGcvM9X2+o726MXoRRqMopA3khG4Visdv+XIcYV+MH9dv6bss79CSjgwTnrk5OhheGehcnx7BEqQz1Se3KUJ/Ergr1rnZ1UO9i1wT1LnblspLXbXbpOxvUG+3enKdetqOum+zyPPWyJtR1nV2e0lK1o26rduna01z8qg3dtmyXoJ7CaNT/N23LdnNQHw+4fAxsl6Ge/stkR91Pv+2950EJ6t3t0nMD9EI3V7CWbZPGh2De7c4AnS+BslxWrm0OQz2X1ZBt+/nKUJ/Urgz1SeyqUO9qt3lLCqj/UesIqIf/HYoWUH01bYeC+tD8bON1J6hXexi07fox5c0a6n0hlaA+VN4Dx08lA/rrN/JATmBOYTT0EinuaNhSOmYK0zl64VLuzoASu0+j9J8aHpBNc77N61sSd8yoI7e4u1EM7BvIv+FutN4YVyl2259t94f63lu9nPrWvlu9nDpBPT2gySDh6tQZ6pM4V4YmhnpX58rwIkN9Ersq1Lva1UG9q10+ZjmNs0vfm6DeajcG6m1246DeZNcF6nV2XR8GVu2SduhtpHJ5mtZVu9QZYO3FpbJdgnr6L5MddT/bHYJ6O+DKx0J2127vyEN9Urs0basrWMt26YVOSes+nTdBPd1ZGLLp1pFgqOeyYtsu58tQL1+jnH17OctQn8RuSKgH0NuBPhTUmxjYhaF98sZCvfqnoW4ZZAn1aSA1ZN7jl6+4PxSrAD2N2B8+d9EZ6Clchh6opfh9yiuP/tM6zZNPL6RSOwZpz3e1J9Qv6moU/W/056GeGhhdT1m3D41R8rIKAfUuTo6hgn67tVeGeruTk506OUqaSjGJcyW7BPU+Tp1sE9Qnca58ngz1SZ26DPVJ7KpQn8QuHzOnLnbpNzqoj7Vrgfo4uzaot9mNg3qTXReo19mV56nnMtWlOrs0+42sedO6andT50BioKd6lIN6t7ct07GwXYZ6Ogfduen28fluz0O9e90nu629uxPXfTqO3rsfEOt2dEpQ72aXoL7n7gfyNqm8XM+X2iouq6HORLxdhnouK9e2LhTUw4e6+dC0I/VZ8bOtQ2CF+ixvGWQF9WkhlePJXWPKGZJVu/TG1rMauFZhm7blkJsoDv76jWhKSpqakv/flMp2KX5fDblhe0cuXh7xX3Je3/P1h/qleagH0Pu/KVbX6eF9csOdDupzt8N1Dly3jx3VENTHOzmGmsip992ah3pX50rHQcDr49TJNsVVs2NN4tTp5VM+Tp2hnsuKbcedrwz1Se3K18rVLv1OhXonuwaod7Frgvo4uzaot9mNg3qTXReoN9nleepZ97pUZ5entJSvpW5dtUsx9TQXv86Ouk+2S1BPMfU6G7p9st0c1Cer+wTGDPX0Xzobun302+6vf0uq/+52aSCg5+v35+t/Ert0V2EI5t3uDFB5E9TLZeXa5oSAetkvVMqdajpPXpLwRu/rfaJuw3yvaIT2rl7Bs9TYHmzVAXoa9jZCvdrDoG3Xj0veLKA+BKQy1NN/mUBa3a+z+/m5ixGYM1SbUp7lRo2DP375aqx92e77nx8TNF2lzs65G/8Sn50+P+z/5Ly+QE/50kJ9kgqGxshtdIGgXi2rtDH1Okeq2yc7qhzUuztXhonWm1CfxLnSb+nFTOu280hdMrv99w5BfRK7m7sGvJw6QT1NF8kw7+rUGeq5rIaAIv58+XrJ1yjOLv1Whnpnuxqod7Wrg3oXuyaoj7Nrg3qb3Tiot9mNg3qTXReo19nlKS1VgFe3Vbt0jt1fv98JrlW7OwbvcupE0DHIdgnq6b9Yr3Ep26XjzHXq4+sCnzfZpTyUN64uqMdBdulYk9RBtktlk7Tuk/20UK/6Bfhf+4Ba795ef6jv7MlDfWh+NrE42dFCvQrloUJu5AMJDfVxkErfv/vP/eKtv384YqF56N/473+IP/33P6KUtuXf/b9Dx4YBsQz1OrsfHzstTtx8o6sOsnnfCKCXRvY/VSBctknrqt1PT53XAj3ZOvPlDSGP+qt5aVv9f9O2mjcN1FNMPY8qx6VojPyBnsoumv3G80FZmv1GdWi6bXau7Kzadn89mlebQCR26RyIZvagmGEaxSLg1dnQ7WO7A/c+LLZ07xIUohBrj4/ppl0eqaf/0tnQ7aPfbh+4PX/cSey23+b30qLB+78taFpDKqf84ni+dA5cVnyN4s6Xvt/af3uuPBPYpbAkeYQ3iV3qnA27fo52W/tuG3HtXOxSWVAYxTCbpI8Yu3SOPXd/a4RNl3KmfCPsKZrUXV8a/dZpkfeZzpfCy2hU2WjTcL5benaLvnsetNo0nS+FGFntGc6XQ1P4nGypfL50nHRNnGxK50t5KC/9l82W/B3bpc55dJ0c62B0bJ0Dw15alsRu85ad3rPftDy5JT9ajRF6M8zLg2K9r/lDfdtNqM+Cn2WW5nXm9hFQn2bYP0nekFCvgqYOUumNso88/asRb4+lt8ryG2Yp1b1llgBfB7kmu5+cOKuNa2eYp1QXcsPf04i7Lv6dj0Fn9+TVL41Q/8WFodAbXV7+37hUlzft7DdxMC9XMJ/bZ+gM5DoD6aA+N0+97NTUdXZyrrAo50fe5DCBcv5BLIBBV9CV3M7I66WqjdUtO/ygfspksfmJIajHCL0Z6mVmSAP17Z090VTuDN1xaRJ+Vv9LzjsM6pn0OQ6Itl0/SfOGgnodaOrgVAf1LkBPb5TVQb3N7ufnLxkBOwJ69aFYZaaaoxevCHqJlO48dHY/OXnWGL9Ps94cuPmArC6vzoZunylv1lAvVzCMLpgborjOT5ZQX6oOksGYUjoH2enb1nG+KCuTPqANaCNLbYSAegC92Y+qvBHF1G/0i6knxnX9JOVn+X/VvHmoV78g8nf9+OQNAfUm0NRBqQr1rkCvg/o4uxTuwqPuamoLuaHfEoQfOnPBGejpXG3x+/QiKvpN3DHryoz32fJmCfVqBUNj5N4YqWWVFdQDYgAxWUIMd7zQ6TLfmUAdrJw6mBbqVb9gu1MO/7sr2Dz1Npb24Wf+P13eCOrloftCPaWbFuptoMkwKqcy1CcBehXq4+wePHXWDPQ3vho2D71uppoz129oQ29MdqP4/SvXjDbpAVlTXrl8TOtxebOCejQo6WLo1cY6C6gHTFQOTOBuhhmqqVODuoC6UIjO7WrfmPopk0XLUyNfPqX6Cd6G/83537RTWjJ8m9Is2LtKJX3adv2kyZsG6v/60UHBs9S4ztzCUJ8U6GWojwNcAuNjl69qAXvECL0ScsMj+scujnzrq80uxe+bps48/eWNaJQ+aVkx4Nvs8m+ygHo0KGGBnhrq0FAPiAHEFAJiSGcmO+p+aBJlpWqCt8tFG82B3yjLEC+n8L9D/jdLqE/Dz7a8VRw/T2nWITfcWaADoocI6M2iSZeWHR3ivQ8O5KGewJMB05YS1D/801/GPhRLEK8uFFPvArgHTpwRZzWwPgLopVluGOY5pfh4+Tzi7H5+zhy/f+TCJfH+4WOJy4rsx9nlYwwN9WhQhhoUuaHVrScpq5BQXy4Okh1+XIrzBSyaNAJtQBuF1EbWUJ/Ep6g+qRzzZgX1KpSHZO881JMR10+IWwY03U9SoKffb97eId57f38Eqq5ATwD61/2HxEM//nke6mnEXoV30zZNceky2n347Mi56W2z3DDIc8oj6wzMLmBtit+nzsUnJ07njztJWbnY5WMMCfXl2CioDZ+8XcjzTQP1G3b2iK47740WmqaOXnHPC23zd3Ep8qKsTBqBNqANaCO+jV2+rkXcMr46MTuNnzpZbPmRPfymkP5otPxgUrtZQH0IfubBeB23R1Cv+8IE+GoPwzev70h9BPUfHIhGkhks41KC1Pc+OpiH+iRAT7+lOewZ6k1wTLHtxy4ND70ZMUKvGcVnoKf08LmL+VF6F7A+aJibnuyeuHxFfPD58cSdHxe7cnmHgno0KNmM0HMjlgbqx0yoEeMmTr651IpxE+WF97ukcj5ad8nDv0Fe9/JCWaGsuN6oKbRRytoYM74mMdDTYGgc1MP/6v1vaKgPxc+2Z1+rQg77mzoCtF89GXqFrs9Ifcv2DkEx9TJY2tYZUt/7MAf1SYGe5q6nl1LFxe6roTcjgN4SckNAT3HxB07kQm/4mOM6Esc1L7hiu4fPXhD/PHw0ceeHbcadL5d5CKhHg6JvUBjI5dS3rNJAvU89RZ7koYUoM5QZNAANZKEBG9T7+hTyS+WeNyTUqwycFXvnp7S0ATl9F/qWQZoHZf+2/zMnqJfhmKD+4Z/80jnkhuCfX0pFI/X0XwyyupSmoeRR9yQhN5znxJVrgkb75WO2gXWuE/FV3ib9j2z346MnY49ZPg9Xu3IeWk8L9eXeKMhAPpqNYPtzHWKc5xtls3Ay+E/ACzQADUADhdGACerhf+0DaqGgPjQ/23jdCerVHgZtu35MebOGehVS/7r/M+0bZXVx9DLQE9hTTL0Ks+o2v9GVR8pPX/symr6SthncTSnNTU9zzavHTNuqHd6mkXjKx/8p2z126XJBgJ6OpXl9i9cdl8XdjWJg3wBeW/2uee55uUOQtvFtf7YdUO/xYD6gozDQgXJGOUMD2WlAB/VpfQq/4b2cXwoZAupNDOzC0D55Y6Fe/dNQtwyyhHodHPOUljqIl/epQE/bujfKMlxTSqPmBNgyWBPU08g5Q7ctjUJvjg891GoboSd7NKJ/XIrfV+1+dvqcsTMgHzet68pK/Y1pm/Ku9oT6RV2Nov+N/jzUUwMjQ6xtHY1R8rIC1GfnMAEjKFtoABooZg2oUA8f6uZD00J9Vvxs6xBYoT7LWwZZQb0JUl2gXgf0BPxxUH/k4uVhoS8R0DuM0DPoH798NYp/53h2OgcTSNN+6kTQS6oovxxyw3cH6Htbfv7OVFb8vS3lvP5QvzQP9QB682h9qMYXUA/oKGbowLFBn9BAdhqQoT6UTynnEXoeVOx9vU/UbZjvFY1Az43yLDW2B1t1gJ6GvY1Qr/YwaNv145I3C6hn0NTB8f9++oV44tmXohCcR57+1YiU4u1pykteaE57/t27/9xvhOT9x06Lk1euxb4plgFeTWmUPenUkxS/r70zcP2GoA4CjeTbgJy+s5VVkrxpoR5Anz3QU+OLmPrsHCZgBGULDUADxawBhnoAvdsIPUE9lVXv3l5/qO/syUN9aH42sTjZ0UK9CuWhQm7kAwkN9XGQ+uGRk4LAnkbs1YXi7elB2mj56GA0p738G/pvE+gePHlWnLo6BPWuITfRKPv1G+Lklav5F0TZ7Mj2T129rg314dh8+be69biy0uXhfWreNFBPMfXcI45L0Rgla4zUeEfMfgPoKGbowLFBn9BAdhogqG95cks+3LUSRtlDMEPva/5QT+9iohH6LPhZZmleZ24fAfVphv2T5A0J9SpousIxgWravIfPnM+P0tOouzoSb9rmsBnKHxdDz0BNKU17yXk53Ibtnr3+lfjk5rSYch55Pe358l0QPua0s9/EwTz3mFVIdcmHvIPRaAOVA6A+O4cJGEHZQgPQQDFrYPyUyWLzE0NQT8ALH6q/Sy53BtJAPb2LKckIfRJ+ZpDnVM47DOqZ9DkOKMkBJc0bCupDQ6oMwLZ1svvBF8fFsYuXnWe5YcDnB1tphD/p1JNfnLuY70Sosfs0LWbcMatQbvu9/J2pnLOGermCYXRB3whx42wrK0A9oKOYoQPHBn1CA9lpQIZ6AL3Zj6o+NIqp3+gXU0+M6/pJys/y/6p581CvfkHk7/rxyRsC6k2gKcOoaT1E3v3HTuWA3nGWGw654RH2oxcvWyFcPXYKITp++Uoe6tVQn89Onzf+X4jz5Q4B/RcfW5ZQr1YwNEbujZFaVoD67BwmYARlCw1AA8WsAYZ61S/wgJAuhf/dJdLOfuPC0D78zP+ryxtBvTx0X6indNNCfVaQyrBqSmW7X5y7EMW28wh8XKqGzdDc9CY76n6ye+D46Xz8PofcsM2z12+Ij4+e0v6ffMwcNqP+v2k7Lm9WUI8GJeztUUA9oKOYoQPHBn1CA9lpgKC+5alWhNwY3gtj4o2soT4L9q5SSZ+2XT9p8qaB+r9+dDCKQ9eNHJvglPfHQSr/TpfKeT/4/Lg48+V19xj66zfyI+w0Uk95P7WMrMv2ye77h4+JQzfj91WgJ7A/cuFSwYGejjELqDdVMN1ogroPefWdAUB9dg4TMIKyhQaggWLWAM9+o/pL3TZ86JAPzRLq0/CzLW8Vx88X+ildeojApxK07OgQ731wIA/1BLwyANvWZShPO2J96Ox5b6CnEXuC+o+Pu089SZ0Iit9XQ24I6M999S/xycmzI8oh5Pmayjk01KNBGWpQdA2uvC9JWQHqAR0+7S3yQDfQQOlrwBXqk/gU2RfRejnmzQrqVSgPGe6eh3oy4voJccuApvvxaSw2b+8Q772/P9GMMQT6IQH3wy9OiFPX3Ebp1ZAbHmU/ciE+nl4+ZorfpxAbDreR05NXvhQ0X77coZHzpu3AmICe7IWE+nJsFNSGT94u5Pl2/75b1NbP8KpzC1esESs3bo2WFRtahbrwd3Gpmo+24/Lw98iLsmItqCm0AW2omuDtctNGQ2OTGDOhJnE7PmnWVNH2m3Zr+E0h/dFo+cGkdrOA+hD8zIPxOm6PoF73hQnw1R6Gb17fkfoI6j84EEG6DLG29dCAe/DUOe2IuQza0Qi6EnLDQH/+q/8Tn8S89VU95qMXr2iBnv7ri/PDQ2/UvDYoV8stad5QUI8GJZsRem7Eul/uEZMbZiZ2BtTxXtK8UazZ1iGat7aL5q1t0tIe7afv4hbkRVmZNAJtQBvQRq4NjasLC1euFWM9ob79tx1GqIf/1fvf0FAfip9tz75WhRz2N3UEaL96MvQKXZ+R+pbtHYJi6lUYNW0nhVT5f0x5j5y/pAVsGeoJ4HmWm2jqSWmGHHoDrWxHXVftfnj0ZPQGWfn/eZ3uBFAng/9DzUvb/F1c6pM3BNSjQdE3KAzkcupbVmmhPs7ZmJwy7UdeQJtJH9AGtAFtuAE9lVMWUO/rU8gvlXvekFCvMnBW7J2f0tIG5PRd6FsGaR6U/dv+z5xA1QdSGXxNefcfPy1OXv3SCvWmkBsG8UNnLhiPX2f383PmTsTpa9fFR8dys97o8vL5xKW+edNCfbk3CjKQj2Yj2PVSt6ht8Au/Wbx6gzQ6TyP1ABGAiDuIoKxQVrk7fGg30taF0FAP/2sfUAsF9aH52cbrTlCv9jBo2/Vjyps11PtCKsGvLS+Nip//6l9GqB8xQq/EwZ/58oY4YAi90dn9OJoL3xy/f/hsblpMXd44kOfv0+RtXt/idcdlcXejGNg3gNdWG6bYCt0Z6HyxKxDUwzGndcy6/Bixhq50uqB90Aa0wdoICfUAejvQkw8OAfUmBnZhaJ+8sVCv/mmoWwZZQn0aSI3La4ptp1H4EUAvhdzwKP3xS1fFx8pDrbaOxKeW+H3qXNADsnHHzPCuS9PmXe0J9Yu6GkX/G/15qKcGRgVZ0zYao+Rl1flCCKiHc2XnqqYAL2hD1QRvQxvQBmtBTZNqIxTUw4e6+dC0UJ8VP9s6BFaoz/KWgS/Ub9rWJv78v+8LCsHRLRRvT1Ne0gw5lNK27ne6fS55D585J46cvzB8OXdBfH72nDh06nR++fzMWXHk3PDffXHuvPjg82Mjjsdm96Mjx0f8D9s/cPxkdH5Znq+unGgfH3PTmo1eI/WLupbmob7UgX7wrUEx8MaA6P9Tf7TQ+uDbQ41GMTSg6aEejll1yLyd1DFzPkqRF7qS9SCvQxvQhqwHWg8B9cXgj8hnloLf7329T9RtmO/FOPTcKM9SY3uwVQfoadjbCPVqD4O2XT8ueX2hfvrsekFgv2Vnp3ahB2lphhxaaE570+90++PytrZ1ibbufu2ys6tXDC192t+0dfeJ1rbuEcdkttsldnT2Gv6rX2xt7xbmvPrykc87RN4pM+Z4CZ6hvhQqttoIErxv/8VOse6RDWLFHavEws5G0bBtsahvWSDqtywUDdsWicU9y8TKr68W67+/Sez8dZvo/2PursRonW/XS13es99QTL3qXEzbABGACLSBGHrE0Oc0ELoupIV61ZeNlj9iu31/6BM7f9UmNj3WItY8uF40faM58pvkO5u/tU6s/94m0fr0NkHhowNv5sJ1Oa/pTr68P+359u7t9Yf6zp481IfmZxOLkx0t1KtQHirkRj4QX6j3mTEHeYrv5RkE9RRTL1dA23raykkjA7z4Ngodz3eKZbc3ickLZoqJM6aIsdU14mvjzGV7y/hJYlxtjZg0c6qYuaJOND+wVvS/6XbOoc837ew3Juck7wfQA+hlPcjr0Aa0IetBXoc23LWxcOUa7yktaZ569oGjPVK+9afbxIK2JWJywwwxccZUMW5yrRgzqVqQz+RlzMRqMa6mRkyYNllU100Ts9fOE2seWl9QH9r7mj/U07uYaIQ+C36WWZrXmdtHQH2aYf8keQH1ZhishE4IPShLDYsN5Pm70IDL/xuXkl2K++94rkM0Dq4Q4yfXet2VkK/nxOlTxKpvrhEE2bvf2a09/yzON2uoh2N2d8woK5SVDLXyOrQBbch6kNdJGwtXNHtD/c5n2vJQTz4mzv/x90H80b5BQS9AXPftDWLyQr/3pbAfpbfj0uBax/NdYpcU5srHS2mQY35rUKSBenoXU5IR+iT8zCDPqZx3GNQz6XMcUJIDSpoXUA+od4H6UJXTZ2Si+5UesfyOJlE9e1pqmOcGidJbxk0S0xvniLWPbIhi8LNojNTzzRLqASIAERk+5HVoA9qQ9SCvQxvJtZEK6n+dg/pCAz3FpVOo6owVdeKWCZOC+dKa+uli2a1Ngp4Xy8qHRjH1G/1i6olxXT9J+Vn+XzVvHurVL4j8XT8+eQH1gPo4qB9NoG9/rkNMXzZH0C1AGchDro+tqYni76nhCDm6oAI9/XdWUA/HnNwxD72VF3llyJPXoStoQ9aDvF7J2kgF9c+0Ffzh1J5XesS81oVRGE1I38n/RaE6UxfPFtt/vjMTH5p29hsXhvbhZ/5fXd4I6uWh+0I9pQuoB9TboH60gH7w7UGx5alWMWnW1MxgnhskTmcsr4seBKLy4CX0aEoWUF/JzhUPAmbzICDBG3QFoJchXl6vdG2kiql/tn3YiLY8uq2up/W/9LwcTRAxeeGsgvhRer6N7nwThIf0oVlDfRbsXaWSPm27ftLkBdQD6k1Qn7ZB4UpNaVI43rRni6iZO70gDRFDPaVTl8wW2362PWqQkh6zy/mGhvpKd650/jJs2NZRVigrkz6gDWgjiTbSzn6jwrtuO63/JaDf/MQWUTvP7w3msl9Msk53vlfcuSoC+1A+NEuoT8PPtrxVHD9f6Kd06SGCJBcMvy2vToDpQdm0DYoL4JoaMnoif8L0KaOjy3ETo3Cfrt93ZzKaEhLqASIAkSQgYvqtuh+6gq5UTfA2tJHTRtZQH8L/7vhVm6iZG/Y5NFf+oxH7pnuag/nQrKBehfKQ4e55qCcjrp8Qtwxouh/XC4XflRfQ0/XUQX2IBoWhPmlPve237aMyQq9qu75lYTQfr67jIe9LWlahoB7OFeDFoKWm0Aa0oWqCt6GNMNrIEuqT+hSdP6L3odTWF/5Ot+xHKc5+02NbxK537DP8uJxvFlAfgp95MF7H7RHU674wAb7aw/DNi5H68gN1uWLFratQ71LB5EZEXk+bt/f13uiBVWoM4o478+/HTRTL71hlDRvyOd8QUA/HHMYxM+iYUpQzyhnawAu8dM/tZAX1Pj6FfTDnpYdi6zxnigntV2le+x2/zD08y8cpp3zMcYOAoaE+FD/bnn2tCjnsb+oI0H71ZOgVuqEvJP6vdDoKMtS7VjC5UvJ6iLz0Nruxk7Kb5SapLunFVlt/tl17C9H3fNNCPUAToAnQBGjqQNOkC9qPdiNsu5EF1Pv6FPLBnHdg36BYfe+a6AVSSf1dFr+/ZdxE0bB9sej/08iXPfIxxwE9nV9IqFcZOCv2zk9paQNy+i70LQM8KFs6AJ5FpWOoT1LBGOQ5DZG37/U+UVM3OvF/tnKlBolei83nSmma8+16qVvUNvg9uLR49QYxNA1jW+SobY5c/g5OPaxTl8tWXkc5o5xlPcjr0Eb5aCM01KfxKXLezhc6xZRFhZnpxuY35e9ooG7Lj7em8qGhoD40P9t43Qnq1R4Gbbt+THkB9YB6ekqee8uUUiMhQ6xtXW5Q0uRtunt1Ud4xmjBtyrDbh2nPt/PFrkBQXz4OUgYfXgcA4fqyFtQU2oA2VE3wdqG0ERLq0/oU2XfTw6lfG1d8TDN9WV3EGL6DYiGg3sTALgztkzcW6tU/DXXLAFBffBVA7uVmvb6oq1H0vxF2TllbJ4C/kxuy7pe7xeT5fqPXVD50i2/2zBoxY1q1GCM1aOMmTBRzZtaIaVOro9/4liWVkW9jpJ4vvXUv/Ug9nDo7cTUtlFOH3XbcNdpmf0cAawSaLL/2KhTUy34wzaAY5e37U7+YMGNyUQ6O0dvbN/6wxfsud1qoz4qfbR0CK9Rnecvgnnvv9xLB5J+0vosAACAASURBVJlzxfKNW0VTy46Ry+YdYuWm7cOXzdtF02bNb9X8yCtWepRVzbTZXtdxce8yMfBGbqSeGhiG0Lg0ZGO08YebxbjJtYmOv7pmkli/cqp48YfzxJm3lokb/7UiWs6+tUy8+vh88dbTC8Xld3P7r7+3Qhx5vVH89L65YsWiKWJcwldkj6utEX1/7AtyNyM91Jefg2T4oRQAhOsr60FehzagDVkP8nqhtREC6kP6UPoveumT78DVpOpJorlxqvjhXXXi6fvrxffvnCM6Ns0QC+prRU1NmIkrZjfPjUJZ+c5CEt6gt73XbZjvdX703CjPUmN7sFUH6GnY2wj1ag+Dtl0/Lnn3PP6UV0HVL1kpbn3kUXHXD54asdz5/SfEHd99PL/Qtu53un3I61dWs+cv9rqOS/qXCwq/SVLBQjZGZHvpwIpEI+kNdbXi5w/Vi3NvD8E8Q70pvfaX5eLKfywXn768RHz71jliYnWyhmrdtzfmoT5NWdFUY5MbZnpdK4qplx2Zbb3QTo6PBXYBXqwFNYU2oA1VE7xdatpIC/UhfWj0X28PilnN87z8St3sGvGzB0b6UxoM+3xvo3juew2ipXla4sEwtYMxaeZUQXPn+9yR6N3b6w/1nT15qA/NzyYWJztaqFehPFTIjXwgoaEeUO4H5dQJStP5SQP1g28PjsoIPTVG9IDsnLXujdGUKdXipR82RIBuAnh1PwM9QT0tF99ZJn7+YL2g8By14TFt17cs8GqMeFSCG7K0s9+wE7SlpeYg6VxwzAA+k6ahDWij2LSxcOUaMXZCjbP/YL8yadZU0fab9vwAEfuFuDvj/L2pM9D5fKeonp18oona2mrx7HfniWt/yd3pVn0nbRPcH/tDo3hol180AJ87vZBq3bc3eA0g9r7mD/X0LiYaoc+Cn2WW5nXm9hFQn2bYP0nekFAPoB8doKdynz1/aeIGhiobjZJTQ8GNhi01NSi2PPydKS/NBlMz1/0lGd/qnyWu/efyfLiNrhGS9315c4SegZ4An76nUf6BbTOd7xDUzpseheDw+cSlpvPNGuoBQACgYgMgaBKaLDdNLlzR7A31O5/JjVaHAnryRdsebxETpiQLYSX/v3vHTPGlBejJV8o+9Ht31IkJk5Ld5Waoj3hj0I830kA9vYspyQh9En5mkOdUzjsM6pn0OQ4oyQElzRsK6gH0owf0FMY0J2OoN0FqHNzS97a87b/tcJ5Td86sanHiT43OQK+O0DPQM/T/8UcLBI38y42OaX3S7Kmi43edqTs/WUI94AnwVG7whClc8TCuTtOj3dalgvpf+4WgqHd9Zd+78VtrxLiJyWC7pqZaHHplqdWfqj709L7GqCMwZrz7XW7ZpzZsWxQ9wycfu25dZYYopt7zhVo0GYzrJyk/y/+r5s1DvfoFkb/rxydvCKgH0I8u0GcN9WoFo21dRdTti8vb+pNtTlBNDcO9vbOsDRDDOqVqY0SjDfL3tE4P2C5qcBvdmDB9itj2bztizzvufLOC+tF2ckPwBbDWQQjtwzWCNqCN8nhxWCqof6bN+e44+dQ4n7L7nV1i+a0rnf0oQ3Z3y4wRPlH2kSYf+rdnFotZM5KHHpHdWavrRe/ePqsf1Z1v2tlvXBjah5/5f3V5I6iXh+4L9ZRuWqgH0I8+0GcJ9boKpoN33T6XvJsebXFujF7dM9/aCHGDJN8upLAbdYSef0dp+0a30J/xUyeLLT8a/gIN9ZxdzjcLqAcsAhYBi+UBi3hTrP3ORLG0dali6p9tt0Kt7FdcfMqtbw+Kpp7k4bc/vneu0Z/G+dDuFje/yR0ITqctnSN6Xu01nr/pfLOG+izYu0olfdp2/aTJ+9jjTzpDFV8YSmn2m90P/yA/w03aBz2pc6CbDUe3Dx2JkWWVRfiNqYLJjY5p3TXv+u9uctbfu/+20NgIMairows2oKc8t7W5zUQzfkqt2PzElsSNkVo+oaG+WJwcHYcJLNX9OGaUlaoJ3oY2oA3WgpoWkzbSzn6j+gXdtqsPvXXfgGjqWOTsR5njnv1ug9afuvjQF37oN70kve22+5UerR+1nW+WUJ+Gn215qzh+vtBP6T6654nEYmCo3/Xg9/NQDygfObUnd0gK0QkJDfW2CqZrgOR9SfJu+qH7SP3eJ+0j9WpjpAu5YfjntGuz24hDNFL/lH6kPsn5hoT6YnJyqgM2beOYAW3QBu4qlPodiayhPolP2f3WgFjRmXxK6x9pRupdfehLj/lB/cwmffhN3PlmBfUqlIcMd89DPRlx/YS4ZeAN9YtXCIZ6AP3oAn3o8Ju4CiYDvLqeNG/rj7c6dyof2j1HO7JAgB53u5AhXk7P/3m5WDLf7Q18UUz9z7aPGGFIer6hoB5wDDgGHAOOSx2OTRqW9xdjW5cl1Cf1Kbve3iWW9i1z9qM8Ut+9Zfowf5rEh97X5ze95bzWRaL/TwPD/KjL+WYB9SH4mQfjddweQb3uCxPgqz0M37ypoP6h76eaWx2dgXCdgVAj9S4VTAV53vbJS3P2jpnoNgNNw9xacf7PI184pY4u0LYM76b1t3+2QEyb5mab5hduf64jcWPEZcNpCKgvRicnO2HdOo4ZnRCdLmgftAFtlJo2soJ6Hx+6+53dYuUdq5ynZ2aor6mdFL1civxjEh969A+NonGh22AY24rScRNF466Vwx4Sdj3f0FAfip9tz75WhRz2N3UEaL96Mo/t8YypX7wiiqnnEJO4tBAhKLpjqBS7IaDetYIxoMqpb16ap56mixxW+ceap8vac/fwh3vUxsgl5IYasQt/Xi7u7EgwT339DNH/p/481Pueb1qoBwABgEoNgEzHC6Bvizo0tvKRv0PdL566nwXU+/oU8sPrH1wrxk5yG6CSfe0d7TPF1f/MvZSR3+Vi86H0IqpfPFQvJnrMVU8vn1r/nY1ePjQk1KsMnBV756e0tAE5fRf6lkHa2W90IK3uqxSw5vMejfNNC/VpGpQ0eXte642muZIbGtv6jOk14s8/Wxi9MCPJ7UJ5tJ46Ai/+sEFMqnaf17du43yvxkju+NA6dWJqG2Y4d2Lksli8eoMYmjoSQCADj7oOACoeAFKvDW/jGuEasRbUtNi1ERrq0/hQykszs02Ymnz0vHZy7o2yF9/JgX3cXe7//c1isXBecjvkxybNnCransnN/JP0fENBfWh+tvG6E9SrPQzadv2Y8mYN9aMBuATXlWZ3zvwlXqBIb5SVX2oR8i13KtCq21Sx+98YEIt7lomvjTOPzstgS+t06+/lPQ2CG6K4aStloD/1ZqP4yX1znV86xbbXPrQhgvqkjZF8zpS388WuQFAPIFBBgLeLHQj4OOUUxww9y3qQ16GN4tNGSKhP61PIZyd9Mzv7NUrr59SIf3ugPnrLuuwr5fXL7y4Xrz0xXzQu8AN6sjNrzbyINXzONwTUmxjYhaF98sZCvfqnoW4Z+EL9tLr5Yn1br9jUOWBcNnb0i40dfdLSb/yt+j/Im6yspsyc6wf1/cvFwL6BPNhThZNB1LbuUzn5/+S867+7UYyrTfYyC3oTbPvGGeI/fr5QENRzA0S3B//nN4vFRy8sEV++tyK/n24xvvr4fLFp1dTEr7keM6la0Bvt5GP27fx0vuAP9bMbFouGZauiZf7y1cJl4d/LqUs++o2ch9eRV1/uXD5yirJCWaEelWd7NathkRgzPnm4S/Rs1m+Hns0K4VN4UK6+daEXAxBw013rjU1TI3C/LPlTGrn/yy8Xib7WGYkHwuSOA61v+MFmbx+aFuqz4mdbh8AK9VneMvCFevWCYdt9pLmYymoJQf2bOainBoahOy4N2RhFISnz/EJSqCzpYdfmZVNE09IpYurUXEM7ZtxEUTe7VqxZPlWsWDxFTKpO3gDzdWrYvti7MaJylMsqDdTz8SAtzbqG64brBg1UtgZkqJf9gu8gEQM9/ReF4Nwyzj2k1KRFipenWeFoVL621t9vyv8/ecHMYX4w6fnSoFrdBr9pNNu7egXPUmN7sFUH6GnY2wj1ag+Dtl0/LnkB9ZXdyERQv28gqnBxIM/fh26Mdr2zSyy7tcl7lEFuPEKvj5tcK7Y+vS1/JyNpY6SWVddLXWJyg9sLr0KfC/6vsus6rj+uPzQwuhpgqFf9Am2zf41LTXkH394lpi+bU3R+lO50r//eplQ+tHdvrz/Ud/bkoT40P5tYnOxooV6F8lAhN/KBAOpHt5KPdiNLUD/49mDqBiWuIaLvTY0Rfdf/h35Bc8GPdnmo9us3L4hCb+QREZdzNZ1vmtlv1GPDdmXXXVx/XH9ooLQ0QFBP0zizP0k7SKR2BjY/vkWMGZ9+tD6kruasbxA9r/bmz1k9Zps/ZWbofc0f6ttuQn0W/CyzNK8zt4+A+jTD/knyAupLq1EIWdnov+hBWddKxhWMGyTXfCbAVSvz+u9tdJ6zPnQ56P6PZhPY/MSWVI2RWlaA+squbzqdYR80AQ1UhgYI6nc+0xbUp8h+tO8PfaJu/fxEE09kqb0J0yaLTXtaUp9vGqhv7+yJpnJn6I5Lk/Cz+l9y3mFQz6TPcUC07fpJmhdQXxmNianiukJ91kBPDRM9DEMj4yHiAk3nm2Q/zcpDc9OHHE0B1Fd2fUuiP/wWWoEGyksDEdT/Ogf1oQfFIrh/Z7doebLVa3rL4FobN1Esv60pmuEurQ+NYuo3+sXUd3T1ueLziPc4pWHvPNSrUE7k7/rxyQuoL69GI2nFdIH6QgA9jzbQPLbU8CU9j9C/n7lqbj7sJmTjC6iv7PoWWqf4P+gJGigdDfBIfUifwr6T011v7xLLdq0cdR86f8fiaKAuLdBTWaWd/caFoX34mf9XlzeCennovlBP6QLqS6dByKLxjoP6QgI9N0qbHm0R9IBqFucb+5/jJoopC2aK9t92BB2h53MD1Fd2fYvVn+VtysgL7UADpa0Bgvq2Z3MvYGKfYEu9/e87u8Vcuus9CvH1ZHP2mnmCfF0IoKfyyRrqs2DvKpX0adv1kybvY48/OTrwBOdVFOVug3rvBiXmoVhbI0bfkd21j2wQE2cW/sHZ2nnTRctTrdHc/XQcccfK37uWFaC+tJ0yoArXDxqABnw1QFBPA0bsN2ypq0/R/Qfl7XypS9RtaCg42M9eOy//MHAoH5ol1KfhZ1veKo6fpzTrkBvuLNABPbrniaKAS99KgnzpGlgT1KdtUKiHzotPxaa58zd8f7MY7/Hqa19N1NRPFzt/3ZYZ0FPjC6hPp1ffa4t8KHdoABoYbQ24Qn0o/9v5QqeY1eT3YsqkZUUj9Avbl4ruV8KN0HOHJSuoV6E8JHvnoZ6MuH5C3DIA1Fd2Q6eD+lANSohbb9t/sSMKh7llQnbTdI2ZWC1odKHz+c5gtwu5MVJTQH1l17ekjhK/h16ggfLRgAvUh/a/A28NivnbF4uxNcne2p5EdxNnTBEr71oVfGIJ9p9ZQH0IfubBeB23R1Cv+8IE+GoPwzcvoL58GowklZB/q0J96AaFK2VcarPb/fvuaOrNLOaxr6mfIVbe3Rw0/s92roD6yq5vXO+QQgfQQOVpIA7qbX7Q5lfoO1teuvO95sH1orbB/83tOr2Oq6mJZqyjt9lm+Wb60FAfip9tz75WhRz2N3UEaL96Mo/tQUy9TqyVsk+GelujkKZBCZF3cN+gaHumTTS0Lgoyl/242hqxdGB5FN+YZWOknjugvvIceaW0JThPaBsasGvABvVZ+1/6/+7f94jGwRWCYDzttZqxvC6aPrN3b1+qUFuXMN2QUK8ycFbsnZ/S0gbk9F3oWwaY/cZeCdMKv9jzM9Rn3aCocMvbSe3uemeX2PmrNrGgfamorpsuxk+Z7PQgEIXYTJg2RUxZNEssu7VJdL7UnW+IQoQJ8fnEpV0vdQcfLSl2jeH4KruNwfXH9YcGchowQX1SPyj7mcR539kt2p/rFAs7lorqOdMEDXB9bZxdoxQvP35yraipmy7qWxeKrf+2w3pnQD4+3XrSYw4F9aH52cbrTlCv9jBo2/VjyvvCi78Xm1q2WpeNm1uFvMT9Xv5ezkfrq9esF2PHV3v1EmmqwRkr6tyX5XWCepPRkiQf/ZbzUVrGedc8sE4Mvj30UGshATdpxZYbB8pLgExvfG36RrNY3LtMzNuyUMxeN0/MXFUvZq2qF/R66oZti6LQHTrPbT/bLuiNe2nt8siCT1nRSH3D1kXQpEudqpA6mG9fcL7ubS3KCmVlakOKWBv0ckXyW6ovS+NT0uSlB2nXf29TNHpPU2DOWFknpi+vE9Mb54hZq+vF3E0LxKKuxsjHbn68VVAoLPnPQvvQEFBvYmAXhvbJGwv16p+GumVw7do1cfbsOeNy+swZcfLkyfxy5sxZ42/V/9Hl/fv/+4eomTzdC+rpdcP0uuC4pfvVHtH9cnd+6Xm1JzYP/2el5e27+cZUbhiossoNjm290BWbj0Vnd/DtXaL/TwMRtNPtQFr6/tAvBt4YiBogW17+Li7V2Y3Lw99z3oF9A4L0CE2a63Gl1UGcL9pn9j9qCm2UmTZezw0qqX5htP0vDezR29NJfz20vNobvXyx/4+5N6rz8VLKvqyQx5wW6rPiZ1uHwAr1hbxlIB9kFnYPHT4saqfO9IL6rU9viwXO0RDcaAkddgeHAbvc8OjWoY3S7LDprqVuH64vrq9OF7QP2oA2oI3dET+VYl3ofb1P1G2Y78WN7V29gmepsT3YKrMvr6dhYCPUqz0M2nb9FGPeLKG+FMWKY4azgbMpXWeD+ov6i/qL+kuj1tQWmLSg7ke7kaysevf2+kN9Z08e6gvJz1qoV6E8VMhNXKcgS7tZQT0qSbJKwrfO0BjlHJLa6PI2dAVdsRbUFNqANlRN8Da0AW2wFtQU2kiuDQoL8h2pb7sJ9YXm5xFQn2bYv5jzZgH1qCTJKwlDPZWd2uiYtlHOKCtoA6OSGAjAQIDcDsAvwC/IepDXQ2kjDdS3d/ZEU7nHDWbz96H4eRjUqyPlhbxl4Bt75HrMoaE+lGjgqOCosmiMoCvoCroaml2L2mu5PGzraNtRViZ9QBuVpY0opn6jX0x9R1cf83ps6sqxuj9S8+ahXv2i0LcMGOqzshsS6lGxK6tiAwjMgIy6gLoAAMrVD9QF1AXUhfKqC2lnv9FBuLovNHtHUB9q2L+QT/gmPeZQUI+GGw03Gu7yarhN11Pdj7qPuq9qgrehDWiDtaCm0EbpaiNrqE/KsXKHwJS3Su0l0Lbrp5TyhoB6VM7SrZxqQ6vbxvXF9dXpgvZBG9AGtIHOPMIacxqolLqQJdRnxc9VHPZCKZG/60c9oGLPmxbq4dTh1CulITOdJ+9HXUBdYC2oKbQBbaia4G1oA9pgLahpsWojK6jPkp/zUE9GXD+mYX+X/KOV99Ah/5dPtf50q6AeOi8kQFWUpu1iFavpeGk/jhnX16QPaAPagDYwYo0R68oasTbVed5frn4hC6jPmoEjqE8C9GoPo1TyHjz4qfcbZVt/PAT1JF4WclxarkI3nTfOF9qANgB8AD4An9wOwC/AL8h6kNeLXRuhob4Q/FxV7GEzNPqvFoTPMX9y8GBqqCcByoK0rRe7WHXHjmPG9dXpgvZBG9AGtIEOGzps6LDJ7UC5+4WQUB+CYzlc3sbA+Skt40Jnsr5lYLIfym4aqN/4w82i+9UeQS8icFl6Xu0R3S93Dy3Iayw3lBV0ZapT0Aa0AW3kfA7qAuoC6kLh60Ln811iztoG8bWxExMv8jz1oTjWZYZJJ6hXexi07foplryffXbIe6R+8sKZYsaKOvdleZ2YwUuSfPRbzkcp8trLAGVlLx9ZPygrlJWsB3kd2oA2ZD3I69AGtCHrQV6vAG1MXzZHjJ86OTHQUyeAob7QDBwL9eoB2Yb9VdAvprxpZr/x6aUhT/KeLcoMZQYNQAPQADQADUADpa4BgvrRYGAr1BfyloHcIcjCLqAejUSpNxI4fmgYGoAGoAFoABoofg20d/UKjoF3CZsJxcBGqFd7GLTt+inGvID64q8EaKhwjaABaAAagAagAWig1DXQ3tmTh/pC8rMW6lUoL9WQG7kTAqhHI1HqjQSOHxqGBqABaAAagAaKXwNtN6G+0Pw8AuqzCH2R4dq0nrVdQH3xVwI0VLhG0AA0AA1AA9AANFDqGqCR+iQj9KEYeBjUqyP0SQ6o2PMC6tFIlHojgeOHhqEBaAAagAaggeLXAM9+YxrIlveH5Oc81Kt/WuhbBvxAQVZ2AfXFXwnQUOEaQQPQADQADUAD0ECpa8AV6kOzdwT1oYb9C/mEb9JjBtSjkSj1RgLHDw1DA9AANAANQAPFrwEXqE/KsfLovilvldpLoG3XTynlBdQXfyVAQ4VrBA1AA9AANAANQAOlroE4qM+Kn6s47IVSIn/Xj3pAxZ4XUI9GotQbCRw/NAwNQAPQADQADRS/BmxQnyU/56GejLh+TMP+LvlHK++hQ4dF7dSZXq/7RQUq/gqEa4RrBA1AA9AANAANQAPFoAET1GfNwBHUJwF6tYdRKnkPHvwUUD8Wlb0YKjuOATqEBqABaAAagAbKVwM6qC8EP1cVe9gMjf6rBeFzzJ8cPAioB9TjTg00AA1AA9AANAANQAOZakCF+hAcy+HyNgbOT2kZFzqT9S0Dk/1Qdg8f/lzUz1/sdRGntS0Ts+9aL2Z/fYOYE7PQb6Lf3rlezOYFebXlhrJaD10Z6hO0AW2Y2lpoA9qANnIsgrqQbV2YddtaMXH+bC9uvP/Bh/NYG4pjXWaYdIJ6tYdB266fYsl77NhxsXRZk9fFqf92q1j63KDTsuTZAbHkN/1Dy7MDTvno/5EXZWXSGbQBbUAbuTYYdQF1AXUBdSHirIz5avEvekXN6vle3Ljn8aciTC40A8dCvXpAtmF/FfSLKe+JEye9oX7ed7Y6gTmcDZwNnA2cTSGcDesMbQ7aHNaCmkIb0IaqCd6GNty0kRbqR4OBrVBfyFsGcocgC7tZQz0qiVsloUYFZYWyYueiptAGtKFqgrehDWiDtaCm0Aa0oWqCt9NoY9HPe0TNqgavkfrH9jwpOAbeJWwmFAMboV7tYdC266cY82YJ9WlEg7xojLjxUVNoA9pQNcHb0Aa0wVpQU2gD2lA1wdvQRjJtLPr3bm+of3TPE3moLyQ/a6FehfJSDbmROyFZQT0qSbJKgucN8GwGOxg5RT1CPZL1IK9DG9CGrAd5HdqANmQ9yOshtBEC6gvNzyOgPovQFxmuTetZ280C6kOIJg+5GT/wwWLHMaMRZC2oKbQBbaia4G1oA9pgLagptAFtqJrg7VLXRlqoTzJCH4qBh0G9OkKf5ICKPW9oqC91seJhPvuIOa4vHBU7JjWFNqANVRO8DW1AG6wFNYU2Sk8bUUy95+w3jz3+pGkMe8T+kPych3r1Twt9y4AfKMjKbkioR+UsvcpJ10xtZE3buL4oK2gDsxhh4AMDH3I7AL9QeX4h7ew3I+hdsyM0e0dQH2rYv5BP+CY95lBQj4pdeRVbbtht69AGtGHSB7QBbUAb6Ciio1haHcWsoT4px8p9AlPeKrWXQNuun1LKGwLq4ZjhmOGY4ZjhmEvLMZvqrLwfbTvadlkP8jq0UbnayBLqs+LnKg57oZTI3/WjHlCx500L9ajYlVux5QZetw5tQBs6XdA+aAPagDYwEICBgNIcCMgK6rPk5zzUkxHXj2nY3yX/aOU9fvyEWLKsyeslAvXfbhVRpfxNfy5FfLYxPh0QA4gBxABiADGlCTGmuosOan/UQbeVj/wd/GB5+MEsoD5rBo6gPgnQqz2MUsl75MhRf6h/RIJ6AD2A/jlAG6AN0AaIuTnIQ4M98AvwC/ALZTfoGRrqC8HPVcUeNkOj/2pB+BzzF0eOeEP95I2LxPSulbmlu0lMd1n493Lqko9+I+fhdeTVlzuXj5yirFBWqEdor2ztgNxe8Lrt9/J3/Hs5lb+3rct5eN32e/k7/r2cyt/b1uU8vG77vfwd/15O5e9t63IeXrf9Xv6Ofy+n8ve2dTkPr9t+L3/Hv5dT+XvbupyH122/l7/j38up/L1tXc7D67bfy9/x7+VU/t62Lufhddvv5e/493Iqf29bl/Pwuu338nf8ezmVv5fWp7WvEOPrZnhFeOx5/KlhwSshOJbD5W0MnJ/Scph1zUbWtww0JqNdoezSSP1Sz/Cbr42d6HVRkQ/lBg1AA9AANAANQAPQQGVpQIb6UBzrMsOkE9SrPQzadv0US95jx44D6tE5QecMGoAGoAFoABqABqCBTDXAUF9oBo6FevWAbMP+KugXU940s9+gh11ZPWxcb1xvaAAagAagAWgAGvDVAEH9aDCwFeoLectA7hBkYRdQj8rpWzmRD9qBBqABaAAagAagAVcNPLbnScEx8C5hM6EY2Aj1ag+Dtl0/xZgXUI/K6FoZ8TtoBRqABqABaAAagAZ8NfDonifyUF9IftZCvQrlpRpyI3dCAPWonL6VE/mgHWgAGoAGoAFoABpw1QBDfaH5eQTUZxH6IsO1aT1ru4B6VEbXyojfQSvQADQADUAD0AA04KsBgvokI/ShGHgY1Ksj9EkOqNjzAupROX0rJ/JBO9AANAANQAPQADTgqoHHHn/SNIY9Yn9Ifs5Dvfqnhb5lwA8UZGUXUI/K6FoZ8TtoBRqABqABaAAagAZ8NcBTWo4geGVHaPaOoD7UsH8hn/BNesyAelRO38qJfNAONAANQAPQADQADbhqwAXqk3Ks3B8w5a1Sewm07foppbyAelRG18qI30Er0AA0AA1AA9AANOCrgTioz4qfqzjshVIif9ePekDFnhdQj8rpWzmRD9qBBqABaAAagAagAVcN2KA+S37OQz0Zcf2Yhv1d8o9W3uPHT4gly5oyfS2w68XG79AwQAPQADQADUAD0AA0UJ4aMEF91gwcQX0SoFd7GKWS9/TpM+K++x8UXd19kn5vXQAAAaVJREFUort3wHnp6umP8lA+5LWXG8rKXj6y7lBWKCtZD/I6tAFtyHqQ16ENaEPWg7wObRSXNl7b+4cR49yF4OeqYg+boVJRC8LnmG/cuCEuXLggLl68JC5duuy0XLx4UZw7dy6/IK+53FBW0JWpXkEb0Aa0kWs7URdQF1AXKqMuEHPKnxAcy+HyNgbOT2kpG9etZ33LQGeT9sFueYdF4fri+qLu50oAdQF1AXUBdaGYZxGU9Yn2qjjbKyeoV3sYtO36QV6UlUkr0Aa0AW3kSgB1AXUBdQF1ISnQo91Au6G2G7FQr4qGemeuH+RFWZm0Am1AG9BGrgRQF1AXUBdQF8p9BkK6wmjrsm/rrFCP2yvuvUCUFcrK5JihDWgD2siVAOoC6gLqAupC0jsSaDfc2w0j1Ks9Ktp2/SAvysqkFWgD2oA2ciWAuoC6gLqAupAUcNFuoN2wtRtaqFdFQ70k1w/yoqxMWoE2oA1oI1cCqAuoC6gLqAsIuTHVAmjDVxsjoB63Odx7gSgrlJWpSYI2oA1oI1cCqAuoC6gLqAtJ70ig3fBrN/4/4wKrem6wL8MAAAAASUVORK5CYII=;" vertex="1" parent="1">
          <mxGeometry x="590" y="160" width="181.17" height="129" as="geometry" />
        </mxCell>
        <mxCell id="tWdphAtSzyCikmZwfdY_-2" value="" style="shape=image;verticalLabelPosition=bottom;labelBackgroundColor=default;verticalAlign=top;aspect=fixed;imageAspect=0;image=data:image/png,iVBORw0KGgoAAAANSUhEUgAAAWIAAAD7CAYAAABQQp5FAAAgAElEQVR4AeydB5QcV5m2/z17NrGwbACWXRZYFhZYMsbGOWAbGxOcAAMmOmJsWbIsWbaSjZMkK+c4ylbOGoWZ6e7pHCZ2Tw5KBpZoWJa4BJv3P8/t+UZX5RnJkoVtoZpz7rlV1dVhuqueeuv9vvvd/6cT+PvDH/6gsIXfQXgMhMdAeAy88GMABP+/E+BwCOHwQhQeA+ExEB4DJ+kYCEF8kr7IUBW8cFUQfofhd3i6HgMhiEMQh6omPAbCY+AlPgZCEL/EP8DpqgDC/ztUv+ExcPgYCEEcgvi0VkPPPvusaCEUDkMh/C5e/O8iBHEI4hBCHAPP/kG/+93v9H//93/63ve+p3379qmzs1M9PT36zne+ox//+Mfusd///vd69pln9cwzz4TfW3junLRjIARxeDCdtIPpVFJSpoJ/+9vf6umnn1Z7e7u2bt2qadOm6cEHH9To0aP1wAMPaOzYsW59woQJmj9/vnbt2qXu7m797Gc/C2Ecnjsn7dwJQRweTCftYDpVQMxBj/r9/ve/r0wmowULFuixxx7TQw89pPvvv19DhgzR7bffrptvvllf+cpXdMstt+iuu+7Sfffdp3HjxumRRx7RmjVrVCqVnFIO1fGLfyt/qhxrz/dzhiAOQXxagRhofve731U8HldFRYUefvhhp36HDx+u66+/XhdccIHOOOMMvetd79J//ud/6q1vfavr3/Oe9+i8887Tpz71KQdllPLEiRMdkA8cOCAsi+d70oX7heAOHgMhiEMQnzYAwecFwHPnztWYMWOc9TBs2DB9/OMf1wc+8AG95S1v0b/927/p3//93x2A3/a2t7me9Te+8Y16wxveoH/5l39xYL7mmmucQsa+QFH39vaGVkV4Lp3wuRSCODx4TvjgCV7VX67rv/rVr1RfX+8U8OOPP+7sBWyGz3zmM/3K953vfKdo73jHO1z/X//1X6LZdnsMlQyUX/nKV+rCCy/UqFGj3OstXrxYP/jBD/7kv8uX6298qn+uEMQhiP8k4UEwDruA7IdFixY5WKJeCcLh9773ve916vf973+/W373u98tv2FNGIyt96H89re/Xa94xSt07rnn9gf1eJ9f/OIXf5Lf56kOupf75w9BHIL4TwoceMA//elP1dbWpiVLlmj8+PFOtd5zzz366le/qg9/+MN6zWte45QwdsT73vc+B2I8YBqApgfKwNhvBmRTym9+85v1D//wD7rqqqtckG/EiBFauXKlfv7zn7vvlJPL/l7uIAg/30vrW3OchEV/Qhj/ScAYNUoa2qZNm1wWBBkQBOFuvPFGXXTRRc4DJviG/QBsgbCBGABbMxD7MPYhbMu8Dr4x7YYbbtC9997rvOeqqir98pe/7P9OOclC0L20oHu5f/8hiEMIn/KQ+M1vfqOOjg5t3rxZkydPdpkQKGEUMJkOWAr/8R//4awG4GrK1yDMujVfERuIDby8ji3Ts45nTACPgB7pbmRTTJo0yaXF/frXv3bfbQjiEMLHuhCEIA5BfEqCGA8YADP6bf369Q5++L9kQ5D3C4CxFfBygabv+bJs4LUe6Bqkg9v85/ogNhijjF/72tc6xY0FwkWAgSENDQ3uMx7rJAwfD0EdgjgE8SkHYssFxoJgcAXwHTlypEhFO+ecc1wQjtQzIBxUsUCVNhh0DcL0Bmd7ThDCtg6Ieb9XvepVTnkTFKRNnTpV5BjbKL4QuCFwBzsGQhCHID5lQEwWBEOLq6urHeRQnkAYH/gTn/iEU6UAEYAaPAfqDbA+dAdatv3sNUwBA/dgA/r4z6S1XXzxxS54x2dbtWpVf/BusJMw3B4COgRxCOKXNYjNgmA0XDKZdB4wgCMQ941vfMMNxmAgBhDE3wWWANQULRANgtkAOxB82cbr2D7+c00BByHMOqqYz4AX/U//9E8uk4LgHUOit2zZckTwLgRvCN7gMRCCOATxyxbEKOBvf/vbikQimjlzplO/DKC49dZbHeiAJilkwNIyHuj9IJwPVH95IAjba/B8f19fERuMrfehjCpGkf/rv/6rC+B9+tOfdqPvKCK0Z88eB+PQpgghHIQw6yGIQxC/bEBskKL/yU9+onQ6LUasUYwHFUwxno985CMOkihQAAk0GZRBTvAHP/hB17NuMA6qWwBrEDbwWs9z7HnsZwC23uDr9z6IWQbGqOJ//ud/dpkUN910k/vs3/zmN5XNZl2xIfs/Bzohw22nJ6hDEIcgfklBHIQS+bcAi5KTVETDB2agxCc/+ckjMiCALeClQI/ffBjbqDnAawp3MAgDY3vM9jUAW+8D2JYHAjGqGBgzcITXYjg1Sp5MCgaaWLW24P8eQvj0hHCoiEMIv6QQ5gAERlgQlKVsa23TnDlz+i0I0tEYjGGDMD70oQ85xWrqFwCzjcbyQBD2AWugtd6UMOv+MuuDKeIgeG0dhY4aJq+YBozxrv/u7/5OZ555psvqIJOCgkNPPfWUnvn9M+5/D2F8+sLXv/CGijiE8UsGYyDEoAcqly1btswFtlCOWBAAGBgyWAJFimVgCtjg6/cnG8Smgv0eFWzgDfZBEHPxYJAHypiaFOeff74beQeMqWVMJTj+/xDEIYhDRRxC+CWD8C9+/gs30wWzYmBBENAiF5hC7AzGoBwlEASwvgJGXVo7FojNmgiqXVsfqDe1HASwWRHW+yAOQhg1bBkUgBggo4wpnYnXjd2yffv2MJMiPP/6z79QEYcHQ//B4N8qndTlZ8uqB/XHnHCMhgPATzzxhFPBZkFQVtJUp9kMZj/QD9RMJQNraxass8CbD1zfhvC32/LRQOzD11/2LQmzJQzGABmL4vWvf73LpvjCF77gLjjAOBqNOksGzzhUx6e3Mg5BHIL4RQExHjBzva1du9YB2AryfOlLX3IeLzCjAcRgIM48YAMx8LVm8PV7A7HB9Xh6H8Smfq334esv+yAGwAZh1DCNFDsU/uv/+fXuf+R/Rv0zO0gulyv7xc+EM0mf1Iv/KXZehyA+xX6wU+lgdSrvmWf1/e99X9u2bXMARglSGOfrX/+6K0kJtPCCzQM2wBp0zX6wdR73oesvA2BrA6lhtvH4scAMjLEmDMDW+/C1ZbuAmBJGAZsKRgnTAPGb3vQmB2MyKXh/aiJzJ8AwaDIpQq84VMRhGcwQxiddFQOW//3f/9Xu3btls2IwyoxUro9+9KMOTMDMV7t4vwbeYO+DGJj6ALZlgzD9HxPEeMIGYj9LwpSwD2L8YUBsMGZ2D/xibBjuCrgwkUnBwBX+TqULbfhZT97FI1TEIYRP6sn/m//7jZsyKJFI9FsQZArcfffdYqQZChGFaaAFsCxbAG6w3vY3RexD15ZRmqZ6bZv1BuZjecS8xkCK2MALhA2+qGGDr/WmiLEk+F8HAjGZINSkIDcaiwIgP/nkk/rRj34UKuPT9HwMQXya/vAnW83gATNnWyqV0qxZsxxcSEVjWnoK8gBCYAZomSXjrLPO6m+sW/O3B6EMjA3EqGCDrPW8x9FADGCxQYIwtufR+yA2e4LPbZkRwBfIsh8XlCCAAbFBeDAQMwSaspnM7sHFCRijjHft2hVOtXSano8hiE/TH/5kgviHP/yhUMBMT//oo486D5iKaEw9D2ABH1BlfjcapSrPPvvsI5qB2O+DIGYdBW0+8kAwNij7vQ9YPos1YErz4W2P2YAOYGsQRgkDZ6qrffnLX9Z1113nLi6+CvYhHASxb09gUaCMmd3ji1/8oiubOWHCBMViMf3+d7/nvDzq38n8/cLXOnkWw4l+l/zYoUccwvi47An8X5sbrra2VvPmzRO1FPCAqTjG9PQADmgCXAYz0MgPpg0EYx/AtuyD2KwJ3yu25ecDZD6PQdZ6AzG9gdv2MxCbJcH6pZdeKmpHMOSaOshYLsxXB6CBLhD2FbFvSxiECdoBYbIoaK973evccyhmT/COfGqGeLtA57PlTIqBiHyiJ3z4vJceugP9BiGIQwgfF4Q5iKgHQUlKaieQAQGYADDT03Orjoq84IIL+huBKeaMY5uB+HgUsUGY3uCLKmaZbccCMYrX4Ov3PojZx1fOBmL+Fz7r1772NQdeADx/3nxXZ5jh2PzvNh9eEMQWpBsMwqhhVDHBOz4LPjqvB4yZ+slqUoQgfnnCcyCgnui2EMQhiJ8XiIECACbVasGCBc7TtCwIbtNRlNy2A9tLLrmkv3EbD6hoAJnHUcRBENs6ahifeCA1HASyb1EcDcYGYh+8/rLBGfiyDHxpgP7GL9zo/G5yfvG+ly9f7gJrBNco+j5j+gzddtttDqSmiukNvgbjoBI2RQyMGewBjPnerIYxkP/Od77TH7wLwvhET/jweS9PqIcgDkE8IIjt1piCPP/zP/+jUqmkpUuXOguCYbpMS8RkmYAWAGM9XHbZZa5MJaUqgQqPGYgNwuxnIDYLwiBM/8cCsQ/e4LIPYi4oqPZrr73WBdHwbadPn64VK1a4ufE2bNigjRs3ip4GjCdOnChGzPE65hEfD4gNxq9+9aud1UGQE1W8evVqfe9733PKOATxyxOgJ+vCFoI4BPGAIEYBP/3006qrq3MQwoJArRGEY2QYsEWhEni7/PLLn9PwU1HBgNggHPSIny+IB1LHqFVUsN/M5/V7sxuC8B1oHbV+ww03uP+R+hezZ892MAS4zI/HLNHMtsHwbL+nYBGWxWc/+1k3cu5oQTpTwn4PiMmkYLAHMOYiQEob3/mG9RtcgSD/hOek9dfD5VMf0iGIQxA/56SmHkRjY6NTewCJoBQqDQCjdFG1wPXKK6/Uxz72MTdA44orrhANKKOMAfFAatg84mDmhEE5qIjNpvBtCZaPBmLgC4wNwqZ4/R4bwiwIlPj111+voUOHugJEZkGgfA24FOlhdOCOHTtcYzvbgDKQtgL2pOoRpMOK8G0JsyYI1FkzGBuI8YuZZonUNjIp+M5Ja2OGkt/+9rf9v1MI4lMfvMGLZwjiEMT9JzgnOx7wokWL3Gg4ovhA2KanB6JAFuCSLUADxACZbYyYMwjTG4hRmsCbZiAO2hFHAzEwfj4gNp8YtetDGOha8M1fZp9rrr5Gdw+521kuBB9RtyhgAAt4ffju3LlTlZWVoqf5UOY5CxcudHYGdwtA1gcyIA7C2EBsvVkUeMY8lwwNRiIyMrG5ubn/dwpBHIKYY8D9BYkerp+6BweDMfbt2+dAwi0xAMYHph4CUEF9khN89dVXu9FgqD5GhdEDY0DsQxg1zPMsQId6phmIfTXMMqD1QWzLg1kSfB7aYIM7DMI+dFlGAZMTTM8F5J577nF5z3jAABhlC4BRukDWwMtACxoQNhAzdJvGOj3ARiUztx7+ORca84mDEPbBC3z9dZvvjrQ2Bo9Qk4OLIV41dZstkyI8307d822g3w6ohnnEp6kqxoI4dOiQq4iGH4n64vac2ZGB7FlnnuWsBuroAl4aMAbKRwMxStjUsEGYHjUMeIMgNvAG+2OB2Idx0BfGhjD4Al6WUcxcIPgfJ02a5IJwBCABaBC8wJUJP2l79+7tXw6uG5xNHeMjT5482U1wyvuZKjY7ws8hBsI+iA3I9Mx5x8g7visuGFwcKRvqZvd45pl+dTzQSR1uO/UgHYL4NIMw2RCkoR08eNDBhYg/6hclfOedd+pzn/ucU68oXHxTRo8RPALA1gzCDNxAWZotYf5wEMRmTdhADh/ElinhQ9hsC7aZR2xQ9i2KoDI2GJsixqJAAbOOVUKWBwNPsCAYBbhu3bp+BYwKRgGjfAFvVVVVf6uurhbN32ZwBtg8x6wKVDUpbtgJ+LxcBIAtAD6WNeGDmOfYMGjuOsynR7kzlJzfMQTuqQfcwX6zEMSnAYg5abmlZVoiirJzGz1lyhQHYFSwAdh8X6L/NAZoAOPrr7vezS6BMvbtCUDs+8M+iM2WMAibN2yK+Ggw9kFsMAbIBuUgjM2isAAd4GUZeHNBYTAG6WAzZsxwQTUAbOA1+AJTXwEDWlpNTY2DML0t+1BmH4Mx6pjXJchnqX58Z8cDYGAMhLEo8IrJpMCm4HdgsAczWmOfMNUSv2kI5D8NGIcg/hMHsUH4wIEDLv2K21ui8QCYkVyAAlULYClAgyImhSsIY/ajYUtgW5g/HFTDZFUYhLEjADEQNhCjin1lbGA2+A7U+2rZlDF9MHvCQIwlAICxWACwpaFhGwBKsx0Mtihdf9kUMOAlY4FmIB4IxgAckPO6gJ0LnWVS8F1zgTJrIqh6B7ImfBADYcuk4MLI7waMec9f/OIXRwyFHkxthdtf/rAOQfwnCGJfJVFaEfhgQZAKxS0uucBAl9t1rAfgy4AEegMxMObEZz/2AcJHU8OWLYEtYb6wD2GDcRDIRwMzAA6C2RSyQRg1DICxIRhYwuuT5QGACcKRVkZGAx6u+buANghUg65BOAhfW7fnsj/wZt1eFxDTeC9U6/r1650KJ3jH50LlWvOBbMsA2JopYlQxMMYvpr/11ltdTQ+Cd4VCoT945//mIXhf/uAN/kYhiP8EQcwtK6PhgAUnLPAl2IMPTEoU0MT3JS+Y2ZJpgPjzn/98P4jNmhgMwgN5wwTC/CCdZUn4ED6ZIDaLwqwJPFkuOGZBEIQzpQo0Ub6A03qDL3PHxeNx11hmO82g7Pf2HIodAWd7jNcEyDTek4sfCpypofCLmZkay4RcYZrB13oDsPUGbPYFxuYXU8uDYCO/KRcbvP4QwqceeEMQ/wmClx+Vk5EsCAI5lFIkKwD40lDA1EMAtIAVYDFbMjUigDHrwDgIYtSw84evLlsSFqSzlDWzJUwNW8qaWRO+PzwYgH1FjPo1q8L3kM2a4HFbxppgGfCj4hl4wkwXBMqwBQCiqVjgCWBpbOP7sXWAatt5bLBmcDYQ+zBnG++HGma7WRQGY4YqA2MuggTvgCzANQjTG4CtNxDTA2OzKFDGeOX4+tgUXHioSRH6xac2jENFfCqDuW92ZPKAv/vd77qi7BSLQS0xHBnlxG26ZT8AXgJXQNgHsSljAzFqGAh/+vqyLYElMVDKGiDG/7S84YH8YV8VG3SDvUHXh7BtM/haoM4ADOz5vFxoGAlHNgEKFCACQ4Mv0KUBXGumfunZZmA2KLNuEPchzbKB2N+H97MGhE0VmzImeEdNCjI2uBNB1RpoDcgGYOvtcQMx6WwE7mioYy5A/L7c5SxZskT//d//HSrjU/hcDkF8Cv94qKCnf/S0AzBeKNXQrCYEqVpmNwBavEW2ocq++tWv9sM4CGHUpXnDABxw+BC2IN2VfaPpBgLxYIrYtygGgnEQxLaO8rXgHMt8RlQ+E29aGhpBMmBoihZoAlaDLoXr/UYZT9ZtH8BqjecGAWyvayD2e5axKMz+4HMAYRp+McoYGFO1jtk4sHXIL0bpAlqDr9/7IMaaMK8YZfyP//iPDsZcILnoErzDAqE2SPCWN1w/NZRyCOJTCMTYDzT+fv7znzuIzJ8/392WA2DSmxiJBaiwG4AulgQNEKOODcSoYxr7WaCOAB3NWRLkEF97na695tggxpqg+R4xMA5aEz6IbdmAbNAdqEcVsx8XBv5PgnCkhwE3UsYAHzA0+BpcDbxA18DLNn/ZQA2EWaY3EPvLts0Abe/nA9lADJRNFaOQ+YxkUpA2N3vW7P5h0KZ2B7MmzB82EKOKATH93//93zt1zG9IZgbfC+9FjngI31MDvv7vFIL4ZQxiAy89Pxo9J1o6nXajrLgt5yREZTE3HOoVr5dl4EtvywZjH8SmhgcE8XVlEFvKGv7wQB4xiph2MkAMcK0ZkAEw+cpcZKwcJRkJwBcoGkjpDbIGWubPo/F90Vg2KNs+PM/ADXhZprfGe9gyvQHZFLIfrGOZ7fR8PsAMkFHrwJjPTR1j/g8yKRiQAowNxL46ZhkAA10fxKzT8Ipf9apXOXXMBZbXQxkzuwdWlX+Sh8svfzCHIH4Zg/gPfR4wFgQALhaLwgMmDQ0bgttSfMIvf6msbMmbtXbHHXc4dYxCRg2bNWEesalhfFbzhi1/2FfEPoj9/GHfmhgIxKSw+f6wKWC/B7IGXABsPjCAwoLgNbiQYEHggwIxbvWBocHTB6vBNpPJ9IMX+LJOMzBbbzD2LQoDO69vUDb4+kA2KANeU8UGZesNxvRmUxBI5P9gbj/+N6ZZwpIAvMHmK2IDsPX4xDQKygNyfmf8YoZX9/T0iDrSdgEPQRyCOLwynwDo3Qn07B/0zO+f0U9+8hMVm4suG4B0JU42ouWWCYHCJYIOkEmRYhkYG4g52Q3CpoYtUGceMlYGzc8ddgG+a8v5w8fyiIMgPp48Yh/EwBhQEwTkM5P5QUWzNWvWOAADOABo6heAAl8gixL0QWzbDML2GL01U8i8Ds3UsUHYegMw6wZlerYbiIGxAdh6AEzDMqChjFHFNgyaiynfOfPiBWFsKthUsQHYeiwKQIxfjE3BxYvfn4sz3xsDeDh+Qgi//CHMbxQq4hMA5R/74EYB//jpH7ui7HihWBCcYACYimhAlsYyBWFo3JoyUo6T0UBstkQQxKhhP13NIGy5wyhi0tywOk5EEfsgDqpiXwWzbOv0pMXxWcl9XlqxtB/AwA5IomCBJyA1wAJgv+VyOfmNx9jXnuM/n20GY1PHA8HYBzHLBmF6Pps1YBwEMiDGnsCmwJ5A0ZPfzCATVD6/Kxc9Kq2ZIkYJG3D9HviaR2zLwJiRdzS+a35/MmbIpf72t78tu6v6Yx+z4eu/MOCHIH6ZgZggXH19vVauXCnmSUMB44+ieAGsqV+gbDNm+CAGzuzHraqBGA+RjAmzJfCGUcPmDQNiH8JODQ8A4oE8YoYSD6aIzZ4w4Bp0zQemJxuC9Dc+Ix4nwUcU8M4dOx3UggA+GnQZaZbP549oQNmgTQ94bR0Qo4SB8EAANkVMD4B9RWxABsIGZIOw9ShjQGxesQXubOQdmQ7kPvP78j1iMVgmxWBK2AczywAZCGNRoI6xjLgoEzsgZY6aFNxhhTbFCwPlH/tCE4L4ZQJiirK3t7e7fFj8QyqioYSBLeoXEBOUA8ycZAOBGAgDat+WIEg3EIhRxKaKg5YEgzjImPCHNQeDddgHNqADEAPTYB5xEMTYDgZjPGAyK1Dn5NcCJC4+qEUUJNADkoDTVCwQ9tUuy4AXAFsbCMT2HF8Z2zIQNqVtMLbeBzDLtm4K2QAcVMSsG4zNnuB/AsR4xZZFgSrGL6YWBr8d34lZFGZNBMEbXAfE5BabRcHj/J4cH1hZQP9nP/tZCOKXyXk+GNBDEL9EP5ApFIIqTJ3OyciJw62q+cDcZtKAMulJZlEAYlpQERuIfWuCW328Yd8ftmwJQPwcNXxdudraYLaE5REbhFFyljFhID5WHjG30AQIGQ03b948B2DLhABygNFsA7MUDMIG2iCEmVuPZkC2nv0NxL6aZpnXNgjTB71igExjuylgsyUMxgDXwGtANkD7ihhV7IMYv5j8Yvxi7gAIsvG7MQzaMiaCqtjsiMFgbEAmo4I7II4R7jL4rL/+1a9DGL9E5/pg8PW3hyB+CX4cIEwWBDMuoIgsBxiwmtdLMI7tnEhkSRiIgbGpYvY3jxjFHAQxatgGcQBiC9LZkGazJo6wJQZRw5YxEaxBDIiDI+sAMbA1f9isCUAN4LngMACF/90AbEA068CHpkE3qH4NtvQG4iCMDdwGZP91TRWb6qb3YWzKGMAGAWwg9uELlE0JW8DOel8Zo45twAcwJseYYdBcmLh7wS8GtoDXh+7RQIxXDIixKf7mb/7GPZc7I2wPjqGGhob+AkE+AMLll4dlEYL4RQaxAZjhuFgQpoCxHQArt5RE05kVmFt2oOWD2N8fWJs/jHLGlvCzJvCIObF9RWxpa74tEQQxsGTUll9tzUAcrDPh+8OmiIMDOQAzNgf/IxYEU9OjBFGIAM4sCFO/ANKAGYSwAXcwCBuIfQDbsq+MeS97P3ogHFTFBmKzJYLWhMHYeh/E/rIp46BfDJAteLd+3XoXvLNMCqZZAqoGYiAMbA3Gwd4HMVkU5BhTDhQYc0xRDJ/psELwvjzAG/wdQhC/CCBGAROEa21tdQqQQi0A1bxeeuwHoAucaUcDMfujdAAxCppmIOb21g/W+daEr4hNDeMnGogJ0lkR+GB9iWOB2PeIAS8wBsxYEFxgmMuN4JHVgwBeABj4GRAHgq9B1MBrILY+qIb97fZceoMwPe8DHPFqDcgG4oFgHASygdd6syYMvtabGvZBbDC2AJ6fScHIOyZu5fflgkcN42MB2IDsgxhrAojjGxMQJXDLaxII/da3vhUq4xfhnA+C9ljrIYj/yD8KHnBXV5fzAQEs6oRm6he1C3RJ2QLQVOk6Foh5/rFA7GdMmCIGxOYPDziI47pybQmDsF8EfiAQo4ZNEQdBTL0KLjYMQDELAiABNaDnq14DpsGWrBGaQdbW6bnF9hvbDL5+b6/FNgMxPe9LtgI2AN87ihQYA+BgM5uC3mAMfIPK2DxhA7D1BmKzJQzC1lsADxibX0wAD9+cVEQuZATvgKw1sywMwNb7IAbCwPjVr36167koYltxsScv+3vf+16ojP/I5/2xwBt8PATxH/EHoSIWJ72loQFfAAqgUL/AlxkzSMAHwqwbiHmOb01wEpktcSwQczsKiP38YT91DVsiqIjdaDrPH7ZBHH62BDA2a2KgIB1ZEezD50QB+yUpgRkQtIYqNdvBhybgNOD6ywbfxsZGWbNt9DxnoNdhX3sMLxYAAzn8c+4cAJMB92gg9mHsWxUGZWAMgH0oA2K2oZhRwLQghC2Ah2eMX07WCH6xTUDKgBdgi7rFA2YZ6PoANgjzuPnEwBiLgrQ2evLCiS/QgD2zewAD/y8Ih3D9xbMxQhCfZBC7wRg//rE7qQiwAU1uC+kBFIET4ItnR2P4LusGYkCBIj7ZILaKa6aIBwOxWRODgZjKYVdeeaXLe/VhzHYAZx4wt9nABdQXYXEAACAASURBVFABX98aGAzAPlgHWzYIW+/vF1TEAJiGiiUrxSwcAMwFEaWO0gXAvjVhQPbha4rYegOwH8gzGNs2IGy2hEHYXzdFbCltlknBzB6k8lkNYyZABcQGYOsNyoOB2FTx3/7t3zogEx/AzsKH5r2pXx3C9sWD7dG+6xDEJwnE5AFTExiFg7K9//77dO+IezRq1EiX8QBcAS9KkUbhlyCIfTX8fEBMoI5sCT9jwtSwFfmxgRyA2A/U+SDGRjB/mPxhsyZsAIcpYdRwEMQE4fCnbV44FB2qD1Bxy2/K12wGH5YGSnofqEHI2jp9U1NTf/O383x7PZaBPUBkZCIXQIKYXCi4OOJVc3Ew+AJcg+8RvTf02YeyQdi3KQzCBl96v5lNYb0pY1PKpoyBMcod1UpQkwszWS4E7wzA1h8LxKaKsShQxqxjUyEKONb4DoDxs8+EAz6OBskX47EQxCcBxL/61a/cic+w0lGj8IBH6oEHRumB0aP08MMPOfDildIoYg6I2RcQM5uyKeITBTGAsWyJ4Ig6TrygGraMiSNyiK8vz8YxEIgtZc2UMD1WBsqS/4E8WD8Nrax+s8rnGXCRU6GucARoGxrK4G1sbDjCZvDXy5DlcWtlS2IwELO/D3MgyMWP78YUMDYE8MQr5sIAqFHF/CYA0Clj1LG1RFJJIO3VMjZFzOsEQczr+fC1ZbYbgP0eGBuQUag0/GI+C9+nzQaNncAdisEY+8FgTE8zW8K3JswrxpoAxqS1EQAkk4aLE4KBQlLcxVle+4sBnfA9nqvCQxC/QBAzNxwq0GyIsWPH6NHHHta0aVM0e85MzV8w1xUE55YdEKMcOfFRxNgSgNg8YgOxZUxYDjEBPTxiyx+2VDdTxD6ITRHjD1vqWtAfNhBbxgRQdR5xX9ZEUBGbLwyAUckEfvAwUWyWBWEWhEGuUADAOdXXlyF8WM2iahv6m69qm5qOfMzfr/zYYTUMkP3n+ooYZczn4fvlbsGUMAExFDkXCiDHBZDvkLsHoARkHYQTSaX7WqoPxihiU8UGY97DV8cAd7AGgA3M1huUDcaoY2wKsyiAMRYPwTs+J98/w6ANukEA23YAbA1LA4vC2ite8Qo3aITvhOMJQXDo0CFnUQDjEMjPheSLceEIQXyCIOaA/elPf+qCcfhuwBFYTnpioubNn6NFi+dr4aL5WrRogRYsmKe5cw8rYg5+AzFAA8R+oM5AbDnEeHonE8RmS5C2ZqlrgwXrUMOAGHsCCwK4EYQDEig44IT9AIAtuOYsgoaCGhrr+oBbthSam5vV3Nyk5ubG/mZANaV75GOHgW0g5jXsOaaAg9YG2/ks2AVc3OyCxfdKIAwAEzjlLoL/CX+evGaniF0+sTebR7KcMQF8DcYDAdkU8mAgNvj6vYGYPghjsjmwKLjQccfBMcNnJZOCEXdA16wJU8FHAzGqmEZ+MeqYTApgjDJGIGCrGYhDGL/4MA5BfIIg/vWvf+1Sn4AwCpGAHFBduHCBKioWa0nFQgdhH8Smhg3E3NYPBOKgP4zaPl4Qo/JQxKjhoDURBDEwBsT+jM2oYvOIeR1UPN4qAAYc+IvANwjBw8q3Qc3FRhVLTSoWm90tMLfBrpWa3GNl6AJna0dC2odyGeBlCBuIgS3gIzOF7xagAFpUKtYDnw3vFdj4dw18NzRu+VHGdjEBxLF4rTZs2qhde3YrkUq4Fk/GZc1gDJh9ZWwgBv60IJB9ANtyEMS+VWHKGBhzkeC75zfgczN7tQ9hAzEq2F9m3RSx2RN4xa985StdoxYIdwx4xosWLgoLBJ0gC06GYg5BfAJfPp4aqotbO8sHRmWRjL90WYWWLluiiqWLymp44TxnT6CIgQUQNhAHMybMmgDE2BKmiAEx0DBrwnKIOYlQScGhzfjEzyd17QhFfP2n3fBjAGwKmCARSh0LguARcAA43NoPBGCDsIH1MHiby0AGyoO0I6F7WDG77QC92KxSqeSgzXcP6LB7uACa4gW2fCd8X9hFwJiLBaAmYwKv2L4rgnh2MaEnsOgspnHjdNttX9cTkyYpGqlSMlWrZCqiRCqqBMsBiwIYG4T9/nhBbFA2GHO3wfdtynjjho3ud8D3JgecGsZYE2ZBWD8YiM2aQA3TgDE99hQXKo41vicGHoWKOFTEp0Q6DaUFUSfc2qIm8HAZtcQt+7LlSx2Iy4p4vhYMAuJgoM63JsgfHiyHGPD4IAY+BhdAg0fsg/j5KOL+yUKvu94VAUJBc2IyM7LNCwdksCB8+wEgok4BL9C1vh/AfQq4VCqqpaXcSi1HgXKxTykXG8uK2XpnZTQ5+AM4Phc2AxcnGhctvj8sHC6MQJeLFhDj4kB2BD4r2/muuHjhvQJf1DPeMb8H22++5Rbddsc3NP7BB7Wzcpfi6YxqsynFM6hjUt2O9Irj+MQM8ghMr+SrYhQwoDUlbL3B13rbz2wK1LzvF5PWRg1jLjT8ZszuEQRvcN0UsYGY3tQxfjGPc4wAY+66uACQYxzC+MWFcaiIj1MRc4ACHyCM+gIEBNyYTRjluHz5sjKIlyzqhzCe8Zw5h4N0A6WuARIb7QWELVBn/jAnChAG/AZiwAKIAQifBwgHQUzWRDBYF7QmsCVQRjwXxbVi+QrnTxI8AlQGYMBL85Xvc6FbUktLi1OvKFhaS0tJra2HGzAOtsGUcrFIUK4cfMN24PMBWaCBt8vFD3ig0gEqdybYRQAZ753Pi3oHjPxOdw8Z4v7P+0aNUsXSCs2YOcMpauwXLmDjxj+oeRXLtHpXlSqqk1pQk9GSSFLb4mnFUoy+wyuOK8Fcd3FmgY4pHou6xndFM2VsqtjAG+wNwD6kbZvB2CwK/jfaurXrXPCX447UQYJ3wJR2NGvCB7HBGFX813/91y6TgjRHvjcucFy4SMc8Gbfc4Ws8P6CHID5OEDNkGQuC4cIcuIASqwEAr1ixXMudIq7Q4sULtWDBfM1fMF/z5pUzJixbAvVlGROAA6BgS/gg9m0JoGMgtowJ3jsI4qAiDmZN+FXXAK/LH/70dbr11lv0yCPfdN72lq2btQd/NBHv84DrRLoZMCSVjKBZ2SYoCqVbaqHHNigvtzjgtjj4AuAghAFyS2vxyMZreHAOqmfee+3aJ/XQNykTer/uv3+UpkyZrKrqve6zld+nxV0gUY1crO65Z5hGjhyhQgEfm/KYee3ZXanxY8foG7d/XbfdeqvuvPMOff2Osl88duw4VaxYrjW7qjRtV1q3b0jruidTump1UtesSujmdUlNq0yqGmsiGVMiXus84ngfiGujEQdhgzE9IDaVa8sGY4ALbA28BmPbbvnFXGSsHgUKH/sECwGFjxAgeGdesMHYbArr2W7wNSCjivGLaaS1vfc97+3PMeYCxgU0VMXPD6In42ITgvg4QMyXRc4wMATEqC6ASV7wqlUrtGLFMi1bXqGKiiV92RILnGWBl4k/HBzIgUIjWBcEcdAf9kEMZHjfIIi55T4aiBnMQdqaDW8Gwiw/+ujDDsCbN2/Unr27FE/gAWe8tLMGNTU3uCwHVCvABKZtbS2u+Ur3hSzzuv0AdmAvWxhs533TmaRLCRw7lmmjRunxxx/Vnj273EWACwO2CMqXoBbf0fDhwzRhwmOyNLq6upzq8llt2bzJ3UHcfust+votN2vkyOFauGSJdkVqtTSS0x0b4rpqdUaXLM/p3GUZnbU8o7OWZnV2RUZXLk1qwq6yMo4laxVPRpWojSgeiygIYlSx2RMGWR/CBuggiM0j9kFsqhgQo4oJ3nF3wAWdiy1Dyy2VzeDr9wOB2AeyBe/e/e53u7sC1DbHJPPehTB+cWAcgvg4QMyV7zvf/o671Qdi3CITWEPpAuLlK5Y6EC+pWOxqGCxY8FwQo55NEVvGhA9iC9ThO9MsY8IUsQ9iFJHvEZstYeUvfUUMiAnyYEvgAfM++KTbd2xVVfUexeMxBy1yd8l2cBkPxbLq7VewfT4vwG1vb+1vBuUT7Xk9IAxw6VHYvL/7LM3lzAu218ajGj+ewOX9DsYzZkxTKp1w/jQQZlgwvwnBu3vvvcdZRNlsugzj+rzqGupUV19wdsaQYUM1b84sRaIRbUwUdO/GhK5eEddHVqV10fK0Llie03nLsjqvIqfzKvI6e0lG5yzO6KMVEc2LJBVLJlSbiCnpgxhVHC0P9DB7AhgbgK03MAchzOMGYustaGeqGBCjiklrYzAKxxCi4Kwzz3qOX+zD2MA7UG/q+C//8i/dTNpc5LG/UMY//OEPQxgfJyNORCGHID6OLxl1QCSeW3xGpZk1AVhXrsQf7suYcIoYawIQk0N8WBEHQQyEzR/G//SDdAOB2KwJyxQwf9g8YnxOS13zhzdzsrI+ZswDWrlyuXbu3K7q6r0OZA0NdU714seaRWDqdiC4+hC25YH2G2xb8DmAl4EftbVRbdq0QatXr3SfcevWzYpEqlVXn+9X4Ch3YMwQ8vsfuE+LFi/Qlq1b9MjDj7g7BS5OfDfDhg11MB495n7NnDVdWC61iVoVGuuUyGVUGY2oMlOnJ3bl9MW1WV2xMqPLl2d08bKkLlyaKIN4eU7nL8nqvCUFnbOkoA8vzumMhXF9bEm11sRziiSSSsRqlIjWOFUci0X6/WED8UA+sQ9gls2iMFAbhOkBsQ1/tlF35hdbWhuWFsIARYv6HciiMFU8EIjZhkWBX0xdCirqcYfFRZ/goM17dyKACZ/z/BR1COLjADEHFYErgl/UZuBgJYCGz8sBS+CItCjyiBnMQcbEvPmH/WEb2kywzrclBgOxqWFuFVF6nBiDgRhbAgijig3EFqS77bZbnIpkYMmWLRtVVbXb+Zy5fMYNujAl6vu5bW1FtbWhfFv6la8B1PqOjjbRbP359P3P6WhVa1vJ2SBbt23WrNkz9PAjD2nc+DEaN66vjR/jhojjt0djNU4lo4wB9UMPjXdDyIExvwENmwjvnQsjF7HhI4brriHf0JAhd+q+kfdp/oJFimfy2pap1+xIg76xMa9rV+d15eq8rliZ1hXLk7p2RVyfezKhy1emdd7SvM6uAMJ5nbukTh9elNMHF2X0wfkJ3bAqo43JvGK1UcVrI6qN1yrmBerMljC4+r0PYrYbjP1lsyboDcYA2YcxyhhPnGOOWAXDoAneGWx9RXwsEFsmBSBmmQE8HG8IA3KZGUHK8R/8C0H7/EB7rO8pBPFxgpjhoNz6M9iBW39UMZFmy5wge2KJnzEx77kj6gDFsUDMiXU0EBOoQ/2ZIjZ/2ECM+mUbcALA27Zt0d69uxWPR5UvpNXUVKdSqfEIz5fJS8tgbVF7h7XDFoRB1OBr688HwEfsA4RbS4pEq7Vw4Xw98ihZIuPd0PApU58QlsPUqZP1zW8+qAcfHOceYx01DIjr6vLuYgew8YuBMMAg1ctG+QGw1WvWaNbsme61Vq3doA01ac2LNOqezfX6wpN1unpNoz6+uk5XrM7rUytS+vrGlKbvzWhZbZ2Gb8npsoqczlpS0NlLsCbyOmtRVmcsTOv9C5L6wLyUvrEpre21ScWi+MRYErXOFwbCPogHCtQZjIGvr4BtPQhigzEg9m0KLAosJgLI2AlUxGPOO2Dsq+PnA2KzKFDGLGNl8d0Ss+D9mV3GgGJAtvWwf2FADkF8nCCmWpWpD0pKAkL8W0CA4gXEixcvcvAjbW3evPJADl8NG4j9jAlsCYDuWxODgdgCdYAYVY4t4YOYdTxgTk5uY6PRGmUyKeeVNvYBuLW1WW3tqN7DipdJTDu72tXR2VZufYrXgNvZ2S6aezzwmO1jwDVY23qwx++dOXO6A+34B8e6uhw7K7crkax1dkkyFRfWxOTJkzR2HPnC97vMDqwKIJ5OJzVnziy3nbuFh8aNVzKecKlzLW7gR7kWRa6uXrtTWS2ONej+HXX6yrq8rltdr6tXN+iTqxt09aqcvrYu7SyKzamCEnV1StXVa028QbeszemCRUmduyTnbImzUMMLUzpjflofmJvW2fOTGrM5qd1kUNRiS0TLLXp4jrtItKx4Aa/ZFKaADdBmTdg+9D6IWSZg5zeDMSMdgTE2BZkUHA+WSeEr42OBmH2Br8EYv5gAIPEEAM8FnYEvv/vd746AcQjgFwZg+/5CEB8HiPGISV8jMm/pX6higAiMsRg4GZgYE3+YZVLXLGPC94dRxIDYtyUAsWVMAHuyJbAleG3fmgiCuKyCb9Xtt9/qvFOsETzRqqo9SqYSLpugnF5GxkPRWQIAuKOztU8BYzEA2U43m0hXV6e6ustQBszH0wCwgzWgNqAHerzolauW68GHxjkbYvbsmc6iQO3yuZw/3VYO4HERQQ3j9aKA2ZfH2XfXrp1ONd93370aNXKkJk96QqlUUm0tzWpualCh2KJNmaLG7szrjk0N+vL6en1uXYOuXdOoq1c16MbVCT22M60tyXrV5gtK5bNKZdPK5DJK5/JaVFPQxxZHdT7BukU5AeIzF6R11ryMzpyT1BlzkrpsfkTTdtaqNpV0EI4C5Gi1U/tR19cIGBt0zX4AtiwbnFm2ZqAGwNgRgBoIs4wy9YHMXYDVpOC4xJrBmmLCVnxfaksYkI/VG4gZccfzSGvD6gDG2BSIhXDeu5MDXgOw9SGIjwPEfGkMb+a2EyXMEGECd4CQAJENMgDAjLQrg3heP4j9gRwDgdjPmAiqYW4R8Yf9wRymiFFBI+8boSUVi4Sq5JYfZUnqVmNTvVOJzJdn6tcACWDLwO3wINxVhvEJgDgI7/aO8ns6sNqAjraSULtTp00uq+HxY526tc/WD+K+zAwCeVu2bBKqGWWMh8ygCkDMY2vXrNTY0SM06r6RGjd+nNasW6V8sVGVhRY9vqNOt2+s15c3Nummtc36ypom3biuUV9andfoLTltTjUqU5dXPp9VJg9800plU8rlEirk4tqVyum6ZTW6AK/YgTirMxdmdOb8lD40L6kPzY3rg3NrdM3SmFbXJBWNx1UTB64x1USqFInuVQwIR6vdXYlB2IBrva+EbR/gC4gBb7D3bQqgTFobyphh6KS1cWwBz3e9610Oxs9HDfuKGBD7Oca8DvEHjkHy3Zl5BkESpradPCiHID5OEHPwATWUKz4syhgYYwcASWCM0qUADc3PmLCKawZhS1tDaQBhsyUG8ocNxH4OcRn+o11mBuowkaAYe9IBmPQvAFgGHN5vWdkaLOkPN1PCfRDu8vrusjq2fQdTx/Z4V1dZSbe1twjlW99AvYesy3wAnlgUZBc8PuFRB+LHHn/EQbWtrazKfWizL8+pqanSxImP9wfxqmv2OlVPWh3ZFosXLdSCOXNUW5tUdX1Rs6oKundTXl/f0KCbNzfppk1F3by+QbdvyGn89oLWp5qVri8qXyiowJx29QVlCzllc8wenVY+l1Yhm9aGWFbXLYnq/EVZnb0454J1Zy/M6pz5GZ09J6kPz47rQzOi+uC0at20tEbrIwz4iKsmGlckFlEkVqNoZK9qAHIsdoQqNoVsEA4qY18VA17zkQ3MlkmBIrZh0FgUNrsHx9NnPl0eBk3Q7lhq2B43VWwgJseYodBMQsoFn7szjuPv/vd3XUF5U3Rh/8KgHIL4OEHMAfftb3/bjabDIiCNjQwKhhKjklGtgBQfGFUMiMkzDtoSwdKXQTUcVMTcGgJhRozde+9wPfjQeM2dO9sF4QAbHjB5t6SftbVjOfTBt9NTu0H4dnequ7urr3Wru7u7z5oYHMSA1rUjXqsM9e7uTmd1UId41+6dWrV6hfPK8YLxc4EyahyflwEZLkD36COqqysIf5rPzIXD1DEWB2AmyPj4Y49o3NjRThVT86Gts1UO9i1FZRsbtCdT0LJ4UeN2NuiuzQXdsbFOt20o6PYNDbp7Y6MerWzQykS9Ek1NLpe4obFcnL6+vkm5+nrlChSxZx69jMgmAcYVVWl9vCKm8xendPYSYJzVh4HygpTOnpvUWbPjev+sqN49M6ozp1Vp6JqYdqRSqo6lFI9Rg6JGNYA4UqVojIpsZfvBoMvoOz+wZ3BGFQcVMarYb6aKUcQWwLMcY/xihttja1HE6S1veYvzflG6BlxfAfvLBmJTxVgUBO8AM7OzIDZo2CBPP/10v18cgjgE8Yt+MHAAcqADT6qcUT6SCDPLZDMAYxSzKWIbUYd/R7MgnfnDeMO8FgERP3fY94c5+MsAHqc5c2dp0+YNisaqlckmVVefc4MhsAKAVxmWh2EKYF3rAbx9CrdP9fb09Mhvz4Gx7d8HXp7fzet4DTXMOlbB9u1bXdreY4894tLRmKEE4E6c9LgDJ4oa1T5t2lT3HfE9UW+XjI3Ozo7ngBhrhcEyDE0eN+YBTZsxVY0Mh+5sVXN7qyKNLVqWbNaDe+o0ZFud7t7SqLs3FTRkQ1Z3r0vpm9sLWh6rU7TQqLrmRtU35FVXn1VDQ171DQ3KNzYrUd+oVH1BOQ/E2XxWUytT+uiSmC5YknQj686qyOqsxRmdvTClD89P6Oy5cX1gdlTvnhXR+2ZEde6Mat23KaaqRFrx2oRiMWwK/GImFaUdWTgeCKN8Aa8PYVPDA6ngIIwBsnnGWBT4xdgUa9esdYOKEAvkBTP7M1AFtAZjYEvz4euvs51184tR1ozI5DUtS4Wa3NwlhjZFCOIXHcQ/+9+fOV8OiwErglFrTLrJqDVS24Ax4ASqqGEfxL4t4YMYIA0EYoJ05RSiB11u8rbtW9zJnUol3O0+CphUM/N7yxYBwD2scA+Dtks9PV19EC0/fvixngEVsVPMfdDlucHmwN7VIQaFrFmzWpMmTXQ1M7ASyBpZv36ta3xu+4yo3CefXN1/8WFAAv4mw5SdNeHyl1udul+3fo2A+tjR9+vhh8aLYFhrV4eyLR1amylpQlWjhu+s15DtDRqyrUl3b63XsC0FPVxZpzXxomrrWlRgNo+mejU25dXQSO2JnOob6pSua9K6VIMm70lqdzanPGo4m3aqOJkv6KEtSV22JK5LFyd1XkVGH67I6tzFWZ27KKVz5idd1sSH5sX13tkxB+L3T4vp3Bk1mrQ9rlgypdooiphsibJHbPZEWRHbY4chDICtAWGWAa3ZEdYboM07BsRYFVgUBmO+T0beIQYYfUntYQOw9QbgY/UGY5QxQOd45/gGxnxG0tpCEIcgftFBTFF46tACWIaYooBRClQxYwQbFoV5uQDWbAkgzP403x/2syVMEaOGaYCYoF/lrkrFaiPOw8QXRX06BdyX1WAebRmU3ert7e1XuiyXW7cH0iOVMEB+jhruKtsWPnx7ew+/Bsu8L5+DHN8nnpioRx99xGWCkJ6GdYAVweM0+4zAO5vNuO+Piw8Nn3z6dEYoLncFfpYuXeJU84MPMk3UAxo/bow2bd6oUkeHIs1tmrSrQfdta9LwrU0auq1JQ7YXNXRbSaO2N2pJskWJli41tbSp1NamplKzmor1agLETQUVGupUW9+sqbvrdfNaCvzUansyo1wmpTosikJOsUKdRq6L6ZJFMV24LKnzlmV0dkVWFy7K6eKFGZ07P6Vz5iX04XkJnTE3rg/NjOmD06N63/SoPjZvrxbtTSkSp94EE6mWCwKZJeF6AngoZjIrIuV0N3vcYOz3QNfgTG/K2DIpbD0YvKNaGzAm2EZB+eOFsK+K8Yr/4i/+wsGYwULEKDheqcYXznsXgvhFBzElAjn4ADE2AyAlj9dS2gjikdEAoAEy0MWSAMS+IrZC8D6ILVBntgReMkN/uZ2nChkBKoJYlreLDYEt4Cvbw+AtA5iUI5q/3d/fln0Qs1zeXgYv0DUI835Add8+4N3p6vrahQVvnNKTwJt9gsG9/m2d7a6+Bd6xG1Fno+nGjdH48aNdYM5B+uFHNXnGNG2vqVJ1c5vm1jZr1I4mjdjRpnt3tOiebSUN296qodvbNGxHiyZUFRVrblcJv7mDSm8Nam5hlpCimpqblC21aGWiSSM2JPXFJ9O6bk1Bd2/PqLquwRUFKjiPOKu92ZzuejKiSxdV66LFNfrI4pguXpLQRYtTumBOWufMSuj8OXGdMzeuM+cmdOasWn1wRkTvm1mjD0+r0k2L9mpLJKlEula1yfKMHeVhz9F+ABN0ZJg51gQ2hW9R2DrbDLaA2uBsSpneFLL5xShjlrEorEAQd1/kvb/jHe/o94uDNsTRlLGlwhmMqYUM3Dm+OX6/853vhBbFCcSbzFsPg3XH+eVxC8bVv6uryylVQAws8XjJKSZwRwCPXE68NBq3cZwIwNjUMOsGYgvUAR7LH7bcYWC+bFmFG03WgQdMyhnwdV5tl3p7e/qaqd5eB10fvv6ywRjIHoZtWR2z7rfBQGwKGRDzWTjZ+X9o3A6XXxc13XkEiE0R06OUCcoxSg6/e+682S5feMqUSZoydZJmzJii+fPnas3GTdqVqdfqdEmP7mnWiMp23bu7QyN2turenSXdu6Oke7a3aNj2koZva9KIbXWaG21SrtSultYWtRYb1djUoEShUesSDXp4Z163bczri2tTuvHJnG5Yk9fYPQXV9oGYCm25fE67kjmN2hDVsLVRjd0U0cRtCU3fldHE7Wndty6lm5Ymdc2CmD4yt1bnzk3orDkJnTErrjNmx3TW9KgunLpbI1bt1fZYXIlk3BUXKpfIRCWXPWMsi+qaqv5cYoMvPc2Ur/VAmQaMDb6mhIG1bTMgW/CO4v4UROL4IsPnrW99q/N+gevR4GuPAWwa+zMEmvxi2hlnnOGsOI5vLsA2753BJeyfv0oOQXycIObgAsbf+ta3XMAOuKIGaXi5+GdYFBRhQSXjF5P2w2MAezAQO/UXALGlrHFrvnXrJnV2tal3X9l2MKDSG2it379/v2i27vfsbwp4IBj7j/kgNviaMqY3RUzuKj4v3wFqrPweKGnAXg4Q0psapqwm1d5IFWtvb1NXd6ercZzNppRK1yqZjitTyCtRX9KmTEnTqqqkPAAAIABJREFUq5s1bldJD1S2atTOdt1X2ab7Kku6b2ej7ttRr1E7GTXXqJFbmzR8S6Pu3dKoZYmS8m2tyjYXtTnZoCmV9Rq+qUG3ra/XV9fl9eW1GX35yYK+vCanKbEGperLiri+kHOzkCRyBW1LZFWVq1Oyvl6ZQr0y+Tol8/Wqyea0M53Rkt1pjXgyoY/Pq9GFsyI6e2ZUZ8+M6ewZMZ01rUYXT96pB9dXKRIncFeuylae0YNReBGnjOnNmjAAW892wMs68DUQB2HMY2ZdGIxRygDZzzEmwMxxxvD8N77xjUcE6gy6wd4gbCAmcGcwJrXtoosucnd/wJh6K+QYI1RCCD9/CPNdhSA+ARDzxf3gBz9wOZtYDShBIIvPSWDk85/7vPOM8dHIL7ZZNFC7KGhaUBEfBvFYjXE1d+/XfaNG6t4Rw3XviHtcPYZUKq5Dhw48B7IGXoOvrfsAtsfYZjC23oevv41lA6+BmN5U+P79+9ydwfr1G5y6n/TEpH5FDKRp9nx6YIwSrqzc4SqikX5HWld37z51dvF4lzp7upVr79SGXIumR4oav6eosbtaNHZnSWMrixqzo1Hf3NWgWbFmLU8XtTHXrB2FktZnWzVqS52GbW/W3VuLGr2zUQtTbZoVbdaYbfUasrHepbLdsr5ON63N6itrs/rqmrxuXZfTwkSj8o2NaqgruFQ60ukoJJ9jtF025y4KLr2tkFcmn1M6k1Iqm1Qyk9a2WEZj10X1qbm7dd7sap0zO6KzZkZ05vSIzp5co4/N3KWZO2OKMDt0IqlkbUIUkwfANGwnIG3wNWDbOiqabcDXwGwgth74mmXhgxiV7A+FtgJBiAMAymzQPmiDEGbdfxxFbBYFEEYV87gVCLIMmB/96EchiI+TKyGIj/MLsyv9z372M3eQo3CxGAysABXvDIuCkXfkF6OICeBZDQiUI/sHZ+TguePGAeIHXDGb+0aN0IiRTPtzj4bfO8ylhVGxjILdBtuBemBr2/1lwGpwNvg+F7yHFXMZxGWYlgFsfnHZyuC1eJ1YNO4uRE88McmNmIvHa51y7+k9nGUBiHkNcnVnz5npirZPmfKEEumEOvf1qK2rS8XOHu2p79TsaEkP7m7WaFTv7laNrmzVwzuaNLemWVszJaWb29TQ2qqm1pJK7c1q72xVobVbD2/LaOj2Rt29vVnDtjU7q2LY1kbdtblB39jUoK9vqNet6wuu3bQu54B858aMnkw3qtBQr4a6vOpphWy5OehmlMpllMynlMqllc6mXZH6dIrBM3Glk2ntjaQ1bsVeXTFrj86bHdF5s6p0wYwqnT+9WhdMr9ZVs7draTSrRDLpplhyqrg26iDsgxjglu2Lw9MtGZiBMMv0BmQfwAblgWwLYIxNwYAPsinIbWc06Pnnn+9mg/ZhOxiMDcL07G9AJpOCdeIi2GnENng/y6QIsymenzIOQXyCIGaIJ3N74Y0BVMBqcOWAZIgpKW0E8PCOUSGmjlHOtq/5w0SfXcbEuLGurgL1dgGxg/DwYbp76F2uxi5+n0HWesBszd/GskHbAGzwpDcIl4F72GMGroe3AV1UcDlYVwZq2Uvm9dmPaXWorzFx0gRXpAfA7tixzaWimZ/Na5ByR3U1RtMxe8badU+qjdoUvT2Kt+7T/Hi7Ht3brof2tmvcnhY9sLuosXtLWpAoqbalW8XOrr5AZVFtHUWXldHe1uoGd5BNMXNPXsO3FTR0R6OGbG/SXVuLumtbUXduadKdmxp0x8Z63bahzoH4lnV1+tr6et21LaetOea1q3OKGFVMVgqDUnKFrDKFjLJ1WaXzaWUycWXTMeVS5ZZPs55WJplWZW1GX1tYqYtnVuuSGXt18YxqXTi1WhdM2auzp1bpsunbtKYm7qrfGWytNwCTiWPbrDf42mOsA10UM/uwDJh9AJsqNv+Y3mBMnjHV2hgdx3H5gQ98wGVSGGCDKtiHdHCZ5xC8s2ptFhNhMFImnemf9y6E8bFhHIL4BEHMwUXmBKlBQNV8YgMyQTaCdtdee60b7EHwDlWMb0zaD/CmDQ7iUWVr4t57dM89QzV06BDdNeROl87GSUk5Tnzqp556qh/CBmO/N1iWAX04c+JI2JaVssH3yMd8ewEoA2Rsh306cKDsQ/O8RCKh2bNnuRQ2IAtsqSexeMkiLVuxTLNmT3fbmJpp0qTH3ai7uqYmpTr2a2W2Q5P2FvXNPSWNd62oh6uaNK+2WVUtnWrq7lIHA0q62tTT067Onna1drWq1NXq+rauFpU627Qm3qhR2+o0bEej7trerDu3F3XntqKGbGnSXZsby6oYiwIgry/oJtTxpoJmx5uVbmhSY0O9moBwQ06JQk47UvWaWZ3X+K0pjdmZ0oyqpHan08pnEypk4spnEsqmU8okU0pmMnpww25dOmOvLpterYunV+v86RGdOy2qD02P6QPTqvS1ir3alsgpnko5e4JJR2tjwDne7yEblIGsLZtNAXD9ZYBrSthgzDqNxwzE+MXYFPj3ANnqGGOREdN429ve5lStqeEgcAdbB8TmF5PWxgg+4M7xzd0dk8iGED42hEOP+AQhbPYEmRNUWRsIxKhbbv+wJ8gxJnWIdVQxt3HkB1uNCQ7afkU8lqmADheCt3xkFLVNiwS8UaGAmHbw4MHnwLgM3iMV8f79ALfs3R7ZP1cNm2I2ONMboK03D5h1FC+Fhsj/JZ8YEDMQ47HHHtZjjz+sRyc8oomTJ2juornaTF2M5lZVYkPE2jWhpl0PV7fpweqSHtzbpEmRJm2pb1exo1sdXZ3q7CZTpF3dHW3qoRQnucvdHWrp7lJzd4/q2jsUbS5pbbrFBe3u2VHU0O3NGrK1uW+QR5OGbC7DmCpsX9/YqFvX1+vm9XX62rqC7tqQ1/psUfXNReXrmrQpUa9JlSnd/mRMn6qI6uMVKV25JKNPViQ0aktClcnyoI9sDpWcVjqdUiId1+pISldO26NLZkR0wbRqndsH4nOm1ujMKVGdMyOq4euT2pHIKE5dkNpqxaPYEUeCGNgahE0JG4QBtMEYFWzgNaVsYDYYA2SDNBCmbdu6TZs2bnKTkHLsMQyaKmsG4oF6YAx4TTnbOsE7q0dhmRSkbloBLERBCONjwzhUxC8AxkSImR0BEBOso5kiRu0CVKBr09WjFgAxHrJ5aoxO8iHMATwYiDnAUdWM3qO0JmUrDcRBGPsgPmxPDARhth32jgcDsMHXesBsMC8H77pdPjO5zuTGbti4rjyP3/IKrVyxWOvXr9aOPZWK5uu0vb5DC5Mdmhxp04TqDj1W3aGHq9v1SFWr5sVaFCl2qKN3f98AE6tj0aruLupLtKqurUPVDW3amG1TRbJVM2MtemxPUQ/ubtLwHc0auqPofOK7tzVpKAM+thwJYupP3LSuTjevq9Mta+v0tTV53bsxq6WJJs3YldHQdRnduCqp61ek9InlKV2xNKMrluR1+eKUPr6sRnOjVGrLKpXLKp3OKJVOukyPHel6XTujShc7EEd04dSozp0e1TnTq/WhabV6z7S4LpgT0dRdSdUm4sokIkq4GT7KM0KbHQF8DcAA1sDLcrABWYO0QdkADYRZ5vn0KGTLpMAzxqYgrY3jjYLyb37zm/tzjAGuD2QDr8HY7w3Gf/VXf+WgfPHFF/ePLsUC4dgMYXx0GIcgfgEgZpw9U5sTrKPhkdkyIAayWBSksllKG/UoCN4BYuwKwAuILX/YIEzqGilBKGIaitgHMUDH6+Mgx6agsRwE8pE2Ra9Qxc9th4N7ABwYW/MVcRm+hx8zENP3v+aBXu0/0Kue3g61t5XUyoSjbSU1tHdqT2OXVmS6NDXSqonVrXq8pkOPRDr1WKRDD9e0a26iTYm2feru3a/e/b3qIU+5r8ZFR2+H6to6tSVddHnCj+5t0Jid9Rq5o8HB997trRqxrdkN8Lh7u4G4qGFbm3W3syYO+8RODa9jVF2dbl5TcNkTX16V0q3rM7pxda0+uzKp61cmdc2KhD61LKErK9K6cnFWVyxJ6/IlNZpSlXHZFElgnMkomWbgRkJbkwVdM2OvLp0e0UXTanTR1IjOmR7VmdOj+tC0qD44pVofnLJbozZQmS2qVG1EiXiNq5rnw9eA7EM3qJKDj/G4gZgeONMDYICMPWFWBTaF5RobjDm23ve+9zm/OGhFAOSjgRgoo4oB8Z//+Z871XzVVVc50YBNgVj5/ve/H2ZSHIU1IYiP8uWYBTFYzwg7Ri8BX2wG0tUAKcuA2EbMcZBTh8IsCvOL2R+FC4RpPJdAHxCm2pqBGMCbNWE+M14z9gYnpFkU+MUDgdjUcT8snwPjwUFsQPaV8oCv1wfgffv7oHygRwcP9Ki754CixV4tT3VoRrRLkyLdmhjp0qSaDk2o6dQ3o0C4TVNjLYq2drrAXU9vj7r3dZdbT7eau7q0q75Nc/Y26+HKoh6obNMDu1o1qrKkEZVFjdhJTnGLRm5v1ohtRQ3DF95W0l3bWl3A7s4tDbpjc6Pu2NTkbInbNjQ4a+KWdfX62tqCvrKmoK+szunGlRl9ZlVG16/O6LqVaV27PKmrlyV0VUVcV1bU6qOLa/W5lTGtiReUSRWUyqSVyCYVTycVyyS0cHdCV83crcum1+jCvowJ7Imzp9XqrKkxnTElonOe2KXxmyKKJhLKRGqUAsTJuPPY8dl9ILNswGUZ2AJpls2i8Jd5PAhgg6+B2H/cQM1dHBB+zWte06+CDcZA1paDvaliFDHNAncAmaHUxEg4jrE/CDIjXAY7l0737SGIXwCIyZzgwCboAYwNnHi4gBggG4yBr1kUZFTgF2MxECxBNQdBzDZ7PVPD5hGjhmk8n5OIoCEQBsgoY18F+8vPF8SHQXukOgbGPIYyLu8TUNcHetUP4oP71HOwRzXFDk2PdmlCVbeeqO7UpBoDcZcm1nTq0UirHom0aXmmRe37D+ct9zJ8en+PWnv3aUuhXY/vbdHYXSWN2dWg0buKGrO7RffvatHIXS0OwmUQFzVie1HDUcZbmzV0C2q4UUM21+sbm+p1x6ZGB2KsCWB80/p6fWVdnb64tqAvPpnX51dl9dnVOX36yZyuX5XVdctT+tSyWn2iIqqrlkT1ucXVmr4no1iOXOK80pmMA3Eym1RVNqkRq3bq8lm7dfn0Gl0yo0oXzigH7M6ZWqtzp0R03qQqXT8nouV70ookU04RpxIxJZOJ54DYhzIwNuAaiNnGMvsZlDkWaQDZFDI9itjUMo+jkgEzoyCvvPJKB00ULaAdzI4IQtjWgbGB2HoCeEy1xGthxyEsOL55T+q0nO7QHej/D0H8AkDMFwoErX4E4OWgw2oAwKxjT9h2AnbkF1tKGzClSBBg5nk2rJllA7GpYVPEPAc1TAPuwJiAIWUkqZNsFoUPYFPJ/SA+0KsDB8mg6Hbg3OcUcnk0ng/hwZYNyP2v5ylsZ1cc6FXvoX1q7u3RinSrplR36omaLk2I9GhSZL8mRXochCc4VdymKTUtyvce1P6DZd+Z0YO8Ttf+fYo0d+nxvc0at7tFo/c26/49RY3eDZBb9AAQ3o0y7ms7Srp/e1GjdxQ1msEfu5r0QCXFgeo0dFNB3+irT4w1cdu6epUVcb2+uCavz63J6YYns/0Q/vTKjK5fntL1yxL64vK4hq2PaW0taWwFV7Aonc0rnS0onc0onklr3u5afWHBbl02u0qXzajRpTOq9ZEZNbp4WlQXTYs7m+Ka+Xs1cXtc1emsm2WEmZ/jyVo3Y0kcIKcYDl3rGssE9JLkHifKI/OAsd8MwvY4cAa81vswZhsQBshYBeS3E6ADwADUlK/ZEAZkA+5gfVAV81qAGHWMTcFEpthx2GvYcEzu6s97NxCUTsdtIYhfIIipq0BAAhiTwoZdACRRAChj/GEgCpDxy7AoqF/Mdg5QlLHVpgDAPN9AzMHLc7A2eA1sCQMxzwPEeM14zgRfzCs2GB/hGR884OB74MA+5+ECYqdeHZT3a7/bTl9upKa55f3sV05Vc9v2o4r7Wp8dAZD7/eL9PTp4aL96D/Wo0NmtudGSnqhp0xPRTk2M9ujxWLcmRMuqGGtiQlW75tU0qfep8ufbd4D3w2PuVue+Xj2ZatHo3cC3xangsi2BPVHS/btKur+yqPGVzZpUVdKs6iYtjTdrQ7aoHfmSduebtSvXpA3JRi2sqdOjOwoaurGgW9cVdNM6hjo36EvrGvSFtXl9bnVGN6xO64ZVad2wPKUbVyR0y+q47t9EgficdqcyyhSyqqPl8spmmeOuoFShXuuiWd26jFF0EV06EzVco4/MIJ+4RpdMrdJ1c2o0enVUq6uTqs3nlMymFEcFpxMutzpN39co7lSGcFkpA2KDL3nrNMDLNutNEZtKZt1fZl/WGcyBVUAVNoAJhAcCsUHYoDwYhG17UBXzmoAYi4K0tne+8539ufSIEiYBIHgXBvAOB/BCEL9AEKM8KXPJCDtsAtQwwMQXA8Zvf/vb3YGIrQCYgaZVaUMNk0GBqqWwPHDlRAmC2KwJ3x/meYAcEKNuUBuFQsFZFNgU5hebGnZQPrS/DOODfTA+sM+tHzx4eDsQ7Ve6Blp6T/X2Lx/oFc/th/C+HgF6p7YP9Kqhs0sLakt6ItKpyfjCADjapYl9IMYrfmxvuxbWNGn/of06dGi/9h3Yr94D+9UNiHu6tDVb0kO7mjQGWwIYV7ZobGVJ4ysbNTnSrGWpkrblmxRvKrki7yUGeHS0uoI/bsLUYrOaSkXlW4uK1DdrebRBQ9YnnS/85XWN+sK6et20MaeRmzJ6YGNK4zalNHF7TnP3ZLQmllFVps4Ndc5nM6rLp10r5DOuZnGikNeaREFDV8Z01exafWRmrS6aXatLZkWdIv7E7L26Z3VUi3alFElmnZWRypBzTLpbygX5UMSpTMLNsMIsKzSgnM4k3USo6XTawReYsmwKGQj7DdDSeBwQ+/DGEuB4vOKKK1wJSx+0tgxUrUQmvW23nsf9ZYOw9T6MAbHlF5PSxoAP4M9xjt3GIChSP599JoSxqf8QxC8QxL/65a/coA7UML4wzTInsCcIgqAKzjnnHGc9MOqIAxIYA19AioIGrNdcc42DOAer+cOmiIEwEDdFHAQxXhyfAYvCvGLga+r40CGWD7gGbFkGojSWgac1sh4MqG5bn4ruB3AflAGw268Pvjyv/7kH9qlrX4+2Fjo0taZdkyPdDsTAuAxkoNytx6vbNTdWUs+3ntLBQ1wg9mvfwQPq3UfWRK8aunq1Ltfq9pmfKGlZqk0bch2KlnqUa+lQc1uHWjraHHzbO1vU2l5Ua0eLWtrLrdRSVLGlWcW2kppbWlVfLGlpNK87N2T0JbzhtXnds62gzakGZxnEshT2KShTx4wddcpmytBlCiVqFTcw/x7DnbMZLdwb103LqvXxOTW6bGZEH5lVq0vmpnTl7GrdtTqmJdVZ7UlmlcjllcikyjUqgGmGSUozAspx7IhEbR+Ik27YdDIVczAGyuQo00wBo4gNxqZ0fWXMYwZjvGAmJsAHJjXNQAtQWWZS0cEmFjXoWv98QGwwNqWNKgbEflobxzFCw6q1/eHZw6rQoHQ69iGIXwCIubUiYMfoOuBrELZ8YtYprvJnf/Zn7sAnMIdFgReMGmZyR6wKLAbsBwZ/ENADvtgS5g/zmA9ilLOBGACjiHk9oF5RUeGCaaaKfbsiCGIH4z4oG4SP1vuQNeUMjAE0NgfPZZ9DB/bpEP3BfSp192hlqlWTI52aFOvQJFPEqOIYWRR4xM1qZlDKoV7t4zUOHVDv/n3q3rfftfaeHrX37lNrV5faenvVTgEhZhpxRYI61dlTLrfZ3jfirqWrVcXOFhU7WlRsL6nU2uJAXGxrUam1DOOFtQzmSDkYD9+c195Cs5qam9XQ2KBcXc7NftLAXHZ1eWXr88rW5VzLNRTc6Lox66v0iXnVumxWTJfPrtals6t12cyYPjunRrN251WZySqeTymdSyqTzzr4ooJTNJdtwWNAOdmnfhMOwq76XB+IsSkYFg5oATDgRe0aeAGuWRW2jylo0tPI0rEpkkylGowBMFMfDTaxqAHY+hMFscGY4B2g5vgm/sHxvX7dev3m/34TBu/C6msv7GpsHhdDR7n1w3rAniCLAnUKnPGD8eNQxigT1AD7om6BMPC1LAqAy8kDsM0X9m0JU8RAGFUNwAGx2RP02BXcijLYhOCdr46Bp99MFR/q82ftsaPB2D2GAva8ZnsevT33qYPYFmWVnS71akEt1kSHJsTwistq2EAMjHc0d6nn0EEdeApvujzABIti3/79Thm7lLaeHnX19qqrp1fdfdXaupk1urNTHV1dDtTt1EBmSHQnecwMAGlTSzszdbSqua2oYmuzU8ixhmaN3pzWV5/M6vY1Ce3INaqxvqAmJhVtZH67ZjEEu66eee0alGpsUGWhSY/tSuoLS/fqY7Nj+sichPOBr5yxW5+dvUOPbUioJtekDGrXNZRzSmnKe/apYMCbAr5uW7JsQwDcPjvCwTddVshAmFKhjN4zJWyKl3VrmUzGBY1zuZwLxmFTveENb3DpaKSk0Qy4Bt+BeoM0vQHY782GGKgHstY43s2DNosCe4Lg3bvf/e7+Ot3YeQR+T0cFHPyfQ0X8AhUxMCZgx1XeMiRslB0gRq0yBp9SgXh0DCfFO6YBU2BMsA4YYzsAUupT0ANjmp+2ho2BIvZB7MMYZUw+cl1dXX9+cdkfPngEhAGmWRM+SH2YGlQH6p067gOt//wDzm8uA9m29x56StWNXZoeadFjsQ5NcIG7MownRDo1saZbs2rbFGVI88HecvYEmRd93jSqm9F71LkAyL30XR3qoUh+d5sbBl3q7FShtV2pYotqmtq0u6FDsfqS6ostamttVVtri/ONi61lGNeVilpUXafbVqd10+qU1mbKwM0yiWhDvTL1ecXzBVVmClpeW9BDO7P6/IqoLl9Yo0sWRHXpvJgum1ejz8yv0qhVNdoUySmRyTpoAk5qK2eoRZEDxEllchllC1mlc1gSSaWy5QBdJptysAXAWBGAN51BHZfX8YqxJgy6fo/6tUa+MBd/Kqq99rWvdeA1CPv9QAAeyJ7wAWzLAwHYtgFhlul9EFvgziwKwMyxy10fNh2pdeTjB8F0uq2HIH4BIOZgAcS//MUvnfrlwEIV4w2jjLEmULHvec97XK0JPGFOFMALtFHHgBpVzDaACmiBM2luKF8gjC1h3rCB2LcmUMI0BoiQIscy3mBra+uRwbs+G+Kpp470iw2YA/UDQTi47YjnkZ1Bmc6+FDlUNzZJ76EDWpcralK0pMdRxuQWR7v0OCAmva26VfNTJdW2d6kLe+LgwbIy3s8QbNLZurWvp1O93R2udXd3qLW7Q4XWVlXVt2ldus1laEzY06jR2+p039Z6jd9e0MJok/JN7WrtA3GppcUp4sZSUauTTbp1TUZfXJ3VjKo6rU/UaXltTotrC5qyN6Px21O6c11cV1fU6JIlCV28MK5LF9Xqowtq9cmFUY1cn9TSqoQi2ZyyfbWKmfcuT8umlMsmlSUQl04qX8goky831HAmWw7QAVzgm8sB8XKwrqyCgW95H+ALcFG+1lgnFQxLAmXJxftNb3qTgyGw9eHrLwdBDIQNtMdSxOxnwA0C2NbpDcTWA2MDMaqYWAgCgwyhZcuW6Yc//GEIYkn/Dxof79/pdsU62v8LjJmlAsuBRoFs0nRQxGRBGIjxfD/2sY/pvPPOc6qADAusBwMv09igFlC8nFj4aYDcLAkgTDNrAtVsHjFAB8TYGjT2YQg0ucBYFMwpVg7YHdRTTx1yjfWDBwElQ6TLy+Ue9Uww73BAz4ftc0Ds9uvb371OGaLsx2scImh4cL+a9+3XqmxRk6MlTXQwbteEaIcm1lD4p0MTIyXNTpS0talLjd0H1Hlgv3oOkkXR4zzonv371d69T/lSh3bWt2hpuqiZ0ZIe292scZXNeqCyqJE7Sxq+o+RG1w3b2qQRW9KqLJTU0tYmPGIqgrW0FNXU0qJVyUbdvCapG1dndfPanG5bl9WX1qRcGtsnViT10WVxfXRpXBcvjuuiRWldviCuqxdWa8jamOZVpVWVqVcqT+H4rAMxardQyCmX7ZsNGrWbQdkmlcunlC8wDVPaqWRATACQwkGuz5Yhy6SqZWWccQM9TA1jSXCXQ2ZMPp93DYhxcSc9zGALWFl+3ete55Qx6thvPAaMj+URDwZlH7iDLRuArTcQmz1hs3pwbjDDDQOEjnZ+nQ6Pwd8QxC9QFXOgkDyPEsZyQBmbTYFfhz8MWLl1vPmmm0VRlMsvv9wFLLARgCbesPnFwBb/97LLLnNBOB/Evi0RBDH2BtYEIEYZo6QJ7uATl0FcrklBAA+VaoE8C+xZloVtZ53cYSDsVPRTB9zyc0F8uMZF+Tl9AO/zpPeT4sZIu329quvcpwWJZk2MtOjxaLsej3b2t8f+P3vnAWZXcZ9vIyB2XOMAqrvSqiCK6V0gEEINNdSFKmrbe5FEB9GMYyA4jgsEB4leDZiiRke9b9/VqoCd2CmOE9tJHqc+3///zrnf7nBZAcZywOjqeUZz7rnnnnv3nJn3fPPNb2ZebtCtaxr1jbXN+stX6vSDN3bokQ11enJzvR7fUBtihL/zSp3ueLlRt65p0LKVDWH1jqUv1mrpi7tCXPGSF+rCWnZVz+1Q9bNMi/mmXtlZp4aGRtXWN6g+pFptq2vQX67dqgWPrQ+j6i5/cJOmPbhZEx/YoHEPrtPwB9fp4hXrNWz5Ol3ygzc14r7XNXfFq7rrpfV6/s23QgcenXrrNm0IfjADO5j0PrEUUK8o4kTFvvXWmwG+QBgAb6ADL9gWCYQTJZwoXHze5PX6oHhRvShi9gNhEnNFUD5OP/109ejRI4CWTjngm55iCLNtYMfKOIbugbZRwwcCb/p+A9i5Qex5iSHSAAAgAElEQVRBHggRRAktQsQKC7se6qtAZ0B8ECAMiAlSB7SoYeCKMgbM5NgRKGFPIo8NceGFFwb7AWijDFCzKGAUDuoW+JKfP+j84BfbkjgQiPk8EHZCXRMix7npzPKoO0MWOBvA3iYHpOSkMDqP8DYAnAp1M4SBc1C8AdJJ3DLnQ4EHayLke7WXgSM/3qe2HzNyjpVF9um1ujbd/Uq9vv5KQwrCLbqNaIqXm8JsbLevbtTtq+t128oG3baqUTevqdeyNXW6cWWtbl7VoBte2qXrV9fqulWMtmMVj1pd+VIC46Uv7tSVz+/Ukud26Kofbdb963aotqlB9SkQ76pvUG1jnd7c1aBrn9mg+Y9t0MxHNmjmA5t0+QObNWX5Rk1YsUFjV6zT6BXrNWL5Zk36wau6/SWUNYM4NmgjQNyyThu3MAPbOm3YtFGbtm4Rfm9I69cHeAJRAIqS3ULkxca3AoQ3bQbQb2jjpvXJah/rAPLGYD/wGZItCLaB79atW8P7lCkUMMscAWGDFxDHMAa6fi/ODeMYxN4+EITZb/siztMB7Ne2L8jtGWNNAOIjjjgi9JcAYqwJWo78bUQfHQrK90B/YwbEBwnEv/zlL8MIOyoKKhhljCoGzHTQAWNeM/gDULNv6NChwYYAxhRMRtuhjLEqUDzYFnTyMUUhlgXK2SC2GsYPti1hNYwi9rmI2mBpHJp/hjDARCEbuOTsA6Acw2vyRCFHfnJq4EdsUyTWRqKuA7hT53BURfCK396jPe/sC/HB+/ftERbDC1sbdcfLtaKz7usM7AhecUvwi1HFt65u0C2rG7VsdTJH8Y2rdmrZS7t0Y2ok3Q1h2staXftSra5auUtXvrRTQHjpCzt15Qu1WvbSdj22frt2NreooalR9c31YfL47fX12tbcoAde26iix9aFtetmP7ReMx/cqBkPbNbU5Rs1acV6XbbiLc158HVd+fjren7zDm0I0RPbtQmoAlfWtNu6WRuIN968KYSnBa83DPbY2A5Twxi1DHiDN4x3vDGxKljFOlHB6wNosR0AL/BmP69p1RCWSBkyLIFnDNsPAjHHxskWhSFM7nN3lscA9rbBG+cGL2o4BjEQxpoAyJRlyjv1hAgj5tY+1BcczYD4IIGYyUxYLgjY4v1SyOwXA1CaY/QU44nRuUJhvOSSS4IqtoJGBaOWHcIGdOms4zhHUrAPSMcgRg3blsCSQA0DYs5F4jXDWwkVMnxjKBvEVsjOk2PwlJMEXJMBILxO4Eu+f38y61viKaeWbSKiIhXmhnLGniAFRf028cVtenBdrb65tknfWNOiW9c067Y1LbptbYtuWdsU0s2rUcN1umnVLt20qk7LVtbpxlV1SiDMys4Mda7T0pDwiLfolpc26r5XtuqV7fWqa6pXY9Mu1THAgzzEFjfq2a0Nqn5mg1hIdN6jmzTn4fVhwp/pKzZp6gPrNOfB17T0iTf04Kub9ObWzdq+nbC2RNVu2rxRmzdt0OYtm7Vpy9aghOmoI/Fe4vcmqhaQAlVgyn5gjO1AJIRfJx1ziQ3B8ajDbdu2hYQqfuSRR0LnK6suM28DCTUcg9fbzmMFzLYBDHzZ7gzCHwXEAPlAEO4MxAxsOvnkk4PAII4YkfKtb30rjLKzNUF/y4FU46d5fwbEBwnEv/nNb8KUmIDYMEYVU9jwwvCE6VhDAWBRcAyAJKSNHmSgDbwBNF4xtgJwBc6AFvXMPt4HxHHIGseRUMKcMwYxnyEBdEZaoVrj+GJAahAbzokSTvnJqQgLYGyvOOnci+dAtt+MV4w10QFhFHFI0ci9/W8zcq9N6xuadM9rDfrGGkbYAWDmJk5yYHwzk8WvqddNq+t00+p63bi6XtetrtN1qGTU8Ys7dcOLOwOo736tVg+u36k122u1o54Y4gY1N9apsalODc11YjmlXc2EtdXqmuc2a+ETpK1a8OhmzX14o+asWK+5y1/XNc+u1/JXN+n1zdsDDLdu26Rt2zZqx/bN2roNj3ZjWM8OEKOEsSVCznaqs86daYDVihg1HNJGVDEWBZ12CYCJgOBYkhUxACZS5qyzzgoWBJDFigDE5E6GMsA1iMnTYQxogWZnHrFVcWdK2Pusgg1fv04HcayC7RGTE7bG76K1R6gng5rwh5mAiPKYAXGms+6gPIGZUYqebYevkWM5AFcUMt7vmDFjAoBRxUwSBKBRuoCTYw1twIsq5jMoXzrd8I+BMcfGELYaBsSoYRJq2IoYqHMuYAzsUWj2ga1q00EMrDtg3AFgvOJEHccQBr5WxwmIGWkXVHAqDjiA2THHYcQdgz12q3V/m17d1ao7VzXotpcbdcvaFt26tlW3BCgnqviWtfUBxnjD33y1Ud95s173vLFL979Rp8c3NOpH25r1Sl2LNrGwKEs2tbaotalJzU0Nampm3om6YEvsbKrXjzZs180vblH+D7do4eMbtfDxzWIR0UUPr9OSJ97S8te26ZUt27V1107t2rFNO7dv1fYdiSLetm1T8HlZWDQAeesWbUrBmHwzr5kQaEtiLSQqOAFrAlmgm3TOoYYTRZxEP3Bs8JG3bAlxtTw0zznnnHYAW9ECXavizkB8IBgDWkcseK7gzlSxodtZbvAaxAA43jaADWZbFORAmCgNBjRht1EnECLUASarwtZDCTt9mpXvgf62jCI+SIqYQsQ8D3jEQJgE+LAlyLElBg8eHNSvVTEDP6h0+MV0XABsh7QBUiBKzjnorMMrRlkDXYetsW1vOLYlUB7YEgaxOwKxTxzSBoidrIZ5ba/YME7C3TqO9WfIOcbHJeFxQHp/e0desCIiNbxv/+5UjHEycKN53z49uqFBN6+u1S0sm4Q18S4QN+iWtQ26eVWd/mpdo3bsaVPtnj1qbNmr5pY2tbYmAzz2tu3W3jDcmnjjFrWGte6a1NDaog1Ne8IySNc8s16lT20MKzmzTNL8hzeo/LF1uv+1Or22rUFbd+zQtu1bQmLJJyyJAOIdm7Vt++Z2ENPxxirPzjdv2aSt27YkSrldMQNhOusIR0sGXmA1AGV3vmFDMI0qHinbzOJ37rnnChvC6jZd8fI6Tj7OCjj9NRAHhl26dNFnPvOZkIAy+62EnXcG4M72xVD2tgHsnEgJAEzi/J5HBTVMHSHOnr+Xa8KADkOY/ECw+jTvz4D4IIGYQkIHGGqXgkYK9sOs2UH1onhRr8RQ0lNsGLMNSOl0QxEDbWAMeFGxgBTA0kwFvigloGpVzDkdrhaDGDXN530OVDGDRLA1CH8CvO+GqDvnkonlYzDH4O1s2wraQAb07tBLBzHWRQiFezsZ9LH7nX1q/vF+/dUbtWHtuq/jFa9O1rG7ZU0CYUCMPfGdV3ekYov3aO+evdq7e7f2tbaqrbVFe3a3iuHOTS0NYbHRptZGbd/TolUNe3XrSztU8sMtyn92k/Ke2ajCp7eq8qmtuv35DVq9aZd27qzTLmZp24E3m4A45Nu2CCB7G/C2py3JNkAOUOY1QGYV6BjGmzekgJyoY6tffGDgixJmiPz48ePbvV+DFtVrKwLAej+5geu8MxBbSQNTohUAMQMqgOTvE8RWwXznscceG1p1DlejTiBAECqIAiJ6YghnQAySf4t/n+an00f9237+858Hz4tCBogZWQdQgSc2BE0yQAww6bAj0TyrqakJFZFCCohJKGTgbIsC8OIXEwXBTG4Oc4u9YdQzSpj3UMMxhIE3nyVddeVVwbs0bJ0D0hi0Bmu8j2P92tvx5/0Zd+w5zM1ANqDb83cYtNGqja279f03GsMIu2+sYVHRJGoi6bBr1E0r6/T1lVu0Y9/bYZTe7j2sFJKoYQDMsGcmumfOiZ2NLVq5tUG3r9ysxc9sU+XTO1Txw50qeXqrljy7TXes3KIXtzVqW32zGmobVbtrl3bu2qGdu7Zrx85tAciJIk5BOKWSg+2wZWOwJoCzFTHw5T0S+wGxgQ2kw7FbtgT1B4iBMN4xy9rzYMzJyQlgtd1g+8E5+2MIxyA2gOO8MzhjRaBeyfn87wJiq2RbE84BMJAn79evXxAMAJiOOTxhhAa+MGqYxDJjP/3pTw9JBZzOGNCbGdBxkFTxr3/961C5rIjJaYqdffbZQRUAWqyIM844I4TvEHeMMqZTj+B8K2LD2CFtqGJUL5UWv5gOPmAM0A1itmMQp6thQIwfTQLGVASsFFS8B3sYonSeAFteO8XQNYidG8TkVsee6S3EIEeTAQXvmGk0g1ecTMHZtpfVONr0yq4WfeflXbodm2JVAmLsCjrubiKcbeU2rWvdr92sLkLatzvMR9G8d692tO7Vq7VNenpTnb63dqeu/9FWVT63RWXPbVP5MwB4k+54aZOeXr8zrIFX38xkQPWqratVLdNk1u5QmDITZbwzAfLOnXTYbWlPKGYSkDaUAa6VdLwPH9mwJt+B7ZFSwSzYSaQMEQSAMYYo0GXCHkOYPIawIes8/mz6thWx/WDe53O89j7bEni4BuyHyWP4ujMOCDPdJgOWsNMQGMSxU65p+VH+2abcf+973wt++K9+9asMiDOzr/1us6+lP9WInGApGgqdfWIqHL4unWy2HdimsPIeQKSA4h8DbY6hsLIPi8IhbYAVC4PwNRIgJqyNc7HftoS9YathIA6EsSUmT5qsSRMnBb8OGDNEFnAyUxtQZRtbgW134Bm2cW5gG868Zxh3vJfMfewZ3oICZlBIBGVve2J5VuR4fmuj7lpbr5tWNYSoiXeFsq2u0+Pb9ur1+ja90diiVbsa9aMdTXp8U7PufaNRt6zcrmue366rflSrJT+qVU0YXbdFt6/coic2bNfGWoY6MyNbvRoaGG1X1wHh2p1h+DOjvHbu3CkgbOhu37G1/TVQBbJAlxw1zD7gbFvCr8O+1DE89IiOoFzg9TMvBMB1isEbgxgwG7rODVRep8OX1zGA06Hr1zGIPyqE8YPxgJniEqBTJhEMRAEBYVqAlGf+Zo84pW4wbSzREnRuH+oDOcyQjCI+SGqYC0oIDr6fPTAXQKIlUKIAFrjSTGMfcEQ101yjM2P+vPmh4FJ4ATEJb5nICYBqOwJVjDo+9dRTNW7suPawNSvidFsCADsZxIz0A9pMmWl4Wv36dQzfeNsAjvP4s8mx0WxvEYDbLQkPf44nk9+/J8w3/Mibdfr6qnrdsrpZt6whNenm1U26aVVTeP2Nlxv1jVfqdMuaWt24alcYccfColeF0XX1WvJ8gxY/W6c7Vu3S4xvqtb6+WbsaG8OUmI2N9SLV1e8Kc04w7wSKOKzmUVsbhtvu3LkjWBSAFKsCsAYw79zWbkuwLwZuonYZcUcscAecOQagM6iGqIEBAwYEhQt4DeH0nPdsU8Q2RAzirt06hjMf0y2BbwzlzqwHYGkAA18S+z6MAvYxKGG2sR88Wo7VNxAElEs6pVHBlHPKO2LDthzlmT6Ue+65Rw8++GC41oeqJ2wAO8+A+CCCmEK1e/fu8MS3IqYwAtHRo0e3K2IKKRYFihbIohJQEkRPWDUbxJyHgo3iReUCWz6D6qCDh+Ytipf9TjGIgxpOgRgVzAOB78HeAMaEE9GLD1QNYOcxfONtAzjex7ZVNJ+P446DKk6bC9lAjr1jjvvx2/u0tbE1rGMHhG9a06xla5q0DBCvbNH1K1t0w8pkmPO17WvZsYwSIK7XNS/U6qYXdurBdQ3a0fK2mlpb1drWrJbWJjW2NAYINzHkub62PQHjZDIgOu12hY47K+J2VQyUU9ZEDGBgvX07dgUKukNFcyx2x1NPPaFLLx0ZFDAgBZDkHwbEtiQMYOdB9QLfrslouaNTOec2jGMQA05D96OCGADbjsCKIPKCBwjli1YbNhrQjUeUAmArY8o4/SHf/va3wyhBBhhRXgyiQz3PgPgggpjC9LOf/qy9ww6IAlQiG5jAh04LFC6KmGYblgL7KayAGcUEpK0mbFEAZ4AJaIExUMaDI5KCzr9B5w1qH0GXbk3YkrA/jPIGxOPGjQsJmGOPMGUmFQN/2OoWuIbZ2FKT/iQxxAlkk+0kpM0ANpgN6gTIHWFvPq8tCUO4I9+rfW/vC8Oh39hVp2+u3KkbGOa8qlnLViX59atadf2qZl2/skFXM9fEyjpd/QKpVje+UKfvvVKnNxveUUvrvhBNsXt3i1qYPL6FuOKGAGIUMbZEDGOgGdRxLeo4sSaAsVPoxNu5rd2iALwklDD+L3YG67BxHUmsH8f9Pu6444ICZsVkUqx+O9tni8IQdg6EDVmD+Khux+hPjj5Kf3rM0TrqmGTUXDim29E6pivql5nYOlbisB+cnlvtdpbH8PUwZdQwIoIyS7k0hCnrlFnKNxB2B507rgExLYPly5eHjrpf/OIXGRCn+JMB8UEGMZ0PTzz+RLAcDGIUAz4x3i4gRjmQULooZRLvEUNqRWwg85oEuDnGapdOOioCOU1DIN5ZxAQgxo4AxIYw8AXE2CN8N+d84IEH2icHcodbO4hT69p1DOhIYAyAnQxh58DYQI73BRhHPnEHhFNr5rEC9Dt7Qpjas1tbQyjbspUtuhElvKpZN6xu0fWrm3TNqiZdtapJ16xk1F2tvvXqLr24bY/q2varuW23mtuak4nkAXErIG5Uc3OjUMO2Jwxje8XBrmDi+NokgoIoipBSfrEV8S4iLIKPDLCTVLsLhV0fOqCIhmFSJ3xgYAtcDV3nADneNqA/FIi7HaOu3Y7Wn3Y/Wl/tDnSB8IFA3GFHpAPYrzsDMAraKhgFjA3BPsoawgILAgFBdA/lk7KOGuY1EGafbTcvIcaI0u9///t66MGH9PLLL+s//iOzTJJbAhkQH2QQ4xMzlJjCR+FEIaCMPBDDELYqBqaEtzGjFqoHAFOIDeI4B9xM8OORcoS38XkAG/ziceMCjA1rLBFAzPsHgjAgpvOIc+EXA2GDGJCGFTfSlkUykGMIG7zOrX4NYefsfxd824dDJ0sroZYBccvbbWp45x09tKFJt6xq0g2rAHCzblxFatB1q+q1bFWDvv1ag57dvls72hhW/XbobGzd0xaWVGrb3aK21sSWQA2jjN+jihtqVU+qrw1KGBi3R1GgjFMwRiUD4GA5RCDGyqitrdMbr78ZwhF5uDncDNAasGwzUIMUAzje5liDmDyoYWZV604McWp2tW7d1RV13L27jjvjVJ1y4SANOOF4HXN0YlO8VxEnkwPFnXS2J94PxMDZAKZTjiWOKHeUZVQwHcuIA8on4gIAUz4p3yhjw5f+D4esMeHVvffeq4cffjj0pbCKs0F0qOcZEB9kEFOgaLLSYUeBBKoUTjxZOjQAMImCS857eL4DBw4MnSDsM4jd00zuAh9C2mbOCp1vKGDmniBWmagLKsuUyVPaVbNBHKthWxIAg4RPDIhR1FQomtoxiJnIx0OUk6kwk4nkPd8EgDV8vQ1s2Regm5qNzcckgO6YQjM5Z8dr1qzb9/Ye7d7Xqtb9LdrWsjvA+PY1yaQ/y16q1U0rd+iutdv19OYGbWpsUdPeNu3e26o9LK+0d3eynFKIMW7R7tZmtbKOXXOiiMkbGpOICZRwUMUNtaHzDtACZRSxE5YE24AYC6KurlZNTY1qaGgKI+Lwh++9957QkXrCCSe0K+BYBRvAzg3f9DwGcTuE8YK7Ha2u3Y5S6JQj/Kxrd3XNytbkhfM1b0mNRk+fpq8ymU9qhrWuXfGKAXOHUv4gEFv9Al0DmGgIBmRQZugcRgUDYJdRA9idcYgO2xAGsXPqAxP8MIjj0Ucf1f59+zMQjtiTAXF0MQ7WU/nt/W/rrjvvCooB1QBIKcyoUlSDQQyM3ZTD7+UYjjeIKei8JrFNAtxYHUAWv5hmIq/xjAmix96wYn4/EDO9pkHMQ4KEZYFiYW5lYJzAlJC2tvaRcoA0VsLAN37NZzrbF4M5VsTutEvP9+5r1f53mLNirxr37AvDlFdta9KLWxq1anuDtrW2qXVPq1r3tqhlX6t2A+A9SR72896e1mBLYE0ENdzU0G5PYFEA4dimALrtURQhkiLxi4GwoyqwHwhF2926Ry+88EJ4iJ5xxmnqk9M7WBHE0TphTRi+bPu1Aez3/DoGcbce3dW1ezcd072rju7eVV17dNPRPbrqKF53Y193fe2MM3TptCk6ddB5+uoxSWxweoddOoD92mqYHPUbe8F0xGFDUB5pgdHqQglT9iwIgK8VMOWbzjigG6dYDWPX0FFH2NrTTz+tf/7nf86AOGJPBsTRxThYIPaUmO6wAKBAk441mnWGrwszBRrYUtA51naE97GfxGsKPdtUEEBLSBuKmvOiWqiIQJX3pk6Z2u4Po4rtDVPBADEJawI1zGdQxuxjxBPRH8B4L9YBSx4FXzeJMbbiNYCBLNuxAo7VsY9nX6Kk97XbEwYwERMe+myVzICNfftbtGd/Sxi4sQeLZC/Dm3drX1uL9u1p1d69rWrbnwC4pa1FpBjEjLZr3d2cdNjhETcnMEYZA2ED2R11WBPYEajgYFfU7Uw69VLLLAFhQhRLS8vDorADBvRXTt/e6t0nqwPAOe+GsQEMeONtA9i5bQwDuTurb3TvpqO6d9dXu/cI+dHduyUgBrwo3m5dRaed1TD338kWBHn6PvvCABjoooQBMAmrzIOH7AVTLlG8lD0rYwSDwWvoAmSS7Qjn7qhbsWJF8NGx8A5Wffs0nCcD4t8DiCkY9KADXKwEAIpyRa0Sa5kOYpp7Bi0FHtiSDgRijkGh0FHnkDY3HYEssaqoXfxhR0uQEy1hGMcgxp4AxoCY3nBC6Vj6ifmLWbsOVRqAGaa4TDxkw9fqN1bC7DN8nScQTkAc1sNLddglIPasbskk9AmIGX3HwwDbYp+wLPaHyYT2av/+Nr29r0379ybTbaLYWfE52BIo41QCyIC4I3KiMXTaGcZA2CC2RWH44hPH++ob6rVp4yZ961t/EUZK9umTE7zgPkA3p3dIOX1zApx7h319RN67T29lk/CHe6dA3PvdXjEgjiFsEHdlaHO/HI2ZM1tzqqt0+pAhOjrA+Rgd3fUoHdUV/zdOHcAFvFa/8TYKuLOOOAZmUG54sBMaadhS1rDYKIt0zlHuaNEBZdsOhjB5OoiJyCERP8xoOuKHCZf8NMDzYP4NGRD/nkDMiCGGsmI5oHiJeDjttNOChQCIDWMgTAHnGPZZ9VIBgHOceI/9JCoDloRD2oAnXjH7GFLtzjtHTNgn7gzE6aoYKNPRSDPcUEUdx95xB1g7wtO8Dyg7vRfEyfG8z3v+THJcR/zxvv3JMGg/BGI7w9uodSDstGfv7rDtkXpAOChiOuxamtq9YkdRhI67po5RdoDXdgWAbm5uCpEkeMMrVjygy6fP1PHHHa/+/fsHGwgrqG/fvsoh9e+nnP456tOvj3qjkHOy1adP75B65wDj7ATIBrPhnOq8M4jbO+t69FLX7j3Us29fjZw+VYuuWqpR02foqO49U14x0RIdccMObbPyTc+tjg1iFLAHZPAgoEVEGcWGQDxQLl0GKZeOkKC1Bpjxgm1HGMRWx+mAZkgzM60RMfHwQw+HDtWDCbFPw7kyIP49gZjC8a//+q+hgwLbAIVhtQl0nSjwqAwKvws7wCUZwkCXCgJkYxhzDpQwKobkKAqUMitHM+QUFWxVfCBFDIitiqmQxDYz+OO+++4LIAKSMYh5nYCzI0TN4DVg49eGbZynnyN53bHoKJEZBi45c1O0dxqmjcprf2/fnrDa83tAjDWBT5zyigllA8IBxKmY4tgrDhBuaQydrniaPODOPPMs9e93rPr3HxCUIzA2kPv2A8L91HcAQM5Rdl/UcAJhYIwqzsrJVlYAcqKQs1KquHdWEkWRDmIiL7p27RYsh6x+fXXiWWeoR99+Opp9XY8OijjplOsYYZcO43RLwhaEp6gEwJRJJpSifJLc8UY5o3xRJtlHC42HMwA2hDsDMft4H1hTpvmMO+rof6CjLhM//N6pFTIg/j2BmFF2+GB4rRRqYIyXiyJ1s49CTmF1JSBnH+A1hMlRJChf7ASOZ5+tC45fMD/xiwlbI4oCYPM99HgHqKbml7AaTveI00HMBPQOt0PVY1HEII63YyB7m/cNYsOX12x7v0HMsd4mQgOv2Mn+sUGM8vU+8hjUQBpF3BZ847aQWxEHa8KxxECYWOKmxB8mDynlFzuq4plnn1Zefl5oXaB8E/VLngC4UxD376u+/fsoq28fZdN5FxQx9gSvk/0AOqtPtnr1zlZWdpZ6Z3XMN2FLAlXcrQfREscE+wHw/mm3o3VU16PVNWVFsA/wWvkawvE+WxNWw6hglivCF2bpLgYGWQC4zMUApmzxGqha7Rq05FgOqF1y3mefO5opgwxYMojpqCNi4sUXXxRzsnwaVOzB/BsyIP49gdg3iUmviStGVVm9EtXgCmAQWzXz2p18rhyAF5ULIIEoCho4s5+mIp+lUnFeQuSIoADqVDZCqiZOSPxhPusUe8SAOIYxEMYvRiWjipiyEYB61F06iA1b54YuHXjeJvdrtp3izyRr3iVLLYXOux/vT1aQ9vBovGrWvvPyS6wEwjp6b6dmcUtBGGDHqhgQE8LmOGJyWxXBpmhuTM67ty2oYK77BYMv0PHHnxDULx1y/fv3CwoYH5VkOAdA26LAG+6brey+Oerdu496ZWerT69e6p+Vrd7ZWeqODZENhHupV3aWemb1UlavZLBHuiImbpj5JI7qeoyOZqRcCGE7Wt0DgI8JkGZQR0hhQEdHJ509YUdEEI5GKBqTw/N7KSOAknIDbP1gp0xRtig7bNuCMITd8UaOiqY8sqAp5wHIlEX8ZcAMgBELqGMiJpjohxYWZYnVbFw/MnmijjMg/j2DmILGPMUoAmBKAQaCqGMKPOClIJN4TU5lMIypJCQqDuqWNcwcj2wYA0v8Pcb9A2P8Yrxp1DFNXEZD8Z3vp4gNYlsU+MQkgOwFHpk7FoAaxGzHKtdwtfU4CjQAACAASURBVCI2eK2UDV3y9H3JufCNE6jahkD1BvXbPvAjieIIc1mkFiO1gg5QBtSdgNiddkAZHxgQs41NgS3BZ1esuD88vBiWTFz3sceSjk1gfGw/DRhgZdy3HcTBI87JUZ+cvsrKSZRvn5wsnTagt6ace5KWjD5fN00apuIR52ji2cfrpL4JlLOzstQVGPfEmshu76yzR0wcsYc1x3NMtCvf1Og6w9jK2BC2CgbCqGDOQflwGaOcUW7wgQ1gyiLbqFrbD+QGMXDFIgPAhOgx8TtwP/HEE4P9QHnjGMovDzN/jhF1DG1mJWr89syMaxlr4mN7ElMA8YOZ/hKQokxRrlQIVAQF3NtUFpSKYUyhptKgVE855ZTQAw9oed+g5nhC2qhsWBT4xZyXQR9USkLnALFTujIG1I4rBsAAmcR38hkmMQ9RFPv3h84Wg9S5IctrEq8Bsfcb0j4+zju2Ux6xZ2trXzV6XwLjFJRtSwDt2J4ISjnVebdnT5va2khJ1ASKGPCSsCbYzz6ms3zooQc0ZcokHTuwfwAvtkMC4IGRH9w3gBhlnNgUfZOOOiCcih3u3Sdbfftna9Sgr6l68hAVjb5AUwafpfHnn6YpF56u/BHnqWLMhbr07K+pb05Pdc/qEVLPrGQmthjCBrEh/J68e1d1635Mkrp1qGEDGBuCuSEAM8OtKV/uj6AsAVzKjxUw72FDEA0BTAGwE2DmM4gIyg0TTTHfBBAGxsyvjeql/FJWgTvniEFMxATD6OkAzoSuZUD8sYEYX+yxxx4LICaiwYMtsCwMYnISBRp1YhhTaSjgwBU4AltUG8cZxORUNrxk3veoO6BOhwyVHEVNRepMGRvEwNhWBTmdd8CY72Z+gLAMUmpQh+GaqNkkGsJQjd/z++S87+TXHcfyHtBNUghd24cdkQDalkQ6gA3jEGNMnPHePeGhwYMjrOLBKDvWtOO9VCxyc0uTnnrqSZWWluj0009LQTaBKyo3sSASNZz4wVgTSYpBDIQ9WKNPTraGnzFA10wZrHEXna0hw4Zr3Oy5mkTfwJzZGjJqmIYNOl15o87V6HNODLZEj14d02Fyjzw8Ooysi9aney+IGfrMRO/HhLkmADCdcQASAPOaKB0sK8oJwKUcAUkSYKVs2ArDVgCeTkAYC4LPAWDCLxmQxDmJQfYaeHwXZQc7Ao8YO8Mg5zXnoEVFRx0dn/SZZKa+zID4YwMxhe8f/uEfAlwpvIMGDQpQBJzYDsQXk4CpgWxlTKWxeiE2GHgTonbxxRe/SzVT0VDKKGJbFFgWnB97ArgAckBM5TlQAsYGspUxUKYCs9QPIGVVD9SuIWvlaxDHihhl7OTPGMY+3nkHlDsskGCFxOo3NcjEACZP1DC2REcCxE6oY58bz57rSRObOT5Qv1gRiR1xbLsd4Q45rhvbADiGMMCOQTywb28tnXCBZl54ioaMvlRzq6/U/Gtu0Pxrb9CCa27U7JolunjCeA0791TVjBusk3sTP9wB4rizDiA7pUPZr4GzO+fogCMcjYgIWk0uJ0CYBzoPchQvOa8BMOWKfShe4AlESYY1gzCItHHkDXHwfDcQPuyww4LlwbWj3PJ5FHAMYUDMCjTYcvjDDOZgEYKML5wB8cdWCAAxiQ6vhx56KKgDCjyFHLUJXIFoOpStjGk6koA0cMRjRhUzoAM1DISpVADGFoWHQHNu9gEUmpGoYiDcmT1hOBvEVsd8JyFtVM6Ghobwdxi+neUGb2xPeF8MYyBrCDv3+wHAqfjlMPnQ/tQMbWmTEBnIhnCAb9te7WGB0RSY2ccKylwjbBrWibMFEYPYMDZ8DeN0AAPhdBCfNrCPvjFruAadfIKm5pUo7/pbNf/amzX32mWae92Nms0Iy/JynTPoXFWNPl+jT+6vXr26t08C1NnADsMZKKerYiCM8gW+jIjjN9MasuVlFUz5oFxQllye2IcKBsLYEU5AmjIIRLnXhEDSkiLnt+A3swgplgRQ5vv4rL1k2xkoYcLW7A8TQ4y9lRna/F4I82DKdNb9H3TWcaENYnI6K5gCkB5kOvCAsSfviWGMOkYVU6GoIIYx0RdM8sNnAQWftX1BBaOy0SSlkhBfTNOScxFPzAgvfGpD2LkB7DwdxAAZGHM+LBbA1hmArZBj6Po47/Mx3m/wAuI4dQZiQtTwiG1T0DEXQBwsByIuErBbCQNi5s6gswiv1At1AjXULIAFYFbEMYjZHwO5Mxh3KOJsnXZcjr4xe5TOOPkkzS6uUtlNd6nwpju18LrbNP+GWzT/+mVadM01Om/wBSoedo4mn32CsrN/OxADX3473q/D0Whh0alK2bGthfIFtEQu+AFOWbI9YQCjgAEpxwJgygoCgSgHjqElReJBAIRRwihiFDiWFQ82oG0/2CDGqsA3ZiDHd7/73aCKmaOZKKKMIn4vjDMg/j8CcVz4uOi8Zk4KpgQEegARGwH1mq6KUcFWMlQqwIwHTOVDrQAY9lPprI45B8egiukcBN40IVE2eJp4v4YwuQHs/EAgHjVqVPgu1CUAxaIwYA1UQIvyJ/Ee+30Meax8/T7H2jog5xhDNWynrAmDNwExfnACX/I9e5L45b/96d+E78YXZqg2Vg3qlb8bcHqyHbbZ35kyTjrrEhB/EIyBe+/e2TquX7aWzRqhiRecpqlz5+rau+9R1TfvU/nt31XprXdp4Y23alY1oXHn6ZoJQzTs1IHqk92z/ffwu95PFduKAIKf/exngwqm44wyY2uLBzZwBKZYD7a52M8+q2Agaz+X4/GAeVBzDEqW5Yx4wGNzEAZnOwIQo76J3gHsQDgGMUDmNYoYWwIQOzHsHyES14XMdgLlDIj/j0HMBeefCyCeGRWCeEwULs1KlE2sjKlkVKhYGVOx6Dyh8tCBAnCpeIAYNQSYgS/78YvxoqlYBNkDFiwKoGsYG8DO3w/EfC9zB3gIdDpoDVfvd87+GM4Al32kGMKdbdOBB3zf1VHHPBQpBUwOiMmZpnLVqpdUWVUeRhgCVdsIHQo2gbJBzDWxRUEeJ96LE8qYBMD5PCDmvDk5WZp4wUlaPGaQRg+9QPOKK1R4/V0qu/k7uurO7wePeMTkSZp80elaPP58DczuruyePdU7u2OWtgPBmI48bAggTOL3cF+BIWWDHPvBD2Jeu5PO6hjlC4DjxGc4D+WIBzkgNYhpBdEBCISxIpiPAiVO/wRl0hC2LcFn2fZ+zuNOvCeffFJ/97O/ay/3Lv+ZPAPij6VQpDj8rowOsLlz5oamHsoEZUwyjK2QqVzA2KoYnxhbA3iiXFBGsUUBrDkfFgVABvScE68XdYWSBrgxfP36QCBGSVNBOR8TuNAJFoPWEDVgeS9+3/vJvd/H8Flvv+e9d7AtkgEdWBMhhZF4CcwTEO/Vq6+8qmXLbtTgwecrK7vnuzrYDExg50gH9hmqhnEM4fRtjgHA/kwH4HsrO6eXBvbvqbkXn6aCUWdr3AVnauylYzR+0nRNm3WFRlxykaYMPkNFo8/V0NOOVe9e3ULkBL/FKr0zEGNHEA+MBcH3YhFxr91Kcv8AOeUjHcwAFvgaxKhiEg9uHqqAmPetZgEoHWz0QfCdfDcA5lrw3XxvDF8+58/SWecOOwMfWwhb4pe//GVGER9A+AGEz7yLCh/yReZJ9l6f57e9Jr7U+GYspkg0A5DDp4s9YwOZCkYloLKRADNKl1A4RtHh5VG5DGOanCgXfN3gF1+ezEfBefCJUViEtlG5YvCyHb/mfSesCRKvUderVq0K8ETZA88YpjF0P2jbAD7wcdgbnJ8Z2vbrJz9J1DXf+3d/93dh8c9vfvOOoOxorjMarm/fBLLAi2T1aggnKrYDxIAm9orjbQPZIAbGbHNeYB4g37e3cvpm68Rj+2j8OScod9hZKho5SMWjBqno0kEqGX2OZg85VYNPGaB+OVnKzuqhXtm9wmRA/k0GMQoY+AFBbAg6xrhXXHP3HaBmASqg5aGLAo49YmwGEu/bkgDGvOazPJCJrmBfbC/QScfxlA+8Yf42psbE6kJdx6rX6tcgdtQF5ZDvprOO+GGmDmVEXcaa6JwbGRAf4An120L1ox7PDeCzTBCEr4Y6BZqoXVQPCRDHMHZlA8ZUSioUx9OrzeepBFQYQMw2UAfWnBdw2/5g+DMgodPFnXGGrMF7oJzj8KhR6wxWYdRdusrtDKqx0gXaPuaDQZxYGD4OiwMI4w0ThYKqw7ckHI3UMTquIxY4hrH9YeDMfqAag7ezbWDMcXGyOuY8Tjk5fdQ/J1snD8jReSf005CT++vCkwfo7BP6a2DfLPXp3TN4ytnZLJ/Uq10NWxnjEwNhvFjsAHx9WjY8QLn3sQ1B64j9lAPKA4DlQYxFwf0nAUTAahgDYnxz7juft6IlpwwCTwDNNeKaUqYof3zOahcYx9t8ln18Pw8F1DC2BB11iAxaTpmBHJ1DmPqfAfHHDGJuglUCyg5fl+Y/UQ8A0zCOO/LiCknFBLTExFIJCGUiHM4VEiAD4zikDVUFQKlcdMQALtQW3+sEaNkm7wzO7KMiA2p6x5ubm9s76IDk+6UYvt7+sDnnpYOQfO3atUGl4XdjzTDUlodLDGKAaoB2Bk3gyX4rXgOY196Ocx/n3Kq4A8JJx11On17Kyemp3n26K7tPD/Xu3U05AcA9lNW7hxIId8xLbCWMZcQ9JEKB7+BeGb60hrivQJZ7SmuHe8h+XrslxD0ncVwMZKAMTIE2/Qo8lFGwwJeEugWmfCfXk4czUHWnnnOOMYiBcayC+T7Ow/lQ1gzkeO6550IMvcv5RxUtn+bPZUD8MYPYiphCRljba6+9FprXdKIBVAPYvjFgBqIxjKmIzC+B34fqBUbso2JaHXE8x+Dt0sQE8lQyPGaaoNgagBWVSzKQDeN0ZQyIgTdRG6hR/GJ6xQGqQdkZjHnfqvj94OvP+lzkKGA+w7p6NKdRivytTPnJen2A2MnK2BAFaukgRgmz73cBsc/bt1/HkOegbFOzq2X17qWsEKLWXT2yeqoHE/1koYKz2uOHsSEAMOFoqGA6yICgAYwC5j4CUgDLa8oAQOUess/32hCOQQwcvZ9zYIHxnTz0gSZqFkDzfdxXbC7KHtfY0AW2BrHhi+pFbfPdBrZVNRETjKhjNB0DaBhZmgFxRhF/LB1zH+YJHtok0X//9E//JFa7BXxAFb/YEHaOCopBTAVCHQFVlC8xxsCUyuEKimLi8zNnzAzgRA1hZ7CPEVM0h/05gJwOZSpoegLSfA/7ATt+MXYDNgUgPRBoDdkPygHvz372s/bE0vVMHMPfefrpp4fID9Qw2yi4GMhWxgAZGANM1KthHEOY/bx/oOTPd/Y+52M+4t59c9QnpL5hZQ5W5ciiEy6sVZcoX3fIca1JvMb7ZVgyo+LolOPhwn0xaIGu1a6tKO41+7m/vIdKds79NnQ7ywExDyt8Z2wHHsqUBe43kTs8zPke2xjAFiA7B8a85n1/L+8BZ0MdNUwrCRDff//9YTRmBsIHhjCc4F+ms+5jVMURg8MmBZaRayhaIIeKRblgPwA7wGlVDJCBMFBGHbEfKFKx6Fzhs3iAtimoYCidaVOnBc+YJijnIJoCyAAcOvGolChdUjqU+U1OsWqmcw9VxTI4qNcDQTj9vRjGfIbXHGMFTM6q2AyR5SEDPACvQextQBzD2CCOFbG9XeDp5H2GrF9/mJxzAHSWSArLIjH7Wp8+CpO+p1biYNpLQ9f2A6/pBKMlQlQCczfwd9GpCoANWu4dsAW67CNxvykb7Od9AEzyNvc6Tn4QOwealA2+k+/v16+vzjzrDE2aNFFFhUVBdXNM7CnzOk6oYCDP91g1G8JWxNgSRF7QUcfgmg8jSg7lYzIg/hgh7CdhDGP2MeoOdQlQgR6gRCWle8Z0olg5AWISxzkuFOuAyguAXRGB9hVzrwhq2yFtABwlBBxQlfjNQJicc5DeD8j8Ro4HxoQqtba2BhDHkGUb0KbbEj7GEI5BzD4GvNBRhVoHukREMGmSAYzXSWIfifexKQCxO+yAcQxWQ5ic/YYwOa/T3+/sswDYvnAfBnQECHesvgGMQ4osCABMhyodcXTCEZvLb6Xlwz0AuFbAQA7gcn95j/tm+JLH20A4BnEM53g/58RqWELscGoV8Ly8RaquqdS113WsHg6EeajGMOY1appzs01K76yz1+ylkeiooyM1M6z5/dWwOZBRxB8zjDtTAoy6o2kH4OKQNitioIylAPwMYecoK3rF+SzWRlwZ2aZiA2GAzXEcA7BRSviT5MzHwKRCwDgGMud0sjImt4rmvKzCAEStbGPYst/J0MWC4Fg6K5kYibRu3bqg/lHoqEUsCHxsAAx4nRvAzjsDsQFroBq0tie8Px3CPi5+PwawQUx4F6txOAStPfqBBUNTipiHHACmIy6ep4HWDrAFtNwbHphAlnvJvXarh4dpDF+22ef9fs/qmHOxL06Liai4+ipde8P1uvraq3XV1URX4D1fpWuuTVYQR+06AV6SPWZAzmtUMAmbArCnq2HikP/iL/4irFHH/BKZieAzIP6DbRJhUeAXUxkZyYSXh61AxQWkgJgZ3FCwQJSKS2Wm6cpn8FGxJlCTBnFcObE6APbUKVNDhAbnpNLTaUQCfqhQBn2QADMJMJIM6VgtG9D8RkAa2wtAFwAbyoZwDGu2mSaRio1XagADYbYBMdv2hQ1f51gTBrG9YdQwQDV0Ddd4Xwxav8/xTt7nzxjA5ECYMC9DGPC2gzilgIEwDzg64vCDuZ5cb+4b98wQBpps+16wHYM2hqoh7Jz3uL9+TY6iJnkfx1QvWazqpUu09KqlWnr10g4YX5uEOxq+BjDwJQFjVLAhbBDbG45hDIiZq4KlkZhPhX+diY3Mvg5AZ6yJT6AadlOFm0OEAKoV1Ymn6w42YAcYaYJTca2GyangQBiYET/sikhOZbTqwnPFL7ZFAYgBN4MIgA6fpwedTpwYygZzOpStnFHHVFT8YqyIGL7p26hh9hHwT6gTdovVLuA1fJ3HloQBTB77w3RG2ZYAslaxnYGVv7MzJezPGLYANwaw98cAtvolJ3lYMgDmmmJDcH15WKKCuR/A0wDl+vte2geO4Zu+zecNW6BNBy+/i3LCfr6HhN0RjqupVvXiGlWRltZoyVIUOGFvHUC++pok9A348rtiCGNV4BUbxumRFFbHdNRhSzDtJXHeGeB2APdA1yID4k8oiH3D/ue//yd0VOHhEnbk+SgAMrYEio99sVfMNpUagLsXPKihFIhpvlLBADY+NB4lxwJmKjRWCPHFQB77A+VNAsjpULZStlq2UqbTkIlj8IsNXytkIiGIrCAxM9ojjzwS1D6qF9vBHW/AN1bFVsL2hK2AfbyjJuwPY0nEKrYzEHe2L/4MYEPxkmIYe18MYjxgkkfFYUMAYB4KzOUAEA1GQw6Ycs25Z9wPgGk4k6fDN34dg5i4cx5SXHfOxfdwXn9fZSWdfJWqqq5SZU2VqkiLUcg1qqE8EOKWik/mYc73UE5Qwqhj1PAHgdiqGBCzIgcrNjOs2WU5kx8YyBkQf4JBjD1BQjWiNohSmDJ5SoigAMRAFthgMWBHUAHjRMV25aaCU3GpYK7obKOsUcTAGChzHj6DT0yvOpADxiQUcjqU060Lgxl1jPp7/vnnw0xqtiDwgf/+7/8+KGX8Q34D8Lb6jXMgHFsSgCZWwdgQwNfJscQxiG07GK6A19uxwo33G85+39A1jAGyARznQJgQNIejcTz3LAajQcu9AHi8x/UGmOzzQ5KcxPVhv+9d/JpzWe3yeewmt4x87w3jigqgzLSq5aqoLFdlVYUqFhN9UaXqxdVactVVKq8oD+UAG4wyQmREDGJHTlgRx/aELQo67BiZR+uGvoKMP3xg+MYPpgyIP8Eg5kYxLJTCTAwtkMSHxSumgw144oUyHJVKyPsoYVduKqMroisslZfKHNJi5quo0IKF84OFgY1Bs5bPo7JR2zSxASA+NQlAkwAytgWWRbpt4dfYKVTot956K8QX80AhMQEM38/7AJ7zdgZgg9gw7gzEwBcgA1dmJePhwTa/Pe6kM3wNWfIDqV0DGOCSYhCzHcPXNgQ+sKenpDWBPcODyJAFlPzNXA/uiW0I7zd4aamw7Yclefv9Sq2sYQDzWSf2cV5bU3GewLlEZeUoZdZGBPwlqqiqUBXwX7xYU6ZNDfeTVgcg5jdgYQFjFLEjKGJVbJvCFgViARA7fhhrKoZNZvvAUM6A+BMOYqvi//rP/9JTTz0VPFR8VGwE7ATUH6PwDGI8xhjEVkhU2BjGicKq0uIlKLPSZCL5ycksbahtzsH3ADZUpWFoOBrKsY9s6wJA28pA7dJ509jYGPxCKq0VMACl4scQZtvfEefs59jOFDGeMMvFM1cuiRFqwNQgNoTZZ7jGIAashq0h7GO933k6hB2OxoAMoiF4sHAPuNYkIGq/lXsAgHlgcl/8HsDjGCcr4RjAbANb30fOzTbw9cOWnIe0R8a5HJAXF9MZW6jSkiIVlxSHfHFRob49e76mnnqWTghLRR0X7gUPY76PhwC/zaqYaAoDGTWcDmJUMfNLED/MQA784cz8EgeGb/xgyoD4Ew5i3yyA/LOf/kzLblwWet0JPcNKwC+lk8Yxxs5dCVFkVPq4Age/sLpCNYuxKxi5lYS0YXGgijmvYYz6Jfgfi8LANCCtjtNtC6tlckAN0IEMERYGOOfw+QzZzqDsY3iPxN8be8TYEjwoPHE5y/jgzQLcGMQxWGPYWuEatOSGdWfvAWJUsG0IOuJ4CPCaByOA5NpzvXnY8XeTG8C8xzFAzuDtLLcitiVBbvhybidDmPcBKP40g0SwnNw64sEQtosKVVpUoOqyEt2Rn6eVI0dr62nnakTPnhrYj/k2BoYHKK0toM/vilUxyhgY4xen2xRWxcQQE0vu+GHKrctwJj8wlDMg/gMCMepi165dobmL+gScwBAfEkVMhbMydiVM9wqpzFVVqGOUFEvjLFDNYrzjZLVe/GJgzKoeQJ3zASaG4qJGAaNBDFTjxG8ByqQY0rzmM+wDpv688xjEBq5z7IgYvlbE7qhzB53DwwAj4XeoYABt5cvfYNgatN4XK+L4mBjEVsIAl2vBwwng8RobgmvPtQa0QBGQAjMeggYh1x612xl44322JlClBrEhTG4VTM494l7zGfx5HkjEK7PP34sC9wN60dxZunPyBG06c5De7n+y1h9/qi7IytLx/fpp4LEDwzl4CHNuvpvfZa/YyjjuvLNVAYhRxLR+iJhYuXKl/v3f/z0D4Q/JlwyIP+SF+iQ8zVEX+MUvvPBC8IUBMMBCeaJiqHCAk21HV8RAtjKm46a8olR5+Ys0esyolCpmKG1FCHvDewbyeJx8Bs8Q8NgvjmFsmDq34iX3Puf8VsDqnO04GbjO06Ebd85hR2DLkDzBD+AErihh2xGGrQEb54arVW78Oj6Obd7DB+Y6YEMAe9Q+1wg4kgAvORBGsRqGXEP2WV2Sd5aAXgxhg9jn9fdwbkBJy4VrS6gi+7hugJjrBIQpD078zjFjx+rEAX1VlZ2ttgEn6cf9TtBDAwfqa/1669h+OTpu4MDQB4Ga5vP87hjGnQHZdgUKGRgDYhYKpU8j01F3YAWczpMMiP+AQOyb92//9m9hUpVLhl4SFB/qkGaplQ/+MR1hhEwBg9LSYpWWlYRUVpZ02pSWlWratOmaN39u8A6Bc3V1VaiAQBhljCpGHVEhCYuiyU8n2AeBOB3CBi+giOEabwOPAyWr3jgqAvg6VpjfRDJ801VwDFh3rqXnKFsnjo9BTHMfxQ2A6ZADftgQXBcD2AoYVWwl2hnIgJkhbHXM63QIA8AYwFbBtiS4R/xGbBFAzL3nd3Fd+G3cd/bxW5ivmgfXV77yJ/ry5z+redl91Hjuhdo78GTdOuBY9R/A2n05Ov6440LrKh44xPfyQLAy5vcbyCjj2K4AxHjEzMRHiKLLayb/YCBnQPwHBmJ7bgyUALgGEuqI5ieJikRYGVZA8ApLilRSmkplRSopL1JRaYkmXzZJVy2p1IJFc5WblxsqHJUOVU1lJgFjq21AiiIEjFa5HyZPBzEPDidgzDbndAK4hq9zK2CrX8Dr0DRyQzj2gg1U8nTwxq8BMLAlse3PATpUMAAGeJybhxvXGMgCXWDJNQOQQI/37AMDWiBreHk7HbxA3IlzkWIQc26+DyiyzXfSIcdv4sEAcHmf+0aZ4DfwW7hvlAGiOLBRsFQG9O6pm0aOUOO0mVpz2rmafXoC777HDggDTohNB+zEJaOiOTffaUXv3w6YSf6bUMZYE0z2Q5QM86VkAPzBAPY1yoD4DwzE3DhgTGJWMoYyAzoULBWRioOKJcwNwAHlwsJ8FZcUJqm0UMWlRSGMaeqUybq5uEi582Zq/nxmaksggMqjEnJOlBdqm3OzD4ABLKD8fso4BjTHxWoY+NpmSFfBhnGcA2EDGBVMSvd/sSBsQ8TgZdvJ8LXyJSfqgb8H4JLYB4A5Fq/18MMPD4MyABTgtd1gpQgU2c/1AYDsj6EVK2CDC3gZaMA6tiMAMIl7AADJy+POuQqiLap06mmnhAgR/mbAz30n8TuAMOWCeGY8cx6efXong1IG9u6tr198kR5dME9XLZynuYtyNeyyy3TmWWfq3HPODg8at4jcccs5+S08IPjb+H3e9kODv5MBHQzi+PWvfw1XMiD+LdiSAfFvcbH89Pqk5HSGMDsZNgS+LtCl0qCCGR0HwMJKH4X5KglhS4ZxkarKSzV3xnRdO3m68seOUUVxgZbQOZOKYQUuc+bMDR13eMTA2M1cBi2gQHkAAFx32MXwjbcBMV6wrQirYCDc2b4YzoawbQhHQqBOAabhy7ZTZyAGsOkgjiHsOTaAsW0IRsXxdwA6FCe5VTCAZBv4AkDeB1CGrQHs3OA1hMkBMJ8HKrEPUAAAIABJREFUmjzkDDnOA/hiEDPYgu8oKy9VdVWFzht0XnggXT5tugoAcEG+8vLzdPnlMzSgb399oUsXHfW5z+qLX/y8uvfsoeP79tepxx2nOUOHq2r2HC0uK1FxRakWlZYqryhPs2ZcrokTJwQbg4FCRLoQjUNoJGWL+8/f7N9o28S/k7+HSeCZH4X6kQHxh1fDvl6Z2df+gGG8f//+0PQlNpeBHUAYRUzlxivFXsgvQgWXqKC4SAXFhSoqLlRlaYkWzpmjpROmaPrJp+nyMaO1uLpSV161VIuvrFFVTbUKigo1c9asoIqBMU1dFCGdVDSJ6Shz5xxN4Dilgxhoo4qdDOMYxOnbKPoYxEDYHXEA2Eo3PQe4Vr2dbQNgQ9hqGPXL30QTnjhkvhdFCGwTn71jgh6AzAOPxHsACgAD3TjF0GWbY4Avx3BeIMf3E6vNfeI9IAzkyior2lNpRblKK/D48fqLVVVZrsKiQhWWFKmQqIm8PM2dOSNEq/Rg9ryjjlJh12N0w3nn6sSvfkUDGOF3wRDNmzlTNZXlKiWiglRSrMLi4hA5M2361FBmUP4AmIc7URjcN8oRD0ceGvFvRP3z9/ObmbCfUZMWKRkQZ0DcXhhcKD7NOT3Tr7/+evD1iNNFFQNMVAwwAs65+XkBwgAZEBemAvvz5s9X9WWTNbFvf53eo6dmz5yuiupy5RbkhslhKqoqtSg3N0RNAAp3CqGOsAaACEq3Mxinq2RUMZWa4w3jznID2h4yQLQathdsHzhWvgDXQE5XvulQNohRv/imgNDzQmCBAMjgrRcXJyo05c8CTzf/AZDtiVgFdwZi3iehJjkHnWf8nShuvh+/l/NabQJ2QFyeygFxSVmxirGVSvCgC5JBGQUFunbuLH1v1FhdfsppOiert6ouGKxVY8apqf9AbRs/SdeeP1gzxk9Q/qJclZWUqbisVIXFReHhPH/RQk2fOUNjLxuvEaNGamRqQVge6twrWhhcKx56ROag2g1ifiMAZl6Jl19+Ocwp4f6LIIcz1sRvxSGuWUYR/wErYh4yWBQ0C0eNGhUmBgLEKFjARDMzBnEC46TjbtH8BSodP0ETGHF22GE6beAALVxwhUaPvTRAgCkTyyrKg73BABK8QzqDbFHgPQI54IoCjhUx28A4XRnbpuAzcTKUDWIUGJ12gNEdcygzoGA7Ih3EhnE6iIGJYWwlTI4dgY9KpxdABMCOEgGYgBbgsI0aRAEDTF4DTQPWIEb1GsRs45/yeeDFa0IK+Zv5Ln4jyhPrCKjbc3WTv7yqUiSAXFLBnCHFocO1qKRApYV5un7eFVo+eoLePONc1R57klacf4EenTpVdVctVevEadpw3mA9NHOOrl+0SOUo3xJaQrSIirQgd1EE4FG6ZMRwDRl6cZjelJhvri8dfPxGrj/3BhAz6RS/FTuCaAnmCqFF5jA1A9j5p1kAHey/LQPiP3AIUyBQIkymDiDppKNJDYjxcfGKUXeFqR79fIBSVKDCInrY52vB8FGa3itb5x1xhE76/Oc09qLBmjVnpsoqy1S9tFpVi6sDfOi4Q2UTnQHoaZ7zXUAMpQpgYhB3BmAgHCvjdBAbwo6UcIyw7Qj7wp15wYYvuaGbnlsBA2DsB347ShhFitoDMvxdABjYuOnN9QPC9oEBq+ELeBnowGgzEkClVcJDEXjxMCJHYaK8gTDWDq0KYE5yh5dtiQBjJuWpLFcZVkJFqcpLi1RExEtJkW6ZNVdrz7lAbcd9TXXHnaB3Jk5U04zZap6fq9dnzNY9Ey/XkoW5KskrUEFhrgqL81VYXBBaOrOvmKvxEy7TyNGXaviokbpk+LAA4fMuOD/YD7Ry6AOgFUKrhHvkv4EHFX8bIWosFMviBe44NpgMYXLvy+QfbFNkQPwpATErQNfX1wdQYlFgJaBmGPWFygPSQdUR4lZUoIKSQuXm5als7hxdN2SYFmb30YjPfVZnHvlZlc6fp+ol1apZUqXqpYtVXVMTzgGMScAYOAEm1Ko9VdsRADkdxLYlYviybSVMpXcnHUoYEFgNA2Kr4RjCKGLD9sOAGBUMDPGBmReCc6HygS/XxhAGhECZ6wZ4uHbsM3xRt3ECxMAUf5VzAvgjjzwy5CzSiQWB8uZacf0AbgxfXjtVVFeF72of/VhZptKKYlWUFqmggtn1ivWdKTPUdNyp2n/SmfqHK3LVUlqq2stn6+GxE3X1zCu0cOEi5eXnKr8gT4sK87SgYKHmzp+ryVMna+ToERp56Yj2JbCYU5r7xkOOBypWEPeCByb3EIWMV8xDGHXP340d8S//8i8BtBkQfzBkP8yDKAPiTwGIudGuEEw7iY1AsxdlyUxoAIUmNbAJie3iIhUR8J+bq6pp07VsyAiV5RyriV86RoOz+qqwIE/VTJO4uEaLlywJcMCWMIzxiwEXShGFidIDpK7AVr+xAjZ0YwCjgkmGsNVwOoiBBDAGGFbGnVkTMZC9DaxtQzielpaCwUuO3QBsUcJcI1Q/fxv7gaStiBjAbPMwomOLjj7gTrgY0KXzD3XJb+WBAqSLS0raARzmBq5iPorEazWI6SQNipjpKivKVIYarihRFVEvDM4pytf3J05Sw/En6x+vmKdNF12ilZOn6euXT1dl3iIV5S1SwcKFmpeXG9IVC67QlOmTNHIUK3NfouGjhmvosKEhzhzQ0mrit3N9uQ+od/4ebAh32AFi4qdR8ZQjHkysqciQe5c7wyajiD8amDMg/pSA2BWBGE6GmaKEgRnqElUHXABLSMGeKFQBc1MUFih//nyVjB6rqnMu0Llf/Kq+csSRIU4Vb7K6pgNCNNUBMNYHShJYUSlpshLyBRiBrdUvuVMM33jbILYiNohtS/A3oIgBBdCIPWLUJ995ICADYJrZeNks1gkYAQ0PJsMXlWcfGMig9ElADyCiXIFwuh2BJYGdwd+C4uU7+B38HQCO7yEZYpWci9BAlipipYwA4EpVVlepoqZalalUXlOlMiZvrypXRXmZqstKtay4WItnz9WivFxVFefr3svGa+PXTtWLo0fpzklTtWTBHBXkLVBu7gLlLrpCuQvna+6ceZoxfYbGjR+riy+5SBcNuVBDhlykIRcP0dnnnB2uKQ9PEteY+4Sdwr3lfvKahwjv4xdz7djHg5i/+8///M/1i1/8IgPig8SPDIgP0oU0CD/u/H//53/DxEDABAhTmVCyvAZA5IYx8adJKtCUCeN0Tv8B+tLhh4eBAninIy8dFY4Ftqg/YATQHfCPRUGlZB/QAUZAE7ha/cY50DKEDeA4RxUbxDSRDWODGEVsayLOYxADX/vE2BBYAyg+mt/45lZ0gBY1y8OFv49rwvVhm30oVP5eQGwIY024M45ONqwGvo9z8+BD9dI5SmsEe4jRjWFCpoKCEA4Y1O7ialVVJxMvGcaAuGxxtcpqqlRSU6mS6jJVVVfo+spKfW/BIq0ePk7fuOBi5eflqry4QLfMuFx3jR2tmpnTVZK7SMWFi7Qob6HmL5qv+Yvmae68uZowcbJGDB+pYcOG6qKLLwwtI2wGoItFQ+LhxvWm1UILgXLC7+bv4n1UPfcUhc/DhuvI5wmNpDwwAVVGEX80BZzOiQyIP2Ug5gb/5je/0UsvvRR8PeCFigUyKFgSMCYB0ACm4sKgtvB2P/vHn9NnunwmTB4DZLA5UElACCgBKRQ2HrQ7BTkX3wEwUU9A1IA1iGM4s41yjFMMYR4gnIMmvX3i2JpAFQNfw9gg9n5UHOAAwpwXFQdogawBjOXAa34714br4M44d6IBYFsS/P1OAB0g0enG9eE130HzHaABM2bHA8QMEQfqLEtUyUT81ZWqqCpXVTWwL1dVTWVQwyhhwgXLea+mUndUVumpSdO07dLxajtzsK4/9TQVl5SqtByfuEhlhYtUVLBIBUV5ystfqEW5CwKAJ0+donGXjdPwkSPDvM/8hvPPH6QzzzhD3Y45JlgnPKB4yPkeodopC/xu9nM93aFJS4LriO9NznBvIM29f+KJJ0LEDjA2WDLWxEcDcwbEn0IQUzF+9atfheajp8tE7ZAAcayMCwoAVL6KSgo1Z/5cDRjQV4cHEB8WhveimFB7QMrqkKY8oVjEKAMiIExFpkMHFQXADVlX9vSc9w3fzlSwIQzwUGjvB2IrYL7XXi1NaX6bfWDAS+LvAMZcB7cUOAYbwuDl73SK1TDbKGF+O38rEOc87OO7aNIDM69QAqzwnFnGvmbJ4gBiQAuIa6pZHaMqqOOyxVUqxZKoKtey6go9On++Xr1wqFpnL1Dr/5+4vfGEM1R02pkinriIQRTlZWGYekER4XT5QQ3PmT9Hk6dN1pjx40JExLDhw9sfCFglXJvDu3QJ95R7xHXlnvDw5YHEQ4S/i4cpDzKUMNCl09ET7jtn2Df3h8nh33777aCKMyD+aACOr1smjvhTCGNuMEvTo2BRpTSZgSfwMYiBJ1Nh5hfkqqAgN4S0zZg+Rb16dtPhhx8mJlmn0tHkBlQ0y1GFqEQqLyoQIJGjkgEcKpEOMfxclC2V2xBm28kQtvpFiTkZwgDYEOZ82CxOsRq2eqOjjAgOHj5AEvDym0jeZr8fSOwHlChWg9edZkHFphbypBnO38z1Qj1iyXA+XnMurBpAhg3BYAiOYdBGYnFUhgn4wyT8i1m0EwB7Ic/K4AUvrqjUDdXVujd3gdYMG669A07U/mnT1TZlmpqGj9KGs89X3oXDVcr8w0C4okz5ZUXKK0w9CK6YqxmzZ2nS5EkhpJDWBC2TI7scHu5FVu9sffFLX9RnDktaOlgNPLy4Tvx+HqzYK3yO64pi5hiuJx2QBrBzygWg5m9844032uOIKXPxP0Mmk38wpDOK+FMKYRd+Rj0BS2JlaSbj6QLNdouiHcTEGtOZl6sRI4bpq1/9k2BPML8tlY7PGMJACTADNSBMQhXT/GcfQMUaQMUCXCcrX8OXik/ieMOX3CoYCKPQYghjPwALms+oPNQd4EcJc37+RhQuDwpygxjrgb+ZvwOAAlL+hhjCwDgdxLzm7wXYKFz+TrY5L+fh4cZ+1PDwkSNC64HrYZuD6Ai84ADimkpV15SrsroirBe3pLpUV1cV6y8KcvXi5GnaPnK0muYs0E8uvlTvTJym1guHa2dRkbY99qjmTZ+VjIorK1F+abEWFuVpQe4CXTHvCl0+c6bGjh+nU047VV/84pfCwxMroctnDgsg/eKXvpQAtUuylBQWA9eOFg2/E2uFe8R15/ryHjHXwJwHG/YE5+OhTHkAxACa602n3T//4p8z1sTvyJEMiH/HC2jgfSLz/01G3RFFweAL/Eua0cDDMMZbbFfFhXmhqZubu1Bnn31WqIBWQXjNwA31BLCAE9soKvuknNedXlRke5GAN4ZvrHxjCAMCEvAl2Y4ADk72g1HBwJ4EzIEKgESFGsDkwNIAtkrmd6dDOAawtznGib+ThDpmHyDmfICZv3/8ZZdp/MQJIcSL2dKIvWZ+5+pgQaRAHLbLVVVVpmuqKnVHUYGemDJR68eOU8vM2fpxSbmaZ83T3ikz1bKwUI333Kvm9W9q5fPPav68uSorKVVBWYlySwq1oDA3dM7x/YOHXBQm9jn8iCPUpcsROvLIFDQPOyz4up/74z8OqhZFzP0ExNxPlD3XiBYPIOY6ct3dKQqQsXiIPCEqxirZMGYf5ampqandnsgo4g9Wv52xIgPiTzOIU/HFLOIIXPAvaUJTeTqU8cIwF3EYABCG8DKXbaFmzLhc/QcM0JEoq8O76LAuXXTWOWeHyYMATVDHSxeLCeZnzp6hqdOnaubsmVqwaEGYkIZmKxWVigxcrX6tgA1d54avAQyEHa6GArYPjH8JEPAvgTKxrgARZYfKJQEXK2AeDoA43YbgesR2hLf9kPFrrhMeOarREROAnO/A4uFa8t6cK+Yqt7BApdWVKqdTjnhgQMwIORRxTaWWVFZoaVW5bi8r1cNTL9cbl47XrosvUUtRkRrmXKGGCy9W46Tpav723XrtkUf12po12r5jq+5f/tdaVJCnorISFZYUh3kiGKo+b/68YPt8/gtfCLbDZw47TF2A8eGHB9UKMG0vGMKoWloQXGd+N9dr6NCh7ZYR98etEq41MCZxrXkY8oDl4Yd3TMLeYFFbLxKaAXEGxO3No86eOIfqPjru/vM//1O1u2o1Z/ac4GPSlCY4H4UHpOwZo2YBGCkvPz+Er3Xt0V2H/9GRoYJ//otfCB1BwDeAbEmNapZUh6GzU6dP0dTLp2jmnJlalJ+Aj04rmrVAlModK2EAbOvB8AW8JBQZCT8YCAMAQADYaSIDAs4NBPmtQBa1TkIBo/b9t/E3ARurYCvh9NcGL38Xap+cuFp+Bx1agJfJz+mw47NWxFw/fkM5AzAWV4voBzreykM0RJXKGSSC11xZrpvKSrX8ijlafclIbRs8TP900+3ad83Vapu3QJsuGaWd112ndU88rp3bNuq73/+uNm3ZrLfWr9Oym28K8PVsaXzfvAXzwzUFhlgFwPfIz/6RDj8y8XSBMNeeZEuBfahhrCauM60IWhDAlBhhD77BxycyAog78fDjPmBHcL+ANA9Drg/r1nU238ShWuc+yt+dUcSfckVMoQDGzAvw1JNPBbjgZwIxYGyLAlVJAlwk4ovnLVig8wdfoC//yVd0BMvVH95FvbKzgi+JDQCEa5bWqLKmUvMWXKFJUydpyvTJmjV3VoATkMKSICaZSmz1awBb9ToHvBznDjlyII7FARAACiAAtoAQODpn21aBLRL2ARpDl9zb/P74tQENkOl8A1R4pMCJv4MIAUCMKuYYK3Cfv7qyKgzOKFxcGeKBSxenYoUrKlW5ZKnurqnUSyOGqem44/XTogq9MGSY9ueXasfxJ6m2oEgbH31Ya1f+SLPCbHmL9Oa6N/X40z/UlddcHaYjzSvIDzBmalLuHdcMn/bww7oEZfrlr3xZn/vC59XliMTHBZw8uIAl8OXacTxqGF+d60xrgocUnYtEVvDAodMOyIZzpzxh21NAHwjTIctx3AvOw+/x4A7Km/99FCAdqp/JgPgQALELN/PFstw5apIOPPxFg9jKOAZxfmGh5sydq5NOPUX4jJ/pcliwKVBPHBeGQC+p1uIlNWFimplzZ4YQqukzp4XzAkk6z4AaKhaVhYIyeNl2svpF+bozjuPpLAIe7EfJA0ADGIiQ+C1YCH6woBjZH8PW0E3POYYEULkGAInvpDkOoIA7ChkAM6cEHjFq2d6xt5kjooyVNYIVUaWqqmotrazR7SXFenLadL026CK1nnme2vodp7fHTVDbpRO1acxl2nXffXp99Yv687vv1P3336O3Nrymp557WnfdfZdKmEO6kLlBCsW9YFg6U1cSBQMUAeyffPkroaPyyD86MjwoUcRAmGuO5fDMM8+Epe25vsAYhcwDBsuIv5W/mQEogBXA8uBhcA4TGH3rW98KE/zQ0UtnKJ/ngUj54dowTwWDRPg8q8XEEAYsLneZ/IPtigyIDyEQ4+Nt2LAhAJgwK6timvEGsm0KVCdAo7lP6BsqKXjFhx+mL3zh8xo7erSYmIZoAEDMIISC4gLNvmKWZsxO5i7mvJwHQKKeaBIDCXuPANfWAznq1518HIeaA8YAhd8F2J34XUCS3+0HCt8FgIGqAQswvW01zD4Dmfd4zdwKKEW+HxgR+QDwed/Hpuc+Tzg/gzFqSOWqrCrVN0qK9Nj0OdowdLjaho9Uy7gJ2j3oYrWceIbqx03Qxutu0MtPPK4fLL9PDz3ykO6++2499vhj+qu/vi+0MPCCmfgdOyJYEuF1sS4dMya0ELiGPMSyevYKcMWa+OMvfF49s7NCx+xdd93VvoAnA3xYT46WCSDmPvB5Wig83PCKUcP83Vxfd74Zpv/4j/8YVmamdQOMORYIU4YYMIKyZo6T9H8ZAH8wgH2NMiA+hEDMTWcFaJZXAjzEvQJjmvIoSvuqQA+VCYipmABu6CVDg0Vx5BGHqyuqaMCxKstdqCpiY8PkQDTNK5RXkKtpM5K5i1HDQNKWB99JZUbdorBIQIEmNLlDpQAGx4SQu1mz21UwvwMA87v4jQCexPlRygYuuWEMPA8EUx+PqqXJTUcVDx3Oz+fjc8QQTj9fcp5y5Rfla/bsmaqaPFGrxl2mhpFj9bcL87Wv+ko1DBmmpkkzVHvVddrxw6f03HNP68/uvls/ePhBPfXcM7r/gRW68eabQodcMZ1ypYA4lVLzCOMLn37mGUHtAmEeUn/6leQ69ujZU5cMH64/u/MO7dixQ8zG5w40rClgynWiZcJ1B8TYCkTTcK9RtsR733nnnWHNOQPCOeej3KCmgTAPR4OYczz22GPtCthA9mcz+QcDOQPiQwzEVMqf/+PPddttt4WKxLwBABMYG8Q0Vw1iwEdasGi+Tj39FPU9+ihN7j9QM3v2Ucno0clUmUQFhGkzq8OosXkLO0bdeWUPzmcfFw+W5ixNY+Bn75gQKpq8wBCA8xCw/cBnOQe/zQ8OYAw0gXA6KGOQxuA0fMkNbzrg+J2cD5WLB0zuY9PPHZ+P9/iuuXPnaOSYkRo6YpiuvXCwto8dr79ZmKefTJ2lupHj1Xjllap/9DFteet1vfjySn3n3u/qsaef0PJHHtJNX79VpVUVyg3LHxWHeGFW2Q4gTq2mgTVBrPDA4wYGJQyEUe99srKDVYDi3bx1q371r79uDyWLAch9/9u//dsQwkhrg5A0HnbAl2uI3UCrhZC29evXt3e+xedg6kvuDxAmAscg5oH+5JNPtoOYz/Av/mxm+/1hnAHxIQZiKgSV8m/+5m+CGsYXJKQN8DmkjeY+C1HmE1ecWloJtXf5zBm65PTTVX7muZr91WNUcO4gLUYRV1ek5i+uDhYFUzdyLnrlOTc5nrSjNQxQAIDKRakZ/sAX6Np64BgSn7EPzAODfRyXbkUYngYxsLWy9Xvsc2If4PV75Aav9/l1nNuW4HcQqnfJJUN1/uDzdfHwYbrtosGqu3SMmsZPUd30K7T7Byv07PLlWvnSi3r0icf01ob1emHVS7rtm19X9eJqVbQviVShkrJkGDbfXcoouuLiMKk/1wPlGXdkYhEUFRRq48aN+tWvf63/Sa3u3Rn0uOfsb2xsDMDFdycWm5YAD2JioZmQCWVMZy4j5viMP9fQ0BB8Y0L5DGJgjDrmwfnWW2+F8/v4zn5DZt+BYZwB8SEIYioEzdZXXnklRFGghlBCVsU09xctWqi8wtzQ3Mb7JeUW5mvS+DGaceaZmtatu2affYaWLl2cDNllEvkwhLdSFYwcq6gI5wPEDCRBATunogNlvpMHAPYIie30xG/i9/A+IEYVAycD20CNYcs2+62m2eb3eP/7fcbvkcfn5PMxiNnmtwIlfFKAdMHgCzV66FB96/wh2nnRSDX+2R166cmndd+9f6UJEydo6/ZtWrdhvR546MEQZ1xQWhL8X76L60EnKIAkRA+V6RYEDyqAz0ML6PNg47oQv/sf//Ef7RbEhwEdFgMdeEAYSwh7gt/P+XkoA3dgTIcd9w6lTeuJbf5G2xKGMTn3gjkn+P4MiA8M2/e7PxkQH6IgplBQKe+4444wYIHl01FG9l0XLlqo3IJF7TDOLylQfnGB8nMXKH/0GBWccJLyzz9PSwgJqyhL5lNYUh1gjFcMxFBxwBO1BYipxPi+VHJiV3kAAAEqM2rPsAbYwBqlhZLmd6GIOR9wMogN4xi4Bqn3kXufc7/H63TYAtz0xDE+js+i3vl9/D00zwOgLrpQFw26QGNGjtZ3KirV+NKLeu2tl3XTLTfr7jv+XE/98OmQrr3+ugBfVtXG88VuyM7KDp1gREIQ60u4GHHXwBbFSgQHnYdcS37bPffco3379oX7x31M//d+FZ73fvnLX+rWW28NnaN0kBI3zEMRyANjQAyQ2eZecZ/4G7ElHC3BPeNhgc3EMGfCIz/oezPvHxjSGRAfwiCmYrzzzjuhcgNCoGeVumDhgjAwgxWd8wrzlVtMHGu+SooLVZG7QDdPmqzrLx2jyvwCVVYwm1hVsCesigEXoETNARQqLLCnOQuMXdkJm2KbxH4qOr+Fjj1UIqozhjAgjmHs14arwUvOezF8420fZ8Cmwzf9NcfxtwBEIGQoGUxMun7B+edr7P+PavjO97+nbbu2acvOLfrRqhd1/4of6K6771BJeZmC91tcpCnTpuqEr53YPgADCBO764mWOC9Dj/Fy8YLZBnibN29+F/TSIczrDwM87jutC6JVCCcEtNx7cgDMfQHGfmjywPTfyjYWBdeCsL61a9dmlPDvyJEMiH/HC/hhCv0n+Riatq+/9npQnVQuYBxsgAXztTCXCcdzxWCC3MJcFRSznDueZa4Wz5utW+bOVenceaqqKFcVTfcQQ8uENskgCsBHcxpPFxhT0am8NHMBC4oK6PK9JEayoTRpeqOCUYBAmHNY/cZqON42eDsDM+8ZvIaxcwAbw9ivnXMcn+V38/sMYWBkRW9AnXf+II0bP15/vfx+bdu5TStfWam//P63VbO0WsXlxSopLw0xwcwVfEy3rmFY8mFdDguxuR50gRq2AvZ30Jm4Zs0a/fznP3+Xb0u56uzfhylvWFO1tbWhFUIEBp2m9nx5IMYtFv5O/kb+du4T9437w+9CnduW+DDfmzmmc1WcAfEhDmI8vX/713/T8uXLg4cLbIgrxaJg8MDCvFzl5ucpt4DOuyS2uLAwT0X587U4b4EWTpgS1larLC9ReVVZWP2ZFaABGVDEe6QpD1QBPBWY86OQUbyAH+uCxGv2G8KObY594Ri+bGNXkPNdzg3j9Pz9gGwwkxvMfJ6HBp1YdJLhp7INpAwrtq0Wz0XRjxim5SuW6wcrfqCrb7hGJWXFYQXl0ooS5RXk6dzzztMXvvjFMCSZ+TuYJwJfmPhcbAnC+LBkuGb8bfjAP/nJT9qvQR71AAAWmElEQVRtiHQP9qOCGCAC49dfTx7CWCF41Khh/iaUMbYLcAa+2Eb8Lh6m3BcGuRDqtnXr1rAQwe/yOzJwTh6omfmIMzAWo+6YyAeLIFgUhLQtXNAB4vy8oIyL8gtUVMAQ6FzlLZqnyWPHhol/SsuLAoiZ+BwQ05kF1AAxqpbKC9yBLJWZ5FU+UJtsk9jvjrkYxAYuefq29zk3rH2cgdwZiL0vzvnd/A6a7EAS24AONBLDrWmyW60ayLw+57xzdfo5Z4cRcaWVZcrDzuE6hSXtC3T2uWfrCCZa73KY/uhzn9XR3brqy6kRa0CYGF3UJn83AzzwgWmxvB+oflcA0k9AWNqyZcvCiD0GddgiQgXbJqJMcO+4nzyo8JgZHMQ8Jv596b/F+zN55yo4vi5cuwyID3EQUyCsjlCmKCKUKeBEmQFSVDEhbQUsORSUcb4KigpUVJyMZispL1FF5bsjCwAgFRdFyzmwKKyKDWTUsRUy3wkA8YUNYb6fzxuycc65SfG+9G1DOVbLhi7Ajbc5F54nrQJGoBm+5FgHQJlBJ/inQAr4Ai0n9jFZEiPh+L6ikqIAZeyciy8ZGiwIzsEIPjrhGFjhOR0APBAGcqhUABlX1N/HNuraChvgr12zNtwf/h579ihjfhctA8oD14wO3ubm5t/77/t9/M2f1HNmQJyBcKhQLDr63//138Hzw7+lKQoU2wd5pLzixPOd3950/n/t3dmOHdUZxfHXCC/BXXiHBClA2km4CA8AMQKEmCwwZhDIEEBiFNxwgRgkLmxksASxbAYDAiEhREzMIOwLiA0IhCBmcBxV9Nvt1do+bruHU3a7u7+Wdu+qOjWdc3b9a521v/3VFVfMRjKALqgBCTWssysgTpwwuIJsYGz/PYRNA7QLfu64E4NLAt/UzkfJPGhnPlAOjCeVsfNtwLz88pY/YuvWra3jyU/yXgUDsRwLICrKQAcWQAGvm5b1RXrwwR0jxwNgmeo8R+43553XrA1erCLXA6gLIQNl7/fpp59uv0yO/ffYkkLSxoALILsZS97z2muvDQ8//HD7hcQH3rRpU7Mhtm3bNuzfv384+uvRs35+Y7zHc3kfBeIC8SyIj1+InnW3efPmlj8gKihQBFSgMxqPnwt+gU4gRzEl4sAyMJwEMdhGEVPBKcAM0qcCcWCrdh59CZApb8ezTkCcevJcgdh6zuWuu+5q+RJkWKNYezVsGoRB00g0AFYA2E3LeTvGCRA+7ls7R7A2ijAjCY1oMzJOFjqRJKC3/1/728/8plKPzQ6+cHGei/DolfS5eH6r8ZwKxAXiuYs9P1M/+eSTBjOqL4MHWAQAB3jgo1MnHUoAB0L9z3xAngQxoINsr4gDYWp4PhAHrI4LaqmdS15L7fVMB9rWD5RznjlX50/5G2ItMkBUgFCxpI5kR1DGimHBlGsiCPxcD4D9Csj7te++6OCSLc0xbK/TT15mx3LDE47m5pfP3gXZ/61GqNQ5L+wJT35GvvPyiAvGczDWQPiTwqVk1VIoRrZCQEwRAxao9mozIA6IgA8EbWd7P92V3p4IiEFtIRDbzySAgVeJp2wakB1Xbf0AvAeyzidKldUgyZBkOMlOxh+mgJUkRqdgQZgK9kvBcbw/6h+IFe/fe7c8CtlNK8+DE5XAf7aN2FuJeKIuC8RLh9ckzFbzfIG4IHwChNOY9aTLRws8oAWggZwRWDqX4okCHPgExKkDJCAESorYNgAeGPcgBnzLe2vCMQPTQDjL1Cn2rfRApnhTrOc83UR4vKID5OwFW+AFYqo3GeFMJ1MZWIOwGGf7874U52m5sDZ2g/cCxM4zn43PIudGNfOBxQO72YGvv3zm6sm//rWaXruw9r2XIi4YnwCDXPASvQCJn9EgAy4gI9xMZxOf2Ou90jTfq0KvATGA9SBmT/Qddb0idhzr2ibQ7SGcZYGsuge9mGWl3w+Lgrrn//J5WQVgC8JRxGJ4vW40mxuNwscVS+sG4X15PyJLLGdZiP81CMOIOPv1Xilf+0g8sM9EQv59/9zXPufTwfZ0r+V7qXrtAblAXBCeF8Iuds8h27FjRwMuiCVVJChTgH52g9Op7AnLgQsEwRMYezUc+PY1QFsvyhaAU+wjEFYH7NZXwDKK2nFyvIzQ08EGroAJlEDcF3G8QCwhDhVs8AYV7D1QwG4clDS7IkORxf+aFobG6nBM0RCOIwxMbPbOnTuHI0eOnGBDxIooqK49qC7nOy0QF4hPAnF8Sw1KR5JefSAGXuqThWBYrM48ag9wY0MAc0pADGRgClJAmwLA4JaOOvP2bT0gDnQDYrVlUcABLfjap22zbyBWzNu/aR2MQBs1DJixIkREgCcAy8sbb9y5ex/m/QqIAk5sMTUMxrZzgwJf0RHOlQ0hp4OwsHymfb2cC7a2WZvgLhAXiE8CcX+xA8eXX37ZQAu8VDG4gRmvNWoRfOOdzgfi+MRRrWrgBS8lqhhMQTMg7mEcCEcJWy8QDsSdm2X241zZKCwUyylh4BW9ALqsCCrYNIVvuZFkwO1YgTCwsi8oX+BlZ4isoILN248oCsd1rCeeeKLF21LBPkt//Wda02sTptN8rwXiAvGCkKDoPH5HRjTKMMrPPNsBgAPiqGNK2XIwU+ITx7sNiHs1DKaASen2/i8o9hAG4EkIZ1sAdn4AzMvV0bhhZkMDs5uHzrnkjWBB6GgzwAJIbeM4eQ+mwZkXDLhUMBXNzqCCLWNTsCu8j9u23NYS6XgcVZTvNBdnbbt+gF0gLhCfFsQaCKjo5X/qqaeG3/9uNmsadSmiAoiBKyAOeGNZZN5P9UAYbAFTiRJOHUVL9cYnDoTNx44A4uxHrQTA4Juiw0yhjpM7AoCpYLVON5ZLOgedp/fkxuH5eoklpogB3LPesgyQQdi6Rp0d+c+RORsCRH1uBdP1A9NpvusCcYF4QVgEKN99991wyy23tFhY2brksg24YkuAMuAG0EBsOiDuARoY9zWgWsc+elUMwpZ5LYWqNm17lkCKQShC7ISqgazRa8AMxFQtgAIqL9hrAB5fOsdkw/CE87RjNx72hW1BWRw1wPPPP//88/YZ+pziB09zUda26w/eBeIC8YIgDhhA5r333mtKVQyuji+ApQh7e4I6BjZK1mvWMR2Q9uClhPv5gDgKNWA0D7qBr9p2vQruAcw2AeE89QM0WRBUMGVLzV/4+wtbjojkQLZPwLdPSW/AVygaZWwbYJYrWPa1m266aXj77bfnUkD6jIA4N618ZlWvP6gu5zsvEBeIFw1iDUwH1HPPPddUMRADJcjGVwVhtgQlDMbgC8QKyIEp2Aa+sSQCZDCcVKeO0YPY9jxZdgMVHC/YiDcqGFgDYSPZ+L+Ur8Q8lG4S0YOxARmKUDXAtW/bA7ARcZS/iAhqWkSE97l92/bhq6++WtLntpyLs7ZZPxAvEBeIlwQUDQaE7rjjjpYOEjSBkv0QVZy8C+AbBQvWgSkIAy/onQ7EwB1FHIjbNhBORAQlTPFSwYBLBQOwjkXQNSAlCc5NAy+ogq0OPPaD6AmKF9x7EFPFtnX+bkAHDxwcfvn5xBzBPhN/Bc71A86xv2vtp0bWFYwXDRENxs/vffv2NTgBI1iCLhUMxsm7YN5yAA5Ao4ajgOcDsXUo54BYTVnbB1CyDmJJUMSUMAArUcAATPFSwMCbRO5C7lgL/GH5I/i9Ou7MgzOIez9grzh3T6LgAycJeqPuPP/Gvjhrf+sH7AXigvCiIQwM+QNjj2WPrwqWUcXJRuZnPBjzib0Oun/+0+zTOALT1AEzCE9aE2BoOTBSwWCcohOOHRHrgQ0RFQzCffJ2EJYJjb8tDA2EdTiyJIBYvDBoU8TAf+211w579+49wfvN+5+vLnCuH3CO/V1rT6WIC8aLhnEPII/yAUjQihcMxnxiJSCmiqlMgAVu0AVgahZYTVsGtFSvdewPvBXbeR18Y0fM+cIXzarhWBFsBEo4CpjK1fHGhpB+kt8LwDrtzINwCqXMR1Zuv/329qy4dMClE65//5PTY1+ctb/1A/YCcUF40RAGhv7v448/bhCNiuWjUr/puKOGE7rWe8RAqwBvrAagTQmI4w+zKQJi8KaC+cIsCeoVhKOCewDnsfCAy4ZQgFgEBAVMHfOA1YDNY3YjcBO45557hsOHDp/02fTvf3K6wLl+wDn2d60tlSIuGJ8EnMU0NKkyKVOKFjyBE3gBOGo4II4q7kPQYjdEEYOtZdZhR0yCmBpuEL5ktnMunnD8YEl9ADUqWNSD2F82hM44ABbCRiFTzdajlM8///w2XJsSBnaQd+w3977ZHh+1mM+i1ikIT9MGCsQF4WVBWKPzcx08gYu6XQjEVDG1CbSxKWwXEMeWAGGWRA9i64G+gRoiJECYH9xbEcAaFSwaQg4INgQlbB50gVZomxFxRtUBtagJBaiFsYG049z39/vaaLlpLrDatgC9mDZQIC4QLxvEGtiuXbsa3KhV8KR82ROxJfoBHcAaEIMx8IIwyAK6ecutA8bAHXhbhy0BwmAqukGCnr5DDlz5vXncER9Y/C8V7MnLbBA2BiizKMRBU8vyT0jio0gGL7Mci8P5eFjmYi6kWqeAO00bKBAXiKcCjZCuO++8synI2BMBcSImwBlQgRhgwZYFAb5Rw6YVy+cDsdeAOMOWqWHKVQ5gKhiERUCAqexoQMsbVkRDUNM8YKD2GquCWjbkOQl8JPGR5tIyyYBA+6GHHqonFtc1MtU1shhAF4irkU3VyCQDohpFSVDFLAfQBeEexNQyCPcgBl2qU+lBHFU8nzVBEbMWDNagWkU6sBOo3CTjkfRd1jQesU453i/ggzW1y4aQMwK0k19YisukuUxWNdu7KXz66ac1dLmuk6muk4VgXCCuBjZVA5N/wrDnl156qSlecAVinXTpqDMPxIFxFLF1J2FsHswB0PpgbP3mEc9saIoYWI2QExec0XESu1O21DBLAohFQ/CQ7VNNHfOEDeBgSVg3jzsCZNv36hisHefRRx8dfvnlxNF0C11Y9XpZFUtpAwXiAvFUIE5jk5nNz3jQA1H2RPzhKNv5QNwrYtPsjSjiKGjLAmL2AsuAGmY5yAVBAQOqArA650AXRKl0+41q1iEncY+OvHTmATKfOIoajKljtWHPzttIwsQS5z1XXbAdqw0UiAvEo4BYgxRXHIsCvHpv2LwC0sAaJRxLou+w8zpVDMRZv4F4w4bWUSdczQg4ipffC6Kg6YkZ4MorppRZGHxl8AZmURI678BVRx3lrFYoattSwZK95+kbasd68sknK8VlXSujXSuTAC8QV+MapXFlBJoE6eAKogFxINz7w70Stn467Szv7YmAWMSDkDJwZTPooKOGdbpRskDMXqCIdbTpxLOu/bIygJhdQRGDN1XMLwZtYLbMvOU8ZGCOdUFx33jjjcOhfx8a5bOavAhrvpR1gbhAPBpcNCadd0alUbU9gHt1C7TgGxhTuylZzp6IV2z9Frr2h4taJx3IGhEHuMCbyAfq1TPpqF7WhTA3AAdk0NahpwCyTrzknMijkHTeAbF17QOkqWWg10m4Z8+esifqehnteulvwAXialijNSyNSeM6fPjwcN11181ZEJM2AwAHuOoMc449YRmQB8bWN6KOsjV6jt9LvVKqrARqVygbIFPIQMpOiDWhZksAsFqkhTA21gTlC+ZC2ahqtgQAG22nALbjgL+nMlenXanXHqBjTReIC8Sjg1jj9CQPURM6ywAWWJUAOGrYPPtA6UFMBWcbr8krIWTN6LkM2gBVxxCx8cEHH7TXREQAs4gKscZG/VHG8YdBWmcfoF999dXDY489Njz++OPDI488MlxzzTXNujCoQ+iazkDFNLBLh/ntt9+O9nmNdRHXflb/zaFAXCAeDSwaU/4M9NixY0ezF8B4ErSxItRRxPMB2etsCTDlDcsTQaXyjl988cWmvoXQKeapZdDlIQMxgINxbAkdfI73yiuvDN98802zUtgpyvfffz/s3LmzRVuAL5gncxtwb9q0qWVkK/CtfvCda9+h66aS/hSMR4FxIJz6p59+GrZv395gDH6ACrbqvgC119WZtl620UlnSDN7gD0BlqAJnv0FJZ5ZCB3FzH4QXcHbNarOMmpYNMWzzz47HD16dG5b55v9WO6cDZ92vIzaA2L5iT/77LO5dbNN1QXmadtAgbggfEbAomGJpAA24DSo4+KLZtNWguMlF1/SfF+QDIBNZ14988eZpmh5vBRxBlZk3/PF9QKluGWWAkUrdM2+WAuUsk6+zZs3nwRx+/Rnn++88067CQTE8lRQ4zfffPMgB/O0F11tX+CebAPaXinigvHocEk4mwZn+qOPPmrPuRM9QQ3rfAt4Wz2zoVkIbIQG4ZmZ9jQPHvDdd9/dPGcKmwoOMCcbc+Zff/31FuoGxHJTUNZAThFLAGSo865/7Gp+L0vD+anZKQcOHGjnSQEHxBf89oKmyB988MHh0KEKYcvnXPV4N5QCcUF4dAj3FyjImfcHdNSmwRESBV111VUt3pgNsWFmNq8xULMAtm7dOjzzzDPD+++/P/z444/D/47NwjL7648xOe04jkHFSpcZSyTDoXnMbAvnoKPv3XffHd566612PMemnhUdg2Cuvuyvl7WHhxpBOHm8mh8PSOv1sywQF4jPClgaiY97sUd/Pdo62ahkEKRgd+/ePbzxxhttXhIhHWmLge6pLlxJ61kQYMxjFqXB9wVhYWk69WJdiM6gmqXUtIwvHAgDsmiNG264YXj55ZcHqvxUx6zlBeTltoECcYH4jIMlEE691MZqu6VuA+JffPFF6yiMTywCA2D5x3xfwAVaFoTl6kyb95rICyME77333uHDDz+c6uaw1PdQ668fsBeIC8RLhtxSAREAn63a+QGxIlkPP5oq1imo409IGuU7WQLi1CI1rrzyyja82WCOn3/++Yx/Vkv9bGv9tQHrAnGB+IzD5WwBOMfpQSxq44UXXmgQ1mEHrjriQFitRBUDsKHRsrZR0SI9WBIPPPDAcPDgwTP+ORVU1wZUl/M9FogLxGseMPxiHX+8YDDO0z14xjrtgFcx4k6UBeVsWPbGjRvbaDpe9nIurtpm/YJ1qd99gbhAvOYhIzTthx9+GF599dXh1ltvbbHJFK8CzCIr4iODNU/4+uuvb5EX4pJjcyz14qr1C8SLbQMF4gLxmgdxLgZA1oG3Z/ee4f777x82/m3jcOlfLp0bXALCW7ZsGZ5//vkWNidULRBWZz9VF2DHbgMF4gLxugFMYBqF/PXXX7fcEcLlPJfOYA1JfQyVzrpjX3C1v4L4fG2gQFwgXjcgnu8CsAyYA1614u9U69fygunYbaBAXCAu4ByHMSDnAmsknudfXq+6YDxmGygQF4jn4DNmw1pt+4oSznnPw+C2KK9XXSAesw0UiAvEBeJqA9UGVrgNFIhX+AsY865a+yqVVm1gdbaBAnGBuNRQtYFqAyvcBgrEK/wFlIJZnQqmvrf63sZsAwXiAnGpoWoD1QZWuA0UiFf4Cxjzrlr7KpVWbWB1toECcYG41FC1gWoDK9wGCsQr/AWUglmdCqa+t/rexmwDBeICcamhagPVBla4DRSIV/gLGPOuWvsqlVZtYHW2gQJxgbjUULWBagMr3AYKxCv8BZSCWZ0Kpr63+t7GbAMF4gJxqaFqA9UGVrgNFIhX+AsY865a+yqVVm1gdbaBAnGBuNRQtYFqAyvcBoD4/+zHTzUd5j81AAAAAElFTkSuQmCC;" vertex="1" parent="1">
          <mxGeometry x="160" y="160" width="181.95" height="129" as="geometry" />
        </mxCell>
        <mxCell id="tWdphAtSzyCikmZwfdY_-3" value="" style="endArrow=classic;html=1;rounded=0;entryX=0;entryY=0.25;entryDx=0;entryDy=0;exitX=1;exitY=0.25;exitDx=0;exitDy=0;" edge="1" parent="1" source="tWdphAtSzyCikmZwfdY_-2" target="tWdphAtSzyCikmZwfdY_-1">
          <mxGeometry width="50" height="50" relative="1" as="geometry">
            <mxPoint x="340" y="200" as="sourcePoint" />
            <mxPoint x="390" y="150" as="targetPoint" />
          </mxGeometry>
        </mxCell>
        <mxCell id="tWdphAtSzyCikmZwfdY_-4" value="" style="endArrow=classic;html=1;rounded=0;entryX=1;entryY=0.75;entryDx=0;entryDy=0;exitX=0;exitY=0.75;exitDx=0;exitDy=0;" edge="1" parent="1">
          <mxGeometry width="50" height="50" relative="1" as="geometry">
            <mxPoint x="590" y="210" as="sourcePoint" />
            <mxPoint x="341.95000000000005" y="210" as="targetPoint" />
          </mxGeometry>
        </mxCell>
        <mxCell id="tWdphAtSzyCikmZwfdY_-5" value="Tx(Seria/Wifi)" style="text;html=1;align=center;verticalAlign=middle;whiteSpace=wrap;rounded=0;" vertex="1" parent="1">
          <mxGeometry x="440" y="170" width="60" height="30" as="geometry" />
        </mxCell>
        <mxCell id="tWdphAtSzyCikmZwfdY_-6" value="Rx(Seria/Wifi)" style="text;html=1;align=center;verticalAlign=middle;whiteSpace=wrap;rounded=0;" vertex="1" parent="1">
          <mxGeometry x="440" y="190" width="60" height="30" as="geometry" />
        </mxCell>
      </root>
    </mxGraphModel>
  </diagram>
</mxfile>
